<?xml version="1.0" encoding="utf-8" standalone="no"?>
<!DOCTYPE svg PUBLIC "-//W3C//DTD SVG 1.1//EN"
  "http://www.w3.org/Graphics/SVG/1.1/DTD/svg11.dtd">
<svg xmlns:xlink="http://www.w3.org/1999/xlink" width="410.796pt" height="317.806125pt" viewBox="0 0 410.796 317.806125" xmlns="http://www.w3.org/2000/svg" version="1.1">
 <metadata>
  <rdf:RDF xmlns:dc="http://purl.org/dc/elements/1.1/" xmlns:cc="http://creativecommons.org/ns#" xmlns:rdf="http://www.w3.org/1999/02/22-rdf-syntax-ns#">
   <cc:Work>
    <dc:type rdf:resource="http://purl.org/dc/dcmitype/StillImage"/>
    <dc:date>2026-05-16T21:05:10.426727</dc:date>
    <dc:format>image/svg+xml</dc:format>
    <dc:creator>
     <cc:Agent>
      <dc:title>Matplotlib v3.10.8, https://matplotlib.org/</dc:title>
     </cc:Agent>
    </dc:creator>
   </cc:Work>
  </rdf:RDF>
 </metadata>
 <defs>
  <style type="text/css">*{stroke-linejoin: round; stroke-linecap: butt}</style>
 </defs>
 <g id="figure_1">
  <g id="patch_1">
   <path d="M 0 317.806125 
L 410.796 317.806125 
L 410.796 0 
L 0 0 
z
" style="fill: #ffffff"/>
  </g>
  <g id="axes_1">
   <g id="patch_2">
    <path d="M 7.2 310.606125 
L 403.596 310.606125 
L 403.596 22.318125 
L 7.2 22.318125 
z
" style="fill: #ffffff"/>
   </g>
   <g id="patch_3">
    <path d="M 206.030346 164.565088 
Q 223.416146 112.407687 239.953418 62.795871 
" clip-path="url(#p165b0e351f)" style="fill: none; stroke: #444444; stroke-width: 2.4; stroke-linecap: round"/>
    <path d="M 235.210002 67.539287 
L 239.953418 62.795871 
L 240.902101 69.436654 
z
" clip-path="url(#p165b0e351f)" style="fill: #444444; stroke: #444444; stroke-width: 2.4; stroke-linecap: round"/>
   </g>
   <g id="matplotlib.axis_1"/>
   <g id="matplotlib.axis_2"/>
   <g id="line2d_1">
    <path d="M 7.2 166.462125 
L 403.596 166.462125 
" clip-path="url(#p165b0e351f)" style="fill: none; stroke: #bbbbbb; stroke-width: 0.7; stroke-linecap: square"/>
   </g>
   <g id="line2d_2">
    <path d="M 205.398 310.606125 
L 205.398 22.318125 
" clip-path="url(#p165b0e351f)" style="fill: none; stroke: #bbbbbb; stroke-width: 0.7; stroke-linecap: square"/>
   </g>
   <g id="line2d_3">
    <path d="M 80.89 318.806125 
L 385.578 166.462125 
" clip-path="url(#p165b0e351f)" style="fill: none; stroke: #7a3a8f; stroke-opacity: 0.55; stroke-width: 1.6; stroke-linecap: square"/>
   </g>
   <g id="line2d_4">
    <path d="M 25.218 310.606125 
L 385.578 130.426125 
" clip-path="url(#p165b0e351f)" style="fill: none; stroke: #7a3a8f; stroke-opacity: 0.55; stroke-width: 1.6; stroke-linecap: square"/>
   </g>
   <g id="line2d_5">
    <path d="M 25.218 202.498125 
L 385.578 22.318125 
" clip-path="url(#p165b0e351f)" style="fill: none; stroke: #7a3a8f; stroke-opacity: 0.55; stroke-width: 1.6; stroke-linecap: square"/>
   </g>
   <g id="line2d_6">
    <path d="M 25.218 166.462125 
L 360.14225 -1 
" clip-path="url(#p165b0e351f)" style="fill: none; stroke: #7a3a8f; stroke-opacity: 0.55; stroke-width: 1.6; stroke-linecap: square"/>
   </g>
   <g id="line2d_7">
    <path d="M 25.218 256.552125 
L 385.578 76.372125 
" clip-path="url(#p165b0e351f)" style="fill: none; stroke: #2a4d8f; stroke-width: 2.5; stroke-linecap: square"/>
   </g>
   <g id="line2d_8">
    <defs>
     <path id="m200b605e1c" d="M 0 2.5 
C 0.663008 2.5 1.29895 2.236584 1.767767 1.767767 
C 2.236584 1.29895 2.5 0.663008 2.5 0 
C 2.5 -0.663008 2.236584 -1.29895 1.767767 -1.767767 
C 1.29895 -2.236584 0.663008 -2.5 0 -2.5 
C -0.663008 -2.5 -1.29895 -2.236584 -1.767767 -1.767767 
C -2.236584 -1.29895 -2.5 -0.663008 -2.5 0 
C -2.5 0.663008 -2.236584 1.29895 -1.767767 1.767767 
C -1.29895 2.236584 -0.663008 2.5 0 2.5 
z
" style="stroke: #444444"/>
    </defs>
    <g clip-path="url(#p165b0e351f)">
     <use xlink:href="#m200b605e1c" x="241.434" y="58.354125" style="fill: #444444; stroke: #444444"/>
    </g>
   </g>
   <g id="line2d_9">
    <defs>
     <path id="m80ff938ee2" d="M 0 2.5 
C 0.663008 2.5 1.29895 2.236584 1.767767 1.767767 
C 2.236584 1.29895 2.5 0.663008 2.5 0 
C 2.5 -0.663008 2.236584 -1.29895 1.767767 -1.767767 
C 1.29895 -2.236584 0.663008 -2.5 0 -2.5 
C -0.663008 -2.5 -1.29895 -2.236584 -1.767767 -1.767767 
C -2.236584 -1.29895 -2.5 -0.663008 -2.5 0 
C -2.5 0.663008 -2.236584 1.29895 -1.767767 1.767767 
C -1.29895 2.236584 -0.663008 2.5 0 2.5 
z
" style="stroke: #222222"/>
    </defs>
    <g clip-path="url(#p165b0e351f)">
     <use xlink:href="#m80ff938ee2" x="205.398" y="166.462125" style="fill: #222222; stroke: #222222"/>
    </g>
   </g>
   <g id="patch_4">
    <path d="M 7.2 310.606125 
L 7.2 22.318125 
" style="fill: none; stroke: #dddddd; stroke-width: 0.8; stroke-linejoin: miter; stroke-linecap: square"/>
   </g>
   <g id="patch_5">
    <path d="M 403.596 310.606125 
L 403.596 22.318125 
" style="fill: none; stroke: #dddddd; stroke-width: 0.8; stroke-linejoin: miter; stroke-linecap: square"/>
   </g>
   <g id="patch_6">
    <path d="M 7.2 310.606125 
L 403.596 310.606125 
" style="fill: none; stroke: #dddddd; stroke-width: 0.8; stroke-linejoin: miter; stroke-linecap: square"/>
   </g>
   <g id="patch_7">
    <path d="M 7.2 22.318125 
L 403.596 22.318125 
" style="fill: none; stroke: #dddddd; stroke-width: 0.8; stroke-linejoin: miter; stroke-linecap: square"/>
   </g>
   <g id="text_1">
    <!-- U -->
    <g style="fill: #2a4d8f" transform="translate(39.6324 256.552125) scale(0.14 -0.14)">
     <defs>
      <path id="DejaVuSans-Oblique-55" d="M 991 4666 
L 1625 4666 
L 1075 1831 
Q 1041 1641 1027 1517 
Q 1013 1394 1013 1300 
Q 1013 869 1253 645 
Q 1494 422 1959 422 
Q 2563 422 2898 753 
Q 3234 1084 3378 1831 
L 3928 4666 
L 4563 4666 
L 4000 1753 
Q 3816 809 3300 359 
Q 2784 -91 1888 -91 
Q 1188 -91 780 261 
Q 372 613 372 1216 
Q 372 1325 387 1461 
Q 403 1597 434 1753 
L 991 4666 
z
" transform="scale(0.015625)"/>
     </defs>
     <use xlink:href="#DejaVuSans-Oblique-55"/>
    </g>
   </g>
   <g id="text_2">
    <!-- v -->
    <g style="fill: #444444" transform="translate(221.6142 78.173925) scale(0.13 -0.13)">
     <defs>
      <path id="DejaVuSans-Oblique-76" d="M 459 3500 
L 1069 3500 
L 1581 525 
L 3256 3500 
L 3866 3500 
L 1875 0 
L 1100 0 
L 459 3500 
z
" transform="scale(0.015625)"/>
     </defs>
     <use xlink:href="#DejaVuSans-Oblique-76"/>
    </g>
   </g>
   <g id="text_3">
    <!-- v + U -->
    <g style="fill: #7a3a8f" transform="translate(75.6684 132.227925) rotate(-26.5) scale(0.12 -0.12)">
     <defs>
      <path id="DejaVuSans-Oblique-20" transform="scale(0.015625)"/>
      <path id="DejaVuSans-Oblique-2b" d="M 2944 4013 
L 2944 2272 
L 4684 2272 
L 4684 1741 
L 2944 1741 
L 2944 0 
L 2419 0 
L 2419 1741 
L 678 1741 
L 678 2272 
L 2419 2272 
L 2419 4013 
L 2944 4013 
z
" transform="scale(0.015625)"/>
     </defs>
     <use xlink:href="#DejaVuSans-Oblique-76"/>
     <use xlink:href="#DejaVuSans-Oblique-20" transform="translate(59.179688 0)"/>
     <use xlink:href="#DejaVuSans-Oblique-2b" transform="translate(90.966797 0)"/>
     <use xlink:href="#DejaVuSans-Oblique-20" transform="translate(174.755859 0)"/>
     <use xlink:href="#DejaVuSans-Oblique-55" transform="translate(206.542969 0)"/>
    </g>
   </g>
   <g id="text_4">
    <!-- w + U -->
    <g style="fill: #7a3a8f; opacity: 0.7" transform="translate(75.6684 276.371925) rotate(-26.5) scale(0.12 -0.12)">
     <defs>
      <path id="DejaVuSans-Oblique-77" d="M 544 3500 
L 1113 3500 
L 1259 684 
L 2566 3500 
L 3231 3500 
L 3425 684 
L 4666 3500 
L 5241 3500 
L 3641 0 
L 2969 0 
L 2797 2900 
L 1459 0 
L 781 0 
L 544 3500 
z
" transform="scale(0.015625)"/>
     </defs>
     <use xlink:href="#DejaVuSans-Oblique-77"/>
     <use xlink:href="#DejaVuSans-Oblique-20" transform="translate(81.787109 0)"/>
     <use xlink:href="#DejaVuSans-Oblique-2b" transform="translate(113.574219 0)"/>
     <use xlink:href="#DejaVuSans-Oblique-20" transform="translate(197.363281 0)"/>
     <use xlink:href="#DejaVuSans-Oblique-55" transform="translate(229.150391 0)"/>
    </g>
   </g>
   <g id="text_5">
    <!-- 0 -->
    <g style="fill: #222222" transform="translate(185.5782 186.281925) scale(0.11 -0.11)">
     <defs>
      <path id="DejaVuSans-30" d="M 2034 4250 
Q 1547 4250 1301 3770 
Q 1056 3291 1056 2328 
Q 1056 1369 1301 889 
Q 1547 409 2034 409 
Q 2525 409 2770 889 
Q 3016 1369 3016 2328 
Q 3016 3291 2770 3770 
Q 2525 4250 2034 4250 
z
M 2034 4750 
Q 2819 4750 3233 4129 
Q 3647 3509 3647 2328 
Q 3647 1150 3233 529 
Q 2819 -91 2034 -91 
Q 1250 -91 836 529 
Q 422 1150 422 2328 
Q 422 3509 836 4129 
Q 1250 4750 2034 4750 
z
" transform="scale(0.015625)"/>
     </defs>
     <use xlink:href="#DejaVuSans-30"/>
    </g>
   </g>
   <g id="text_6">
    <!-- v ∼ v'   ⇔   v − v' ∈ U   ⇔   v and v' lie on the same parallel line -->
    <g style="fill: #444444" transform="translate(38.548078 296.191725) scale(0.105 -0.105)">
     <defs>
      <path id="DejaVuSans-76" d="M 191 3500 
L 800 3500 
L 1894 563 
L 2988 3500 
L 3597 3500 
L 2284 0 
L 1503 0 
L 191 3500 
z
" transform="scale(0.015625)"/>
      <path id="DejaVuSans-20" transform="scale(0.015625)"/>
      <path id="DejaVuSans-223c" d="M 4684 2556 
L 4684 1997 
Q 4356 1753 4076 1645 
Q 3797 1538 3494 1538 
Q 3150 1538 2694 1722 
Q 2663 1734 2641 1744 
Q 2622 1750 2575 1769 
Q 2091 1959 1797 1959 
Q 1522 1959 1253 1840 
Q 984 1722 678 1459 
L 678 2019 
Q 1006 2263 1286 2370 
Q 1566 2478 1869 2478 
Q 2213 2478 2672 2294 
Q 2706 2278 2722 2272 
Q 2741 2266 2788 2247 
Q 3272 2056 3566 2056 
Q 3834 2056 4098 2173 
Q 4363 2291 4684 2556 
z
" transform="scale(0.015625)"/>
      <path id="DejaVuSans-27" d="M 1147 4666 
L 1147 2931 
L 616 2931 
L 616 4666 
L 1147 4666 
z
" transform="scale(0.015625)"/>
      <path id="DejaVuSans-21d4" d="M 1250 1678 
L 4113 1678 
L 4441 2006 
L 4113 2334 
L 1250 2334 
L 922 2006 
L 1250 1678 
z
M 3738 1303 
L 1625 1303 
L 1916 1013 
L 1541 638 
L 313 1866 
L 313 2147 
L 1541 3375 
L 1916 3000 
L 1625 2709 
L 3738 2709 
L 3447 3000 
L 3822 3375 
L 5050 2147 
L 5050 1866 
L 3822 638 
L 3447 1013 
L 3738 1303 
z
" transform="scale(0.015625)"/>
      <path id="DejaVuSans-2212" d="M 678 2272 
L 4684 2272 
L 4684 1741 
L 678 1741 
L 678 2272 
z
" transform="scale(0.015625)"/>
      <path id="DejaVuSans-2208" d="M 1072 1959 
Q 1094 1728 1291 1353 
Q 1522 919 1959 675 
Q 2388 438 2850 434 
L 5028 434 
L 5028 -63 
L 2850 -63 
Q 2250 -63 1695 246 
Q 1141 556 844 1106 
Q 547 1656 547 2241 
Q 547 2819 844 3369 
Q 1141 3919 1695 4231 
Q 2250 4544 2850 4544 
L 5028 4544 
L 5028 4047 
L 2850 4047 
Q 2388 4044 1959 3803 
Q 1525 3556 1291 3125 
Q 1091 2750 1063 2459 
L 5028 2459 
L 5028 1959 
L 1072 1959 
z
" transform="scale(0.015625)"/>
      <path id="DejaVuSans-55" d="M 556 4666 
L 1191 4666 
L 1191 1831 
Q 1191 1081 1462 751 
Q 1734 422 2344 422 
Q 2950 422 3222 751 
Q 3494 1081 3494 1831 
L 3494 4666 
L 4128 4666 
L 4128 1753 
Q 4128 841 3676 375 
Q 3225 -91 2344 -91 
Q 1459 -91 1007 375 
Q 556 841 556 1753 
L 556 4666 
z
" transform="scale(0.015625)"/>
      <path id="DejaVuSans-61" d="M 2194 1759 
Q 1497 1759 1228 1600 
Q 959 1441 959 1056 
Q 959 750 1161 570 
Q 1363 391 1709 391 
Q 2188 391 2477 730 
Q 2766 1069 2766 1631 
L 2766 1759 
L 2194 1759 
z
M 3341 1997 
L 3341 0 
L 2766 0 
L 2766 531 
Q 2569 213 2275 61 
Q 1981 -91 1556 -91 
Q 1019 -91 701 211 
Q 384 513 384 1019 
Q 384 1609 779 1909 
Q 1175 2209 1959 2209 
L 2766 2209 
L 2766 2266 
Q 2766 2663 2505 2880 
Q 2244 3097 1772 3097 
Q 1472 3097 1187 3025 
Q 903 2953 641 2809 
L 641 3341 
Q 956 3463 1253 3523 
Q 1550 3584 1831 3584 
Q 2591 3584 2966 3190 
Q 3341 2797 3341 1997 
z
" transform="scale(0.015625)"/>
      <path id="DejaVuSans-6e" d="M 3513 2113 
L 3513 0 
L 2938 0 
L 2938 2094 
Q 2938 2591 2744 2837 
Q 2550 3084 2163 3084 
Q 1697 3084 1428 2787 
Q 1159 2491 1159 1978 
L 1159 0 
L 581 0 
L 581 3500 
L 1159 3500 
L 1159 2956 
Q 1366 3272 1645 3428 
Q 1925 3584 2291 3584 
Q 2894 3584 3203 3211 
Q 3513 2838 3513 2113 
z
" transform="scale(0.015625)"/>
      <path id="DejaVuSans-64" d="M 2906 2969 
L 2906 4863 
L 3481 4863 
L 3481 0 
L 2906 0 
L 2906 525 
Q 2725 213 2448 61 
Q 2172 -91 1784 -91 
Q 1150 -91 751 415 
Q 353 922 353 1747 
Q 353 2572 751 3078 
Q 1150 3584 1784 3584 
Q 2172 3584 2448 3432 
Q 2725 3281 2906 2969 
z
M 947 1747 
Q 947 1113 1208 752 
Q 1469 391 1925 391 
Q 2381 391 2643 752 
Q 2906 1113 2906 1747 
Q 2906 2381 2643 2742 
Q 2381 3103 1925 3103 
Q 1469 3103 1208 2742 
Q 947 2381 947 1747 
z
" transform="scale(0.015625)"/>
      <path id="DejaVuSans-6c" d="M 603 4863 
L 1178 4863 
L 1178 0 
L 603 0 
L 603 4863 
z
" transform="scale(0.015625)"/>
      <path id="DejaVuSans-69" d="M 603 3500 
L 1178 3500 
L 1178 0 
L 603 0 
L 603 3500 
z
M 603 4863 
L 1178 4863 
L 1178 4134 
L 603 4134 
L 603 4863 
z
" transform="scale(0.015625)"/>
      <path id="DejaVuSans-65" d="M 3597 1894 
L 3597 1613 
L 953 1613 
Q 991 1019 1311 708 
Q 1631 397 2203 397 
Q 2534 397 2845 478 
Q 3156 559 3463 722 
L 3463 178 
Q 3153 47 2828 -22 
Q 2503 -91 2169 -91 
Q 1331 -91 842 396 
Q 353 884 353 1716 
Q 353 2575 817 3079 
Q 1281 3584 2069 3584 
Q 2775 3584 3186 3129 
Q 3597 2675 3597 1894 
z
M 3022 2063 
Q 3016 2534 2758 2815 
Q 2500 3097 2075 3097 
Q 1594 3097 1305 2825 
Q 1016 2553 972 2059 
L 3022 2063 
z
" transform="scale(0.015625)"/>
      <path id="DejaVuSans-6f" d="M 1959 3097 
Q 1497 3097 1228 2736 
Q 959 2375 959 1747 
Q 959 1119 1226 758 
Q 1494 397 1959 397 
Q 2419 397 2687 759 
Q 2956 1122 2956 1747 
Q 2956 2369 2687 2733 
Q 2419 3097 1959 3097 
z
M 1959 3584 
Q 2709 3584 3137 3096 
Q 3566 2609 3566 1747 
Q 3566 888 3137 398 
Q 2709 -91 1959 -91 
Q 1206 -91 779 398 
Q 353 888 353 1747 
Q 353 2609 779 3096 
Q 1206 3584 1959 3584 
z
" transform="scale(0.015625)"/>
      <path id="DejaVuSans-74" d="M 1172 4494 
L 1172 3500 
L 2356 3500 
L 2356 3053 
L 1172 3053 
L 1172 1153 
Q 1172 725 1289 603 
Q 1406 481 1766 481 
L 2356 481 
L 2356 0 
L 1766 0 
Q 1100 0 847 248 
Q 594 497 594 1153 
L 594 3053 
L 172 3053 
L 172 3500 
L 594 3500 
L 594 4494 
L 1172 4494 
z
" transform="scale(0.015625)"/>
      <path id="DejaVuSans-68" d="M 3513 2113 
L 3513 0 
L 2938 0 
L 2938 2094 
Q 2938 2591 2744 2837 
Q 2550 3084 2163 3084 
Q 1697 3084 1428 2787 
Q 1159 2491 1159 1978 
L 1159 0 
L 581 0 
L 581 4863 
L 1159 4863 
L 1159 2956 
Q 1366 3272 1645 3428 
Q 1925 3584 2291 3584 
Q 2894 3584 3203 3211 
Q 3513 2838 3513 2113 
z
" transform="scale(0.015625)"/>
      <path id="DejaVuSans-73" d="M 2834 3397 
L 2834 2853 
Q 2591 2978 2328 3040 
Q 2066 3103 1784 3103 
Q 1356 3103 1142 2972 
Q 928 2841 928 2578 
Q 928 2378 1081 2264 
Q 1234 2150 1697 2047 
L 1894 2003 
Q 2506 1872 2764 1633 
Q 3022 1394 3022 966 
Q 3022 478 2636 193 
Q 2250 -91 1575 -91 
Q 1294 -91 989 -36 
Q 684 19 347 128 
L 347 722 
Q 666 556 975 473 
Q 1284 391 1588 391 
Q 1994 391 2212 530 
Q 2431 669 2431 922 
Q 2431 1156 2273 1281 
Q 2116 1406 1581 1522 
L 1381 1569 
Q 847 1681 609 1914 
Q 372 2147 372 2553 
Q 372 3047 722 3315 
Q 1072 3584 1716 3584 
Q 2034 3584 2315 3537 
Q 2597 3491 2834 3397 
z
" transform="scale(0.015625)"/>
      <path id="DejaVuSans-6d" d="M 3328 2828 
Q 3544 3216 3844 3400 
Q 4144 3584 4550 3584 
Q 5097 3584 5394 3201 
Q 5691 2819 5691 2113 
L 5691 0 
L 5113 0 
L 5113 2094 
Q 5113 2597 4934 2840 
Q 4756 3084 4391 3084 
Q 3944 3084 3684 2787 
Q 3425 2491 3425 1978 
L 3425 0 
L 2847 0 
L 2847 2094 
Q 2847 2600 2669 2842 
Q 2491 3084 2119 3084 
Q 1678 3084 1418 2786 
Q 1159 2488 1159 1978 
L 1159 0 
L 581 0 
L 581 3500 
L 1159 3500 
L 1159 2956 
Q 1356 3278 1631 3431 
Q 1906 3584 2284 3584 
Q 2666 3584 2933 3390 
Q 3200 3197 3328 2828 
z
" transform="scale(0.015625)"/>
      <path id="DejaVuSans-70" d="M 1159 525 
L 1159 -1331 
L 581 -1331 
L 581 3500 
L 1159 3500 
L 1159 2969 
Q 1341 3281 1617 3432 
Q 1894 3584 2278 3584 
Q 2916 3584 3314 3078 
Q 3713 2572 3713 1747 
Q 3713 922 3314 415 
Q 2916 -91 2278 -91 
Q 1894 -91 1617 61 
Q 1341 213 1159 525 
z
M 3116 1747 
Q 3116 2381 2855 2742 
Q 2594 3103 2138 3103 
Q 1681 3103 1420 2742 
Q 1159 2381 1159 1747 
Q 1159 1113 1420 752 
Q 1681 391 2138 391 
Q 2594 391 2855 752 
Q 3116 1113 3116 1747 
z
" transform="scale(0.015625)"/>
      <path id="DejaVuSans-72" d="M 2631 2963 
Q 2534 3019 2420 3045 
Q 2306 3072 2169 3072 
Q 1681 3072 1420 2755 
Q 1159 2438 1159 1844 
L 1159 0 
L 581 0 
L 581 3500 
L 1159 3500 
L 1159 2956 
Q 1341 3275 1631 3429 
Q 1922 3584 2338 3584 
Q 2397 3584 2469 3576 
Q 2541 3569 2628 3553 
L 2631 2963 
z
" transform="scale(0.015625)"/>
     </defs>
     <use xlink:href="#DejaVuSans-76"/>
     <use xlink:href="#DejaVuSans-20" transform="translate(59.179688 0)"/>
     <use xlink:href="#DejaVuSans-223c" transform="translate(90.966797 0)"/>
     <use xlink:href="#DejaVuSans-20" transform="translate(174.755859 0)"/>
     <use xlink:href="#DejaVuSans-76" transform="translate(206.542969 0)"/>
     <use xlink:href="#DejaVuSans-27" transform="translate(265.722656 0)"/>
     <use xlink:href="#DejaVuSans-20" transform="translate(293.212891 0)"/>
     <use xlink:href="#DejaVuSans-20" transform="translate(325 0)"/>
     <use xlink:href="#DejaVuSans-20" transform="translate(356.787109 0)"/>
     <use xlink:href="#DejaVuSans-21d4" transform="translate(388.574219 0)"/>
     <use xlink:href="#DejaVuSans-20" transform="translate(472.363281 0)"/>
     <use xlink:href="#DejaVuSans-20" transform="translate(504.150391 0)"/>
     <use xlink:href="#DejaVuSans-20" transform="translate(535.9375 0)"/>
     <use xlink:href="#DejaVuSans-76" transform="translate(567.724609 0)"/>
     <use xlink:href="#DejaVuSans-20" transform="translate(626.904297 0)"/>
     <use xlink:href="#DejaVuSans-2212" transform="translate(658.691406 0)"/>
     <use xlink:href="#DejaVuSans-20" transform="translate(742.480469 0)"/>
     <use xlink:href="#DejaVuSans-76" transform="translate(774.267578 0)"/>
     <use xlink:href="#DejaVuSans-27" transform="translate(833.447266 0)"/>
     <use xlink:href="#DejaVuSans-20" transform="translate(860.9375 0)"/>
     <use xlink:href="#DejaVuSans-2208" transform="translate(892.724609 0)"/>
     <use xlink:href="#DejaVuSans-20" transform="translate(979.833984 0)"/>
     <use xlink:href="#DejaVuSans-55" transform="translate(1011.621094 0)"/>
     <use xlink:href="#DejaVuSans-20" transform="translate(1084.814453 0)"/>
     <use xlink:href="#DejaVuSans-20" transform="translate(1116.601562 0)"/>
     <use xlink:href="#DejaVuSans-20" transform="translate(1148.388672 0)"/>
     <use xlink:href="#DejaVuSans-21d4" transform="translate(1180.175781 0)"/>
     <use xlink:href="#DejaVuSans-20" transform="translate(1263.964844 0)"/>
     <use xlink:href="#DejaVuSans-20" transform="translate(1295.751953 0)"/>
     <use xlink:href="#DejaVuSans-20" transform="translate(1327.539062 0)"/>
     <use xlink:href="#DejaVuSans-76" transform="translate(1359.326172 0)"/>
     <use xlink:href="#DejaVuSans-20" transform="translate(1418.505859 0)"/>
     <use xlink:href="#DejaVuSans-61" transform="translate(1450.292969 0)"/>
     <use xlink:href="#DejaVuSans-6e" transform="translate(1511.572266 0)"/>
     <use xlink:href="#DejaVuSans-64" transform="translate(1574.951172 0)"/>
     <use xlink:href="#DejaVuSans-20" transform="translate(1638.427734 0)"/>
     <use xlink:href="#DejaVuSans-76" transform="translate(1670.214844 0)"/>
     <use xlink:href="#DejaVuSans-27" transform="translate(1729.394531 0)"/>
     <use xlink:href="#DejaVuSans-20" transform="translate(1756.884766 0)"/>
     <use xlink:href="#DejaVuSans-6c" transform="translate(1788.671875 0)"/>
     <use xlink:href="#DejaVuSans-69" transform="translate(1816.455078 0)"/>
     <use xlink:href="#DejaVuSans-65" transform="translate(1844.238281 0)"/>
     <use xlink:href="#DejaVuSans-20" transform="translate(1905.761719 0)"/>
     <use xlink:href="#DejaVuSans-6f" transform="translate(1937.548828 0)"/>
     <use xlink:href="#DejaVuSans-6e" transform="translate(1998.730469 0)"/>
     <use xlink:href="#DejaVuSans-20" transform="translate(2062.109375 0)"/>
     <use xlink:href="#DejaVuSans-74" transform="translate(2093.896484 0)"/>
     <use xlink:href="#DejaVuSans-68" transform="translate(2133.105469 0)"/>
     <use xlink:href="#DejaVuSans-65" transform="translate(2196.484375 0)"/>
     <use xlink:href="#DejaVuSans-20" transform="translate(2258.007812 0)"/>
     <use xlink:href="#DejaVuSans-73" transform="translate(2289.794922 0)"/>
     <use xlink:href="#DejaVuSans-61" transform="translate(2341.894531 0)"/>
     <use xlink:href="#DejaVuSans-6d" transform="translate(2403.173828 0)"/>
     <use xlink:href="#DejaVuSans-65" transform="translate(2500.585938 0)"/>
     <use xlink:href="#DejaVuSans-20" transform="translate(2562.109375 0)"/>
     <use xlink:href="#DejaVuSans-70" transform="translate(2593.896484 0)"/>
     <use xlink:href="#DejaVuSans-61" transform="translate(2657.373047 0)"/>
     <use xlink:href="#DejaVuSans-72" transform="translate(2718.652344 0)"/>
     <use xlink:href="#DejaVuSans-61" transform="translate(2759.765625 0)"/>
     <use xlink:href="#DejaVuSans-6c" transform="translate(2821.044922 0)"/>
     <use xlink:href="#DejaVuSans-6c" transform="translate(2848.828125 0)"/>
     <use xlink:href="#DejaVuSans-65" transform="translate(2876.611328 0)"/>
     <use xlink:href="#DejaVuSans-6c" transform="translate(2938.134766 0)"/>
     <use xlink:href="#DejaVuSans-20" transform="translate(2965.917969 0)"/>
     <use xlink:href="#DejaVuSans-6c" transform="translate(2997.705078 0)"/>
     <use xlink:href="#DejaVuSans-69" transform="translate(3025.488281 0)"/>
     <use xlink:href="#DejaVuSans-6e" transform="translate(3053.271484 0)"/>
     <use xlink:href="#DejaVuSans-65" transform="translate(3116.650391 0)"/>
    </g>
   </g>
   <g id="text_7">
    <!-- cosets v + U : parallel translates of the subspace U -->
    <g transform="translate(51.452063 16.318125) scale(0.12 -0.12)">
     <defs>
      <path id="DejaVuSans-Oblique-63" d="M 3431 3366 
L 3316 2797 
Q 3109 2947 2876 3022 
Q 2644 3097 2394 3097 
Q 2119 3097 1870 3000 
Q 1622 2903 1453 2725 
Q 1184 2453 1037 2087 
Q 891 1722 891 1331 
Q 891 859 1127 628 
Q 1363 397 1844 397 
Q 2081 397 2348 469 
Q 2616 541 2906 684 
L 2797 116 
Q 2547 13 2283 -39 
Q 2019 -91 1741 -91 
Q 1044 -91 669 257 
Q 294 606 294 1253 
Q 294 1797 489 2255 
Q 684 2713 1069 3078 
Q 1331 3328 1684 3456 
Q 2038 3584 2456 3584 
Q 2700 3584 2940 3529 
Q 3181 3475 3431 3366 
z
" transform="scale(0.015625)"/>
      <path id="DejaVuSans-Oblique-6f" d="M 1625 -91 
Q 1009 -91 651 289 
Q 294 669 294 1325 
Q 294 1706 417 2101 
Q 541 2497 738 2766 
Q 1047 3184 1428 3384 
Q 1809 3584 2291 3584 
Q 2888 3584 3255 3212 
Q 3622 2841 3622 2241 
Q 3622 1825 3500 1412 
Q 3378 1000 3181 728 
Q 2875 309 2494 109 
Q 2113 -91 1625 -91 
z
M 891 1344 
Q 891 869 1089 633 
Q 1288 397 1691 397 
Q 2269 397 2648 901 
Q 3028 1406 3028 2181 
Q 3028 2634 2825 2865 
Q 2622 3097 2228 3097 
Q 1903 3097 1650 2945 
Q 1397 2794 1197 2484 
Q 1050 2253 970 1956 
Q 891 1659 891 1344 
z
" transform="scale(0.015625)"/>
      <path id="DejaVuSans-Oblique-73" d="M 3200 3397 
L 3091 2853 
Q 2863 2978 2609 3040 
Q 2356 3103 2088 3103 
Q 1634 3103 1373 2948 
Q 1113 2794 1113 2528 
Q 1113 2219 1719 2053 
Q 1766 2041 1788 2034 
L 1972 1978 
Q 2547 1819 2739 1644 
Q 2931 1469 2931 1166 
Q 2931 609 2489 259 
Q 2047 -91 1331 -91 
Q 1053 -91 747 -37 
Q 441 16 72 128 
L 184 722 
Q 500 559 806 475 
Q 1113 391 1394 391 
Q 1816 391 2080 572 
Q 2344 753 2344 1031 
Q 2344 1331 1650 1516 
L 1591 1531 
L 1394 1581 
Q 956 1697 753 1886 
Q 550 2075 550 2369 
Q 550 2928 970 3256 
Q 1391 3584 2113 3584 
Q 2397 3584 2667 3537 
Q 2938 3491 3200 3397 
z
" transform="scale(0.015625)"/>
      <path id="DejaVuSans-Oblique-65" d="M 3078 2063 
Q 3088 2113 3092 2166 
Q 3097 2219 3097 2272 
Q 3097 2653 2873 2875 
Q 2650 3097 2266 3097 
Q 1838 3097 1509 2826 
Q 1181 2556 1013 2059 
L 3078 2063 
z
M 3578 1613 
L 903 1613 
Q 884 1494 878 1425 
Q 872 1356 872 1306 
Q 872 872 1139 634 
Q 1406 397 1894 397 
Q 2269 397 2603 481 
Q 2938 566 3225 728 
L 3116 159 
Q 2806 34 2476 -28 
Q 2147 -91 1806 -91 
Q 1078 -91 686 257 
Q 294 606 294 1247 
Q 294 1794 489 2264 
Q 684 2734 1063 3103 
Q 1306 3334 1642 3459 
Q 1978 3584 2356 3584 
Q 2950 3584 3301 3228 
Q 3653 2872 3653 2272 
Q 3653 2128 3634 1964 
Q 3616 1800 3578 1613 
z
" transform="scale(0.015625)"/>
      <path id="DejaVuSans-Oblique-74" d="M 2706 3500 
L 2619 3053 
L 1472 3053 
L 1100 1153 
Q 1081 1047 1072 975 
Q 1063 903 1063 863 
Q 1063 663 1183 572 
Q 1303 481 1569 481 
L 2150 481 
L 2053 0 
L 1503 0 
Q 991 0 739 200 
Q 488 400 488 806 
Q 488 878 497 964 
Q 506 1050 525 1153 
L 897 3053 
L 409 3053 
L 500 3500 
L 978 3500 
L 1172 4494 
L 1747 4494 
L 1556 3500 
L 2706 3500 
z
" transform="scale(0.015625)"/>
      <path id="DejaVuSans-Oblique-3a" d="M 978 3309 
L 1638 3309 
L 1484 2516 
L 825 2516 
L 978 3309 
z
M 488 794 
L 1147 794 
L 991 0 
L 331 0 
L 488 794 
z
" transform="scale(0.015625)"/>
      <path id="DejaVuSans-Oblique-70" d="M 3175 2156 
Q 3175 2616 2975 2859 
Q 2775 3103 2400 3103 
Q 2144 3103 1911 2972 
Q 1678 2841 1497 2591 
Q 1319 2344 1212 1994 
Q 1106 1644 1106 1300 
Q 1106 863 1306 627 
Q 1506 391 1875 391 
Q 2147 391 2380 519 
Q 2613 647 2778 891 
Q 2956 1147 3065 1494 
Q 3175 1841 3175 2156 
z
M 1394 2969 
Q 1625 3272 1939 3428 
Q 2253 3584 2638 3584 
Q 3175 3584 3472 3232 
Q 3769 2881 3769 2247 
Q 3769 1728 3584 1258 
Q 3400 788 3053 416 
Q 2822 169 2531 39 
Q 2241 -91 1919 -91 
Q 1547 -91 1294 64 
Q 1041 219 916 525 
L 556 -1331 
L -19 -1331 
L 922 3500 
L 1497 3500 
L 1394 2969 
z
" transform="scale(0.015625)"/>
      <path id="DejaVuSans-Oblique-61" d="M 3438 1997 
L 3047 0 
L 2472 0 
L 2578 531 
Q 2325 219 2001 64 
Q 1678 -91 1281 -91 
Q 834 -91 548 182 
Q 263 456 263 884 
Q 263 1497 752 1853 
Q 1241 2209 2100 2209 
L 2900 2209 
L 2931 2363 
Q 2938 2388 2941 2417 
Q 2944 2447 2944 2509 
Q 2944 2788 2717 2942 
Q 2491 3097 2081 3097 
Q 1800 3097 1504 3025 
Q 1209 2953 897 2809 
L 997 3341 
Q 1322 3463 1633 3523 
Q 1944 3584 2234 3584 
Q 2853 3584 3176 3315 
Q 3500 3047 3500 2534 
Q 3500 2431 3484 2292 
Q 3469 2153 3438 1997 
z
M 2816 1759 
L 2241 1759 
Q 1534 1759 1195 1570 
Q 856 1381 856 984 
Q 856 709 1029 553 
Q 1203 397 1509 397 
Q 1978 397 2328 733 
Q 2678 1069 2791 1631 
L 2816 1759 
z
" transform="scale(0.015625)"/>
      <path id="DejaVuSans-Oblique-72" d="M 2853 2969 
Q 2766 3016 2653 3041 
Q 2541 3066 2413 3066 
Q 1953 3066 1609 2717 
Q 1266 2369 1153 1784 
L 800 0 
L 225 0 
L 909 3500 
L 1484 3500 
L 1375 2956 
Q 1603 3259 1920 3421 
Q 2238 3584 2597 3584 
Q 2691 3584 2781 3573 
Q 2872 3563 2963 3538 
L 2853 2969 
z
" transform="scale(0.015625)"/>
      <path id="DejaVuSans-Oblique-6c" d="M 1172 4863 
L 1747 4863 
L 800 0 
L 225 0 
L 1172 4863 
z
" transform="scale(0.015625)"/>
      <path id="DejaVuSans-Oblique-6e" d="M 3566 2113 
L 3156 0 
L 2578 0 
L 2988 2091 
Q 3016 2238 3031 2350 
Q 3047 2463 3047 2528 
Q 3047 2791 2881 2937 
Q 2716 3084 2419 3084 
Q 1956 3084 1622 2776 
Q 1288 2469 1184 1941 
L 800 0 
L 225 0 
L 903 3500 
L 1478 3500 
L 1363 2950 
Q 1603 3253 1940 3418 
Q 2278 3584 2650 3584 
Q 3113 3584 3367 3334 
Q 3622 3084 3622 2631 
Q 3622 2519 3608 2391 
Q 3594 2263 3566 2113 
z
" transform="scale(0.015625)"/>
      <path id="DejaVuSans-Oblique-66" d="M 3059 4863 
L 2969 4384 
L 2419 4384 
Q 2106 4384 1964 4261 
Q 1822 4138 1753 3809 
L 1691 3500 
L 2638 3500 
L 2553 3053 
L 1606 3053 
L 1013 0 
L 434 0 
L 1031 3053 
L 481 3053 
L 563 3500 
L 1113 3500 
L 1159 3744 
Q 1278 4363 1576 4613 
Q 1875 4863 2516 4863 
L 3059 4863 
z
" transform="scale(0.015625)"/>
      <path id="DejaVuSans-Oblique-68" d="M 3566 2113 
L 3156 0 
L 2578 0 
L 2988 2091 
Q 3016 2238 3031 2350 
Q 3047 2463 3047 2528 
Q 3047 2791 2881 2937 
Q 2716 3084 2419 3084 
Q 1956 3084 1617 2771 
Q 1278 2459 1178 1941 
L 800 0 
L 225 0 
L 1172 4863 
L 1747 4863 
L 1375 2950 
Q 1594 3244 1934 3414 
Q 2275 3584 2650 3584 
Q 3113 3584 3367 3334 
Q 3622 3084 3622 2631 
Q 3622 2519 3608 2391 
Q 3594 2263 3566 2113 
z
" transform="scale(0.015625)"/>
      <path id="DejaVuSans-Oblique-75" d="M 428 1388 
L 838 3500 
L 1416 3500 
L 1006 1409 
Q 975 1256 961 1147 
Q 947 1038 947 966 
Q 947 700 1109 554 
Q 1272 409 1569 409 
Q 2031 409 2368 721 
Q 2706 1034 2809 1563 
L 3194 3500 
L 3769 3500 
L 3091 0 
L 2516 0 
L 2631 550 
Q 2388 244 2052 76 
Q 1716 -91 1338 -91 
Q 878 -91 622 161 
Q 366 413 366 863 
Q 366 956 381 1097 
Q 397 1238 428 1388 
z
" transform="scale(0.015625)"/>
      <path id="DejaVuSans-Oblique-62" d="M 3169 2138 
Q 3169 2591 2961 2847 
Q 2753 3103 2388 3103 
Q 2122 3103 1889 2973 
Q 1656 2844 1484 2597 
Q 1303 2338 1198 1995 
Q 1094 1653 1094 1313 
Q 1094 881 1298 636 
Q 1503 391 1863 391 
Q 2134 391 2365 517 
Q 2597 644 2772 891 
Q 2950 1147 3059 1487 
Q 3169 1828 3169 2138 
z
M 1381 2969 
Q 1594 3256 1914 3420 
Q 2234 3584 2584 3584 
Q 3122 3584 3439 3221 
Q 3756 2859 3756 2241 
Q 3756 1734 3570 1259 
Q 3384 784 3041 416 
Q 2816 172 2522 40 
Q 2228 -91 1906 -91 
Q 1566 -91 1316 65 
Q 1066 222 909 531 
L 806 0 
L 231 0 
L 1178 4863 
L 1753 4863 
L 1381 2969 
z
" transform="scale(0.015625)"/>
     </defs>
     <use xlink:href="#DejaVuSans-Oblique-63"/>
     <use xlink:href="#DejaVuSans-Oblique-6f" transform="translate(54.980469 0)"/>
     <use xlink:href="#DejaVuSans-Oblique-73" transform="translate(116.162109 0)"/>
     <use xlink:href="#DejaVuSans-Oblique-65" transform="translate(168.261719 0)"/>
     <use xlink:href="#DejaVuSans-Oblique-74" transform="translate(229.785156 0)"/>
     <use xlink:href="#DejaVuSans-Oblique-73" transform="translate(268.994141 0)"/>
     <use xlink:href="#DejaVuSans-Oblique-20" transform="translate(321.09375 0)"/>
     <use xlink:href="#DejaVuSans-Oblique-76" transform="translate(352.880859 0)"/>
     <use xlink:href="#DejaVuSans-Oblique-20" transform="translate(412.060547 0)"/>
     <use xlink:href="#DejaVuSans-Oblique-2b" transform="translate(443.847656 0)"/>
     <use xlink:href="#DejaVuSans-Oblique-20" transform="translate(527.636719 0)"/>
     <use xlink:href="#DejaVuSans-Oblique-55" transform="translate(559.423828 0)"/>
     <use xlink:href="#DejaVuSans-Oblique-20" transform="translate(632.617188 0)"/>
     <use xlink:href="#DejaVuSans-Oblique-3a" transform="translate(664.404297 0)"/>
     <use xlink:href="#DejaVuSans-Oblique-20" transform="translate(698.095703 0)"/>
     <use xlink:href="#DejaVuSans-Oblique-70" transform="translate(729.882812 0)"/>
     <use xlink:href="#DejaVuSans-Oblique-61" transform="translate(793.359375 0)"/>
     <use xlink:href="#DejaVuSans-Oblique-72" transform="translate(854.638672 0)"/>
     <use xlink:href="#DejaVuSans-Oblique-61" transform="translate(895.751953 0)"/>
     <use xlink:href="#DejaVuSans-Oblique-6c" transform="translate(957.03125 0)"/>
     <use xlink:href="#DejaVuSans-Oblique-6c" transform="translate(984.814453 0)"/>
     <use xlink:href="#DejaVuSans-Oblique-65" transform="translate(1012.597656 0)"/>
     <use xlink:href="#DejaVuSans-Oblique-6c" transform="translate(1074.121094 0)"/>
     <use xlink:href="#DejaVuSans-Oblique-20" transform="translate(1101.904297 0)"/>
     <use xlink:href="#DejaVuSans-Oblique-74" transform="translate(1133.691406 0)"/>
     <use xlink:href="#DejaVuSans-Oblique-72" transform="translate(1172.900391 0)"/>
     <use xlink:href="#DejaVuSans-Oblique-61" transform="translate(1214.013672 0)"/>
     <use xlink:href="#DejaVuSans-Oblique-6e" transform="translate(1275.292969 0)"/>
     <use xlink:href="#DejaVuSans-Oblique-73" transform="translate(1338.671875 0)"/>
     <use xlink:href="#DejaVuSans-Oblique-6c" transform="translate(1390.771484 0)"/>
     <use xlink:href="#DejaVuSans-Oblique-61" transform="translate(1418.554688 0)"/>
     <use xlink:href="#DejaVuSans-Oblique-74" transform="translate(1479.833984 0)"/>
     <use xlink:href="#DejaVuSans-Oblique-65" transform="translate(1519.042969 0)"/>
     <use xlink:href="#DejaVuSans-Oblique-73" transform="translate(1580.566406 0)"/>
     <use xlink:href="#DejaVuSans-Oblique-20" transform="translate(1632.666016 0)"/>
     <use xlink:href="#DejaVuSans-Oblique-6f" transform="translate(1664.453125 0)"/>
     <use xlink:href="#DejaVuSans-Oblique-66" transform="translate(1725.634766 0)"/>
     <use xlink:href="#DejaVuSans-Oblique-20" transform="translate(1760.839844 0)"/>
     <use xlink:href="#DejaVuSans-Oblique-74" transform="translate(1792.626953 0)"/>
     <use xlink:href="#DejaVuSans-Oblique-68" transform="translate(1831.835938 0)"/>
     <use xlink:href="#DejaVuSans-Oblique-65" transform="translate(1895.214844 0)"/>
     <use xlink:href="#DejaVuSans-Oblique-20" transform="translate(1956.738281 0)"/>
     <use xlink:href="#DejaVuSans-Oblique-73" transform="translate(1988.525391 0)"/>
     <use xlink:href="#DejaVuSans-Oblique-75" transform="translate(2040.625 0)"/>
     <use xlink:href="#DejaVuSans-Oblique-62" transform="translate(2104.003906 0)"/>
     <use xlink:href="#DejaVuSans-Oblique-73" transform="translate(2167.480469 0)"/>
     <use xlink:href="#DejaVuSans-Oblique-70" transform="translate(2219.580078 0)"/>
     <use xlink:href="#DejaVuSans-Oblique-61" transform="translate(2283.056641 0)"/>
     <use xlink:href="#DejaVuSans-Oblique-63" transform="translate(2344.335938 0)"/>
     <use xlink:href="#DejaVuSans-Oblique-65" transform="translate(2399.316406 0)"/>
     <use xlink:href="#DejaVuSans-Oblique-20" transform="translate(2460.839844 0)"/>
     <use xlink:href="#DejaVuSans-Oblique-55" transform="translate(2492.626953 0)"/>
    </g>
   </g>
  </g>
 </g>
 <defs>
  <clipPath id="p165b0e351f">
   <rect x="7.2" y="22.318125" width="396.396" height="288.288"/>
  </clipPath>
 </defs>
</svg>
