<?xml version="1.0" encoding="utf-8" standalone="no"?>
<!DOCTYPE svg PUBLIC "-//W3C//DTD SVG 1.1//EN"
  "http://www.w3.org/Graphics/SVG/1.1/DTD/svg11.dtd">
<svg xmlns:xlink="http://www.w3.org/1999/xlink" width="441.580967pt" height="391.534125pt" viewBox="0 0 441.580967 391.534125" xmlns="http://www.w3.org/2000/svg" version="1.1">
 <metadata>
  <rdf:RDF xmlns:dc="http://purl.org/dc/elements/1.1/" xmlns:cc="http://creativecommons.org/ns#" xmlns:rdf="http://www.w3.org/1999/02/22-rdf-syntax-ns#">
   <cc:Work>
    <dc:type rdf:resource="http://purl.org/dc/dcmitype/StillImage"/>
    <dc:date>2026-05-16T21:22:25.556858</dc:date>
    <dc:format>image/svg+xml</dc:format>
    <dc:creator>
     <cc:Agent>
      <dc:title>Matplotlib v3.10.8, https://matplotlib.org/</dc:title>
     </cc:Agent>
    </dc:creator>
   </cc:Work>
  </rdf:RDF>
 </metadata>
 <defs>
  <style type="text/css">*{stroke-linejoin: round; stroke-linecap: butt}</style>
 </defs>
 <g id="figure_1">
  <g id="patch_1">
   <path d="M 0 391.534125 
L 441.580967 391.534125 
L 441.580967 0 
L 0 0 
z
" style="fill: #ffffff"/>
  </g>
  <g id="axes_1">
   <g id="patch_2">
    <path d="M 10.8 380.734125 
L 426.010213 380.734125 
L 426.010213 25.918125 
L 10.8 25.918125 
z
" style="fill: #ffffff"/>
   </g>
   <g id="patch_3">
    <path d="M 107.619472 210.120474 
L 315.224579 210.120474 
L 392.038468 154.255827 
L 184.433362 154.255827 
z
" clip-path="url(#pb32335e009)" style="fill: #9fb8e6; opacity: 0.45; stroke: #2a4d8f; stroke-width: 1.3; stroke-linejoin: miter"/>
   </g>
   <g id="patch_4">
    <path d="M 142.91234 248.621785 
L 350.517447 248.621785 
L 350.517447 63.664508 
L 142.91234 63.664508 
z
" clip-path="url(#pb32335e009)" style="fill: #e6b89c; opacity: 0.45; stroke: #8f4a2a; stroke-width: 1.3; stroke-linejoin: miter"/>
   </g>
   <g id="patch_5">
    <path d="M 238.429938 182.818347 
Q 266.530827 142.933215 292.828695 105.607208 
" clip-path="url(#pb32335e009)" style="fill: none; stroke: #222222; stroke-width: 2.8; stroke-linecap: round"/>
    <path d="M 286.920527 108.784242 
L 292.828695 105.607208 
L 291.825422 112.239963 
z
" clip-path="url(#pb32335e009)" style="fill: #222222; stroke: #222222; stroke-width: 2.8; stroke-linecap: round"/>
   </g>
   <g id="patch_6">
    <path d="M 239.238304 184.070493 
Q 275.965544 176.904203 310.059168 170.251788 
" clip-path="url(#pb32335e009)" style="fill: none; stroke: #2a4d8f; stroke-width: 2.4; stroke-linecap: round"/>
    <path d="M 303.595694 168.456378 
L 310.059168 170.251788 
L 304.744756 174.345322 
z
" clip-path="url(#pb32335e009)" style="fill: #2a4d8f; stroke: #2a4d8f; stroke-width: 2.4; stroke-linecap: round"/>
   </g>
   <g id="patch_7">
    <path d="M 314.122736 167.426053 
Q 305.222021 135.383476 297.039469 105.92629 
" clip-path="url(#pb32335e009)" style="fill: none; stroke: #8f4a2a; stroke-width: 2.4; stroke-linecap: round"/>
    <path d="M 295.754778 112.510329 
L 297.039469 105.92629 
L 301.535886 110.904465 
z
" clip-path="url(#pb32335e009)" style="fill: #8f4a2a; stroke: #8f4a2a; stroke-width: 2.4; stroke-linecap: round"/>
   </g>
   <g id="patch_8">
    <path d="M 236.21622 182.753609 
Q 232.559524 176.902896 230.324965 173.327601 
" clip-path="url(#pb32335e009)" style="fill: none; stroke-dasharray: 12,6; stroke-dashoffset: 0; stroke: #2a4d8f; stroke-width: 2.4; stroke-linecap: round"/>
    <path d="M 230.960964 180.005588 
L 230.324965 173.327601 
L 236.048954 176.825594 
z
" clip-path="url(#pb32335e009)" style="fill: #2a4d8f; stroke-dasharray: 12,6; stroke-dashoffset: 0; stroke: #2a4d8f; stroke-width: 2.4; stroke-linecap: round"/>
   </g>
   <g id="patch_9">
    <path d="M 229.257883 167.9382 
Q 261.813994 135.382088 292.472739 104.723343 
" clip-path="url(#pb32335e009)" style="fill: none; stroke-dasharray: 12,6; stroke-dashoffset: 0; stroke: #8f4a2a; stroke-width: 2.4; stroke-linecap: round"/>
    <path d="M 286.108778 106.844664 
L 292.472739 104.723343 
L 290.351419 111.087304 
z
" clip-path="url(#pb32335e009)" style="fill: #8f4a2a; stroke-dasharray: 12,6; stroke-dashoffset: 0; stroke: #8f4a2a; stroke-width: 2.4; stroke-linecap: round"/>
   </g>
   <g id="matplotlib.axis_1"/>
   <g id="matplotlib.axis_2"/>
   <g id="line2d_1">
    <path d="M 142.91234 184.452934 
L 350.517447 184.452934 
" clip-path="url(#pb32335e009)" style="fill: none; stroke-dasharray: 8.88,3.84; stroke-dashoffset: 0; stroke: #b03030; stroke-width: 2.4"/>
   </g>
   <g id="line2d_2">
    <defs>
     <path id="mc7f7a37742" d="M 0 2.5 
C 0.663008 2.5 1.29895 2.236584 1.767767 1.767767 
C 2.236584 1.29895 2.5 0.663008 2.5 0 
C 2.5 -0.663008 2.236584 -1.29895 1.767767 -1.767767 
C 1.29895 -2.236584 0.663008 -2.5 0 -2.5 
C -0.663008 -2.5 -1.29895 -2.236584 -1.767767 -1.767767 
C -2.236584 -1.29895 -2.5 -0.663008 -2.5 0 
C -2.5 0.663008 -2.236584 1.29895 -1.767767 1.767767 
C -1.29895 2.236584 -0.663008 2.5 0 2.5 
z
" style="stroke: #222222"/>
    </defs>
    <g clip-path="url(#pb32335e009)">
     <use xlink:href="#mc7f7a37742" x="237.278298" y="184.452934" style="fill: #222222; stroke: #222222"/>
    </g>
   </g>
   <g id="line2d_3">
    <g clip-path="url(#pb32335e009)">
     <use xlink:href="#mc7f7a37742" x="295.785191" y="101.410891" style="fill: #222222; stroke: #222222"/>
    </g>
   </g>
   <g id="patch_10">
    <path d="M 10.8 380.734125 
L 10.8 25.918125 
" style="fill: none; stroke: #dddddd; stroke-width: 0.8; stroke-linejoin: miter; stroke-linecap: square"/>
   </g>
   <g id="patch_11">
    <path d="M 426.010213 380.734125 
L 426.010213 25.918125 
" style="fill: none; stroke: #dddddd; stroke-width: 0.8; stroke-linejoin: miter; stroke-linecap: square"/>
   </g>
   <g id="patch_12">
    <path d="M 10.8 380.734125 
L 426.010213 380.734125 
" style="fill: none; stroke: #dddddd; stroke-width: 0.8; stroke-linejoin: miter; stroke-linecap: square"/>
   </g>
   <g id="patch_13">
    <path d="M 10.8 25.918125 
L 426.010213 25.918125 
" style="fill: none; stroke: #dddddd; stroke-width: 0.8; stroke-linejoin: miter; stroke-linecap: square"/>
   </g>
   <g id="text_1">
    <!-- U  (xy-plane) -->
    <g style="fill: #2a4d8f" transform="translate(96.295557 227.106346) scale(0.11 -0.11)">
     <defs>
      <path id="DejaVuSans-Oblique-55" d="M 991 4666 
L 1625 4666 
L 1075 1831 
Q 1041 1641 1027 1517 
Q 1013 1394 1013 1300 
Q 1013 869 1253 645 
Q 1494 422 1959 422 
Q 2563 422 2898 753 
Q 3234 1084 3378 1831 
L 3928 4666 
L 4563 4666 
L 4000 1753 
Q 3816 809 3300 359 
Q 2784 -91 1888 -91 
Q 1188 -91 780 261 
Q 372 613 372 1216 
Q 372 1325 387 1461 
Q 403 1597 434 1753 
L 991 4666 
z
" transform="scale(0.015625)"/>
      <path id="DejaVuSans-Oblique-20" transform="scale(0.015625)"/>
      <path id="DejaVuSans-Oblique-28" d="M 2731 4856 
Q 1903 3822 1495 2892 
Q 1088 1963 1088 1100 
Q 1088 606 1206 120 
Q 1325 -366 1563 -844 
L 1063 -844 
Q 775 -306 634 201 
Q 494 709 494 1197 
Q 494 2125 923 3036 
Q 1353 3947 2222 4856 
L 2731 4856 
z
" transform="scale(0.015625)"/>
      <path id="DejaVuSans-Oblique-78" d="M 3841 3500 
L 2234 1784 
L 3219 0 
L 2559 0 
L 1819 1388 
L 531 0 
L -166 0 
L 1556 1844 
L 641 3500 
L 1300 3500 
L 1972 2234 
L 3144 3500 
L 3841 3500 
z
" transform="scale(0.015625)"/>
      <path id="DejaVuSans-Oblique-79" d="M 1588 -325 
Q 1188 -997 936 -1164 
Q 684 -1331 294 -1331 
L -159 -1331 
L -63 -850 
L 269 -850 
Q 509 -850 678 -719 
Q 847 -588 1056 -206 
L 1234 128 
L 459 3500 
L 1069 3500 
L 1650 819 
L 3256 3500 
L 3859 3500 
L 1588 -325 
z
" transform="scale(0.015625)"/>
      <path id="DejaVuSans-Oblique-2d" d="M 391 2009 
L 2075 2009 
L 1978 1497 
L 288 1497 
L 391 2009 
z
" transform="scale(0.015625)"/>
      <path id="DejaVuSans-Oblique-70" d="M 3175 2156 
Q 3175 2616 2975 2859 
Q 2775 3103 2400 3103 
Q 2144 3103 1911 2972 
Q 1678 2841 1497 2591 
Q 1319 2344 1212 1994 
Q 1106 1644 1106 1300 
Q 1106 863 1306 627 
Q 1506 391 1875 391 
Q 2147 391 2380 519 
Q 2613 647 2778 891 
Q 2956 1147 3065 1494 
Q 3175 1841 3175 2156 
z
M 1394 2969 
Q 1625 3272 1939 3428 
Q 2253 3584 2638 3584 
Q 3175 3584 3472 3232 
Q 3769 2881 3769 2247 
Q 3769 1728 3584 1258 
Q 3400 788 3053 416 
Q 2822 169 2531 39 
Q 2241 -91 1919 -91 
Q 1547 -91 1294 64 
Q 1041 219 916 525 
L 556 -1331 
L -19 -1331 
L 922 3500 
L 1497 3500 
L 1394 2969 
z
" transform="scale(0.015625)"/>
      <path id="DejaVuSans-Oblique-6c" d="M 1172 4863 
L 1747 4863 
L 800 0 
L 225 0 
L 1172 4863 
z
" transform="scale(0.015625)"/>
      <path id="DejaVuSans-Oblique-61" d="M 3438 1997 
L 3047 0 
L 2472 0 
L 2578 531 
Q 2325 219 2001 64 
Q 1678 -91 1281 -91 
Q 834 -91 548 182 
Q 263 456 263 884 
Q 263 1497 752 1853 
Q 1241 2209 2100 2209 
L 2900 2209 
L 2931 2363 
Q 2938 2388 2941 2417 
Q 2944 2447 2944 2509 
Q 2944 2788 2717 2942 
Q 2491 3097 2081 3097 
Q 1800 3097 1504 3025 
Q 1209 2953 897 2809 
L 997 3341 
Q 1322 3463 1633 3523 
Q 1944 3584 2234 3584 
Q 2853 3584 3176 3315 
Q 3500 3047 3500 2534 
Q 3500 2431 3484 2292 
Q 3469 2153 3438 1997 
z
M 2816 1759 
L 2241 1759 
Q 1534 1759 1195 1570 
Q 856 1381 856 984 
Q 856 709 1029 553 
Q 1203 397 1509 397 
Q 1978 397 2328 733 
Q 2678 1069 2791 1631 
L 2816 1759 
z
" transform="scale(0.015625)"/>
      <path id="DejaVuSans-Oblique-6e" d="M 3566 2113 
L 3156 0 
L 2578 0 
L 2988 2091 
Q 3016 2238 3031 2350 
Q 3047 2463 3047 2528 
Q 3047 2791 2881 2937 
Q 2716 3084 2419 3084 
Q 1956 3084 1622 2776 
Q 1288 2469 1184 1941 
L 800 0 
L 225 0 
L 903 3500 
L 1478 3500 
L 1363 2950 
Q 1603 3253 1940 3418 
Q 2278 3584 2650 3584 
Q 3113 3584 3367 3334 
Q 3622 3084 3622 2631 
Q 3622 2519 3608 2391 
Q 3594 2263 3566 2113 
z
" transform="scale(0.015625)"/>
      <path id="DejaVuSans-Oblique-65" d="M 3078 2063 
Q 3088 2113 3092 2166 
Q 3097 2219 3097 2272 
Q 3097 2653 2873 2875 
Q 2650 3097 2266 3097 
Q 1838 3097 1509 2826 
Q 1181 2556 1013 2059 
L 3078 2063 
z
M 3578 1613 
L 903 1613 
Q 884 1494 878 1425 
Q 872 1356 872 1306 
Q 872 872 1139 634 
Q 1406 397 1894 397 
Q 2269 397 2603 481 
Q 2938 566 3225 728 
L 3116 159 
Q 2806 34 2476 -28 
Q 2147 -91 1806 -91 
Q 1078 -91 686 257 
Q 294 606 294 1247 
Q 294 1794 489 2264 
Q 684 2734 1063 3103 
Q 1306 3334 1642 3459 
Q 1978 3584 2356 3584 
Q 2950 3584 3301 3228 
Q 3653 2872 3653 2272 
Q 3653 2128 3634 1964 
Q 3616 1800 3578 1613 
z
" transform="scale(0.015625)"/>
      <path id="DejaVuSans-Oblique-29" d="M -397 -844 
Q 434 191 840 1120 
Q 1247 2050 1247 2913 
Q 1247 3406 1130 3892 
Q 1013 4378 775 4856 
L 1275 4856 
Q 1563 4316 1703 3812 
Q 1844 3309 1844 2822 
Q 1844 1891 1411 973 
Q 978 56 116 -844 
L -397 -844 
z
" transform="scale(0.015625)"/>
     </defs>
     <use xlink:href="#DejaVuSans-Oblique-55"/>
     <use xlink:href="#DejaVuSans-Oblique-20" transform="translate(73.193359 0)"/>
     <use xlink:href="#DejaVuSans-Oblique-20" transform="translate(104.980469 0)"/>
     <use xlink:href="#DejaVuSans-Oblique-28" transform="translate(136.767578 0)"/>
     <use xlink:href="#DejaVuSans-Oblique-78" transform="translate(175.78125 0)"/>
     <use xlink:href="#DejaVuSans-Oblique-79" transform="translate(234.960938 0)"/>
     <use xlink:href="#DejaVuSans-Oblique-2d" transform="translate(290.515625 0)"/>
     <use xlink:href="#DejaVuSans-Oblique-70" transform="translate(326.599609 0)"/>
     <use xlink:href="#DejaVuSans-Oblique-6c" transform="translate(390.076172 0)"/>
     <use xlink:href="#DejaVuSans-Oblique-61" transform="translate(417.859375 0)"/>
     <use xlink:href="#DejaVuSans-Oblique-6e" transform="translate(479.138672 0)"/>
     <use xlink:href="#DejaVuSans-Oblique-65" transform="translate(542.517578 0)"/>
     <use xlink:href="#DejaVuSans-Oblique-29" transform="translate(604.041016 0)"/>
    </g>
   </g>
   <g id="text_2">
    <!-- W  (xz-plane) -->
    <g style="fill: #8f4a2a" transform="translate(356.179404 66.69982) scale(0.11 -0.11)">
     <defs>
      <path id="DejaVuSans-Oblique-57" d="M 616 4666 
L 1228 4666 
L 1453 697 
L 3213 4666 
L 3916 4666 
L 4147 697 
L 5888 4666 
L 6528 4666 
L 4453 0 
L 3659 0 
L 3444 3891 
L 1697 0 
L 903 0 
L 616 4666 
z
" transform="scale(0.015625)"/>
      <path id="DejaVuSans-Oblique-7a" d="M 744 3500 
L 3475 3500 
L 3372 2975 
L 738 459 
L 2913 459 
L 2822 0 
L -19 0 
L 84 525 
L 2719 3041 
L 653 3041 
L 744 3500 
z
" transform="scale(0.015625)"/>
     </defs>
     <use xlink:href="#DejaVuSans-Oblique-57"/>
     <use xlink:href="#DejaVuSans-Oblique-20" transform="translate(98.876953 0)"/>
     <use xlink:href="#DejaVuSans-Oblique-20" transform="translate(130.664062 0)"/>
     <use xlink:href="#DejaVuSans-Oblique-28" transform="translate(162.451172 0)"/>
     <use xlink:href="#DejaVuSans-Oblique-78" transform="translate(201.464844 0)"/>
     <use xlink:href="#DejaVuSans-Oblique-7a" transform="translate(260.644531 0)"/>
     <use xlink:href="#DejaVuSans-Oblique-2d" transform="translate(313.134766 0)"/>
     <use xlink:href="#DejaVuSans-Oblique-70" transform="translate(349.21875 0)"/>
     <use xlink:href="#DejaVuSans-Oblique-6c" transform="translate(412.695312 0)"/>
     <use xlink:href="#DejaVuSans-Oblique-61" transform="translate(440.478516 0)"/>
     <use xlink:href="#DejaVuSans-Oblique-6e" transform="translate(501.757812 0)"/>
     <use xlink:href="#DejaVuSans-Oblique-65" transform="translate(565.136719 0)"/>
     <use xlink:href="#DejaVuSans-Oblique-29" transform="translate(626.660156 0)"/>
    </g>
   </g>
   <g id="text_3">
    <!-- U ∩ W  (x-axis) -->
    <g style="fill: #b03030" transform="translate(356.179404 190.986947) scale(0.1 -0.1)">
     <defs>
      <path id="DejaVuSans-Oblique-2229" d="M 825 1850 
Q 825 2775 1208 3240 
Q 1591 3706 2344 3706 
Q 3094 3706 3476 3240 
Q 3859 2775 3859 1850 
L 3859 0 
L 3322 0 
L 3322 1772 
Q 3322 2534 3090 2864 
Q 2859 3194 2344 3194 
Q 1825 3194 1594 2864 
Q 1363 2534 1363 1772 
L 1363 0 
L 825 0 
L 825 1850 
z
" transform="scale(0.015625)"/>
      <path id="DejaVuSans-Oblique-69" d="M 1172 4863 
L 1747 4863 
L 1606 4134 
L 1031 4134 
L 1172 4863 
z
M 909 3500 
L 1484 3500 
L 800 0 
L 225 0 
L 909 3500 
z
" transform="scale(0.015625)"/>
      <path id="DejaVuSans-Oblique-73" d="M 3200 3397 
L 3091 2853 
Q 2863 2978 2609 3040 
Q 2356 3103 2088 3103 
Q 1634 3103 1373 2948 
Q 1113 2794 1113 2528 
Q 1113 2219 1719 2053 
Q 1766 2041 1788 2034 
L 1972 1978 
Q 2547 1819 2739 1644 
Q 2931 1469 2931 1166 
Q 2931 609 2489 259 
Q 2047 -91 1331 -91 
Q 1053 -91 747 -37 
Q 441 16 72 128 
L 184 722 
Q 500 559 806 475 
Q 1113 391 1394 391 
Q 1816 391 2080 572 
Q 2344 753 2344 1031 
Q 2344 1331 1650 1516 
L 1591 1531 
L 1394 1581 
Q 956 1697 753 1886 
Q 550 2075 550 2369 
Q 550 2928 970 3256 
Q 1391 3584 2113 3584 
Q 2397 3584 2667 3537 
Q 2938 3491 3200 3397 
z
" transform="scale(0.015625)"/>
     </defs>
     <use xlink:href="#DejaVuSans-Oblique-55"/>
     <use xlink:href="#DejaVuSans-Oblique-20" transform="translate(73.193359 0)"/>
     <use xlink:href="#DejaVuSans-Oblique-2229" transform="translate(104.980469 0)"/>
     <use xlink:href="#DejaVuSans-Oblique-20" transform="translate(178.173828 0)"/>
     <use xlink:href="#DejaVuSans-Oblique-57" transform="translate(209.960938 0)"/>
     <use xlink:href="#DejaVuSans-Oblique-20" transform="translate(308.837891 0)"/>
     <use xlink:href="#DejaVuSans-Oblique-20" transform="translate(340.625 0)"/>
     <use xlink:href="#DejaVuSans-Oblique-28" transform="translate(372.412109 0)"/>
     <use xlink:href="#DejaVuSans-Oblique-78" transform="translate(411.425781 0)"/>
     <use xlink:href="#DejaVuSans-Oblique-2d" transform="translate(470.605469 0)"/>
     <use xlink:href="#DejaVuSans-Oblique-61" transform="translate(506.689453 0)"/>
     <use xlink:href="#DejaVuSans-Oblique-78" transform="translate(567.96875 0)"/>
     <use xlink:href="#DejaVuSans-Oblique-69" transform="translate(627.148438 0)"/>
     <use xlink:href="#DejaVuSans-Oblique-73" transform="translate(654.931641 0)"/>
     <use xlink:href="#DejaVuSans-Oblique-29" transform="translate(707.03125 0)"/>
    </g>
   </g>
   <g id="text_4">
    <!-- 0 -->
    <g style="fill: #222222" transform="translate(216.517787 199.551487) scale(0.11 -0.11)">
     <defs>
      <path id="DejaVuSans-30" d="M 2034 4250 
Q 1547 4250 1301 3770 
Q 1056 3291 1056 2328 
Q 1056 1369 1301 889 
Q 1547 409 2034 409 
Q 2525 409 2770 889 
Q 3016 1369 3016 2328 
Q 3016 3291 2770 3770 
Q 2525 4250 2034 4250 
z
M 2034 4750 
Q 2819 4750 3233 4129 
Q 3647 3509 3647 2328 
Q 3647 1150 3233 529 
Q 2819 -91 2034 -91 
Q 1250 -91 836 529 
Q 422 1150 422 2328 
Q 422 3509 836 4129 
Q 1250 4750 2034 4750 
z
" transform="scale(0.015625)"/>
     </defs>
     <use xlink:href="#DejaVuSans-30"/>
    </g>
   </g>
   <g id="text_5">
    <!-- v -->
    <g style="fill: #222222" transform="translate(303.334468 97.636253) scale(0.14 -0.14)">
     <defs>
      <path id="DejaVuSans-Oblique-76" d="M 459 3500 
L 1069 3500 
L 1581 525 
L 3256 3500 
L 3866 3500 
L 1875 0 
L 1100 0 
L 459 3500 
z
" transform="scale(0.015625)"/>
     </defs>
     <use xlink:href="#DejaVuSans-Oblique-76"/>
    </g>
   </g>
   <g id="text_6">
    <!-- u -->
    <g style="fill: #2a4d8f" transform="translate(283.517617 190.114891) scale(0.13 -0.13)">
     <defs>
      <path id="DejaVuSans-BoldOblique-75" d="M 434 1363 
L 844 3500 
L 1966 3500 
L 1613 1678 
Q 1575 1500 1556 1375 
Q 1538 1250 1538 1178 
Q 1538 981 1647 872 
Q 1756 763 1959 763 
Q 2306 763 2556 1031 
Q 2806 1300 2900 1778 
L 3238 3500 
L 4359 3500 
L 3681 0 
L 2553 0 
L 2656 513 
Q 2369 209 2053 59 
Q 1738 -91 1388 -91 
Q 909 -91 646 162 
Q 384 416 384 878 
Q 384 988 396 1109 
Q 409 1231 434 1363 
z
" transform="scale(0.015625)"/>
     </defs>
     <use xlink:href="#DejaVuSans-BoldOblique-75"/>
    </g>
   </g>
   <g id="text_7">
    <!-- w -->
    <g style="fill: #8f4a2a" transform="translate(314.658383 137.269955) scale(0.13 -0.13)">
     <defs>
      <path id="DejaVuSans-BoldOblique-77" d="M 556 3500 
L 1588 3500 
L 1709 1094 
L 2766 3500 
L 3653 3500 
L 3781 1100 
L 4831 3500 
L 5931 3500 
L 4331 0 
L 3144 0 
L 3028 2406 
L 1959 0 
L 800 0 
L 556 3500 
z
" transform="scale(0.015625)"/>
     </defs>
     <use xlink:href="#DejaVuSans-BoldOblique-77"/>
    </g>
   </g>
   <g id="text_8">
    <!-- u′ -->
    <g style="fill: #2a4d8f" transform="translate(204.250213 175.016338) scale(0.13 -0.13)">
     <defs>
      <path id="DejaVuSans-BoldOblique-2032" d="M 13 3500 
L 778 4666 
L 1647 4666 
L 519 3500 
L 13 3500 
z
" transform="scale(0.015625)"/>
     </defs>
     <use xlink:href="#DejaVuSans-BoldOblique-75"/>
     <use xlink:href="#DejaVuSans-BoldOblique-2032" transform="translate(71.191406 0)"/>
    </g>
   </g>
   <g id="text_9">
    <!-- w′ -->
    <g style="fill: #8f4a2a" transform="translate(225.954383 131.607997) scale(0.13 -0.13)">
     <use xlink:href="#DejaVuSans-BoldOblique-77"/>
     <use xlink:href="#DejaVuSans-BoldOblique-2032" transform="translate(92.382812 0)"/>
    </g>
   </g>
   <g id="text_10">
    <!-- v = u + w = u′ + w′   with   u − u′ ∈ U ∩ W -->
    <g style="fill: #444444" transform="translate(105.872997 346.328592) scale(0.105 -0.105)">
     <defs>
      <path id="DejaVuSans-76" d="M 191 3500 
L 800 3500 
L 1894 563 
L 2988 3500 
L 3597 3500 
L 2284 0 
L 1503 0 
L 191 3500 
z
" transform="scale(0.015625)"/>
      <path id="DejaVuSans-20" transform="scale(0.015625)"/>
      <path id="DejaVuSans-3d" d="M 678 2906 
L 4684 2906 
L 4684 2381 
L 678 2381 
L 678 2906 
z
M 678 1631 
L 4684 1631 
L 4684 1100 
L 678 1100 
L 678 1631 
z
" transform="scale(0.015625)"/>
      <path id="DejaVuSans-75" d="M 544 1381 
L 544 3500 
L 1119 3500 
L 1119 1403 
Q 1119 906 1312 657 
Q 1506 409 1894 409 
Q 2359 409 2629 706 
Q 2900 1003 2900 1516 
L 2900 3500 
L 3475 3500 
L 3475 0 
L 2900 0 
L 2900 538 
Q 2691 219 2414 64 
Q 2138 -91 1772 -91 
Q 1169 -91 856 284 
Q 544 659 544 1381 
z
M 1991 3584 
L 1991 3584 
z
" transform="scale(0.015625)"/>
      <path id="DejaVuSans-2b" d="M 2944 4013 
L 2944 2272 
L 4684 2272 
L 4684 1741 
L 2944 1741 
L 2944 0 
L 2419 0 
L 2419 1741 
L 678 1741 
L 678 2272 
L 2419 2272 
L 2419 4013 
L 2944 4013 
z
" transform="scale(0.015625)"/>
      <path id="DejaVuSans-77" d="M 269 3500 
L 844 3500 
L 1563 769 
L 2278 3500 
L 2956 3500 
L 3675 769 
L 4391 3500 
L 4966 3500 
L 4050 0 
L 3372 0 
L 2619 2869 
L 1863 0 
L 1184 0 
L 269 3500 
z
" transform="scale(0.015625)"/>
      <path id="DejaVuSans-2032" d="M 125 3500 
L 666 4666 
L 1300 4666 
L 397 3500 
L 125 3500 
z
" transform="scale(0.015625)"/>
      <path id="DejaVuSans-69" d="M 603 3500 
L 1178 3500 
L 1178 0 
L 603 0 
L 603 3500 
z
M 603 4863 
L 1178 4863 
L 1178 4134 
L 603 4134 
L 603 4863 
z
" transform="scale(0.015625)"/>
      <path id="DejaVuSans-74" d="M 1172 4494 
L 1172 3500 
L 2356 3500 
L 2356 3053 
L 1172 3053 
L 1172 1153 
Q 1172 725 1289 603 
Q 1406 481 1766 481 
L 2356 481 
L 2356 0 
L 1766 0 
Q 1100 0 847 248 
Q 594 497 594 1153 
L 594 3053 
L 172 3053 
L 172 3500 
L 594 3500 
L 594 4494 
L 1172 4494 
z
" transform="scale(0.015625)"/>
      <path id="DejaVuSans-68" d="M 3513 2113 
L 3513 0 
L 2938 0 
L 2938 2094 
Q 2938 2591 2744 2837 
Q 2550 3084 2163 3084 
Q 1697 3084 1428 2787 
Q 1159 2491 1159 1978 
L 1159 0 
L 581 0 
L 581 4863 
L 1159 4863 
L 1159 2956 
Q 1366 3272 1645 3428 
Q 1925 3584 2291 3584 
Q 2894 3584 3203 3211 
Q 3513 2838 3513 2113 
z
" transform="scale(0.015625)"/>
      <path id="DejaVuSans-2212" d="M 678 2272 
L 4684 2272 
L 4684 1741 
L 678 1741 
L 678 2272 
z
" transform="scale(0.015625)"/>
      <path id="DejaVuSans-2208" d="M 1072 1959 
Q 1094 1728 1291 1353 
Q 1522 919 1959 675 
Q 2388 438 2850 434 
L 5028 434 
L 5028 -63 
L 2850 -63 
Q 2250 -63 1695 246 
Q 1141 556 844 1106 
Q 547 1656 547 2241 
Q 547 2819 844 3369 
Q 1141 3919 1695 4231 
Q 2250 4544 2850 4544 
L 5028 4544 
L 5028 4047 
L 2850 4047 
Q 2388 4044 1959 3803 
Q 1525 3556 1291 3125 
Q 1091 2750 1063 2459 
L 5028 2459 
L 5028 1959 
L 1072 1959 
z
" transform="scale(0.015625)"/>
      <path id="DejaVuSans-55" d="M 556 4666 
L 1191 4666 
L 1191 1831 
Q 1191 1081 1462 751 
Q 1734 422 2344 422 
Q 2950 422 3222 751 
Q 3494 1081 3494 1831 
L 3494 4666 
L 4128 4666 
L 4128 1753 
Q 4128 841 3676 375 
Q 3225 -91 2344 -91 
Q 1459 -91 1007 375 
Q 556 841 556 1753 
L 556 4666 
z
" transform="scale(0.015625)"/>
      <path id="DejaVuSans-2229" d="M 825 1850 
Q 825 2775 1208 3240 
Q 1591 3706 2344 3706 
Q 3094 3706 3476 3240 
Q 3859 2775 3859 1850 
L 3859 0 
L 3322 0 
L 3322 1772 
Q 3322 2534 3090 2864 
Q 2859 3194 2344 3194 
Q 1825 3194 1594 2864 
Q 1363 2534 1363 1772 
L 1363 0 
L 825 0 
L 825 1850 
z
" transform="scale(0.015625)"/>
      <path id="DejaVuSans-57" d="M 213 4666 
L 850 4666 
L 1831 722 
L 2809 4666 
L 3519 4666 
L 4500 722 
L 5478 4666 
L 6119 4666 
L 4947 0 
L 4153 0 
L 3169 4050 
L 2175 0 
L 1381 0 
L 213 4666 
z
" transform="scale(0.015625)"/>
     </defs>
     <use xlink:href="#DejaVuSans-76"/>
     <use xlink:href="#DejaVuSans-20" transform="translate(59.179688 0)"/>
     <use xlink:href="#DejaVuSans-3d" transform="translate(90.966797 0)"/>
     <use xlink:href="#DejaVuSans-20" transform="translate(174.755859 0)"/>
     <use xlink:href="#DejaVuSans-75" transform="translate(206.542969 0)"/>
     <use xlink:href="#DejaVuSans-20" transform="translate(269.921875 0)"/>
     <use xlink:href="#DejaVuSans-2b" transform="translate(301.708984 0)"/>
     <use xlink:href="#DejaVuSans-20" transform="translate(385.498047 0)"/>
     <use xlink:href="#DejaVuSans-77" transform="translate(417.285156 0)"/>
     <use xlink:href="#DejaVuSans-20" transform="translate(499.072266 0)"/>
     <use xlink:href="#DejaVuSans-3d" transform="translate(530.859375 0)"/>
     <use xlink:href="#DejaVuSans-20" transform="translate(614.648438 0)"/>
     <use xlink:href="#DejaVuSans-75" transform="translate(646.435547 0)"/>
     <use xlink:href="#DejaVuSans-2032" transform="translate(709.814453 0)"/>
     <use xlink:href="#DejaVuSans-20" transform="translate(732.519531 0)"/>
     <use xlink:href="#DejaVuSans-2b" transform="translate(764.306641 0)"/>
     <use xlink:href="#DejaVuSans-20" transform="translate(848.095703 0)"/>
     <use xlink:href="#DejaVuSans-77" transform="translate(879.882812 0)"/>
     <use xlink:href="#DejaVuSans-2032" transform="translate(961.669922 0)"/>
     <use xlink:href="#DejaVuSans-20" transform="translate(984.375 0)"/>
     <use xlink:href="#DejaVuSans-20" transform="translate(1016.162109 0)"/>
     <use xlink:href="#DejaVuSans-20" transform="translate(1047.949219 0)"/>
     <use xlink:href="#DejaVuSans-77" transform="translate(1079.736328 0)"/>
     <use xlink:href="#DejaVuSans-69" transform="translate(1161.523438 0)"/>
     <use xlink:href="#DejaVuSans-74" transform="translate(1189.306641 0)"/>
     <use xlink:href="#DejaVuSans-68" transform="translate(1228.515625 0)"/>
     <use xlink:href="#DejaVuSans-20" transform="translate(1291.894531 0)"/>
     <use xlink:href="#DejaVuSans-20" transform="translate(1323.681641 0)"/>
     <use xlink:href="#DejaVuSans-20" transform="translate(1355.46875 0)"/>
     <use xlink:href="#DejaVuSans-75" transform="translate(1387.255859 0)"/>
     <use xlink:href="#DejaVuSans-20" transform="translate(1450.634766 0)"/>
     <use xlink:href="#DejaVuSans-2212" transform="translate(1482.421875 0)"/>
     <use xlink:href="#DejaVuSans-20" transform="translate(1566.210938 0)"/>
     <use xlink:href="#DejaVuSans-75" transform="translate(1597.998047 0)"/>
     <use xlink:href="#DejaVuSans-2032" transform="translate(1661.376953 0)"/>
     <use xlink:href="#DejaVuSans-20" transform="translate(1684.082031 0)"/>
     <use xlink:href="#DejaVuSans-2208" transform="translate(1715.869141 0)"/>
     <use xlink:href="#DejaVuSans-20" transform="translate(1802.978516 0)"/>
     <use xlink:href="#DejaVuSans-55" transform="translate(1834.765625 0)"/>
     <use xlink:href="#DejaVuSans-20" transform="translate(1907.958984 0)"/>
     <use xlink:href="#DejaVuSans-2229" transform="translate(1939.746094 0)"/>
     <use xlink:href="#DejaVuSans-20" transform="translate(2012.939453 0)"/>
     <use xlink:href="#DejaVuSans-57" transform="translate(2044.726562 0)"/>
    </g>
    <!-- the overlap absorbs the difference, so the decomposition is NOT unique -->
    <g style="fill: #444444" transform="translate(29.348505 358.086295) scale(0.105 -0.105)">
     <defs>
      <path id="DejaVuSans-65" d="M 3597 1894 
L 3597 1613 
L 953 1613 
Q 991 1019 1311 708 
Q 1631 397 2203 397 
Q 2534 397 2845 478 
Q 3156 559 3463 722 
L 3463 178 
Q 3153 47 2828 -22 
Q 2503 -91 2169 -91 
Q 1331 -91 842 396 
Q 353 884 353 1716 
Q 353 2575 817 3079 
Q 1281 3584 2069 3584 
Q 2775 3584 3186 3129 
Q 3597 2675 3597 1894 
z
M 3022 2063 
Q 3016 2534 2758 2815 
Q 2500 3097 2075 3097 
Q 1594 3097 1305 2825 
Q 1016 2553 972 2059 
L 3022 2063 
z
" transform="scale(0.015625)"/>
      <path id="DejaVuSans-6f" d="M 1959 3097 
Q 1497 3097 1228 2736 
Q 959 2375 959 1747 
Q 959 1119 1226 758 
Q 1494 397 1959 397 
Q 2419 397 2687 759 
Q 2956 1122 2956 1747 
Q 2956 2369 2687 2733 
Q 2419 3097 1959 3097 
z
M 1959 3584 
Q 2709 3584 3137 3096 
Q 3566 2609 3566 1747 
Q 3566 888 3137 398 
Q 2709 -91 1959 -91 
Q 1206 -91 779 398 
Q 353 888 353 1747 
Q 353 2609 779 3096 
Q 1206 3584 1959 3584 
z
" transform="scale(0.015625)"/>
      <path id="DejaVuSans-72" d="M 2631 2963 
Q 2534 3019 2420 3045 
Q 2306 3072 2169 3072 
Q 1681 3072 1420 2755 
Q 1159 2438 1159 1844 
L 1159 0 
L 581 0 
L 581 3500 
L 1159 3500 
L 1159 2956 
Q 1341 3275 1631 3429 
Q 1922 3584 2338 3584 
Q 2397 3584 2469 3576 
Q 2541 3569 2628 3553 
L 2631 2963 
z
" transform="scale(0.015625)"/>
      <path id="DejaVuSans-6c" d="M 603 4863 
L 1178 4863 
L 1178 0 
L 603 0 
L 603 4863 
z
" transform="scale(0.015625)"/>
      <path id="DejaVuSans-61" d="M 2194 1759 
Q 1497 1759 1228 1600 
Q 959 1441 959 1056 
Q 959 750 1161 570 
Q 1363 391 1709 391 
Q 2188 391 2477 730 
Q 2766 1069 2766 1631 
L 2766 1759 
L 2194 1759 
z
M 3341 1997 
L 3341 0 
L 2766 0 
L 2766 531 
Q 2569 213 2275 61 
Q 1981 -91 1556 -91 
Q 1019 -91 701 211 
Q 384 513 384 1019 
Q 384 1609 779 1909 
Q 1175 2209 1959 2209 
L 2766 2209 
L 2766 2266 
Q 2766 2663 2505 2880 
Q 2244 3097 1772 3097 
Q 1472 3097 1187 3025 
Q 903 2953 641 2809 
L 641 3341 
Q 956 3463 1253 3523 
Q 1550 3584 1831 3584 
Q 2591 3584 2966 3190 
Q 3341 2797 3341 1997 
z
" transform="scale(0.015625)"/>
      <path id="DejaVuSans-70" d="M 1159 525 
L 1159 -1331 
L 581 -1331 
L 581 3500 
L 1159 3500 
L 1159 2969 
Q 1341 3281 1617 3432 
Q 1894 3584 2278 3584 
Q 2916 3584 3314 3078 
Q 3713 2572 3713 1747 
Q 3713 922 3314 415 
Q 2916 -91 2278 -91 
Q 1894 -91 1617 61 
Q 1341 213 1159 525 
z
M 3116 1747 
Q 3116 2381 2855 2742 
Q 2594 3103 2138 3103 
Q 1681 3103 1420 2742 
Q 1159 2381 1159 1747 
Q 1159 1113 1420 752 
Q 1681 391 2138 391 
Q 2594 391 2855 752 
Q 3116 1113 3116 1747 
z
" transform="scale(0.015625)"/>
      <path id="DejaVuSans-62" d="M 3116 1747 
Q 3116 2381 2855 2742 
Q 2594 3103 2138 3103 
Q 1681 3103 1420 2742 
Q 1159 2381 1159 1747 
Q 1159 1113 1420 752 
Q 1681 391 2138 391 
Q 2594 391 2855 752 
Q 3116 1113 3116 1747 
z
M 1159 2969 
Q 1341 3281 1617 3432 
Q 1894 3584 2278 3584 
Q 2916 3584 3314 3078 
Q 3713 2572 3713 1747 
Q 3713 922 3314 415 
Q 2916 -91 2278 -91 
Q 1894 -91 1617 61 
Q 1341 213 1159 525 
L 1159 0 
L 581 0 
L 581 4863 
L 1159 4863 
L 1159 2969 
z
" transform="scale(0.015625)"/>
      <path id="DejaVuSans-73" d="M 2834 3397 
L 2834 2853 
Q 2591 2978 2328 3040 
Q 2066 3103 1784 3103 
Q 1356 3103 1142 2972 
Q 928 2841 928 2578 
Q 928 2378 1081 2264 
Q 1234 2150 1697 2047 
L 1894 2003 
Q 2506 1872 2764 1633 
Q 3022 1394 3022 966 
Q 3022 478 2636 193 
Q 2250 -91 1575 -91 
Q 1294 -91 989 -36 
Q 684 19 347 128 
L 347 722 
Q 666 556 975 473 
Q 1284 391 1588 391 
Q 1994 391 2212 530 
Q 2431 669 2431 922 
Q 2431 1156 2273 1281 
Q 2116 1406 1581 1522 
L 1381 1569 
Q 847 1681 609 1914 
Q 372 2147 372 2553 
Q 372 3047 722 3315 
Q 1072 3584 1716 3584 
Q 2034 3584 2315 3537 
Q 2597 3491 2834 3397 
z
" transform="scale(0.015625)"/>
      <path id="DejaVuSans-64" d="M 2906 2969 
L 2906 4863 
L 3481 4863 
L 3481 0 
L 2906 0 
L 2906 525 
Q 2725 213 2448 61 
Q 2172 -91 1784 -91 
Q 1150 -91 751 415 
Q 353 922 353 1747 
Q 353 2572 751 3078 
Q 1150 3584 1784 3584 
Q 2172 3584 2448 3432 
Q 2725 3281 2906 2969 
z
M 947 1747 
Q 947 1113 1208 752 
Q 1469 391 1925 391 
Q 2381 391 2643 752 
Q 2906 1113 2906 1747 
Q 2906 2381 2643 2742 
Q 2381 3103 1925 3103 
Q 1469 3103 1208 2742 
Q 947 2381 947 1747 
z
" transform="scale(0.015625)"/>
      <path id="DejaVuSans-66" d="M 2375 4863 
L 2375 4384 
L 1825 4384 
Q 1516 4384 1395 4259 
Q 1275 4134 1275 3809 
L 1275 3500 
L 2222 3500 
L 2222 3053 
L 1275 3053 
L 1275 0 
L 697 0 
L 697 3053 
L 147 3053 
L 147 3500 
L 697 3500 
L 697 3744 
Q 697 4328 969 4595 
Q 1241 4863 1831 4863 
L 2375 4863 
z
" transform="scale(0.015625)"/>
      <path id="DejaVuSans-6e" d="M 3513 2113 
L 3513 0 
L 2938 0 
L 2938 2094 
Q 2938 2591 2744 2837 
Q 2550 3084 2163 3084 
Q 1697 3084 1428 2787 
Q 1159 2491 1159 1978 
L 1159 0 
L 581 0 
L 581 3500 
L 1159 3500 
L 1159 2956 
Q 1366 3272 1645 3428 
Q 1925 3584 2291 3584 
Q 2894 3584 3203 3211 
Q 3513 2838 3513 2113 
z
" transform="scale(0.015625)"/>
      <path id="DejaVuSans-63" d="M 3122 3366 
L 3122 2828 
Q 2878 2963 2633 3030 
Q 2388 3097 2138 3097 
Q 1578 3097 1268 2742 
Q 959 2388 959 1747 
Q 959 1106 1268 751 
Q 1578 397 2138 397 
Q 2388 397 2633 464 
Q 2878 531 3122 666 
L 3122 134 
Q 2881 22 2623 -34 
Q 2366 -91 2075 -91 
Q 1284 -91 818 406 
Q 353 903 353 1747 
Q 353 2603 823 3093 
Q 1294 3584 2113 3584 
Q 2378 3584 2631 3529 
Q 2884 3475 3122 3366 
z
" transform="scale(0.015625)"/>
      <path id="DejaVuSans-2c" d="M 750 794 
L 1409 794 
L 1409 256 
L 897 -744 
L 494 -744 
L 750 256 
L 750 794 
z
" transform="scale(0.015625)"/>
      <path id="DejaVuSans-6d" d="M 3328 2828 
Q 3544 3216 3844 3400 
Q 4144 3584 4550 3584 
Q 5097 3584 5394 3201 
Q 5691 2819 5691 2113 
L 5691 0 
L 5113 0 
L 5113 2094 
Q 5113 2597 4934 2840 
Q 4756 3084 4391 3084 
Q 3944 3084 3684 2787 
Q 3425 2491 3425 1978 
L 3425 0 
L 2847 0 
L 2847 2094 
Q 2847 2600 2669 2842 
Q 2491 3084 2119 3084 
Q 1678 3084 1418 2786 
Q 1159 2488 1159 1978 
L 1159 0 
L 581 0 
L 581 3500 
L 1159 3500 
L 1159 2956 
Q 1356 3278 1631 3431 
Q 1906 3584 2284 3584 
Q 2666 3584 2933 3390 
Q 3200 3197 3328 2828 
z
" transform="scale(0.015625)"/>
      <path id="DejaVuSans-4e" d="M 628 4666 
L 1478 4666 
L 3547 763 
L 3547 4666 
L 4159 4666 
L 4159 0 
L 3309 0 
L 1241 3903 
L 1241 0 
L 628 0 
L 628 4666 
z
" transform="scale(0.015625)"/>
      <path id="DejaVuSans-4f" d="M 2522 4238 
Q 1834 4238 1429 3725 
Q 1025 3213 1025 2328 
Q 1025 1447 1429 934 
Q 1834 422 2522 422 
Q 3209 422 3611 934 
Q 4013 1447 4013 2328 
Q 4013 3213 3611 3725 
Q 3209 4238 2522 4238 
z
M 2522 4750 
Q 3503 4750 4090 4092 
Q 4678 3434 4678 2328 
Q 4678 1225 4090 567 
Q 3503 -91 2522 -91 
Q 1538 -91 948 565 
Q 359 1222 359 2328 
Q 359 3434 948 4092 
Q 1538 4750 2522 4750 
z
" transform="scale(0.015625)"/>
      <path id="DejaVuSans-54" d="M -19 4666 
L 3928 4666 
L 3928 4134 
L 2272 4134 
L 2272 0 
L 1638 0 
L 1638 4134 
L -19 4134 
L -19 4666 
z
" transform="scale(0.015625)"/>
      <path id="DejaVuSans-71" d="M 947 1747 
Q 947 1113 1208 752 
Q 1469 391 1925 391 
Q 2381 391 2643 752 
Q 2906 1113 2906 1747 
Q 2906 2381 2643 2742 
Q 2381 3103 1925 3103 
Q 1469 3103 1208 2742 
Q 947 2381 947 1747 
z
M 2906 525 
Q 2725 213 2448 61 
Q 2172 -91 1784 -91 
Q 1150 -91 751 415 
Q 353 922 353 1747 
Q 353 2572 751 3078 
Q 1150 3584 1784 3584 
Q 2172 3584 2448 3432 
Q 2725 3281 2906 2969 
L 2906 3500 
L 3481 3500 
L 3481 -1331 
L 2906 -1331 
L 2906 525 
z
" transform="scale(0.015625)"/>
     </defs>
     <use xlink:href="#DejaVuSans-74"/>
     <use xlink:href="#DejaVuSans-68" transform="translate(39.208984 0)"/>
     <use xlink:href="#DejaVuSans-65" transform="translate(102.587891 0)"/>
     <use xlink:href="#DejaVuSans-20" transform="translate(164.111328 0)"/>
     <use xlink:href="#DejaVuSans-6f" transform="translate(195.898438 0)"/>
     <use xlink:href="#DejaVuSans-76" transform="translate(257.080078 0)"/>
     <use xlink:href="#DejaVuSans-65" transform="translate(316.259766 0)"/>
     <use xlink:href="#DejaVuSans-72" transform="translate(377.783203 0)"/>
     <use xlink:href="#DejaVuSans-6c" transform="translate(418.896484 0)"/>
     <use xlink:href="#DejaVuSans-61" transform="translate(446.679688 0)"/>
     <use xlink:href="#DejaVuSans-70" transform="translate(507.958984 0)"/>
     <use xlink:href="#DejaVuSans-20" transform="translate(571.435547 0)"/>
     <use xlink:href="#DejaVuSans-61" transform="translate(603.222656 0)"/>
     <use xlink:href="#DejaVuSans-62" transform="translate(664.501953 0)"/>
     <use xlink:href="#DejaVuSans-73" transform="translate(727.978516 0)"/>
     <use xlink:href="#DejaVuSans-6f" transform="translate(780.078125 0)"/>
     <use xlink:href="#DejaVuSans-72" transform="translate(841.259766 0)"/>
     <use xlink:href="#DejaVuSans-62" transform="translate(882.373047 0)"/>
     <use xlink:href="#DejaVuSans-73" transform="translate(945.849609 0)"/>
     <use xlink:href="#DejaVuSans-20" transform="translate(997.949219 0)"/>
     <use xlink:href="#DejaVuSans-74" transform="translate(1029.736328 0)"/>
     <use xlink:href="#DejaVuSans-68" transform="translate(1068.945312 0)"/>
     <use xlink:href="#DejaVuSans-65" transform="translate(1132.324219 0)"/>
     <use xlink:href="#DejaVuSans-20" transform="translate(1193.847656 0)"/>
     <use xlink:href="#DejaVuSans-64" transform="translate(1225.634766 0)"/>
     <use xlink:href="#DejaVuSans-69" transform="translate(1289.111328 0)"/>
     <use xlink:href="#DejaVuSans-66" transform="translate(1316.894531 0)"/>
     <use xlink:href="#DejaVuSans-66" transform="translate(1352.099609 0)"/>
     <use xlink:href="#DejaVuSans-65" transform="translate(1387.304688 0)"/>
     <use xlink:href="#DejaVuSans-72" transform="translate(1448.828125 0)"/>
     <use xlink:href="#DejaVuSans-65" transform="translate(1487.691406 0)"/>
     <use xlink:href="#DejaVuSans-6e" transform="translate(1549.214844 0)"/>
     <use xlink:href="#DejaVuSans-63" transform="translate(1612.59375 0)"/>
     <use xlink:href="#DejaVuSans-65" transform="translate(1667.574219 0)"/>
     <use xlink:href="#DejaVuSans-2c" transform="translate(1729.097656 0)"/>
     <use xlink:href="#DejaVuSans-20" transform="translate(1760.884766 0)"/>
     <use xlink:href="#DejaVuSans-73" transform="translate(1792.671875 0)"/>
     <use xlink:href="#DejaVuSans-6f" transform="translate(1844.771484 0)"/>
     <use xlink:href="#DejaVuSans-20" transform="translate(1905.953125 0)"/>
     <use xlink:href="#DejaVuSans-74" transform="translate(1937.740234 0)"/>
     <use xlink:href="#DejaVuSans-68" transform="translate(1976.949219 0)"/>
     <use xlink:href="#DejaVuSans-65" transform="translate(2040.328125 0)"/>
     <use xlink:href="#DejaVuSans-20" transform="translate(2101.851562 0)"/>
     <use xlink:href="#DejaVuSans-64" transform="translate(2133.638672 0)"/>
     <use xlink:href="#DejaVuSans-65" transform="translate(2197.115234 0)"/>
     <use xlink:href="#DejaVuSans-63" transform="translate(2258.638672 0)"/>
     <use xlink:href="#DejaVuSans-6f" transform="translate(2313.619141 0)"/>
     <use xlink:href="#DejaVuSans-6d" transform="translate(2374.800781 0)"/>
     <use xlink:href="#DejaVuSans-70" transform="translate(2472.212891 0)"/>
     <use xlink:href="#DejaVuSans-6f" transform="translate(2535.689453 0)"/>
     <use xlink:href="#DejaVuSans-73" transform="translate(2596.871094 0)"/>
     <use xlink:href="#DejaVuSans-69" transform="translate(2648.970703 0)"/>
     <use xlink:href="#DejaVuSans-74" transform="translate(2676.753906 0)"/>
     <use xlink:href="#DejaVuSans-69" transform="translate(2715.962891 0)"/>
     <use xlink:href="#DejaVuSans-6f" transform="translate(2743.746094 0)"/>
     <use xlink:href="#DejaVuSans-6e" transform="translate(2804.927734 0)"/>
     <use xlink:href="#DejaVuSans-20" transform="translate(2868.306641 0)"/>
     <use xlink:href="#DejaVuSans-69" transform="translate(2900.09375 0)"/>
     <use xlink:href="#DejaVuSans-73" transform="translate(2927.876953 0)"/>
     <use xlink:href="#DejaVuSans-20" transform="translate(2979.976562 0)"/>
     <use xlink:href="#DejaVuSans-4e" transform="translate(3011.763672 0)"/>
     <use xlink:href="#DejaVuSans-4f" transform="translate(3086.568359 0)"/>
     <use xlink:href="#DejaVuSans-54" transform="translate(3165.279297 0)"/>
     <use xlink:href="#DejaVuSans-20" transform="translate(3226.363281 0)"/>
     <use xlink:href="#DejaVuSans-75" transform="translate(3258.150391 0)"/>
     <use xlink:href="#DejaVuSans-6e" transform="translate(3321.529297 0)"/>
     <use xlink:href="#DejaVuSans-69" transform="translate(3384.908203 0)"/>
     <use xlink:href="#DejaVuSans-71" transform="translate(3412.691406 0)"/>
     <use xlink:href="#DejaVuSans-75" transform="translate(3476.167969 0)"/>
     <use xlink:href="#DejaVuSans-65" transform="translate(3539.546875 0)"/>
    </g>
   </g>
   <g id="text_11">
    <!-- U + W when U ∩ W ≠ {0} :  the same v decomposes in many ways -->
    <g transform="translate(16.135731 19.918125) scale(0.12 -0.12)">
     <defs>
      <path id="DejaVuSans-Oblique-2b" d="M 2944 4013 
L 2944 2272 
L 4684 2272 
L 4684 1741 
L 2944 1741 
L 2944 0 
L 2419 0 
L 2419 1741 
L 678 1741 
L 678 2272 
L 2419 2272 
L 2419 4013 
L 2944 4013 
z
" transform="scale(0.015625)"/>
      <path id="DejaVuSans-Oblique-77" d="M 544 3500 
L 1113 3500 
L 1259 684 
L 2566 3500 
L 3231 3500 
L 3425 684 
L 4666 3500 
L 5241 3500 
L 3641 0 
L 2969 0 
L 2797 2900 
L 1459 0 
L 781 0 
L 544 3500 
z
" transform="scale(0.015625)"/>
      <path id="DejaVuSans-Oblique-68" d="M 3566 2113 
L 3156 0 
L 2578 0 
L 2988 2091 
Q 3016 2238 3031 2350 
Q 3047 2463 3047 2528 
Q 3047 2791 2881 2937 
Q 2716 3084 2419 3084 
Q 1956 3084 1617 2771 
Q 1278 2459 1178 1941 
L 800 0 
L 225 0 
L 1172 4863 
L 1747 4863 
L 1375 2950 
Q 1594 3244 1934 3414 
Q 2275 3584 2650 3584 
Q 3113 3584 3367 3334 
Q 3622 3084 3622 2631 
Q 3622 2519 3608 2391 
Q 3594 2263 3566 2113 
z
" transform="scale(0.015625)"/>
      <path id="DejaVuSans-Oblique-2260" d="M 678 2906 
L 3091 2906 
L 3891 3891 
L 4281 3572 
L 3738 2906 
L 4684 2906 
L 4684 2381 
L 3309 2381 
L 2700 1631 
L 4684 1631 
L 4684 1100 
L 2266 1100 
L 1459 122 
L 1069 441 
L 1613 1100 
L 678 1100 
L 678 1631 
L 2047 1631 
L 2656 2381 
L 678 2381 
L 678 2906 
z
" transform="scale(0.015625)"/>
      <path id="DejaVuSans-Oblique-7b" d="M 3872 4863 
L 3781 4416 
L 3541 4416 
Q 3116 4416 2969 4292 
Q 2822 4169 2725 3700 
L 2566 2913 
Q 2466 2413 2277 2186 
Q 2088 1959 1741 1894 
Q 1969 1838 2095 1677 
Q 2222 1516 2222 1281 
Q 2222 1206 2209 1103 
Q 2197 1000 2175 881 
L 2028 119 
Q 2013 22 2005 -61 
Q 1997 -144 1997 -219 
Q 1997 -416 2130 -505 
Q 2263 -594 2566 -594 
L 2809 -594 
L 2719 -1044 
L 2497 -1044 
Q 1909 -1044 1656 -873 
Q 1403 -703 1403 -319 
Q 1403 -219 1414 -112 
Q 1425 -6 1447 109 
L 1588 844 
Q 1588 853 1594 881 
Q 1625 1038 1625 1178 
Q 1625 1444 1472 1561 
Q 1319 1678 966 1678 
L 775 1678 
L 863 2138 
L 1056 2138 
Q 1506 2138 1704 2308 
Q 1903 2478 2003 2950 
L 2150 3713 
Q 2231 4097 2342 4320 
Q 2453 4544 2625 4666 
Q 2769 4772 2984 4817 
Q 3200 4863 3616 4863 
L 3872 4863 
z
" transform="scale(0.015625)"/>
      <path id="DejaVuSans-Oblique-30" d="M 2444 4750 
Q 3078 4750 3414 4328 
Q 3750 3906 3750 3116 
Q 3750 2516 3592 1923 
Q 3434 1331 3150 863 
Q 2859 394 2467 151 
Q 2075 -91 1600 -91 
Q 988 -91 653 334 
Q 319 759 319 1544 
Q 319 2138 480 2733 
Q 641 3328 928 3794 
Q 1216 4263 1602 4506 
Q 1988 4750 2444 4750 
z
M 2406 4250 
Q 2169 4250 1955 4123 
Q 1741 3997 1569 3750 
Q 1281 3338 1111 2720 
Q 941 2103 941 1453 
Q 941 938 1123 673 
Q 1306 409 1663 409 
Q 1913 409 2125 536 
Q 2338 663 2509 909 
Q 2794 1319 2961 1936 
Q 3128 2553 3128 3206 
Q 3128 3722 2945 3986 
Q 2763 4250 2406 4250 
z
" transform="scale(0.015625)"/>
      <path id="DejaVuSans-Oblique-7d" d="M 44 -1044 
L 134 -594 
L 378 -594 
Q 803 -594 950 -470 
Q 1097 -347 1191 122 
L 1350 909 
Q 1453 1409 1640 1636 
Q 1828 1863 2175 1925 
Q 1947 1984 1822 2143 
Q 1697 2303 1697 2541 
Q 1697 2619 1708 2719 
Q 1719 2819 1741 2938 
L 1888 3697 
Q 1906 3803 1912 3881 
Q 1919 3959 1919 4038 
Q 1919 4238 1786 4327 
Q 1653 4416 1350 4416 
L 1106 4416 
L 1191 4863 
L 1422 4863 
Q 2006 4863 2261 4694 
Q 2516 4525 2516 4141 
Q 2516 4044 2505 3937 
Q 2494 3831 2469 3709 
L 2328 2975 
Q 2328 2966 2322 2938 
Q 2291 2784 2291 2644 
Q 2291 2375 2444 2259 
Q 2597 2144 2950 2144 
L 3144 2144 
L 3053 1684 
L 2859 1684 
Q 2409 1684 2212 1512 
Q 2016 1341 1925 872 
L 1759 109 
Q 1678 -284 1568 -504 
Q 1459 -725 1294 -844 
Q 1147 -950 931 -997 
Q 716 -1044 300 -1044 
L 44 -1044 
z
" transform="scale(0.015625)"/>
      <path id="DejaVuSans-Oblique-3a" d="M 978 3309 
L 1638 3309 
L 1484 2516 
L 825 2516 
L 978 3309 
z
M 488 794 
L 1147 794 
L 991 0 
L 331 0 
L 488 794 
z
" transform="scale(0.015625)"/>
      <path id="DejaVuSans-Oblique-74" d="M 2706 3500 
L 2619 3053 
L 1472 3053 
L 1100 1153 
Q 1081 1047 1072 975 
Q 1063 903 1063 863 
Q 1063 663 1183 572 
Q 1303 481 1569 481 
L 2150 481 
L 2053 0 
L 1503 0 
Q 991 0 739 200 
Q 488 400 488 806 
Q 488 878 497 964 
Q 506 1050 525 1153 
L 897 3053 
L 409 3053 
L 500 3500 
L 978 3500 
L 1172 4494 
L 1747 4494 
L 1556 3500 
L 2706 3500 
z
" transform="scale(0.015625)"/>
      <path id="DejaVuSans-Oblique-6d" d="M 5747 2113 
L 5338 0 
L 4763 0 
L 5166 2094 
Q 5191 2228 5203 2325 
Q 5216 2422 5216 2491 
Q 5216 2772 5059 2928 
Q 4903 3084 4622 3084 
Q 4203 3084 3875 2770 
Q 3547 2456 3450 1953 
L 3066 0 
L 2491 0 
L 2900 2094 
Q 2925 2209 2937 2307 
Q 2950 2406 2950 2484 
Q 2950 2769 2794 2926 
Q 2638 3084 2363 3084 
Q 1938 3084 1609 2770 
Q 1281 2456 1184 1953 
L 800 0 
L 225 0 
L 909 3500 
L 1484 3500 
L 1375 2956 
Q 1609 3263 1923 3423 
Q 2238 3584 2597 3584 
Q 2978 3584 3223 3384 
Q 3469 3184 3519 2828 
Q 3781 3197 4126 3390 
Q 4472 3584 4856 3584 
Q 5306 3584 5551 3325 
Q 5797 3066 5797 2591 
Q 5797 2488 5784 2364 
Q 5772 2241 5747 2113 
z
" transform="scale(0.015625)"/>
      <path id="DejaVuSans-Oblique-64" d="M 2675 525 
Q 2444 222 2128 65 
Q 1813 -91 1428 -91 
Q 903 -91 598 267 
Q 294 625 294 1247 
Q 294 1766 478 2236 
Q 663 2706 1013 3078 
Q 1244 3325 1534 3454 
Q 1825 3584 2144 3584 
Q 2481 3584 2739 3421 
Q 2997 3259 3138 2956 
L 3513 4863 
L 4091 4863 
L 3144 0 
L 2566 0 
L 2675 525 
z
M 891 1350 
Q 891 897 1095 644 
Q 1300 391 1663 391 
Q 1931 391 2161 520 
Q 2391 650 2566 903 
Q 2750 1166 2856 1509 
Q 2963 1853 2963 2188 
Q 2963 2622 2758 2865 
Q 2553 3109 2194 3109 
Q 1922 3109 1687 2981 
Q 1453 2853 1288 2613 
Q 1106 2353 998 2009 
Q 891 1666 891 1350 
z
" transform="scale(0.015625)"/>
      <path id="DejaVuSans-Oblique-63" d="M 3431 3366 
L 3316 2797 
Q 3109 2947 2876 3022 
Q 2644 3097 2394 3097 
Q 2119 3097 1870 3000 
Q 1622 2903 1453 2725 
Q 1184 2453 1037 2087 
Q 891 1722 891 1331 
Q 891 859 1127 628 
Q 1363 397 1844 397 
Q 2081 397 2348 469 
Q 2616 541 2906 684 
L 2797 116 
Q 2547 13 2283 -39 
Q 2019 -91 1741 -91 
Q 1044 -91 669 257 
Q 294 606 294 1253 
Q 294 1797 489 2255 
Q 684 2713 1069 3078 
Q 1331 3328 1684 3456 
Q 2038 3584 2456 3584 
Q 2700 3584 2940 3529 
Q 3181 3475 3431 3366 
z
" transform="scale(0.015625)"/>
      <path id="DejaVuSans-Oblique-6f" d="M 1625 -91 
Q 1009 -91 651 289 
Q 294 669 294 1325 
Q 294 1706 417 2101 
Q 541 2497 738 2766 
Q 1047 3184 1428 3384 
Q 1809 3584 2291 3584 
Q 2888 3584 3255 3212 
Q 3622 2841 3622 2241 
Q 3622 1825 3500 1412 
Q 3378 1000 3181 728 
Q 2875 309 2494 109 
Q 2113 -91 1625 -91 
z
M 891 1344 
Q 891 869 1089 633 
Q 1288 397 1691 397 
Q 2269 397 2648 901 
Q 3028 1406 3028 2181 
Q 3028 2634 2825 2865 
Q 2622 3097 2228 3097 
Q 1903 3097 1650 2945 
Q 1397 2794 1197 2484 
Q 1050 2253 970 1956 
Q 891 1659 891 1344 
z
" transform="scale(0.015625)"/>
     </defs>
     <use xlink:href="#DejaVuSans-Oblique-55"/>
     <use xlink:href="#DejaVuSans-Oblique-20" transform="translate(73.193359 0)"/>
     <use xlink:href="#DejaVuSans-Oblique-2b" transform="translate(104.980469 0)"/>
     <use xlink:href="#DejaVuSans-Oblique-20" transform="translate(188.769531 0)"/>
     <use xlink:href="#DejaVuSans-Oblique-57" transform="translate(220.556641 0)"/>
     <use xlink:href="#DejaVuSans-Oblique-20" transform="translate(319.433594 0)"/>
     <use xlink:href="#DejaVuSans-Oblique-77" transform="translate(351.220703 0)"/>
     <use xlink:href="#DejaVuSans-Oblique-68" transform="translate(433.007812 0)"/>
     <use xlink:href="#DejaVuSans-Oblique-65" transform="translate(496.386719 0)"/>
     <use xlink:href="#DejaVuSans-Oblique-6e" transform="translate(557.910156 0)"/>
     <use xlink:href="#DejaVuSans-Oblique-20" transform="translate(621.289062 0)"/>
     <use xlink:href="#DejaVuSans-Oblique-55" transform="translate(653.076172 0)"/>
     <use xlink:href="#DejaVuSans-Oblique-20" transform="translate(726.269531 0)"/>
     <use xlink:href="#DejaVuSans-Oblique-2229" transform="translate(758.056641 0)"/>
     <use xlink:href="#DejaVuSans-Oblique-20" transform="translate(831.25 0)"/>
     <use xlink:href="#DejaVuSans-Oblique-57" transform="translate(863.037109 0)"/>
     <use xlink:href="#DejaVuSans-Oblique-20" transform="translate(961.914062 0)"/>
     <use xlink:href="#DejaVuSans-Oblique-2260" transform="translate(993.701172 0)"/>
     <use xlink:href="#DejaVuSans-Oblique-20" transform="translate(1077.490234 0)"/>
     <use xlink:href="#DejaVuSans-Oblique-7b" transform="translate(1109.277344 0)"/>
     <use xlink:href="#DejaVuSans-Oblique-30" transform="translate(1172.900391 0)"/>
     <use xlink:href="#DejaVuSans-Oblique-7d" transform="translate(1236.523438 0)"/>
     <use xlink:href="#DejaVuSans-Oblique-20" transform="translate(1300.146484 0)"/>
     <use xlink:href="#DejaVuSans-Oblique-3a" transform="translate(1331.933594 0)"/>
     <use xlink:href="#DejaVuSans-Oblique-20" transform="translate(1365.625 0)"/>
     <use xlink:href="#DejaVuSans-Oblique-20" transform="translate(1397.412109 0)"/>
     <use xlink:href="#DejaVuSans-Oblique-74" transform="translate(1429.199219 0)"/>
     <use xlink:href="#DejaVuSans-Oblique-68" transform="translate(1468.408203 0)"/>
     <use xlink:href="#DejaVuSans-Oblique-65" transform="translate(1531.787109 0)"/>
     <use xlink:href="#DejaVuSans-Oblique-20" transform="translate(1593.310547 0)"/>
     <use xlink:href="#DejaVuSans-Oblique-73" transform="translate(1625.097656 0)"/>
     <use xlink:href="#DejaVuSans-Oblique-61" transform="translate(1677.197266 0)"/>
     <use xlink:href="#DejaVuSans-Oblique-6d" transform="translate(1738.476562 0)"/>
     <use xlink:href="#DejaVuSans-Oblique-65" transform="translate(1835.888672 0)"/>
     <use xlink:href="#DejaVuSans-Oblique-20" transform="translate(1897.412109 0)"/>
     <use xlink:href="#DejaVuSans-Oblique-76" transform="translate(1929.199219 0)"/>
     <use xlink:href="#DejaVuSans-Oblique-20" transform="translate(1988.378906 0)"/>
     <use xlink:href="#DejaVuSans-Oblique-64" transform="translate(2020.166016 0)"/>
     <use xlink:href="#DejaVuSans-Oblique-65" transform="translate(2083.642578 0)"/>
     <use xlink:href="#DejaVuSans-Oblique-63" transform="translate(2145.166016 0)"/>
     <use xlink:href="#DejaVuSans-Oblique-6f" transform="translate(2200.146484 0)"/>
     <use xlink:href="#DejaVuSans-Oblique-6d" transform="translate(2261.328125 0)"/>
     <use xlink:href="#DejaVuSans-Oblique-70" transform="translate(2358.740234 0)"/>
     <use xlink:href="#DejaVuSans-Oblique-6f" transform="translate(2422.216797 0)"/>
     <use xlink:href="#DejaVuSans-Oblique-73" transform="translate(2483.398438 0)"/>
     <use xlink:href="#DejaVuSans-Oblique-65" transform="translate(2535.498047 0)"/>
     <use xlink:href="#DejaVuSans-Oblique-73" transform="translate(2597.021484 0)"/>
     <use xlink:href="#DejaVuSans-Oblique-20" transform="translate(2649.121094 0)"/>
     <use xlink:href="#DejaVuSans-Oblique-69" transform="translate(2680.908203 0)"/>
     <use xlink:href="#DejaVuSans-Oblique-6e" transform="translate(2708.691406 0)"/>
     <use xlink:href="#DejaVuSans-Oblique-20" transform="translate(2772.070312 0)"/>
     <use xlink:href="#DejaVuSans-Oblique-6d" transform="translate(2803.857422 0)"/>
     <use xlink:href="#DejaVuSans-Oblique-61" transform="translate(2901.269531 0)"/>
     <use xlink:href="#DejaVuSans-Oblique-6e" transform="translate(2962.548828 0)"/>
     <use xlink:href="#DejaVuSans-Oblique-79" transform="translate(3025.927734 0)"/>
     <use xlink:href="#DejaVuSans-Oblique-20" transform="translate(3085.107422 0)"/>
     <use xlink:href="#DejaVuSans-Oblique-77" transform="translate(3116.894531 0)"/>
     <use xlink:href="#DejaVuSans-Oblique-61" transform="translate(3198.681641 0)"/>
     <use xlink:href="#DejaVuSans-Oblique-79" transform="translate(3259.960938 0)"/>
     <use xlink:href="#DejaVuSans-Oblique-73" transform="translate(3319.140625 0)"/>
    </g>
   </g>
  </g>
 </g>
 <defs>
  <clipPath id="pb32335e009">
   <rect x="10.8" y="25.918125" width="415.210213" height="354.816"/>
  </clipPath>
 </defs>
</svg>
