<?xml version="1.0" encoding="utf-8" standalone="no"?>
<!DOCTYPE svg PUBLIC "-//W3C//DTD SVG 1.1//EN"
  "http://www.w3.org/Graphics/SVG/1.1/DTD/svg11.dtd">
<svg xmlns:xlink="http://www.w3.org/1999/xlink" width="563.919652pt" height="315.072pt" viewBox="0 0 563.919652 315.072" xmlns="http://www.w3.org/2000/svg" version="1.1">
 <metadata>
  <rdf:RDF xmlns:dc="http://purl.org/dc/elements/1.1/" xmlns:cc="http://creativecommons.org/ns#" xmlns:rdf="http://www.w3.org/1999/02/22-rdf-syntax-ns#">
   <cc:Work>
    <dc:type rdf:resource="http://purl.org/dc/dcmitype/StillImage"/>
    <dc:date>2026-05-16T21:05:10.600970</dc:date>
    <dc:format>image/svg+xml</dc:format>
    <dc:creator>
     <cc:Agent>
      <dc:title>Matplotlib v3.10.8, https://matplotlib.org/</dc:title>
     </cc:Agent>
    </dc:creator>
   </cc:Work>
  </rdf:RDF>
 </metadata>
 <defs>
  <style type="text/css">*{stroke-linejoin: round; stroke-linecap: butt}</style>
 </defs>
 <g id="figure_1">
  <g id="patch_1">
   <path d="M 0 315.072 
L 563.919652 315.072 
L 563.919652 0 
L 0 0 
z
" style="fill: #ffffff"/>
  </g>
  <g id="axes_1">
   <g id="patch_2">
    <path d="M 7.2 297.468174 
L 322.591304 297.468174 
L 322.591304 52.163826 
L 7.2 52.163826 
z
" style="fill: #ffffff"/>
   </g>
   <g id="matplotlib.axis_1"/>
   <g id="matplotlib.axis_2"/>
   <g id="line2d_1">
    <path d="M 7.2 174.816 
L 322.591304 174.816 
" clip-path="url(#p8b04e82f2f)" style="fill: none; stroke: #bbbbbb; stroke-width: 0.7; stroke-linecap: square"/>
   </g>
   <g id="line2d_2">
    <path d="M 164.895652 297.468174 
L 164.895652 52.163826 
" clip-path="url(#p8b04e82f2f)" style="fill: none; stroke: #bbbbbb; stroke-width: 0.7; stroke-linecap: square"/>
   </g>
   <g id="line2d_3">
    <path d="M 24.721739 314.989913 
L 305.069565 174.816 
" clip-path="url(#p8b04e82f2f)" style="fill: none; stroke: #8b5b9d; stroke-opacity: 0.7; stroke-width: 1.8; stroke-linecap: square"/>
   </g>
   <g id="line2d_4">
    <defs>
     <path id="m3964c566a4" d="M 0 3 
C 0.795609 3 1.55874 2.683901 2.12132 2.12132 
C 2.683901 1.55874 3 0.795609 3 0 
C 3 -0.795609 2.683901 -1.55874 2.12132 -2.12132 
C 1.55874 -2.683901 0.795609 -3 0 -3 
C -0.795609 -3 -1.55874 -2.683901 -2.12132 -2.12132 
C -2.683901 -1.55874 -3 -0.795609 -3 0 
C -3 0.795609 -2.683901 1.55874 -2.12132 2.12132 
C -1.55874 2.683901 -0.795609 3 0 3 
z
" style="stroke: #8b5b9d"/>
    </defs>
    <g clip-path="url(#p8b04e82f2f)">
     <use xlink:href="#m3964c566a4" x="234.982609" y="209.859478" style="fill: #8b5b9d; stroke: #8b5b9d"/>
    </g>
   </g>
   <g id="line2d_5">
    <path d="M 24.721739 279.946435 
L 305.069565 139.772522 
" clip-path="url(#p8b04e82f2f)" style="fill: none; stroke: #9d5b7e; stroke-opacity: 0.7; stroke-width: 1.8; stroke-linecap: square"/>
   </g>
   <g id="line2d_6">
    <defs>
     <path id="m73315684c8" d="M 0 3 
C 0.795609 3 1.55874 2.683901 2.12132 2.12132 
C 2.683901 1.55874 3 0.795609 3 0 
C 3 -0.795609 2.683901 -1.55874 2.12132 -2.12132 
C 1.55874 -2.683901 0.795609 -3 0 -3 
C -0.795609 -3 -1.55874 -2.683901 -2.12132 -2.12132 
C -2.683901 -1.55874 -3 -0.795609 -3 0 
C -3 0.795609 -2.683901 1.55874 -2.12132 2.12132 
C -1.55874 2.683901 -0.795609 3 0 3 
z
" style="stroke: #9d5b7e"/>
    </defs>
    <g clip-path="url(#p8b04e82f2f)">
     <use xlink:href="#m73315684c8" x="234.982609" y="174.816" style="fill: #9d5b7e; stroke: #9d5b7e"/>
    </g>
   </g>
   <g id="line2d_7">
    <path d="M 24.721739 244.902957 
L 305.069565 104.729043 
" clip-path="url(#p8b04e82f2f)" style="fill: none; stroke: #2a4d8f; stroke-width: 2.5; stroke-linecap: square"/>
   </g>
   <g id="line2d_8">
    <defs>
     <path id="m12d53689e9" d="M 0 3 
C 0.795609 3 1.55874 2.683901 2.12132 2.12132 
C 2.683901 1.55874 3 0.795609 3 0 
C 3 -0.795609 2.683901 -1.55874 2.12132 -2.12132 
C 1.55874 -2.683901 0.795609 -3 0 -3 
C -0.795609 -3 -1.55874 -2.683901 -2.12132 -2.12132 
C -2.683901 -1.55874 -3 -0.795609 -3 0 
C -3 0.795609 -2.683901 1.55874 -2.12132 2.12132 
C -1.55874 2.683901 -0.795609 3 0 3 
z
" style="stroke: #2a4d8f"/>
    </defs>
    <g clip-path="url(#p8b04e82f2f)">
     <use xlink:href="#m12d53689e9" x="234.982609" y="139.772522" style="fill: #2a4d8f; stroke: #2a4d8f"/>
    </g>
   </g>
   <g id="line2d_9">
    <path d="M 24.721739 209.859478 
L 305.069565 69.685565 
" clip-path="url(#p8b04e82f2f)" style="fill: none; stroke: #bf7b3a; stroke-opacity: 0.7; stroke-width: 1.8; stroke-linecap: square"/>
   </g>
   <g id="line2d_10">
    <defs>
     <path id="m12a819a92c" d="M 0 3 
C 0.795609 3 1.55874 2.683901 2.12132 2.12132 
C 2.683901 1.55874 3 0.795609 3 0 
C 3 -0.795609 2.683901 -1.55874 2.12132 -2.12132 
C 1.55874 -2.683901 0.795609 -3 0 -3 
C -0.795609 -3 -1.55874 -2.683901 -2.12132 -2.12132 
C -2.683901 -1.55874 -3 -0.795609 -3 0 
C -3 0.795609 -2.683901 1.55874 -2.12132 2.12132 
C -1.55874 2.683901 -0.795609 3 0 3 
z
" style="stroke: #bf7b3a"/>
    </defs>
    <g clip-path="url(#p8b04e82f2f)">
     <use xlink:href="#m12a819a92c" x="234.982609" y="104.729043" style="fill: #bf7b3a; stroke: #bf7b3a"/>
    </g>
   </g>
   <g id="line2d_11">
    <path d="M 24.721739 174.816 
L 305.069565 34.642087 
" clip-path="url(#p8b04e82f2f)" style="fill: none; stroke: #6b8b3a; stroke-opacity: 0.7; stroke-width: 1.8; stroke-linecap: square"/>
   </g>
   <g id="line2d_12">
    <defs>
     <path id="me37cf9437b" d="M 0 3 
C 0.795609 3 1.55874 2.683901 2.12132 2.12132 
C 2.683901 1.55874 3 0.795609 3 0 
C 3 -0.795609 2.683901 -1.55874 2.12132 -2.12132 
C 1.55874 -2.683901 0.795609 -3 0 -3 
C -0.795609 -3 -1.55874 -2.683901 -2.12132 -2.12132 
C -2.683901 -1.55874 -3 -0.795609 -3 0 
C -3 0.795609 -2.683901 1.55874 -2.12132 2.12132 
C -1.55874 2.683901 -0.795609 3 0 3 
z
" style="stroke: #6b8b3a"/>
    </defs>
    <g clip-path="url(#p8b04e82f2f)">
     <use xlink:href="#me37cf9437b" x="234.982609" y="69.685565" style="fill: #6b8b3a; stroke: #6b8b3a"/>
    </g>
   </g>
   <g id="line2d_13">
    <defs>
     <path id="mee9f9ff3f0" d="M 0 2.5 
C 0.663008 2.5 1.29895 2.236584 1.767767 1.767767 
C 2.236584 1.29895 2.5 0.663008 2.5 0 
C 2.5 -0.663008 2.236584 -1.29895 1.767767 -1.767767 
C 1.29895 -2.236584 0.663008 -2.5 0 -2.5 
C -0.663008 -2.5 -1.29895 -2.236584 -1.767767 -1.767767 
C -2.236584 -1.29895 -2.5 -0.663008 -2.5 0 
C -2.5 0.663008 -2.236584 1.29895 -1.767767 1.767767 
C -1.29895 2.236584 -0.663008 2.5 0 2.5 
z
" style="stroke: #222222"/>
    </defs>
    <g clip-path="url(#p8b04e82f2f)">
     <use xlink:href="#mee9f9ff3f0" x="164.895652" y="174.816" style="fill: #222222; stroke: #222222"/>
    </g>
   </g>
   <g id="patch_3">
    <path d="M 7.2 297.468174 
L 7.2 52.163826 
" style="fill: none; stroke: #dddddd; stroke-width: 0.8; stroke-linejoin: miter; stroke-linecap: square"/>
   </g>
   <g id="patch_4">
    <path d="M 322.591304 297.468174 
L 322.591304 52.163826 
" style="fill: none; stroke: #dddddd; stroke-width: 0.8; stroke-linejoin: miter; stroke-linecap: square"/>
   </g>
   <g id="patch_5">
    <path d="M 7.2 297.468174 
L 322.591304 297.468174 
" style="fill: none; stroke: #dddddd; stroke-width: 0.8; stroke-linejoin: miter; stroke-linecap: square"/>
   </g>
   <g id="patch_6">
    <path d="M 7.2 52.163826 
L 322.591304 52.163826 
" style="fill: none; stroke: #dddddd; stroke-width: 0.8; stroke-linejoin: miter; stroke-linecap: square"/>
   </g>
   <g id="text_1">
    <!-- U  (kernel) -->
    <g style="fill: #2a4d8f" transform="translate(31.730435 255.416) scale(0.12 -0.12)">
     <defs>
      <path id="DejaVuSans-Oblique-55" d="M 991 4666 
L 1625 4666 
L 1075 1831 
Q 1041 1641 1027 1517 
Q 1013 1394 1013 1300 
Q 1013 869 1253 645 
Q 1494 422 1959 422 
Q 2563 422 2898 753 
Q 3234 1084 3378 1831 
L 3928 4666 
L 4563 4666 
L 4000 1753 
Q 3816 809 3300 359 
Q 2784 -91 1888 -91 
Q 1188 -91 780 261 
Q 372 613 372 1216 
Q 372 1325 387 1461 
Q 403 1597 434 1753 
L 991 4666 
z
" transform="scale(0.015625)"/>
      <path id="DejaVuSans-Oblique-20" transform="scale(0.015625)"/>
      <path id="DejaVuSans-Oblique-28" d="M 2731 4856 
Q 1903 3822 1495 2892 
Q 1088 1963 1088 1100 
Q 1088 606 1206 120 
Q 1325 -366 1563 -844 
L 1063 -844 
Q 775 -306 634 201 
Q 494 709 494 1197 
Q 494 2125 923 3036 
Q 1353 3947 2222 4856 
L 2731 4856 
z
" transform="scale(0.015625)"/>
      <path id="DejaVuSans-Oblique-6b" d="M 1172 4863 
L 1747 4863 
L 1197 2028 
L 3169 3500 
L 3916 3500 
L 1716 1825 
L 3322 0 
L 2625 0 
L 1131 1709 
L 800 0 
L 225 0 
L 1172 4863 
z
" transform="scale(0.015625)"/>
      <path id="DejaVuSans-Oblique-65" d="M 3078 2063 
Q 3088 2113 3092 2166 
Q 3097 2219 3097 2272 
Q 3097 2653 2873 2875 
Q 2650 3097 2266 3097 
Q 1838 3097 1509 2826 
Q 1181 2556 1013 2059 
L 3078 2063 
z
M 3578 1613 
L 903 1613 
Q 884 1494 878 1425 
Q 872 1356 872 1306 
Q 872 872 1139 634 
Q 1406 397 1894 397 
Q 2269 397 2603 481 
Q 2938 566 3225 728 
L 3116 159 
Q 2806 34 2476 -28 
Q 2147 -91 1806 -91 
Q 1078 -91 686 257 
Q 294 606 294 1247 
Q 294 1794 489 2264 
Q 684 2734 1063 3103 
Q 1306 3334 1642 3459 
Q 1978 3584 2356 3584 
Q 2950 3584 3301 3228 
Q 3653 2872 3653 2272 
Q 3653 2128 3634 1964 
Q 3616 1800 3578 1613 
z
" transform="scale(0.015625)"/>
      <path id="DejaVuSans-Oblique-72" d="M 2853 2969 
Q 2766 3016 2653 3041 
Q 2541 3066 2413 3066 
Q 1953 3066 1609 2717 
Q 1266 2369 1153 1784 
L 800 0 
L 225 0 
L 909 3500 
L 1484 3500 
L 1375 2956 
Q 1603 3259 1920 3421 
Q 2238 3584 2597 3584 
Q 2691 3584 2781 3573 
Q 2872 3563 2963 3538 
L 2853 2969 
z
" transform="scale(0.015625)"/>
      <path id="DejaVuSans-Oblique-6e" d="M 3566 2113 
L 3156 0 
L 2578 0 
L 2988 2091 
Q 3016 2238 3031 2350 
Q 3047 2463 3047 2528 
Q 3047 2791 2881 2937 
Q 2716 3084 2419 3084 
Q 1956 3084 1622 2776 
Q 1288 2469 1184 1941 
L 800 0 
L 225 0 
L 903 3500 
L 1478 3500 
L 1363 2950 
Q 1603 3253 1940 3418 
Q 2278 3584 2650 3584 
Q 3113 3584 3367 3334 
Q 3622 3084 3622 2631 
Q 3622 2519 3608 2391 
Q 3594 2263 3566 2113 
z
" transform="scale(0.015625)"/>
      <path id="DejaVuSans-Oblique-6c" d="M 1172 4863 
L 1747 4863 
L 800 0 
L 225 0 
L 1172 4863 
z
" transform="scale(0.015625)"/>
      <path id="DejaVuSans-Oblique-29" d="M -397 -844 
Q 434 191 840 1120 
Q 1247 2050 1247 2913 
Q 1247 3406 1130 3892 
Q 1013 4378 775 4856 
L 1275 4856 
Q 1563 4316 1703 3812 
Q 1844 3309 1844 2822 
Q 1844 1891 1411 973 
Q 978 56 116 -844 
L -397 -844 
z
" transform="scale(0.015625)"/>
     </defs>
     <use xlink:href="#DejaVuSans-Oblique-55"/>
     <use xlink:href="#DejaVuSans-Oblique-20" transform="translate(73.193359 0)"/>
     <use xlink:href="#DejaVuSans-Oblique-20" transform="translate(104.980469 0)"/>
     <use xlink:href="#DejaVuSans-Oblique-28" transform="translate(136.767578 0)"/>
     <use xlink:href="#DejaVuSans-Oblique-6b" transform="translate(175.78125 0)"/>
     <use xlink:href="#DejaVuSans-Oblique-65" transform="translate(233.691406 0)"/>
     <use xlink:href="#DejaVuSans-Oblique-72" transform="translate(295.214844 0)"/>
     <use xlink:href="#DejaVuSans-Oblique-6e" transform="translate(336.328125 0)"/>
     <use xlink:href="#DejaVuSans-Oblique-65" transform="translate(399.707031 0)"/>
     <use xlink:href="#DejaVuSans-Oblique-6c" transform="translate(461.230469 0)"/>
     <use xlink:href="#DejaVuSans-Oblique-29" transform="translate(489.013672 0)"/>
    </g>
   </g>
   <g id="text_2">
    <!-- 0 -->
    <g style="fill: #222222" transform="translate(145.621739 194.089913) scale(0.11 -0.11)">
     <defs>
      <path id="DejaVuSans-30" d="M 2034 4250 
Q 1547 4250 1301 3770 
Q 1056 3291 1056 2328 
Q 1056 1369 1301 889 
Q 1547 409 2034 409 
Q 2525 409 2770 889 
Q 3016 1369 3016 2328 
Q 3016 3291 2770 3770 
Q 2525 4250 2034 4250 
z
M 2034 4750 
Q 2819 4750 3233 4129 
Q 3647 3509 3647 2328 
Q 3647 1150 3233 529 
Q 2819 -91 2034 -91 
Q 1250 -91 836 529 
Q 422 1150 422 2328 
Q 422 3509 836 4129 
Q 1250 4750 2034 4750 
z
" transform="scale(0.015625)"/>
     </defs>
     <use xlink:href="#DejaVuSans-30"/>
    </g>
   </g>
   <g id="text_3">
    <!-- V -->
    <g transform="translate(160.449246 46.163826) scale(0.13 -0.13)">
     <defs>
      <path id="DejaVuSans-Oblique-56" d="M 1319 0 
L 500 4666 
L 1119 4666 
L 1797 653 
L 4063 4666 
L 4750 4666 
L 2053 0 
L 1319 0 
z
" transform="scale(0.015625)"/>
     </defs>
     <use xlink:href="#DejaVuSans-Oblique-56"/>
    </g>
   </g>
  </g>
  <g id="axes_2">
   <g id="patch_7">
    <path d="M 442.671652 307.872 
L 556.719652 307.872 
L 556.719652 41.76 
L 442.671652 41.76 
z
" style="fill: #ffffff"/>
   </g>
   <g id="matplotlib.axis_3"/>
   <g id="matplotlib.axis_4"/>
   <g id="line2d_14">
    <path d="M 499.695652 288.864 
L 499.695652 60.768 
" clip-path="url(#pbabb21a0da)" style="fill: none; stroke-dasharray: 4.44,1.92; stroke-dashoffset: 0; stroke: #888888; stroke-opacity: 0.5; stroke-width: 1.2"/>
   </g>
   <g id="line2d_15">
    <defs>
     <path id="m2c3bbc1279" d="M 0 4.5 
C 1.193414 4.5 2.338109 4.025852 3.181981 3.181981 
C 4.025852 2.338109 4.5 1.193414 4.5 0 
C 4.5 -1.193414 4.025852 -2.338109 3.181981 -3.181981 
C 2.338109 -4.025852 1.193414 -4.5 0 -4.5 
C -1.193414 -4.5 -2.338109 -4.025852 -3.181981 -3.181981 
C -4.025852 -2.338109 -4.5 -1.193414 -4.5 0 
C -4.5 1.193414 -4.025852 2.338109 -3.181981 3.181981 
C -2.338109 4.025852 -1.193414 4.5 0 4.5 
z
" style="stroke: #8b5b9d"/>
    </defs>
    <g clip-path="url(#pbabb21a0da)">
     <use xlink:href="#m2c3bbc1279" x="499.695652" y="266.0544" style="fill: #8b5b9d; stroke: #8b5b9d"/>
    </g>
   </g>
   <g id="line2d_16">
    <defs>
     <path id="mfc7901fa6a" d="M 0 4.5 
C 1.193414 4.5 2.338109 4.025852 3.181981 3.181981 
C 4.025852 2.338109 4.5 1.193414 4.5 0 
C 4.5 -1.193414 4.025852 -2.338109 3.181981 -3.181981 
C 2.338109 -4.025852 1.193414 -4.5 0 -4.5 
C -1.193414 -4.5 -2.338109 -4.025852 -3.181981 -3.181981 
C -4.025852 -2.338109 -4.5 -1.193414 -4.5 0 
C -4.5 1.193414 -4.025852 2.338109 -3.181981 3.181981 
C -2.338109 4.025852 -1.193414 4.5 0 4.5 
z
" style="stroke: #9d5b7e"/>
    </defs>
    <g clip-path="url(#pbabb21a0da)">
     <use xlink:href="#mfc7901fa6a" x="499.695652" y="220.4352" style="fill: #9d5b7e; stroke: #9d5b7e"/>
    </g>
   </g>
   <g id="line2d_17">
    <defs>
     <path id="m9009300727" d="M 0 4.5 
C 1.193414 4.5 2.338109 4.025852 3.181981 3.181981 
C 4.025852 2.338109 4.5 1.193414 4.5 0 
C 4.5 -1.193414 4.025852 -2.338109 3.181981 -3.181981 
C 2.338109 -4.025852 1.193414 -4.5 0 -4.5 
C -1.193414 -4.5 -2.338109 -4.025852 -3.181981 -3.181981 
C -4.025852 -2.338109 -4.5 -1.193414 -4.5 0 
C -4.5 1.193414 -4.025852 2.338109 -3.181981 3.181981 
C -2.338109 4.025852 -1.193414 4.5 0 4.5 
z
" style="stroke: #2a4d8f"/>
    </defs>
    <g clip-path="url(#pbabb21a0da)">
     <use xlink:href="#m9009300727" x="499.695652" y="174.816" style="fill: #2a4d8f; stroke: #2a4d8f"/>
    </g>
   </g>
   <g id="line2d_18">
    <defs>
     <path id="m4544bb78af" d="M 0 4.5 
C 1.193414 4.5 2.338109 4.025852 3.181981 3.181981 
C 4.025852 2.338109 4.5 1.193414 4.5 0 
C 4.5 -1.193414 4.025852 -2.338109 3.181981 -3.181981 
C 2.338109 -4.025852 1.193414 -4.5 0 -4.5 
C -1.193414 -4.5 -2.338109 -4.025852 -3.181981 -3.181981 
C -4.025852 -2.338109 -4.5 -1.193414 -4.5 0 
C -4.5 1.193414 -4.025852 2.338109 -3.181981 3.181981 
C -2.338109 4.025852 -1.193414 4.5 0 4.5 
z
" style="stroke: #bf7b3a"/>
    </defs>
    <g clip-path="url(#pbabb21a0da)">
     <use xlink:href="#m4544bb78af" x="499.695652" y="129.1968" style="fill: #bf7b3a; stroke: #bf7b3a"/>
    </g>
   </g>
   <g id="line2d_19">
    <defs>
     <path id="mcf1b1ff879" d="M 0 4.5 
C 1.193414 4.5 2.338109 4.025852 3.181981 3.181981 
C 4.025852 2.338109 4.5 1.193414 4.5 0 
C 4.5 -1.193414 4.025852 -2.338109 3.181981 -3.181981 
C 2.338109 -4.025852 1.193414 -4.5 0 -4.5 
C -1.193414 -4.5 -2.338109 -4.025852 -3.181981 -3.181981 
C -4.025852 -2.338109 -4.5 -1.193414 -4.5 0 
C -4.5 1.193414 -4.025852 2.338109 -3.181981 3.181981 
C -2.338109 4.025852 -1.193414 4.5 0 4.5 
z
" style="stroke: #6b8b3a"/>
    </defs>
    <g clip-path="url(#pbabb21a0da)">
     <use xlink:href="#mcf1b1ff879" x="499.695652" y="83.5776" style="fill: #6b8b3a; stroke: #6b8b3a"/>
    </g>
   </g>
   <g id="patch_8">
    <path d="M 442.671652 307.872 
L 442.671652 41.76 
" style="fill: none; stroke: #dddddd; stroke-width: 0.8; stroke-linejoin: miter; stroke-linecap: square"/>
   </g>
   <g id="patch_9">
    <path d="M 556.719652 307.872 
L 556.719652 41.76 
" style="fill: none; stroke: #dddddd; stroke-width: 0.8; stroke-linejoin: miter; stroke-linecap: square"/>
   </g>
   <g id="patch_10">
    <path d="M 442.671652 307.872 
L 556.719652 307.872 
" style="fill: none; stroke: #dddddd; stroke-width: 0.8; stroke-linejoin: miter; stroke-linecap: square"/>
   </g>
   <g id="patch_11">
    <path d="M 442.671652 41.76 
L 556.719652 41.76 
" style="fill: none; stroke: #dddddd; stroke-width: 0.8; stroke-linejoin: miter; stroke-linecap: square"/>
   </g>
   <g id="text_4">
    <!-- $v_1 + U$ -->
    <g style="fill: #8b5b9d" transform="translate(506.538532 272.130992) scale(0.11 -0.11)">
     <defs>
      <path id="DejaVuSans-Oblique-76" d="M 459 3500 
L 1069 3500 
L 1581 525 
L 3256 3500 
L 3866 3500 
L 1875 0 
L 1100 0 
L 459 3500 
z
" transform="scale(0.015625)"/>
      <path id="DejaVuSans-31" d="M 794 531 
L 1825 531 
L 1825 4091 
L 703 3866 
L 703 4441 
L 1819 4666 
L 2450 4666 
L 2450 531 
L 3481 531 
L 3481 0 
L 794 0 
L 794 531 
z
" transform="scale(0.015625)"/>
      <path id="DejaVuSans-2b" d="M 2944 4013 
L 2944 2272 
L 4684 2272 
L 4684 1741 
L 2944 1741 
L 2944 0 
L 2419 0 
L 2419 1741 
L 678 1741 
L 678 2272 
L 2419 2272 
L 2419 4013 
L 2944 4013 
z
" transform="scale(0.015625)"/>
     </defs>
     <use xlink:href="#DejaVuSans-Oblique-76" transform="translate(0 0.09375)"/>
     <use xlink:href="#DejaVuSans-31" transform="translate(59.179688 -16.3125) scale(0.7)"/>
     <use xlink:href="#DejaVuSans-2b" transform="translate(125.932617 0.09375)"/>
     <use xlink:href="#DejaVuSans-Oblique-55" transform="translate(229.204102 0.09375)"/>
    </g>
   </g>
   <g id="text_5">
    <!-- $v_2 + U$ -->
    <g style="fill: #9d5b7e" transform="translate(506.538532 226.511792) scale(0.11 -0.11)">
     <defs>
      <path id="DejaVuSans-32" d="M 1228 531 
L 3431 531 
L 3431 0 
L 469 0 
L 469 531 
Q 828 903 1448 1529 
Q 2069 2156 2228 2338 
Q 2531 2678 2651 2914 
Q 2772 3150 2772 3378 
Q 2772 3750 2511 3984 
Q 2250 4219 1831 4219 
Q 1534 4219 1204 4116 
Q 875 4013 500 3803 
L 500 4441 
Q 881 4594 1212 4672 
Q 1544 4750 1819 4750 
Q 2544 4750 2975 4387 
Q 3406 4025 3406 3419 
Q 3406 3131 3298 2873 
Q 3191 2616 2906 2266 
Q 2828 2175 2409 1742 
Q 1991 1309 1228 531 
z
" transform="scale(0.015625)"/>
     </defs>
     <use xlink:href="#DejaVuSans-Oblique-76" transform="translate(0 0.09375)"/>
     <use xlink:href="#DejaVuSans-32" transform="translate(59.179688 -16.3125) scale(0.7)"/>
     <use xlink:href="#DejaVuSans-2b" transform="translate(125.932617 0.09375)"/>
     <use xlink:href="#DejaVuSans-Oblique-55" transform="translate(229.204102 0.09375)"/>
    </g>
   </g>
   <g id="text_6">
    <!-- 0  =  U -->
    <g style="fill: #2a4d8f" transform="translate(506.538532 180.892592) scale(0.11 -0.11)">
     <defs>
      <path id="DejaVuSans-20" transform="scale(0.015625)"/>
      <path id="DejaVuSans-3d" d="M 678 2906 
L 4684 2906 
L 4684 2381 
L 678 2381 
L 678 2906 
z
M 678 1631 
L 4684 1631 
L 4684 1100 
L 678 1100 
L 678 1631 
z
" transform="scale(0.015625)"/>
      <path id="DejaVuSans-55" d="M 556 4666 
L 1191 4666 
L 1191 1831 
Q 1191 1081 1462 751 
Q 1734 422 2344 422 
Q 2950 422 3222 751 
Q 3494 1081 3494 1831 
L 3494 4666 
L 4128 4666 
L 4128 1753 
Q 4128 841 3676 375 
Q 3225 -91 2344 -91 
Q 1459 -91 1007 375 
Q 556 841 556 1753 
L 556 4666 
z
" transform="scale(0.015625)"/>
     </defs>
     <use xlink:href="#DejaVuSans-30"/>
     <use xlink:href="#DejaVuSans-20" transform="translate(63.623047 0)"/>
     <use xlink:href="#DejaVuSans-20" transform="translate(95.410156 0)"/>
     <use xlink:href="#DejaVuSans-3d" transform="translate(127.197266 0)"/>
     <use xlink:href="#DejaVuSans-20" transform="translate(210.986328 0)"/>
     <use xlink:href="#DejaVuSans-20" transform="translate(242.773438 0)"/>
     <use xlink:href="#DejaVuSans-55" transform="translate(274.560547 0)"/>
    </g>
   </g>
   <g id="text_7">
    <!-- $v_3 + U$ -->
    <g style="fill: #bf7b3a" transform="translate(506.538532 135.273392) scale(0.11 -0.11)">
     <defs>
      <path id="DejaVuSans-33" d="M 2597 2516 
Q 3050 2419 3304 2112 
Q 3559 1806 3559 1356 
Q 3559 666 3084 287 
Q 2609 -91 1734 -91 
Q 1441 -91 1130 -33 
Q 819 25 488 141 
L 488 750 
Q 750 597 1062 519 
Q 1375 441 1716 441 
Q 2309 441 2620 675 
Q 2931 909 2931 1356 
Q 2931 1769 2642 2001 
Q 2353 2234 1838 2234 
L 1294 2234 
L 1294 2753 
L 1863 2753 
Q 2328 2753 2575 2939 
Q 2822 3125 2822 3475 
Q 2822 3834 2567 4026 
Q 2313 4219 1838 4219 
Q 1578 4219 1281 4162 
Q 984 4106 628 3988 
L 628 4550 
Q 988 4650 1302 4700 
Q 1616 4750 1894 4750 
Q 2613 4750 3031 4423 
Q 3450 4097 3450 3541 
Q 3450 3153 3228 2886 
Q 3006 2619 2597 2516 
z
" transform="scale(0.015625)"/>
     </defs>
     <use xlink:href="#DejaVuSans-Oblique-76" transform="translate(0 0.09375)"/>
     <use xlink:href="#DejaVuSans-33" transform="translate(59.179688 -16.3125) scale(0.7)"/>
     <use xlink:href="#DejaVuSans-2b" transform="translate(125.932617 0.09375)"/>
     <use xlink:href="#DejaVuSans-Oblique-55" transform="translate(229.204102 0.09375)"/>
    </g>
   </g>
   <g id="text_8">
    <!-- $v_4 + U$ -->
    <g style="fill: #6b8b3a" transform="translate(506.538532 89.654192) scale(0.11 -0.11)">
     <defs>
      <path id="DejaVuSans-34" d="M 2419 4116 
L 825 1625 
L 2419 1625 
L 2419 4116 
z
M 2253 4666 
L 3047 4666 
L 3047 1625 
L 3713 1625 
L 3713 1100 
L 3047 1100 
L 3047 0 
L 2419 0 
L 2419 1100 
L 313 1100 
L 313 1709 
L 2253 4666 
z
" transform="scale(0.015625)"/>
     </defs>
     <use xlink:href="#DejaVuSans-Oblique-76" transform="translate(0 0.09375)"/>
     <use xlink:href="#DejaVuSans-34" transform="translate(59.179688 -16.3125) scale(0.7)"/>
     <use xlink:href="#DejaVuSans-2b" transform="translate(125.932617 0.09375)"/>
     <use xlink:href="#DejaVuSans-Oblique-55" transform="translate(229.204102 0.09375)"/>
    </g>
   </g>
   <g id="text_9">
    <!-- V / U -->
    <g transform="translate(484.170808 35.76) scale(0.13 -0.13)">
     <defs>
      <path id="DejaVuSans-Oblique-2f" d="M 2175 4666 
L 2731 4666 
L 84 -594 
L -469 -594 
L 2175 4666 
z
" transform="scale(0.015625)"/>
     </defs>
     <use xlink:href="#DejaVuSans-Oblique-56"/>
     <use xlink:href="#DejaVuSans-Oblique-20" transform="translate(68.408203 0)"/>
     <use xlink:href="#DejaVuSans-Oblique-2f" transform="translate(100.195312 0)"/>
     <use xlink:href="#DejaVuSans-Oblique-20" transform="translate(133.886719 0)"/>
     <use xlink:href="#DejaVuSans-Oblique-55" transform="translate(165.673828 0)"/>
    </g>
   </g>
  </g>
  <g id="patch_12">
   <path d="M 274.517644 138.528 
Q 310.139697 138.528 343.525682 138.528 
" style="fill: none; stroke: #444444; stroke-width: 2; stroke-linecap: round"/>
   <path d="M 336.325682 134.928 
L 343.525682 138.528 
L 336.325682 142.128 
z
" style="fill: #444444; stroke: #444444; stroke-width: 2; stroke-linecap: round"/>
  </g>
  <g id="text_10">
   <!-- π -->
   <g style="fill: #444444" transform="translate(298.781719 171.142875) scale(0.18 -0.18)">
    <defs>
     <path id="DejaVuSans-Oblique-3c0" d="M 584 3500 
L 3938 3500 
L 3825 2925 
L 3384 2925 
L 2966 775 
Q 2922 550 2981 450 
Q 3038 353 3209 353 
Q 3256 353 3325 363 
Q 3397 369 3419 372 
L 3338 -44 
Q 3222 -84 3103 -103 
Q 2981 -122 2866 -122 
Q 2491 -122 2388 81 
Q 2284 288 2391 838 
L 2797 2925 
L 1506 2925 
L 938 0 
L 350 0 
L 919 2925 
L 472 2925 
L 584 3500 
z
" transform="scale(0.015625)"/>
    </defs>
    <use xlink:href="#DejaVuSans-Oblique-3c0"/>
   </g>
  </g>
  <g id="text_11">
   <!-- (collapse each coset -->
   <g style="fill: #666666" transform="translate(255.613437 187.670445) scale(0.095 -0.095)">
    <defs>
     <path id="DejaVuSans-28" d="M 1984 4856 
Q 1566 4138 1362 3434 
Q 1159 2731 1159 2009 
Q 1159 1288 1364 580 
Q 1569 -128 1984 -844 
L 1484 -844 
Q 1016 -109 783 600 
Q 550 1309 550 2009 
Q 550 2706 781 3412 
Q 1013 4119 1484 4856 
L 1984 4856 
z
" transform="scale(0.015625)"/>
     <path id="DejaVuSans-63" d="M 3122 3366 
L 3122 2828 
Q 2878 2963 2633 3030 
Q 2388 3097 2138 3097 
Q 1578 3097 1268 2742 
Q 959 2388 959 1747 
Q 959 1106 1268 751 
Q 1578 397 2138 397 
Q 2388 397 2633 464 
Q 2878 531 3122 666 
L 3122 134 
Q 2881 22 2623 -34 
Q 2366 -91 2075 -91 
Q 1284 -91 818 406 
Q 353 903 353 1747 
Q 353 2603 823 3093 
Q 1294 3584 2113 3584 
Q 2378 3584 2631 3529 
Q 2884 3475 3122 3366 
z
" transform="scale(0.015625)"/>
     <path id="DejaVuSans-6f" d="M 1959 3097 
Q 1497 3097 1228 2736 
Q 959 2375 959 1747 
Q 959 1119 1226 758 
Q 1494 397 1959 397 
Q 2419 397 2687 759 
Q 2956 1122 2956 1747 
Q 2956 2369 2687 2733 
Q 2419 3097 1959 3097 
z
M 1959 3584 
Q 2709 3584 3137 3096 
Q 3566 2609 3566 1747 
Q 3566 888 3137 398 
Q 2709 -91 1959 -91 
Q 1206 -91 779 398 
Q 353 888 353 1747 
Q 353 2609 779 3096 
Q 1206 3584 1959 3584 
z
" transform="scale(0.015625)"/>
     <path id="DejaVuSans-6c" d="M 603 4863 
L 1178 4863 
L 1178 0 
L 603 0 
L 603 4863 
z
" transform="scale(0.015625)"/>
     <path id="DejaVuSans-61" d="M 2194 1759 
Q 1497 1759 1228 1600 
Q 959 1441 959 1056 
Q 959 750 1161 570 
Q 1363 391 1709 391 
Q 2188 391 2477 730 
Q 2766 1069 2766 1631 
L 2766 1759 
L 2194 1759 
z
M 3341 1997 
L 3341 0 
L 2766 0 
L 2766 531 
Q 2569 213 2275 61 
Q 1981 -91 1556 -91 
Q 1019 -91 701 211 
Q 384 513 384 1019 
Q 384 1609 779 1909 
Q 1175 2209 1959 2209 
L 2766 2209 
L 2766 2266 
Q 2766 2663 2505 2880 
Q 2244 3097 1772 3097 
Q 1472 3097 1187 3025 
Q 903 2953 641 2809 
L 641 3341 
Q 956 3463 1253 3523 
Q 1550 3584 1831 3584 
Q 2591 3584 2966 3190 
Q 3341 2797 3341 1997 
z
" transform="scale(0.015625)"/>
     <path id="DejaVuSans-70" d="M 1159 525 
L 1159 -1331 
L 581 -1331 
L 581 3500 
L 1159 3500 
L 1159 2969 
Q 1341 3281 1617 3432 
Q 1894 3584 2278 3584 
Q 2916 3584 3314 3078 
Q 3713 2572 3713 1747 
Q 3713 922 3314 415 
Q 2916 -91 2278 -91 
Q 1894 -91 1617 61 
Q 1341 213 1159 525 
z
M 3116 1747 
Q 3116 2381 2855 2742 
Q 2594 3103 2138 3103 
Q 1681 3103 1420 2742 
Q 1159 2381 1159 1747 
Q 1159 1113 1420 752 
Q 1681 391 2138 391 
Q 2594 391 2855 752 
Q 3116 1113 3116 1747 
z
" transform="scale(0.015625)"/>
     <path id="DejaVuSans-73" d="M 2834 3397 
L 2834 2853 
Q 2591 2978 2328 3040 
Q 2066 3103 1784 3103 
Q 1356 3103 1142 2972 
Q 928 2841 928 2578 
Q 928 2378 1081 2264 
Q 1234 2150 1697 2047 
L 1894 2003 
Q 2506 1872 2764 1633 
Q 3022 1394 3022 966 
Q 3022 478 2636 193 
Q 2250 -91 1575 -91 
Q 1294 -91 989 -36 
Q 684 19 347 128 
L 347 722 
Q 666 556 975 473 
Q 1284 391 1588 391 
Q 1994 391 2212 530 
Q 2431 669 2431 922 
Q 2431 1156 2273 1281 
Q 2116 1406 1581 1522 
L 1381 1569 
Q 847 1681 609 1914 
Q 372 2147 372 2553 
Q 372 3047 722 3315 
Q 1072 3584 1716 3584 
Q 2034 3584 2315 3537 
Q 2597 3491 2834 3397 
z
" transform="scale(0.015625)"/>
     <path id="DejaVuSans-65" d="M 3597 1894 
L 3597 1613 
L 953 1613 
Q 991 1019 1311 708 
Q 1631 397 2203 397 
Q 2534 397 2845 478 
Q 3156 559 3463 722 
L 3463 178 
Q 3153 47 2828 -22 
Q 2503 -91 2169 -91 
Q 1331 -91 842 396 
Q 353 884 353 1716 
Q 353 2575 817 3079 
Q 1281 3584 2069 3584 
Q 2775 3584 3186 3129 
Q 3597 2675 3597 1894 
z
M 3022 2063 
Q 3016 2534 2758 2815 
Q 2500 3097 2075 3097 
Q 1594 3097 1305 2825 
Q 1016 2553 972 2059 
L 3022 2063 
z
" transform="scale(0.015625)"/>
     <path id="DejaVuSans-68" d="M 3513 2113 
L 3513 0 
L 2938 0 
L 2938 2094 
Q 2938 2591 2744 2837 
Q 2550 3084 2163 3084 
Q 1697 3084 1428 2787 
Q 1159 2491 1159 1978 
L 1159 0 
L 581 0 
L 581 4863 
L 1159 4863 
L 1159 2956 
Q 1366 3272 1645 3428 
Q 1925 3584 2291 3584 
Q 2894 3584 3203 3211 
Q 3513 2838 3513 2113 
z
" transform="scale(0.015625)"/>
     <path id="DejaVuSans-74" d="M 1172 4494 
L 1172 3500 
L 2356 3500 
L 2356 3053 
L 1172 3053 
L 1172 1153 
Q 1172 725 1289 603 
Q 1406 481 1766 481 
L 2356 481 
L 2356 0 
L 1766 0 
Q 1100 0 847 248 
Q 594 497 594 1153 
L 594 3053 
L 172 3053 
L 172 3500 
L 594 3500 
L 594 4494 
L 1172 4494 
z
" transform="scale(0.015625)"/>
    </defs>
    <use xlink:href="#DejaVuSans-28"/>
    <use xlink:href="#DejaVuSans-63" transform="translate(39.013672 0)"/>
    <use xlink:href="#DejaVuSans-6f" transform="translate(93.994141 0)"/>
    <use xlink:href="#DejaVuSans-6c" transform="translate(155.175781 0)"/>
    <use xlink:href="#DejaVuSans-6c" transform="translate(182.958984 0)"/>
    <use xlink:href="#DejaVuSans-61" transform="translate(210.742188 0)"/>
    <use xlink:href="#DejaVuSans-70" transform="translate(272.021484 0)"/>
    <use xlink:href="#DejaVuSans-73" transform="translate(335.498047 0)"/>
    <use xlink:href="#DejaVuSans-65" transform="translate(387.597656 0)"/>
    <use xlink:href="#DejaVuSans-20" transform="translate(449.121094 0)"/>
    <use xlink:href="#DejaVuSans-65" transform="translate(480.908203 0)"/>
    <use xlink:href="#DejaVuSans-61" transform="translate(542.431641 0)"/>
    <use xlink:href="#DejaVuSans-63" transform="translate(603.710938 0)"/>
    <use xlink:href="#DejaVuSans-68" transform="translate(658.691406 0)"/>
    <use xlink:href="#DejaVuSans-20" transform="translate(722.070312 0)"/>
    <use xlink:href="#DejaVuSans-63" transform="translate(753.857422 0)"/>
    <use xlink:href="#DejaVuSans-6f" transform="translate(808.837891 0)"/>
    <use xlink:href="#DejaVuSans-73" transform="translate(870.019531 0)"/>
    <use xlink:href="#DejaVuSans-65" transform="translate(922.119141 0)"/>
    <use xlink:href="#DejaVuSans-74" transform="translate(983.642578 0)"/>
   </g>
   <!-- to a single point) -->
   <g style="fill: #666666" transform="translate(263.962305 198.308367) scale(0.095 -0.095)">
    <defs>
     <path id="DejaVuSans-69" d="M 603 3500 
L 1178 3500 
L 1178 0 
L 603 0 
L 603 3500 
z
M 603 4863 
L 1178 4863 
L 1178 4134 
L 603 4134 
L 603 4863 
z
" transform="scale(0.015625)"/>
     <path id="DejaVuSans-6e" d="M 3513 2113 
L 3513 0 
L 2938 0 
L 2938 2094 
Q 2938 2591 2744 2837 
Q 2550 3084 2163 3084 
Q 1697 3084 1428 2787 
Q 1159 2491 1159 1978 
L 1159 0 
L 581 0 
L 581 3500 
L 1159 3500 
L 1159 2956 
Q 1366 3272 1645 3428 
Q 1925 3584 2291 3584 
Q 2894 3584 3203 3211 
Q 3513 2838 3513 2113 
z
" transform="scale(0.015625)"/>
     <path id="DejaVuSans-67" d="M 2906 1791 
Q 2906 2416 2648 2759 
Q 2391 3103 1925 3103 
Q 1463 3103 1205 2759 
Q 947 2416 947 1791 
Q 947 1169 1205 825 
Q 1463 481 1925 481 
Q 2391 481 2648 825 
Q 2906 1169 2906 1791 
z
M 3481 434 
Q 3481 -459 3084 -895 
Q 2688 -1331 1869 -1331 
Q 1566 -1331 1297 -1286 
Q 1028 -1241 775 -1147 
L 775 -588 
Q 1028 -725 1275 -790 
Q 1522 -856 1778 -856 
Q 2344 -856 2625 -561 
Q 2906 -266 2906 331 
L 2906 616 
Q 2728 306 2450 153 
Q 2172 0 1784 0 
Q 1141 0 747 490 
Q 353 981 353 1791 
Q 353 2603 747 3093 
Q 1141 3584 1784 3584 
Q 2172 3584 2450 3431 
Q 2728 3278 2906 2969 
L 2906 3500 
L 3481 3500 
L 3481 434 
z
" transform="scale(0.015625)"/>
     <path id="DejaVuSans-29" d="M 513 4856 
L 1013 4856 
Q 1481 4119 1714 3412 
Q 1947 2706 1947 2009 
Q 1947 1309 1714 600 
Q 1481 -109 1013 -844 
L 513 -844 
Q 928 -128 1133 580 
Q 1338 1288 1338 2009 
Q 1338 2731 1133 3434 
Q 928 4138 513 4856 
z
" transform="scale(0.015625)"/>
    </defs>
    <use xlink:href="#DejaVuSans-74"/>
    <use xlink:href="#DejaVuSans-6f" transform="translate(39.208984 0)"/>
    <use xlink:href="#DejaVuSans-20" transform="translate(100.390625 0)"/>
    <use xlink:href="#DejaVuSans-61" transform="translate(132.177734 0)"/>
    <use xlink:href="#DejaVuSans-20" transform="translate(193.457031 0)"/>
    <use xlink:href="#DejaVuSans-73" transform="translate(225.244141 0)"/>
    <use xlink:href="#DejaVuSans-69" transform="translate(277.34375 0)"/>
    <use xlink:href="#DejaVuSans-6e" transform="translate(305.126953 0)"/>
    <use xlink:href="#DejaVuSans-67" transform="translate(368.505859 0)"/>
    <use xlink:href="#DejaVuSans-6c" transform="translate(431.982422 0)"/>
    <use xlink:href="#DejaVuSans-65" transform="translate(459.765625 0)"/>
    <use xlink:href="#DejaVuSans-20" transform="translate(521.289062 0)"/>
    <use xlink:href="#DejaVuSans-70" transform="translate(553.076172 0)"/>
    <use xlink:href="#DejaVuSans-6f" transform="translate(616.552734 0)"/>
    <use xlink:href="#DejaVuSans-69" transform="translate(677.734375 0)"/>
    <use xlink:href="#DejaVuSans-6e" transform="translate(705.517578 0)"/>
    <use xlink:href="#DejaVuSans-74" transform="translate(768.896484 0)"/>
    <use xlink:href="#DejaVuSans-29" transform="translate(808.105469 0)"/>
   </g>
  </g>
  <g id="text_12">
   <!-- the quotient map π : V → V/U  sends each vector to its coset -->
   <g transform="translate(123.530625 16.318125) scale(0.12 -0.12)">
    <defs>
     <path id="DejaVuSans-Oblique-74" d="M 2706 3500 
L 2619 3053 
L 1472 3053 
L 1100 1153 
Q 1081 1047 1072 975 
Q 1063 903 1063 863 
Q 1063 663 1183 572 
Q 1303 481 1569 481 
L 2150 481 
L 2053 0 
L 1503 0 
Q 991 0 739 200 
Q 488 400 488 806 
Q 488 878 497 964 
Q 506 1050 525 1153 
L 897 3053 
L 409 3053 
L 500 3500 
L 978 3500 
L 1172 4494 
L 1747 4494 
L 1556 3500 
L 2706 3500 
z
" transform="scale(0.015625)"/>
     <path id="DejaVuSans-Oblique-68" d="M 3566 2113 
L 3156 0 
L 2578 0 
L 2988 2091 
Q 3016 2238 3031 2350 
Q 3047 2463 3047 2528 
Q 3047 2791 2881 2937 
Q 2716 3084 2419 3084 
Q 1956 3084 1617 2771 
Q 1278 2459 1178 1941 
L 800 0 
L 225 0 
L 1172 4863 
L 1747 4863 
L 1375 2950 
Q 1594 3244 1934 3414 
Q 2275 3584 2650 3584 
Q 3113 3584 3367 3334 
Q 3622 3084 3622 2631 
Q 3622 2519 3608 2391 
Q 3594 2263 3566 2113 
z
" transform="scale(0.015625)"/>
     <path id="DejaVuSans-Oblique-71" d="M 2669 525 
Q 2438 222 2123 65 
Q 1809 -91 1428 -91 
Q 897 -91 595 267 
Q 294 625 294 1253 
Q 294 1759 480 2231 
Q 666 2703 1013 3078 
Q 1238 3322 1530 3453 
Q 1822 3584 2144 3584 
Q 2531 3584 2781 3431 
Q 3031 3278 3144 2969 
L 3244 3494 
L 3822 3494 
L 2888 -1319 
L 2309 -1319 
L 2669 525 
z
M 891 1338 
Q 891 875 1084 633 
Q 1278 391 1644 391 
Q 2188 391 2572 911 
Q 2956 1431 2956 2175 
Q 2956 2625 2757 2864 
Q 2559 3103 2188 3103 
Q 1916 3103 1684 2976 
Q 1453 2850 1281 2606 
Q 1100 2350 995 2006 
Q 891 1663 891 1338 
z
" transform="scale(0.015625)"/>
     <path id="DejaVuSans-Oblique-75" d="M 428 1388 
L 838 3500 
L 1416 3500 
L 1006 1409 
Q 975 1256 961 1147 
Q 947 1038 947 966 
Q 947 700 1109 554 
Q 1272 409 1569 409 
Q 2031 409 2368 721 
Q 2706 1034 2809 1563 
L 3194 3500 
L 3769 3500 
L 3091 0 
L 2516 0 
L 2631 550 
Q 2388 244 2052 76 
Q 1716 -91 1338 -91 
Q 878 -91 622 161 
Q 366 413 366 863 
Q 366 956 381 1097 
Q 397 1238 428 1388 
z
" transform="scale(0.015625)"/>
     <path id="DejaVuSans-Oblique-6f" d="M 1625 -91 
Q 1009 -91 651 289 
Q 294 669 294 1325 
Q 294 1706 417 2101 
Q 541 2497 738 2766 
Q 1047 3184 1428 3384 
Q 1809 3584 2291 3584 
Q 2888 3584 3255 3212 
Q 3622 2841 3622 2241 
Q 3622 1825 3500 1412 
Q 3378 1000 3181 728 
Q 2875 309 2494 109 
Q 2113 -91 1625 -91 
z
M 891 1344 
Q 891 869 1089 633 
Q 1288 397 1691 397 
Q 2269 397 2648 901 
Q 3028 1406 3028 2181 
Q 3028 2634 2825 2865 
Q 2622 3097 2228 3097 
Q 1903 3097 1650 2945 
Q 1397 2794 1197 2484 
Q 1050 2253 970 1956 
Q 891 1659 891 1344 
z
" transform="scale(0.015625)"/>
     <path id="DejaVuSans-Oblique-69" d="M 1172 4863 
L 1747 4863 
L 1606 4134 
L 1031 4134 
L 1172 4863 
z
M 909 3500 
L 1484 3500 
L 800 0 
L 225 0 
L 909 3500 
z
" transform="scale(0.015625)"/>
     <path id="DejaVuSans-Oblique-6d" d="M 5747 2113 
L 5338 0 
L 4763 0 
L 5166 2094 
Q 5191 2228 5203 2325 
Q 5216 2422 5216 2491 
Q 5216 2772 5059 2928 
Q 4903 3084 4622 3084 
Q 4203 3084 3875 2770 
Q 3547 2456 3450 1953 
L 3066 0 
L 2491 0 
L 2900 2094 
Q 2925 2209 2937 2307 
Q 2950 2406 2950 2484 
Q 2950 2769 2794 2926 
Q 2638 3084 2363 3084 
Q 1938 3084 1609 2770 
Q 1281 2456 1184 1953 
L 800 0 
L 225 0 
L 909 3500 
L 1484 3500 
L 1375 2956 
Q 1609 3263 1923 3423 
Q 2238 3584 2597 3584 
Q 2978 3584 3223 3384 
Q 3469 3184 3519 2828 
Q 3781 3197 4126 3390 
Q 4472 3584 4856 3584 
Q 5306 3584 5551 3325 
Q 5797 3066 5797 2591 
Q 5797 2488 5784 2364 
Q 5772 2241 5747 2113 
z
" transform="scale(0.015625)"/>
     <path id="DejaVuSans-Oblique-61" d="M 3438 1997 
L 3047 0 
L 2472 0 
L 2578 531 
Q 2325 219 2001 64 
Q 1678 -91 1281 -91 
Q 834 -91 548 182 
Q 263 456 263 884 
Q 263 1497 752 1853 
Q 1241 2209 2100 2209 
L 2900 2209 
L 2931 2363 
Q 2938 2388 2941 2417 
Q 2944 2447 2944 2509 
Q 2944 2788 2717 2942 
Q 2491 3097 2081 3097 
Q 1800 3097 1504 3025 
Q 1209 2953 897 2809 
L 997 3341 
Q 1322 3463 1633 3523 
Q 1944 3584 2234 3584 
Q 2853 3584 3176 3315 
Q 3500 3047 3500 2534 
Q 3500 2431 3484 2292 
Q 3469 2153 3438 1997 
z
M 2816 1759 
L 2241 1759 
Q 1534 1759 1195 1570 
Q 856 1381 856 984 
Q 856 709 1029 553 
Q 1203 397 1509 397 
Q 1978 397 2328 733 
Q 2678 1069 2791 1631 
L 2816 1759 
z
" transform="scale(0.015625)"/>
     <path id="DejaVuSans-Oblique-70" d="M 3175 2156 
Q 3175 2616 2975 2859 
Q 2775 3103 2400 3103 
Q 2144 3103 1911 2972 
Q 1678 2841 1497 2591 
Q 1319 2344 1212 1994 
Q 1106 1644 1106 1300 
Q 1106 863 1306 627 
Q 1506 391 1875 391 
Q 2147 391 2380 519 
Q 2613 647 2778 891 
Q 2956 1147 3065 1494 
Q 3175 1841 3175 2156 
z
M 1394 2969 
Q 1625 3272 1939 3428 
Q 2253 3584 2638 3584 
Q 3175 3584 3472 3232 
Q 3769 2881 3769 2247 
Q 3769 1728 3584 1258 
Q 3400 788 3053 416 
Q 2822 169 2531 39 
Q 2241 -91 1919 -91 
Q 1547 -91 1294 64 
Q 1041 219 916 525 
L 556 -1331 
L -19 -1331 
L 922 3500 
L 1497 3500 
L 1394 2969 
z
" transform="scale(0.015625)"/>
     <path id="DejaVuSans-Oblique-3a" d="M 978 3309 
L 1638 3309 
L 1484 2516 
L 825 2516 
L 978 3309 
z
M 488 794 
L 1147 794 
L 991 0 
L 331 0 
L 488 794 
z
" transform="scale(0.015625)"/>
     <path id="DejaVuSans-Oblique-2192" d="M 5050 2147 
L 5050 1866 
L 3822 638 
L 3447 1013 
L 4175 1741 
L 366 1741 
L 366 2272 
L 4175 2272 
L 3447 3000 
L 3822 3375 
L 5050 2147 
z
" transform="scale(0.015625)"/>
     <path id="DejaVuSans-Oblique-73" d="M 3200 3397 
L 3091 2853 
Q 2863 2978 2609 3040 
Q 2356 3103 2088 3103 
Q 1634 3103 1373 2948 
Q 1113 2794 1113 2528 
Q 1113 2219 1719 2053 
Q 1766 2041 1788 2034 
L 1972 1978 
Q 2547 1819 2739 1644 
Q 2931 1469 2931 1166 
Q 2931 609 2489 259 
Q 2047 -91 1331 -91 
Q 1053 -91 747 -37 
Q 441 16 72 128 
L 184 722 
Q 500 559 806 475 
Q 1113 391 1394 391 
Q 1816 391 2080 572 
Q 2344 753 2344 1031 
Q 2344 1331 1650 1516 
L 1591 1531 
L 1394 1581 
Q 956 1697 753 1886 
Q 550 2075 550 2369 
Q 550 2928 970 3256 
Q 1391 3584 2113 3584 
Q 2397 3584 2667 3537 
Q 2938 3491 3200 3397 
z
" transform="scale(0.015625)"/>
     <path id="DejaVuSans-Oblique-64" d="M 2675 525 
Q 2444 222 2128 65 
Q 1813 -91 1428 -91 
Q 903 -91 598 267 
Q 294 625 294 1247 
Q 294 1766 478 2236 
Q 663 2706 1013 3078 
Q 1244 3325 1534 3454 
Q 1825 3584 2144 3584 
Q 2481 3584 2739 3421 
Q 2997 3259 3138 2956 
L 3513 4863 
L 4091 4863 
L 3144 0 
L 2566 0 
L 2675 525 
z
M 891 1350 
Q 891 897 1095 644 
Q 1300 391 1663 391 
Q 1931 391 2161 520 
Q 2391 650 2566 903 
Q 2750 1166 2856 1509 
Q 2963 1853 2963 2188 
Q 2963 2622 2758 2865 
Q 2553 3109 2194 3109 
Q 1922 3109 1687 2981 
Q 1453 2853 1288 2613 
Q 1106 2353 998 2009 
Q 891 1666 891 1350 
z
" transform="scale(0.015625)"/>
     <path id="DejaVuSans-Oblique-63" d="M 3431 3366 
L 3316 2797 
Q 3109 2947 2876 3022 
Q 2644 3097 2394 3097 
Q 2119 3097 1870 3000 
Q 1622 2903 1453 2725 
Q 1184 2453 1037 2087 
Q 891 1722 891 1331 
Q 891 859 1127 628 
Q 1363 397 1844 397 
Q 2081 397 2348 469 
Q 2616 541 2906 684 
L 2797 116 
Q 2547 13 2283 -39 
Q 2019 -91 1741 -91 
Q 1044 -91 669 257 
Q 294 606 294 1253 
Q 294 1797 489 2255 
Q 684 2713 1069 3078 
Q 1331 3328 1684 3456 
Q 2038 3584 2456 3584 
Q 2700 3584 2940 3529 
Q 3181 3475 3431 3366 
z
" transform="scale(0.015625)"/>
    </defs>
    <use xlink:href="#DejaVuSans-Oblique-74"/>
    <use xlink:href="#DejaVuSans-Oblique-68" transform="translate(39.208984 0)"/>
    <use xlink:href="#DejaVuSans-Oblique-65" transform="translate(102.587891 0)"/>
    <use xlink:href="#DejaVuSans-Oblique-20" transform="translate(164.111328 0)"/>
    <use xlink:href="#DejaVuSans-Oblique-71" transform="translate(195.898438 0)"/>
    <use xlink:href="#DejaVuSans-Oblique-75" transform="translate(259.375 0)"/>
    <use xlink:href="#DejaVuSans-Oblique-6f" transform="translate(322.753906 0)"/>
    <use xlink:href="#DejaVuSans-Oblique-74" transform="translate(383.935547 0)"/>
    <use xlink:href="#DejaVuSans-Oblique-69" transform="translate(423.144531 0)"/>
    <use xlink:href="#DejaVuSans-Oblique-65" transform="translate(450.927734 0)"/>
    <use xlink:href="#DejaVuSans-Oblique-6e" transform="translate(512.451172 0)"/>
    <use xlink:href="#DejaVuSans-Oblique-74" transform="translate(575.830078 0)"/>
    <use xlink:href="#DejaVuSans-Oblique-20" transform="translate(615.039062 0)"/>
    <use xlink:href="#DejaVuSans-Oblique-6d" transform="translate(646.826172 0)"/>
    <use xlink:href="#DejaVuSans-Oblique-61" transform="translate(744.238281 0)"/>
    <use xlink:href="#DejaVuSans-Oblique-70" transform="translate(805.517578 0)"/>
    <use xlink:href="#DejaVuSans-Oblique-20" transform="translate(868.994141 0)"/>
    <use xlink:href="#DejaVuSans-Oblique-3c0" transform="translate(900.78125 0)"/>
    <use xlink:href="#DejaVuSans-Oblique-20" transform="translate(960.986328 0)"/>
    <use xlink:href="#DejaVuSans-Oblique-3a" transform="translate(992.773438 0)"/>
    <use xlink:href="#DejaVuSans-Oblique-20" transform="translate(1026.464844 0)"/>
    <use xlink:href="#DejaVuSans-Oblique-56" transform="translate(1058.251953 0)"/>
    <use xlink:href="#DejaVuSans-Oblique-20" transform="translate(1126.660156 0)"/>
    <use xlink:href="#DejaVuSans-Oblique-2192" transform="translate(1158.447266 0)"/>
    <use xlink:href="#DejaVuSans-Oblique-20" transform="translate(1242.236328 0)"/>
    <use xlink:href="#DejaVuSans-Oblique-56" transform="translate(1274.023438 0)"/>
    <use xlink:href="#DejaVuSans-Oblique-2f" transform="translate(1342.431641 0)"/>
    <use xlink:href="#DejaVuSans-Oblique-55" transform="translate(1376.123047 0)"/>
    <use xlink:href="#DejaVuSans-Oblique-20" transform="translate(1449.316406 0)"/>
    <use xlink:href="#DejaVuSans-Oblique-20" transform="translate(1481.103516 0)"/>
    <use xlink:href="#DejaVuSans-Oblique-73" transform="translate(1512.890625 0)"/>
    <use xlink:href="#DejaVuSans-Oblique-65" transform="translate(1564.990234 0)"/>
    <use xlink:href="#DejaVuSans-Oblique-6e" transform="translate(1626.513672 0)"/>
    <use xlink:href="#DejaVuSans-Oblique-64" transform="translate(1689.892578 0)"/>
    <use xlink:href="#DejaVuSans-Oblique-73" transform="translate(1753.369141 0)"/>
    <use xlink:href="#DejaVuSans-Oblique-20" transform="translate(1805.46875 0)"/>
    <use xlink:href="#DejaVuSans-Oblique-65" transform="translate(1837.255859 0)"/>
    <use xlink:href="#DejaVuSans-Oblique-61" transform="translate(1898.779297 0)"/>
    <use xlink:href="#DejaVuSans-Oblique-63" transform="translate(1960.058594 0)"/>
    <use xlink:href="#DejaVuSans-Oblique-68" transform="translate(2015.039062 0)"/>
    <use xlink:href="#DejaVuSans-Oblique-20" transform="translate(2078.417969 0)"/>
    <use xlink:href="#DejaVuSans-Oblique-76" transform="translate(2110.205078 0)"/>
    <use xlink:href="#DejaVuSans-Oblique-65" transform="translate(2169.384766 0)"/>
    <use xlink:href="#DejaVuSans-Oblique-63" transform="translate(2230.908203 0)"/>
    <use xlink:href="#DejaVuSans-Oblique-74" transform="translate(2285.888672 0)"/>
    <use xlink:href="#DejaVuSans-Oblique-6f" transform="translate(2325.097656 0)"/>
    <use xlink:href="#DejaVuSans-Oblique-72" transform="translate(2386.279297 0)"/>
    <use xlink:href="#DejaVuSans-Oblique-20" transform="translate(2427.392578 0)"/>
    <use xlink:href="#DejaVuSans-Oblique-74" transform="translate(2459.179688 0)"/>
    <use xlink:href="#DejaVuSans-Oblique-6f" transform="translate(2498.388672 0)"/>
    <use xlink:href="#DejaVuSans-Oblique-20" transform="translate(2559.570312 0)"/>
    <use xlink:href="#DejaVuSans-Oblique-69" transform="translate(2591.357422 0)"/>
    <use xlink:href="#DejaVuSans-Oblique-74" transform="translate(2619.140625 0)"/>
    <use xlink:href="#DejaVuSans-Oblique-73" transform="translate(2658.349609 0)"/>
    <use xlink:href="#DejaVuSans-Oblique-20" transform="translate(2710.449219 0)"/>
    <use xlink:href="#DejaVuSans-Oblique-63" transform="translate(2742.236328 0)"/>
    <use xlink:href="#DejaVuSans-Oblique-6f" transform="translate(2797.216797 0)"/>
    <use xlink:href="#DejaVuSans-Oblique-73" transform="translate(2858.398438 0)"/>
    <use xlink:href="#DejaVuSans-Oblique-65" transform="translate(2910.498047 0)"/>
    <use xlink:href="#DejaVuSans-Oblique-74" transform="translate(2972.021484 0)"/>
   </g>
  </g>
 </g>
 <defs>
  <clipPath id="p8b04e82f2f">
   <rect x="7.2" y="52.163826" width="315.391304" height="245.304348"/>
  </clipPath>
  <clipPath id="pbabb21a0da">
   <rect x="442.671652" y="41.76" width="114.048" height="266.112"/>
  </clipPath>
 </defs>
</svg>
