<?xml version="1.0" encoding="utf-8" standalone="no"?>
<!DOCTYPE svg PUBLIC "-//W3C//DTD SVG 1.1//EN"
  "http://www.w3.org/Graphics/SVG/1.1/DTD/svg11.dtd">
<svg xmlns:xlink="http://www.w3.org/1999/xlink" width="516.6pt" height="257.792727pt" viewBox="0 0 516.6 257.792727" xmlns="http://www.w3.org/2000/svg" version="1.1">
 <metadata>
  <rdf:RDF xmlns:dc="http://purl.org/dc/elements/1.1/" xmlns:cc="http://creativecommons.org/ns#" xmlns:rdf="http://www.w3.org/1999/02/22-rdf-syntax-ns#">
   <cc:Work>
    <dc:type rdf:resource="http://purl.org/dc/dcmitype/StillImage"/>
    <dc:date>2026-05-16T20:53:45.328945</dc:date>
    <dc:format>image/svg+xml</dc:format>
    <dc:creator>
     <cc:Agent>
      <dc:title>Matplotlib v3.10.8, https://matplotlib.org/</dc:title>
     </cc:Agent>
    </dc:creator>
   </cc:Work>
  </rdf:RDF>
 </metadata>
 <defs>
  <style type="text/css">*{stroke-linejoin: round; stroke-linecap: butt}</style>
 </defs>
 <g id="figure_1">
  <g id="patch_1">
   <path d="M 0 257.792727 
L 516.6 257.792727 
L 516.6 0 
L 0 0 
z
" style="fill: #ffffff"/>
  </g>
  <g id="axes_1">
   <g id="patch_2">
    <path d="M 7.2 250.592727 
L 235.472727 250.592727 
L 235.472727 22.32 
L 7.2 22.32 
z
" style="fill: #ffffff"/>
   </g>
   <g id="patch_3">
    <path d="M 123.122531 135.56328 
Q 144.161092 125.044 162.699653 115.774719 
" clip-path="url(#pdf29a26bd9)" style="fill: none; stroke: #2a4d8f; stroke-width: 2.5; stroke-linecap: round"/>
    <path d="M 155.991449 115.774719 
L 162.699653 115.774719 
L 158.67473 121.141282 
z
" clip-path="url(#pdf29a26bd9)" style="fill: #2a4d8f; stroke: #2a4d8f; stroke-width: 2.5; stroke-linecap: round"/>
   </g>
   <g id="matplotlib.axis_1"/>
   <g id="matplotlib.axis_2"/>
   <g id="line2d_1">
    <path d="M 7.2 136.456364 
L 235.472727 136.456364 
" clip-path="url(#pdf29a26bd9)" style="fill: none; stroke: #bbbbbb; stroke-width: 0.7; stroke-linecap: square"/>
   </g>
   <g id="line2d_2">
    <path d="M 121.336364 250.592727 
L 121.336364 22.32 
" clip-path="url(#pdf29a26bd9)" style="fill: none; stroke: #bbbbbb; stroke-width: 0.7; stroke-linecap: square"/>
   </g>
   <g id="line2d_3">
    <path d="M 7.2 193.524545 
L 235.472727 79.388182 
" clip-path="url(#pdf29a26bd9)" style="fill: none; stroke-dasharray: 5.55,2.4; stroke-dashoffset: 0; stroke: #2a4d8f; stroke-opacity: 0.6; stroke-width: 1.5"/>
   </g>
   <g id="line2d_4">
    <defs>
     <path id="m741dbdc146" d="M 0 2.5 
C 0.663008 2.5 1.29895 2.236584 1.767767 1.767767 
C 2.236584 1.29895 2.5 0.663008 2.5 0 
C 2.5 -0.663008 2.236584 -1.29895 1.767767 -1.767767 
C 1.29895 -2.236584 0.663008 -2.5 0 -2.5 
C -0.663008 -2.5 -1.29895 -2.236584 -1.767767 -1.767767 
C -2.236584 -1.29895 -2.5 -0.663008 -2.5 0 
C -2.5 0.663008 -2.236584 1.29895 -1.767767 1.767767 
C -1.29895 2.236584 -0.663008 2.5 0 2.5 
z
" style="stroke: #2a4d8f"/>
    </defs>
    <g clip-path="url(#pdf29a26bd9)">
     <use xlink:href="#m741dbdc146" x="212.645455" y="90.801818" style="fill: #2a4d8f; stroke: #2a4d8f"/>
    </g>
   </g>
   <g id="line2d_5">
    <g clip-path="url(#pdf29a26bd9)">
     <use xlink:href="#m741dbdc146" x="75.681818" y="159.283636" style="fill: #2a4d8f; stroke: #2a4d8f"/>
    </g>
   </g>
   <g id="line2d_6">
    <defs>
     <path id="me53c44da2a" d="M 0 2.5 
C 0.663008 2.5 1.29895 2.236584 1.767767 1.767767 
C 2.236584 1.29895 2.5 0.663008 2.5 0 
C 2.5 -0.663008 2.236584 -1.29895 1.767767 -1.767767 
C 1.29895 -2.236584 0.663008 -2.5 0 -2.5 
C -0.663008 -2.5 -1.29895 -2.236584 -1.767767 -1.767767 
C -2.236584 -1.29895 -2.5 -0.663008 -2.5 0 
C -2.5 0.663008 -2.236584 1.29895 -1.767767 1.767767 
C -1.29895 2.236584 -0.663008 2.5 0 2.5 
z
" style="stroke: #222222"/>
    </defs>
    <g clip-path="url(#pdf29a26bd9)">
     <use xlink:href="#me53c44da2a" x="121.336364" y="136.456364" style="fill: #222222; stroke: #222222"/>
    </g>
   </g>
   <g id="patch_4">
    <path d="M 7.2 250.592727 
L 7.2 22.32 
" style="fill: none; stroke: #dddddd; stroke-width: 0.8; stroke-linejoin: miter; stroke-linecap: square"/>
   </g>
   <g id="patch_5">
    <path d="M 235.472727 250.592727 
L 235.472727 22.32 
" style="fill: none; stroke: #dddddd; stroke-width: 0.8; stroke-linejoin: miter; stroke-linecap: square"/>
   </g>
   <g id="patch_6">
    <path d="M 7.2 250.592727 
L 235.472727 250.592727 
" style="fill: none; stroke: #dddddd; stroke-width: 0.8; stroke-linejoin: miter; stroke-linecap: square"/>
   </g>
   <g id="patch_7">
    <path d="M 7.2 22.32 
L 235.472727 22.32 
" style="fill: none; stroke: #dddddd; stroke-width: 0.8; stroke-linejoin: miter; stroke-linecap: square"/>
   </g>
   <g id="text_1">
    <!-- v -->
    <g style="fill: #2a4d8f" transform="translate(148.729091 117.053182) scale(0.14 -0.14)">
     <defs>
      <path id="DejaVuSans-Oblique-76" d="M 459 3500 
L 1069 3500 
L 1581 525 
L 3256 3500 
L 3866 3500 
L 1875 0 
L 1100 0 
L 459 3500 
z
" transform="scale(0.015625)"/>
     </defs>
     <use xlink:href="#DejaVuSans-Oblique-76"/>
    </g>
   </g>
   <g id="text_2">
    <!-- 2v -->
    <g style="fill: #2a4d8f" transform="translate(198.949091 106.780909) scale(0.11 -0.11)">
     <defs>
      <path id="DejaVuSans-32" d="M 1228 531 
L 3431 531 
L 3431 0 
L 469 0 
L 469 531 
Q 828 903 1448 1529 
Q 2069 2156 2228 2338 
Q 2531 2678 2651 2914 
Q 2772 3150 2772 3378 
Q 2772 3750 2511 3984 
Q 2250 4219 1831 4219 
Q 1534 4219 1204 4116 
Q 875 4013 500 3803 
L 500 4441 
Q 881 4594 1212 4672 
Q 1544 4750 1819 4750 
Q 2544 4750 2975 4387 
Q 3406 4025 3406 3419 
Q 3406 3131 3298 2873 
Q 3191 2616 2906 2266 
Q 2828 2175 2409 1742 
Q 1991 1309 1228 531 
z
" transform="scale(0.015625)"/>
      <path id="DejaVuSans-76" d="M 191 3500 
L 800 3500 
L 1894 563 
L 2988 3500 
L 3597 3500 
L 2284 0 
L 1503 0 
L 191 3500 
z
" transform="scale(0.015625)"/>
     </defs>
     <use xlink:href="#DejaVuSans-32"/>
     <use xlink:href="#DejaVuSans-76" transform="translate(63.623047 0)"/>
    </g>
   </g>
   <g id="text_3">
    <!-- −v -->
    <g style="fill: #2a4d8f" transform="translate(61.985455 175.262727) scale(0.11 -0.11)">
     <defs>
      <path id="DejaVuSans-2212" d="M 678 2272 
L 4684 2272 
L 4684 1741 
L 678 1741 
L 678 2272 
z
" transform="scale(0.015625)"/>
     </defs>
     <use xlink:href="#DejaVuSans-2212"/>
     <use xlink:href="#DejaVuSans-76" transform="translate(83.789062 0)"/>
    </g>
   </g>
   <g id="text_4">
    <!-- 0 -->
    <g style="fill: #222222" transform="translate(125.901818 149.011364) scale(0.11 -0.11)">
     <defs>
      <path id="DejaVuSans-30" d="M 2034 4250 
Q 1547 4250 1301 3770 
Q 1056 3291 1056 2328 
Q 1056 1369 1301 889 
Q 1547 409 2034 409 
Q 2525 409 2770 889 
Q 3016 1369 3016 2328 
Q 3016 3291 2770 3770 
Q 2525 4250 2034 4250 
z
M 2034 4750 
Q 2819 4750 3233 4129 
Q 3647 3509 3647 2328 
Q 3647 1150 3233 529 
Q 2819 -91 2034 -91 
Q 1250 -91 836 529 
Q 422 1150 422 2328 
Q 422 3509 836 4129 
Q 1250 4750 2034 4750 
z
" transform="scale(0.015625)"/>
     </defs>
     <use xlink:href="#DejaVuSans-30"/>
    </g>
   </g>
   <g id="text_5">
    <!-- all scalar multiples λv -->
    <g style="fill: #444444" transform="translate(66.859801 241.461818) scale(0.1 -0.1)">
     <defs>
      <path id="DejaVuSans-61" d="M 2194 1759 
Q 1497 1759 1228 1600 
Q 959 1441 959 1056 
Q 959 750 1161 570 
Q 1363 391 1709 391 
Q 2188 391 2477 730 
Q 2766 1069 2766 1631 
L 2766 1759 
L 2194 1759 
z
M 3341 1997 
L 3341 0 
L 2766 0 
L 2766 531 
Q 2569 213 2275 61 
Q 1981 -91 1556 -91 
Q 1019 -91 701 211 
Q 384 513 384 1019 
Q 384 1609 779 1909 
Q 1175 2209 1959 2209 
L 2766 2209 
L 2766 2266 
Q 2766 2663 2505 2880 
Q 2244 3097 1772 3097 
Q 1472 3097 1187 3025 
Q 903 2953 641 2809 
L 641 3341 
Q 956 3463 1253 3523 
Q 1550 3584 1831 3584 
Q 2591 3584 2966 3190 
Q 3341 2797 3341 1997 
z
" transform="scale(0.015625)"/>
      <path id="DejaVuSans-6c" d="M 603 4863 
L 1178 4863 
L 1178 0 
L 603 0 
L 603 4863 
z
" transform="scale(0.015625)"/>
      <path id="DejaVuSans-20" transform="scale(0.015625)"/>
      <path id="DejaVuSans-73" d="M 2834 3397 
L 2834 2853 
Q 2591 2978 2328 3040 
Q 2066 3103 1784 3103 
Q 1356 3103 1142 2972 
Q 928 2841 928 2578 
Q 928 2378 1081 2264 
Q 1234 2150 1697 2047 
L 1894 2003 
Q 2506 1872 2764 1633 
Q 3022 1394 3022 966 
Q 3022 478 2636 193 
Q 2250 -91 1575 -91 
Q 1294 -91 989 -36 
Q 684 19 347 128 
L 347 722 
Q 666 556 975 473 
Q 1284 391 1588 391 
Q 1994 391 2212 530 
Q 2431 669 2431 922 
Q 2431 1156 2273 1281 
Q 2116 1406 1581 1522 
L 1381 1569 
Q 847 1681 609 1914 
Q 372 2147 372 2553 
Q 372 3047 722 3315 
Q 1072 3584 1716 3584 
Q 2034 3584 2315 3537 
Q 2597 3491 2834 3397 
z
" transform="scale(0.015625)"/>
      <path id="DejaVuSans-63" d="M 3122 3366 
L 3122 2828 
Q 2878 2963 2633 3030 
Q 2388 3097 2138 3097 
Q 1578 3097 1268 2742 
Q 959 2388 959 1747 
Q 959 1106 1268 751 
Q 1578 397 2138 397 
Q 2388 397 2633 464 
Q 2878 531 3122 666 
L 3122 134 
Q 2881 22 2623 -34 
Q 2366 -91 2075 -91 
Q 1284 -91 818 406 
Q 353 903 353 1747 
Q 353 2603 823 3093 
Q 1294 3584 2113 3584 
Q 2378 3584 2631 3529 
Q 2884 3475 3122 3366 
z
" transform="scale(0.015625)"/>
      <path id="DejaVuSans-72" d="M 2631 2963 
Q 2534 3019 2420 3045 
Q 2306 3072 2169 3072 
Q 1681 3072 1420 2755 
Q 1159 2438 1159 1844 
L 1159 0 
L 581 0 
L 581 3500 
L 1159 3500 
L 1159 2956 
Q 1341 3275 1631 3429 
Q 1922 3584 2338 3584 
Q 2397 3584 2469 3576 
Q 2541 3569 2628 3553 
L 2631 2963 
z
" transform="scale(0.015625)"/>
      <path id="DejaVuSans-6d" d="M 3328 2828 
Q 3544 3216 3844 3400 
Q 4144 3584 4550 3584 
Q 5097 3584 5394 3201 
Q 5691 2819 5691 2113 
L 5691 0 
L 5113 0 
L 5113 2094 
Q 5113 2597 4934 2840 
Q 4756 3084 4391 3084 
Q 3944 3084 3684 2787 
Q 3425 2491 3425 1978 
L 3425 0 
L 2847 0 
L 2847 2094 
Q 2847 2600 2669 2842 
Q 2491 3084 2119 3084 
Q 1678 3084 1418 2786 
Q 1159 2488 1159 1978 
L 1159 0 
L 581 0 
L 581 3500 
L 1159 3500 
L 1159 2956 
Q 1356 3278 1631 3431 
Q 1906 3584 2284 3584 
Q 2666 3584 2933 3390 
Q 3200 3197 3328 2828 
z
" transform="scale(0.015625)"/>
      <path id="DejaVuSans-75" d="M 544 1381 
L 544 3500 
L 1119 3500 
L 1119 1403 
Q 1119 906 1312 657 
Q 1506 409 1894 409 
Q 2359 409 2629 706 
Q 2900 1003 2900 1516 
L 2900 3500 
L 3475 3500 
L 3475 0 
L 2900 0 
L 2900 538 
Q 2691 219 2414 64 
Q 2138 -91 1772 -91 
Q 1169 -91 856 284 
Q 544 659 544 1381 
z
M 1991 3584 
L 1991 3584 
z
" transform="scale(0.015625)"/>
      <path id="DejaVuSans-74" d="M 1172 4494 
L 1172 3500 
L 2356 3500 
L 2356 3053 
L 1172 3053 
L 1172 1153 
Q 1172 725 1289 603 
Q 1406 481 1766 481 
L 2356 481 
L 2356 0 
L 1766 0 
Q 1100 0 847 248 
Q 594 497 594 1153 
L 594 3053 
L 172 3053 
L 172 3500 
L 594 3500 
L 594 4494 
L 1172 4494 
z
" transform="scale(0.015625)"/>
      <path id="DejaVuSans-69" d="M 603 3500 
L 1178 3500 
L 1178 0 
L 603 0 
L 603 3500 
z
M 603 4863 
L 1178 4863 
L 1178 4134 
L 603 4134 
L 603 4863 
z
" transform="scale(0.015625)"/>
      <path id="DejaVuSans-70" d="M 1159 525 
L 1159 -1331 
L 581 -1331 
L 581 3500 
L 1159 3500 
L 1159 2969 
Q 1341 3281 1617 3432 
Q 1894 3584 2278 3584 
Q 2916 3584 3314 3078 
Q 3713 2572 3713 1747 
Q 3713 922 3314 415 
Q 2916 -91 2278 -91 
Q 1894 -91 1617 61 
Q 1341 213 1159 525 
z
M 3116 1747 
Q 3116 2381 2855 2742 
Q 2594 3103 2138 3103 
Q 1681 3103 1420 2742 
Q 1159 2381 1159 1747 
Q 1159 1113 1420 752 
Q 1681 391 2138 391 
Q 2594 391 2855 752 
Q 3116 1113 3116 1747 
z
" transform="scale(0.015625)"/>
      <path id="DejaVuSans-65" d="M 3597 1894 
L 3597 1613 
L 953 1613 
Q 991 1019 1311 708 
Q 1631 397 2203 397 
Q 2534 397 2845 478 
Q 3156 559 3463 722 
L 3463 178 
Q 3153 47 2828 -22 
Q 2503 -91 2169 -91 
Q 1331 -91 842 396 
Q 353 884 353 1716 
Q 353 2575 817 3079 
Q 1281 3584 2069 3584 
Q 2775 3584 3186 3129 
Q 3597 2675 3597 1894 
z
M 3022 2063 
Q 3016 2534 2758 2815 
Q 2500 3097 2075 3097 
Q 1594 3097 1305 2825 
Q 1016 2553 972 2059 
L 3022 2063 
z
" transform="scale(0.015625)"/>
      <path id="DejaVuSans-3bb" d="M 1981 4316 
L 3597 0 
L 2988 0 
L 2006 2588 
L 800 0 
L 191 0 
L 1725 3356 
L 1494 3975 
Q 1347 4369 1013 4369 
L 713 4369 
L 713 4863 
L 1078 4856 
Q 1784 4847 1981 4316 
z
" transform="scale(0.015625)"/>
     </defs>
     <use xlink:href="#DejaVuSans-61"/>
     <use xlink:href="#DejaVuSans-6c" transform="translate(61.279297 0)"/>
     <use xlink:href="#DejaVuSans-6c" transform="translate(89.0625 0)"/>
     <use xlink:href="#DejaVuSans-20" transform="translate(116.845703 0)"/>
     <use xlink:href="#DejaVuSans-73" transform="translate(148.632812 0)"/>
     <use xlink:href="#DejaVuSans-63" transform="translate(200.732422 0)"/>
     <use xlink:href="#DejaVuSans-61" transform="translate(255.712891 0)"/>
     <use xlink:href="#DejaVuSans-6c" transform="translate(316.992188 0)"/>
     <use xlink:href="#DejaVuSans-61" transform="translate(344.775391 0)"/>
     <use xlink:href="#DejaVuSans-72" transform="translate(406.054688 0)"/>
     <use xlink:href="#DejaVuSans-20" transform="translate(447.167969 0)"/>
     <use xlink:href="#DejaVuSans-6d" transform="translate(478.955078 0)"/>
     <use xlink:href="#DejaVuSans-75" transform="translate(576.367188 0)"/>
     <use xlink:href="#DejaVuSans-6c" transform="translate(639.746094 0)"/>
     <use xlink:href="#DejaVuSans-74" transform="translate(667.529297 0)"/>
     <use xlink:href="#DejaVuSans-69" transform="translate(706.738281 0)"/>
     <use xlink:href="#DejaVuSans-70" transform="translate(734.521484 0)"/>
     <use xlink:href="#DejaVuSans-6c" transform="translate(797.998047 0)"/>
     <use xlink:href="#DejaVuSans-65" transform="translate(825.78125 0)"/>
     <use xlink:href="#DejaVuSans-73" transform="translate(887.304688 0)"/>
     <use xlink:href="#DejaVuSans-20" transform="translate(939.404297 0)"/>
     <use xlink:href="#DejaVuSans-3bb" transform="translate(971.191406 0)"/>
     <use xlink:href="#DejaVuSans-76" transform="translate(1030.371094 0)"/>
    </g>
   </g>
   <g id="text_6">
    <!-- $\langle v \rangle$: a line -->
    <g transform="translate(92.716364 16.32) scale(0.12 -0.12)">
     <defs>
      <path id="DejaVuSans-27e8" d="M 572 2006 
L 1453 4856 
L 1984 4856 
L 1103 2006 
L 1984 -844 
L 1453 -844 
L 572 2006 
z
" transform="scale(0.015625)"/>
      <path id="DejaVuSans-27e9" d="M 1925 2006 
L 1044 -844 
L 513 -844 
L 1394 2006 
L 513 4856 
L 1044 4856 
L 1925 2006 
z
" transform="scale(0.015625)"/>
      <path id="DejaVuSans-Oblique-3a" d="M 978 3309 
L 1638 3309 
L 1484 2516 
L 825 2516 
L 978 3309 
z
M 488 794 
L 1147 794 
L 991 0 
L 331 0 
L 488 794 
z
" transform="scale(0.015625)"/>
      <path id="DejaVuSans-Oblique-20" transform="scale(0.015625)"/>
      <path id="DejaVuSans-Oblique-61" d="M 3438 1997 
L 3047 0 
L 2472 0 
L 2578 531 
Q 2325 219 2001 64 
Q 1678 -91 1281 -91 
Q 834 -91 548 182 
Q 263 456 263 884 
Q 263 1497 752 1853 
Q 1241 2209 2100 2209 
L 2900 2209 
L 2931 2363 
Q 2938 2388 2941 2417 
Q 2944 2447 2944 2509 
Q 2944 2788 2717 2942 
Q 2491 3097 2081 3097 
Q 1800 3097 1504 3025 
Q 1209 2953 897 2809 
L 997 3341 
Q 1322 3463 1633 3523 
Q 1944 3584 2234 3584 
Q 2853 3584 3176 3315 
Q 3500 3047 3500 2534 
Q 3500 2431 3484 2292 
Q 3469 2153 3438 1997 
z
M 2816 1759 
L 2241 1759 
Q 1534 1759 1195 1570 
Q 856 1381 856 984 
Q 856 709 1029 553 
Q 1203 397 1509 397 
Q 1978 397 2328 733 
Q 2678 1069 2791 1631 
L 2816 1759 
z
" transform="scale(0.015625)"/>
      <path id="DejaVuSans-Oblique-6c" d="M 1172 4863 
L 1747 4863 
L 800 0 
L 225 0 
L 1172 4863 
z
" transform="scale(0.015625)"/>
      <path id="DejaVuSans-Oblique-69" d="M 1172 4863 
L 1747 4863 
L 1606 4134 
L 1031 4134 
L 1172 4863 
z
M 909 3500 
L 1484 3500 
L 800 0 
L 225 0 
L 909 3500 
z
" transform="scale(0.015625)"/>
      <path id="DejaVuSans-Oblique-6e" d="M 3566 2113 
L 3156 0 
L 2578 0 
L 2988 2091 
Q 3016 2238 3031 2350 
Q 3047 2463 3047 2528 
Q 3047 2791 2881 2937 
Q 2716 3084 2419 3084 
Q 1956 3084 1622 2776 
Q 1288 2469 1184 1941 
L 800 0 
L 225 0 
L 903 3500 
L 1478 3500 
L 1363 2950 
Q 1603 3253 1940 3418 
Q 2278 3584 2650 3584 
Q 3113 3584 3367 3334 
Q 3622 3084 3622 2631 
Q 3622 2519 3608 2391 
Q 3594 2263 3566 2113 
z
" transform="scale(0.015625)"/>
      <path id="DejaVuSans-Oblique-65" d="M 3078 2063 
Q 3088 2113 3092 2166 
Q 3097 2219 3097 2272 
Q 3097 2653 2873 2875 
Q 2650 3097 2266 3097 
Q 1838 3097 1509 2826 
Q 1181 2556 1013 2059 
L 3078 2063 
z
M 3578 1613 
L 903 1613 
Q 884 1494 878 1425 
Q 872 1356 872 1306 
Q 872 872 1139 634 
Q 1406 397 1894 397 
Q 2269 397 2603 481 
Q 2938 566 3225 728 
L 3116 159 
Q 2806 34 2476 -28 
Q 2147 -91 1806 -91 
Q 1078 -91 686 257 
Q 294 606 294 1247 
Q 294 1794 489 2264 
Q 684 2734 1063 3103 
Q 1306 3334 1642 3459 
Q 1978 3584 2356 3584 
Q 2950 3584 3301 3228 
Q 3653 2872 3653 2272 
Q 3653 2128 3634 1964 
Q 3616 1800 3578 1613 
z
" transform="scale(0.015625)"/>
     </defs>
     <use xlink:href="#DejaVuSans-27e8" transform="translate(0 0.015625)"/>
     <use xlink:href="#DejaVuSans-Oblique-76" transform="translate(39.013672 0.015625)"/>
     <use xlink:href="#DejaVuSans-27e9" transform="translate(98.193359 0.015625)"/>
     <use xlink:href="#DejaVuSans-Oblique-3a" transform="translate(137.207031 0.015625)"/>
     <use xlink:href="#DejaVuSans-Oblique-20" transform="translate(170.898438 0.015625)"/>
     <use xlink:href="#DejaVuSans-Oblique-61" transform="translate(202.685547 0.015625)"/>
     <use xlink:href="#DejaVuSans-Oblique-20" transform="translate(263.964844 0.015625)"/>
     <use xlink:href="#DejaVuSans-Oblique-6c" transform="translate(295.751953 0.015625)"/>
     <use xlink:href="#DejaVuSans-Oblique-69" transform="translate(323.535156 0.015625)"/>
     <use xlink:href="#DejaVuSans-Oblique-6e" transform="translate(351.318359 0.015625)"/>
     <use xlink:href="#DejaVuSans-Oblique-65" transform="translate(414.697266 0.015625)"/>
    </g>
   </g>
  </g>
  <g id="axes_2">
   <g id="patch_8">
    <path d="M 281.127273 250.592727 
L 509.4 250.592727 
L 509.4 22.32 
L 281.127273 22.32 
z
" style="fill: #ffffff"/>
   </g>
   <g id="patch_9">
    <path d="M 315.368182 188.959091 
L 475.159091 154.718182 
L 497.986364 83.953636 
L 338.195455 118.194545 
z
" clip-path="url(#p2a13b37b39)" style="fill: #cfd8eb; opacity: 0.55; stroke: #2a4d8f; stroke-width: 1.3; stroke-linejoin: miter"/>
   </g>
   <g id="patch_10">
    <path d="M 397.206407 136.942056 
Q 422.658558 143.305094 445.399078 148.990224 
" clip-path="url(#p2a13b37b39)" style="fill: none; stroke: #2a4d8f; stroke-width: 2.5; stroke-linecap: round"/>
    <path d="M 440.30583 144.624583 
L 445.399078 148.990224 
L 438.850616 150.445438 
z
" clip-path="url(#p2a13b37b39)" style="fill: #2a4d8f; stroke: #2a4d8f; stroke-width: 2.5; stroke-linecap: round"/>
   </g>
   <g id="patch_11">
    <path d="M 396.490547 134.878908 
Q 411.241895 115.912889 424.277226 99.153176 
" clip-path="url(#p2a13b37b39)" style="fill: none; stroke: #8f4a2a; stroke-width: 2.5; stroke-linecap: round"/>
    <path d="M 418.225526 102.047468 
L 424.277226 99.153176 
L 422.961639 105.731112 
z
" clip-path="url(#p2a13b37b39)" style="fill: #8f4a2a; stroke: #8f4a2a; stroke-width: 2.5; stroke-linecap: round"/>
   </g>
   <g id="patch_12">
    <path d="M 397.14789 135.783416 
Q 427.223089 125.042273 455.613649 114.902788 
" clip-path="url(#p2a13b37b39)" style="fill: none; stroke-dasharray: 5.92,2.56; stroke-dashoffset: 0; stroke: #444444; stroke-width: 1.6; stroke-linecap: round"/>
    <path d="M 448.954189 114.09558 
L 455.613649 114.902788 
L 450.972207 119.746032 
z
" clip-path="url(#p2a13b37b39)" style="fill: #444444; stroke-dasharray: 5.92,2.56; stroke-dashoffset: 0; stroke: #444444; stroke-width: 1.6; stroke-linecap: round"/>
   </g>
   <g id="matplotlib.axis_3"/>
   <g id="matplotlib.axis_4"/>
   <g id="line2d_7">
    <g clip-path="url(#p2a13b37b39)">
     <use xlink:href="#me53c44da2a" x="395.263636" y="136.456364" style="fill: #222222; stroke: #222222"/>
    </g>
   </g>
   <g id="patch_13">
    <path d="M 281.127273 250.592727 
L 281.127273 22.32 
" style="fill: none; stroke: #dddddd; stroke-width: 0.8; stroke-linejoin: miter; stroke-linecap: square"/>
   </g>
   <g id="patch_14">
    <path d="M 509.4 250.592727 
L 509.4 22.32 
" style="fill: none; stroke: #dddddd; stroke-width: 0.8; stroke-linejoin: miter; stroke-linecap: square"/>
   </g>
   <g id="patch_15">
    <path d="M 281.127273 250.592727 
L 509.4 250.592727 
" style="fill: none; stroke: #dddddd; stroke-width: 0.8; stroke-linejoin: miter; stroke-linecap: square"/>
   </g>
   <g id="patch_16">
    <path d="M 281.127273 22.32 
L 509.4 22.32 
" style="fill: none; stroke: #dddddd; stroke-width: 0.8; stroke-linejoin: miter; stroke-linecap: square"/>
   </g>
   <g id="text_7">
    <!-- 0 -->
    <g style="fill: #222222" transform="translate(379.284545 146.728636) scale(0.11 -0.11)">
     <use xlink:href="#DejaVuSans-30"/>
    </g>
   </g>
   <g id="text_8">
    <!-- v -->
    <g style="fill: #2a4d8f" transform="translate(451.190455 159.283636) scale(0.14 -0.14)">
     <use xlink:href="#DejaVuSans-Oblique-76"/>
    </g>
   </g>
   <g id="text_9">
    <!-- w -->
    <g style="fill: #8f4a2a" transform="translate(430.645909 94.225909) scale(0.14 -0.14)">
     <defs>
      <path id="DejaVuSans-Oblique-77" d="M 544 3500 
L 1113 3500 
L 1259 684 
L 2566 3500 
L 3231 3500 
L 3425 684 
L 4666 3500 
L 5241 3500 
L 3641 0 
L 2969 0 
L 2797 2900 
L 1459 0 
L 781 0 
L 544 3500 
z
" transform="scale(0.015625)"/>
     </defs>
     <use xlink:href="#DejaVuSans-Oblique-77"/>
    </g>
   </g>
   <g id="text_10">
    <!-- $\lambda v + \mu w$ -->
    <g style="fill: #444444" transform="translate(460.321364 111.346364) scale(0.1 -0.1)">
     <defs>
      <path id="DejaVuSans-Oblique-3bb" d="M 2350 4316 
L 3125 0 
L 2516 0 
L 2038 2588 
L 328 0 
L -281 0 
L 1903 3356 
L 1794 3975 
Q 1725 4369 1391 4369 
L 1091 4369 
L 1184 4863 
L 1550 4856 
Q 2253 4847 2350 4316 
z
" transform="scale(0.015625)"/>
      <path id="DejaVuSans-2b" d="M 2944 4013 
L 2944 2272 
L 4684 2272 
L 4684 1741 
L 2944 1741 
L 2944 0 
L 2419 0 
L 2419 1741 
L 678 1741 
L 678 2272 
L 2419 2272 
L 2419 4013 
L 2944 4013 
z
" transform="scale(0.015625)"/>
      <path id="DejaVuSans-Oblique-3bc" d="M -84 -1331 
L 856 3500 
L 1434 3500 
L 1009 1322 
Q 997 1256 987 1175 
Q 978 1094 978 1013 
Q 978 722 1161 565 
Q 1344 409 1684 409 
Q 2147 409 2431 671 
Q 2716 934 2816 1459 
L 3213 3500 
L 3788 3500 
L 3266 809 
Q 3253 750 3248 706 
Q 3244 663 3244 628 
Q 3244 531 3283 486 
Q 3322 441 3406 441 
Q 3438 441 3492 456 
Q 3547 472 3647 513 
L 3559 50 
Q 3422 -19 3297 -55 
Q 3172 -91 3053 -91 
Q 2847 -91 2730 40 
Q 2613 172 2613 403 
Q 2438 153 2195 31 
Q 1953 -91 1625 -91 
Q 1334 -91 1117 43 
Q 900 178 831 397 
L 494 -1331 
L -84 -1331 
z
" transform="scale(0.015625)"/>
     </defs>
     <use xlink:href="#DejaVuSans-Oblique-3bb" transform="translate(0 0.015625)"/>
     <use xlink:href="#DejaVuSans-Oblique-76" transform="translate(59.179688 0.015625)"/>
     <use xlink:href="#DejaVuSans-2b" transform="translate(137.841797 0.015625)"/>
     <use xlink:href="#DejaVuSans-Oblique-3bc" transform="translate(241.113281 0.015625)"/>
     <use xlink:href="#DejaVuSans-Oblique-77" transform="translate(304.736328 0.015625)"/>
    </g>
   </g>
   <g id="text_11">
    <!-- all combinations λv + μw -->
    <g style="fill: #444444" transform="translate(332.029261 241.461818) scale(0.1 -0.1)">
     <defs>
      <path id="DejaVuSans-6f" d="M 1959 3097 
Q 1497 3097 1228 2736 
Q 959 2375 959 1747 
Q 959 1119 1226 758 
Q 1494 397 1959 397 
Q 2419 397 2687 759 
Q 2956 1122 2956 1747 
Q 2956 2369 2687 2733 
Q 2419 3097 1959 3097 
z
M 1959 3584 
Q 2709 3584 3137 3096 
Q 3566 2609 3566 1747 
Q 3566 888 3137 398 
Q 2709 -91 1959 -91 
Q 1206 -91 779 398 
Q 353 888 353 1747 
Q 353 2609 779 3096 
Q 1206 3584 1959 3584 
z
" transform="scale(0.015625)"/>
      <path id="DejaVuSans-62" d="M 3116 1747 
Q 3116 2381 2855 2742 
Q 2594 3103 2138 3103 
Q 1681 3103 1420 2742 
Q 1159 2381 1159 1747 
Q 1159 1113 1420 752 
Q 1681 391 2138 391 
Q 2594 391 2855 752 
Q 3116 1113 3116 1747 
z
M 1159 2969 
Q 1341 3281 1617 3432 
Q 1894 3584 2278 3584 
Q 2916 3584 3314 3078 
Q 3713 2572 3713 1747 
Q 3713 922 3314 415 
Q 2916 -91 2278 -91 
Q 1894 -91 1617 61 
Q 1341 213 1159 525 
L 1159 0 
L 581 0 
L 581 4863 
L 1159 4863 
L 1159 2969 
z
" transform="scale(0.015625)"/>
      <path id="DejaVuSans-6e" d="M 3513 2113 
L 3513 0 
L 2938 0 
L 2938 2094 
Q 2938 2591 2744 2837 
Q 2550 3084 2163 3084 
Q 1697 3084 1428 2787 
Q 1159 2491 1159 1978 
L 1159 0 
L 581 0 
L 581 3500 
L 1159 3500 
L 1159 2956 
Q 1366 3272 1645 3428 
Q 1925 3584 2291 3584 
Q 2894 3584 3203 3211 
Q 3513 2838 3513 2113 
z
" transform="scale(0.015625)"/>
      <path id="DejaVuSans-3bc" d="M 544 -1331 
L 544 3500 
L 1119 3500 
L 1119 1325 
Q 1119 872 1334 640 
Q 1550 409 1972 409 
Q 2434 409 2667 671 
Q 2900 934 2900 1459 
L 2900 3500 
L 3475 3500 
L 3475 806 
Q 3475 619 3529 530 
Q 3584 441 3700 441 
Q 3728 441 3778 458 
Q 3828 475 3916 513 
L 3916 50 
Q 3788 -22 3673 -56 
Q 3559 -91 3450 -91 
Q 3234 -91 3106 31 
Q 2978 153 2931 403 
Q 2775 156 2548 32 
Q 2322 -91 2016 -91 
Q 1697 -91 1473 31 
Q 1250 153 1119 397 
L 1119 -1331 
L 544 -1331 
z
" transform="scale(0.015625)"/>
      <path id="DejaVuSans-77" d="M 269 3500 
L 844 3500 
L 1563 769 
L 2278 3500 
L 2956 3500 
L 3675 769 
L 4391 3500 
L 4966 3500 
L 4050 0 
L 3372 0 
L 2619 2869 
L 1863 0 
L 1184 0 
L 269 3500 
z
" transform="scale(0.015625)"/>
     </defs>
     <use xlink:href="#DejaVuSans-61"/>
     <use xlink:href="#DejaVuSans-6c" transform="translate(61.279297 0)"/>
     <use xlink:href="#DejaVuSans-6c" transform="translate(89.0625 0)"/>
     <use xlink:href="#DejaVuSans-20" transform="translate(116.845703 0)"/>
     <use xlink:href="#DejaVuSans-63" transform="translate(148.632812 0)"/>
     <use xlink:href="#DejaVuSans-6f" transform="translate(203.613281 0)"/>
     <use xlink:href="#DejaVuSans-6d" transform="translate(264.794922 0)"/>
     <use xlink:href="#DejaVuSans-62" transform="translate(362.207031 0)"/>
     <use xlink:href="#DejaVuSans-69" transform="translate(425.683594 0)"/>
     <use xlink:href="#DejaVuSans-6e" transform="translate(453.466797 0)"/>
     <use xlink:href="#DejaVuSans-61" transform="translate(516.845703 0)"/>
     <use xlink:href="#DejaVuSans-74" transform="translate(578.125 0)"/>
     <use xlink:href="#DejaVuSans-69" transform="translate(617.333984 0)"/>
     <use xlink:href="#DejaVuSans-6f" transform="translate(645.117188 0)"/>
     <use xlink:href="#DejaVuSans-6e" transform="translate(706.298828 0)"/>
     <use xlink:href="#DejaVuSans-73" transform="translate(769.677734 0)"/>
     <use xlink:href="#DejaVuSans-20" transform="translate(821.777344 0)"/>
     <use xlink:href="#DejaVuSans-3bb" transform="translate(853.564453 0)"/>
     <use xlink:href="#DejaVuSans-76" transform="translate(912.744141 0)"/>
     <use xlink:href="#DejaVuSans-20" transform="translate(971.923828 0)"/>
     <use xlink:href="#DejaVuSans-2b" transform="translate(1003.710938 0)"/>
     <use xlink:href="#DejaVuSans-20" transform="translate(1087.5 0)"/>
     <use xlink:href="#DejaVuSans-3bc" transform="translate(1119.287109 0)"/>
     <use xlink:href="#DejaVuSans-77" transform="translate(1182.910156 0)"/>
    </g>
   </g>
   <g id="text_12">
    <!-- $\langle v, w \rangle$: a plane -->
    <g transform="translate(352.843636 16.32) scale(0.12 -0.12)">
     <defs>
      <path id="DejaVuSans-2c" d="M 750 794 
L 1409 794 
L 1409 256 
L 897 -744 
L 494 -744 
L 750 256 
L 750 794 
z
" transform="scale(0.015625)"/>
      <path id="DejaVuSans-Oblique-70" d="M 3175 2156 
Q 3175 2616 2975 2859 
Q 2775 3103 2400 3103 
Q 2144 3103 1911 2972 
Q 1678 2841 1497 2591 
Q 1319 2344 1212 1994 
Q 1106 1644 1106 1300 
Q 1106 863 1306 627 
Q 1506 391 1875 391 
Q 2147 391 2380 519 
Q 2613 647 2778 891 
Q 2956 1147 3065 1494 
Q 3175 1841 3175 2156 
z
M 1394 2969 
Q 1625 3272 1939 3428 
Q 2253 3584 2638 3584 
Q 3175 3584 3472 3232 
Q 3769 2881 3769 2247 
Q 3769 1728 3584 1258 
Q 3400 788 3053 416 
Q 2822 169 2531 39 
Q 2241 -91 1919 -91 
Q 1547 -91 1294 64 
Q 1041 219 916 525 
L 556 -1331 
L -19 -1331 
L 922 3500 
L 1497 3500 
L 1394 2969 
z
" transform="scale(0.015625)"/>
     </defs>
     <use xlink:href="#DejaVuSans-27e8" transform="translate(0 0.015625)"/>
     <use xlink:href="#DejaVuSans-Oblique-76" transform="translate(39.013672 0.015625)"/>
     <use xlink:href="#DejaVuSans-2c" transform="translate(98.193359 0.015625)"/>
     <use xlink:href="#DejaVuSans-Oblique-77" transform="translate(149.462891 0.015625)"/>
     <use xlink:href="#DejaVuSans-27e9" transform="translate(231.25 0.015625)"/>
     <use xlink:href="#DejaVuSans-Oblique-3a" transform="translate(270.263672 0.015625)"/>
     <use xlink:href="#DejaVuSans-Oblique-20" transform="translate(303.955078 0.015625)"/>
     <use xlink:href="#DejaVuSans-Oblique-61" transform="translate(335.742188 0.015625)"/>
     <use xlink:href="#DejaVuSans-Oblique-20" transform="translate(397.021484 0.015625)"/>
     <use xlink:href="#DejaVuSans-Oblique-70" transform="translate(428.808594 0.015625)"/>
     <use xlink:href="#DejaVuSans-Oblique-6c" transform="translate(492.285156 0.015625)"/>
     <use xlink:href="#DejaVuSans-Oblique-61" transform="translate(520.068359 0.015625)"/>
     <use xlink:href="#DejaVuSans-Oblique-6e" transform="translate(581.347656 0.015625)"/>
     <use xlink:href="#DejaVuSans-Oblique-65" transform="translate(644.726562 0.015625)"/>
    </g>
   </g>
  </g>
 </g>
 <defs>
  <clipPath id="pdf29a26bd9">
   <rect x="7.2" y="22.32" width="228.272727" height="228.272727"/>
  </clipPath>
  <clipPath id="p2a13b37b39">
   <rect x="281.127273" y="22.32" width="228.272727" height="228.272727"/>
  </clipPath>
 </defs>
</svg>
