<?xml version="1.0" encoding="utf-8" standalone="no"?>
<!DOCTYPE svg PUBLIC "-//W3C//DTD SVG 1.1//EN"
  "http://www.w3.org/Graphics/SVG/1.1/DTD/svg11.dtd">
<svg xmlns:xlink="http://www.w3.org/1999/xlink" width="531.318654pt" height="334.438125pt" viewBox="0 0 531.318654 334.438125" xmlns="http://www.w3.org/2000/svg" version="1.1">
 <metadata>
  <rdf:RDF xmlns:dc="http://purl.org/dc/elements/1.1/" xmlns:cc="http://creativecommons.org/ns#" xmlns:rdf="http://www.w3.org/1999/02/22-rdf-syntax-ns#">
   <cc:Work>
    <dc:type rdf:resource="http://purl.org/dc/dcmitype/StillImage"/>
    <dc:date>2026-05-16T21:05:10.749793</dc:date>
    <dc:format>image/svg+xml</dc:format>
    <dc:creator>
     <cc:Agent>
      <dc:title>Matplotlib v3.10.8, https://matplotlib.org/</dc:title>
     </cc:Agent>
    </dc:creator>
   </cc:Work>
  </rdf:RDF>
 </metadata>
 <defs>
  <style type="text/css">*{stroke-linejoin: round; stroke-linecap: butt}</style>
 </defs>
 <g id="figure_1">
  <g id="patch_1">
   <path d="M 0 334.438125 
L 531.318654 334.438125 
L 531.318654 0 
L 0 0 
z
" style="fill: #ffffff"/>
  </g>
  <g id="axes_1">
   <g id="patch_2">
    <path d="M 7.2 327.238125 
L 424.89863 327.238125 
L 424.89863 22.318125 
L 7.2 22.318125 
z
" style="fill: #ffffff"/>
   </g>
   <g id="patch_3">
    <path d="M 82.385753 107.946344 
L 349.712877 107.946344 
L 399.836712 66.176481 
L 132.509589 66.176481 
z
" clip-path="url(#p3e60fec0a5)" style="fill: #f0e8c0; opacity: 0.55; stroke: #a07a30; stroke-width: 1.2; stroke-linejoin: miter"/>
   </g>
   <g id="patch_4">
    <path d="M 82.385753 143.450728 
L 349.712877 143.450728 
L 399.836712 101.680865 
L 132.509589 101.680865 
z
" clip-path="url(#p3e60fec0a5)" style="fill: #f0e8c0; opacity: 0.55; stroke: #a07a30; stroke-width: 1.2; stroke-linejoin: miter"/>
   </g>
   <g id="patch_5">
    <path d="M 82.385753 178.955111 
L 349.712877 178.955111 
L 399.836712 137.185248 
L 132.509589 137.185248 
z
" clip-path="url(#p3e60fec0a5)" style="fill: #f0e8c0; opacity: 0.55; stroke: #a07a30; stroke-width: 1.2; stroke-linejoin: miter"/>
   </g>
   <g id="patch_6">
    <path d="M 82.385753 214.459495 
L 349.712877 214.459495 
L 399.836712 172.689632 
L 132.509589 172.689632 
z
" clip-path="url(#p3e60fec0a5)" style="fill: #cfd8eb; opacity: 0.7; stroke: #2a4d8f; stroke-width: 2; stroke-linejoin: miter"/>
   </g>
   <g id="patch_7">
    <path d="M 82.385753 267.71607 
L 349.712877 267.71607 
L 399.836712 225.946207 
L 132.509589 225.946207 
z
" clip-path="url(#p3e60fec0a5)" style="fill: #f0e8c0; opacity: 0.55; stroke: #a07a30; stroke-width: 1.2; stroke-linejoin: miter"/>
   </g>
   <g id="matplotlib.axis_1"/>
   <g id="matplotlib.axis_2"/>
   <g id="patch_8">
    <path d="M 7.2 327.238125 
L 7.2 22.318125 
" style="fill: none; stroke: #dddddd; stroke-width: 0.8; stroke-linejoin: miter; stroke-linecap: square"/>
   </g>
   <g id="patch_9">
    <path d="M 424.89863 327.238125 
L 424.89863 22.318125 
" style="fill: none; stroke: #dddddd; stroke-width: 0.8; stroke-linejoin: miter; stroke-linecap: square"/>
   </g>
   <g id="patch_10">
    <path d="M 7.2 327.238125 
L 424.89863 327.238125 
" style="fill: none; stroke: #dddddd; stroke-width: 0.8; stroke-linejoin: miter; stroke-linecap: square"/>
   </g>
   <g id="patch_11">
    <path d="M 7.2 22.318125 
L 424.89863 22.318125 
" style="fill: none; stroke: #dddddd; stroke-width: 0.8; stroke-linejoin: miter; stroke-linecap: square"/>
   </g>
   <g id="text_1">
    <!-- z = 3 -->
    <g style="fill: #a07a30" transform="translate(408.190685 68.935856) scale(0.1 -0.1)">
     <defs>
      <path id="DejaVuSans-Oblique-7a" d="M 744 3500 
L 3475 3500 
L 3372 2975 
L 738 459 
L 2913 459 
L 2822 0 
L -19 0 
L 84 525 
L 2719 3041 
L 653 3041 
L 744 3500 
z
" transform="scale(0.015625)"/>
      <path id="DejaVuSans-Oblique-20" transform="scale(0.015625)"/>
      <path id="DejaVuSans-Oblique-3d" d="M 678 2906 
L 4684 2906 
L 4684 2381 
L 678 2381 
L 678 2906 
z
M 678 1631 
L 4684 1631 
L 4684 1100 
L 678 1100 
L 678 1631 
z
" transform="scale(0.015625)"/>
      <path id="DejaVuSans-Oblique-33" d="M 1013 4550 
Q 1356 4650 1679 4700 
Q 2003 4750 2316 4750 
Q 2934 4750 3296 4475 
Q 3659 4200 3659 3738 
Q 3659 3284 3373 2959 
Q 3088 2634 2584 2516 
Q 2978 2403 3162 2165 
Q 3347 1928 3347 1538 
Q 3347 1163 3167 834 
Q 2988 506 2650 269 
Q 2394 88 2037 -1 
Q 1681 -91 1216 -91 
Q 922 -91 622 -33 
Q 322 25 13 141 
L 128 738 
Q 422 575 720 495 
Q 1019 416 1331 416 
Q 1947 416 2330 733 
Q 2713 1050 2713 1556 
Q 2713 1881 2469 2057 
Q 2225 2234 1772 2234 
L 1228 2234 
L 1325 2747 
L 1900 2747 
Q 2419 2747 2717 2984 
Q 3016 3222 3016 3628 
Q 3016 3922 2797 4083 
Q 2578 4244 2181 4244 
Q 1881 4244 1567 4180 
Q 1253 4116 916 3988 
L 1013 4550 
z
" transform="scale(0.015625)"/>
     </defs>
     <use xlink:href="#DejaVuSans-Oblique-7a"/>
     <use xlink:href="#DejaVuSans-Oblique-20" transform="translate(52.490234 0)"/>
     <use xlink:href="#DejaVuSans-Oblique-3d" transform="translate(84.277344 0)"/>
     <use xlink:href="#DejaVuSans-Oblique-20" transform="translate(168.066406 0)"/>
     <use xlink:href="#DejaVuSans-Oblique-33" transform="translate(199.853516 0)"/>
    </g>
   </g>
   <g id="text_2">
    <!-- z = 2 -->
    <g style="fill: #a07a30" transform="translate(408.190685 104.44024) scale(0.1 -0.1)">
     <defs>
      <path id="DejaVuSans-Oblique-32" d="M 2950 2253 
L 934 525 
L 3163 525 
L 3053 0 
L 25 0 
L 128 531 
L 2234 2338 
Q 2656 2703 2832 2979 
Q 3009 3256 3009 3547 
Q 3009 3850 2796 4040 
Q 2584 4231 2241 4231 
Q 1944 4231 1581 4125 
Q 1219 4019 806 3816 
L 922 4441 
Q 1309 4594 1662 4672 
Q 2016 4750 2316 4750 
Q 2928 4750 3301 4425 
Q 3675 4100 3675 3572 
Q 3675 3216 3497 2892 
Q 3319 2569 2950 2253 
z
" transform="scale(0.015625)"/>
     </defs>
     <use xlink:href="#DejaVuSans-Oblique-7a"/>
     <use xlink:href="#DejaVuSans-Oblique-20" transform="translate(52.490234 0)"/>
     <use xlink:href="#DejaVuSans-Oblique-3d" transform="translate(84.277344 0)"/>
     <use xlink:href="#DejaVuSans-Oblique-20" transform="translate(168.066406 0)"/>
     <use xlink:href="#DejaVuSans-Oblique-32" transform="translate(199.853516 0)"/>
    </g>
   </g>
   <g id="text_3">
    <!-- z = 1 -->
    <g style="fill: #a07a30" transform="translate(408.190685 139.944623) scale(0.1 -0.1)">
     <defs>
      <path id="DejaVuSans-Oblique-31" d="M 416 531 
L 1447 531 
L 2144 4122 
L 978 3897 
L 1088 4441 
L 2247 4666 
L 2881 4666 
L 2075 531 
L 3103 531 
L 3003 0 
L 313 0 
L 416 531 
z
" transform="scale(0.015625)"/>
     </defs>
     <use xlink:href="#DejaVuSans-Oblique-7a"/>
     <use xlink:href="#DejaVuSans-Oblique-20" transform="translate(52.490234 0)"/>
     <use xlink:href="#DejaVuSans-Oblique-3d" transform="translate(84.277344 0)"/>
     <use xlink:href="#DejaVuSans-Oblique-20" transform="translate(168.066406 0)"/>
     <use xlink:href="#DejaVuSans-Oblique-31" transform="translate(199.853516 0)"/>
    </g>
   </g>
   <g id="text_4">
    <!-- U = xy-plane  (z = 0) -->
    <g style="fill: #2a4d8f" transform="translate(408.190685 175.724944) scale(0.11 -0.11)">
     <defs>
      <path id="DejaVuSans-Oblique-55" d="M 991 4666 
L 1625 4666 
L 1075 1831 
Q 1041 1641 1027 1517 
Q 1013 1394 1013 1300 
Q 1013 869 1253 645 
Q 1494 422 1959 422 
Q 2563 422 2898 753 
Q 3234 1084 3378 1831 
L 3928 4666 
L 4563 4666 
L 4000 1753 
Q 3816 809 3300 359 
Q 2784 -91 1888 -91 
Q 1188 -91 780 261 
Q 372 613 372 1216 
Q 372 1325 387 1461 
Q 403 1597 434 1753 
L 991 4666 
z
" transform="scale(0.015625)"/>
      <path id="DejaVuSans-Oblique-78" d="M 3841 3500 
L 2234 1784 
L 3219 0 
L 2559 0 
L 1819 1388 
L 531 0 
L -166 0 
L 1556 1844 
L 641 3500 
L 1300 3500 
L 1972 2234 
L 3144 3500 
L 3841 3500 
z
" transform="scale(0.015625)"/>
      <path id="DejaVuSans-Oblique-79" d="M 1588 -325 
Q 1188 -997 936 -1164 
Q 684 -1331 294 -1331 
L -159 -1331 
L -63 -850 
L 269 -850 
Q 509 -850 678 -719 
Q 847 -588 1056 -206 
L 1234 128 
L 459 3500 
L 1069 3500 
L 1650 819 
L 3256 3500 
L 3859 3500 
L 1588 -325 
z
" transform="scale(0.015625)"/>
      <path id="DejaVuSans-Oblique-2d" d="M 391 2009 
L 2075 2009 
L 1978 1497 
L 288 1497 
L 391 2009 
z
" transform="scale(0.015625)"/>
      <path id="DejaVuSans-Oblique-70" d="M 3175 2156 
Q 3175 2616 2975 2859 
Q 2775 3103 2400 3103 
Q 2144 3103 1911 2972 
Q 1678 2841 1497 2591 
Q 1319 2344 1212 1994 
Q 1106 1644 1106 1300 
Q 1106 863 1306 627 
Q 1506 391 1875 391 
Q 2147 391 2380 519 
Q 2613 647 2778 891 
Q 2956 1147 3065 1494 
Q 3175 1841 3175 2156 
z
M 1394 2969 
Q 1625 3272 1939 3428 
Q 2253 3584 2638 3584 
Q 3175 3584 3472 3232 
Q 3769 2881 3769 2247 
Q 3769 1728 3584 1258 
Q 3400 788 3053 416 
Q 2822 169 2531 39 
Q 2241 -91 1919 -91 
Q 1547 -91 1294 64 
Q 1041 219 916 525 
L 556 -1331 
L -19 -1331 
L 922 3500 
L 1497 3500 
L 1394 2969 
z
" transform="scale(0.015625)"/>
      <path id="DejaVuSans-Oblique-6c" d="M 1172 4863 
L 1747 4863 
L 800 0 
L 225 0 
L 1172 4863 
z
" transform="scale(0.015625)"/>
      <path id="DejaVuSans-Oblique-61" d="M 3438 1997 
L 3047 0 
L 2472 0 
L 2578 531 
Q 2325 219 2001 64 
Q 1678 -91 1281 -91 
Q 834 -91 548 182 
Q 263 456 263 884 
Q 263 1497 752 1853 
Q 1241 2209 2100 2209 
L 2900 2209 
L 2931 2363 
Q 2938 2388 2941 2417 
Q 2944 2447 2944 2509 
Q 2944 2788 2717 2942 
Q 2491 3097 2081 3097 
Q 1800 3097 1504 3025 
Q 1209 2953 897 2809 
L 997 3341 
Q 1322 3463 1633 3523 
Q 1944 3584 2234 3584 
Q 2853 3584 3176 3315 
Q 3500 3047 3500 2534 
Q 3500 2431 3484 2292 
Q 3469 2153 3438 1997 
z
M 2816 1759 
L 2241 1759 
Q 1534 1759 1195 1570 
Q 856 1381 856 984 
Q 856 709 1029 553 
Q 1203 397 1509 397 
Q 1978 397 2328 733 
Q 2678 1069 2791 1631 
L 2816 1759 
z
" transform="scale(0.015625)"/>
      <path id="DejaVuSans-Oblique-6e" d="M 3566 2113 
L 3156 0 
L 2578 0 
L 2988 2091 
Q 3016 2238 3031 2350 
Q 3047 2463 3047 2528 
Q 3047 2791 2881 2937 
Q 2716 3084 2419 3084 
Q 1956 3084 1622 2776 
Q 1288 2469 1184 1941 
L 800 0 
L 225 0 
L 903 3500 
L 1478 3500 
L 1363 2950 
Q 1603 3253 1940 3418 
Q 2278 3584 2650 3584 
Q 3113 3584 3367 3334 
Q 3622 3084 3622 2631 
Q 3622 2519 3608 2391 
Q 3594 2263 3566 2113 
z
" transform="scale(0.015625)"/>
      <path id="DejaVuSans-Oblique-65" d="M 3078 2063 
Q 3088 2113 3092 2166 
Q 3097 2219 3097 2272 
Q 3097 2653 2873 2875 
Q 2650 3097 2266 3097 
Q 1838 3097 1509 2826 
Q 1181 2556 1013 2059 
L 3078 2063 
z
M 3578 1613 
L 903 1613 
Q 884 1494 878 1425 
Q 872 1356 872 1306 
Q 872 872 1139 634 
Q 1406 397 1894 397 
Q 2269 397 2603 481 
Q 2938 566 3225 728 
L 3116 159 
Q 2806 34 2476 -28 
Q 2147 -91 1806 -91 
Q 1078 -91 686 257 
Q 294 606 294 1247 
Q 294 1794 489 2264 
Q 684 2734 1063 3103 
Q 1306 3334 1642 3459 
Q 1978 3584 2356 3584 
Q 2950 3584 3301 3228 
Q 3653 2872 3653 2272 
Q 3653 2128 3634 1964 
Q 3616 1800 3578 1613 
z
" transform="scale(0.015625)"/>
      <path id="DejaVuSans-Oblique-28" d="M 2731 4856 
Q 1903 3822 1495 2892 
Q 1088 1963 1088 1100 
Q 1088 606 1206 120 
Q 1325 -366 1563 -844 
L 1063 -844 
Q 775 -306 634 201 
Q 494 709 494 1197 
Q 494 2125 923 3036 
Q 1353 3947 2222 4856 
L 2731 4856 
z
" transform="scale(0.015625)"/>
      <path id="DejaVuSans-Oblique-30" d="M 2444 4750 
Q 3078 4750 3414 4328 
Q 3750 3906 3750 3116 
Q 3750 2516 3592 1923 
Q 3434 1331 3150 863 
Q 2859 394 2467 151 
Q 2075 -91 1600 -91 
Q 988 -91 653 334 
Q 319 759 319 1544 
Q 319 2138 480 2733 
Q 641 3328 928 3794 
Q 1216 4263 1602 4506 
Q 1988 4750 2444 4750 
z
M 2406 4250 
Q 2169 4250 1955 4123 
Q 1741 3997 1569 3750 
Q 1281 3338 1111 2720 
Q 941 2103 941 1453 
Q 941 938 1123 673 
Q 1306 409 1663 409 
Q 1913 409 2125 536 
Q 2338 663 2509 909 
Q 2794 1319 2961 1936 
Q 3128 2553 3128 3206 
Q 3128 3722 2945 3986 
Q 2763 4250 2406 4250 
z
" transform="scale(0.015625)"/>
      <path id="DejaVuSans-Oblique-29" d="M -397 -844 
Q 434 191 840 1120 
Q 1247 2050 1247 2913 
Q 1247 3406 1130 3892 
Q 1013 4378 775 4856 
L 1275 4856 
Q 1563 4316 1703 3812 
Q 1844 3309 1844 2822 
Q 1844 1891 1411 973 
Q 978 56 116 -844 
L -397 -844 
z
" transform="scale(0.015625)"/>
     </defs>
     <use xlink:href="#DejaVuSans-Oblique-55"/>
     <use xlink:href="#DejaVuSans-Oblique-20" transform="translate(73.193359 0)"/>
     <use xlink:href="#DejaVuSans-Oblique-3d" transform="translate(104.980469 0)"/>
     <use xlink:href="#DejaVuSans-Oblique-20" transform="translate(188.769531 0)"/>
     <use xlink:href="#DejaVuSans-Oblique-78" transform="translate(220.556641 0)"/>
     <use xlink:href="#DejaVuSans-Oblique-79" transform="translate(279.736328 0)"/>
     <use xlink:href="#DejaVuSans-Oblique-2d" transform="translate(335.291016 0)"/>
     <use xlink:href="#DejaVuSans-Oblique-70" transform="translate(371.375 0)"/>
     <use xlink:href="#DejaVuSans-Oblique-6c" transform="translate(434.851562 0)"/>
     <use xlink:href="#DejaVuSans-Oblique-61" transform="translate(462.634766 0)"/>
     <use xlink:href="#DejaVuSans-Oblique-6e" transform="translate(523.914062 0)"/>
     <use xlink:href="#DejaVuSans-Oblique-65" transform="translate(587.292969 0)"/>
     <use xlink:href="#DejaVuSans-Oblique-20" transform="translate(648.816406 0)"/>
     <use xlink:href="#DejaVuSans-Oblique-20" transform="translate(680.603516 0)"/>
     <use xlink:href="#DejaVuSans-Oblique-28" transform="translate(712.390625 0)"/>
     <use xlink:href="#DejaVuSans-Oblique-7a" transform="translate(751.404297 0)"/>
     <use xlink:href="#DejaVuSans-Oblique-20" transform="translate(803.894531 0)"/>
     <use xlink:href="#DejaVuSans-Oblique-3d" transform="translate(835.681641 0)"/>
     <use xlink:href="#DejaVuSans-Oblique-20" transform="translate(919.470703 0)"/>
     <use xlink:href="#DejaVuSans-Oblique-30" transform="translate(951.257812 0)"/>
     <use xlink:href="#DejaVuSans-Oblique-29" transform="translate(1014.880859 0)"/>
    </g>
   </g>
   <g id="text_5">
    <!-- z = -1.5 -->
    <g style="fill: #a07a30" transform="translate(408.190685 228.705582) scale(0.1 -0.1)">
     <defs>
      <path id="DejaVuSans-Oblique-2e" d="M 525 794 
L 1184 794 
L 1031 0 
L 372 0 
L 525 794 
z
" transform="scale(0.015625)"/>
      <path id="DejaVuSans-Oblique-35" d="M 3719 4666 
L 3622 4141 
L 1691 4141 
L 1466 2988 
Q 1609 3034 1757 3056 
Q 1906 3078 2059 3078 
Q 2706 3078 3081 2731 
Q 3456 2384 3456 1791 
Q 3456 1375 3264 994 
Q 3072 613 2719 325 
Q 2469 125 2108 17 
Q 1747 -91 1319 -91 
Q 1038 -91 744 -41 
Q 450 9 128 109 
L 244 697 
Q 531 556 820 486 
Q 1109 416 1403 416 
Q 2013 416 2411 781 
Q 2809 1147 2809 1697 
Q 2809 2103 2548 2328 
Q 2288 2553 1819 2553 
Q 1572 2553 1305 2495 
Q 1038 2438 756 2322 
L 1209 4666 
L 3719 4666 
z
" transform="scale(0.015625)"/>
     </defs>
     <use xlink:href="#DejaVuSans-Oblique-7a"/>
     <use xlink:href="#DejaVuSans-Oblique-20" transform="translate(52.490234 0)"/>
     <use xlink:href="#DejaVuSans-Oblique-3d" transform="translate(84.277344 0)"/>
     <use xlink:href="#DejaVuSans-Oblique-20" transform="translate(168.066406 0)"/>
     <use xlink:href="#DejaVuSans-Oblique-2d" transform="translate(199.853516 0)"/>
     <use xlink:href="#DejaVuSans-Oblique-31" transform="translate(235.9375 0)"/>
     <use xlink:href="#DejaVuSans-Oblique-2e" transform="translate(299.560547 0)"/>
     <use xlink:href="#DejaVuSans-Oblique-35" transform="translate(331.347656 0)"/>
    </g>
   </g>
   <g id="patch_12">
    <path d="M 57.323836 262.585396 
Q 57.323836 163.398205 57.323836 65.888065 
" style="fill: none; stroke: #444444; stroke-width: 1.5; stroke-linecap: round"/>
    <path d="M 54.523836 71.488065 
L 57.323836 65.888065 
L 60.123836 71.488065 
z
" style="fill: #444444; stroke: #444444; stroke-width: 1.5; stroke-linecap: round"/>
   </g>
   <g id="text_6">
    <!-- z -->
    <g style="fill: #444444" transform="translate(63.589315 68.473824) scale(0.12 -0.12)">
     <use xlink:href="#DejaVuSans-Oblique-7a"/>
    </g>
   </g>
   <g id="text_7">
    <!-- two points are equivalent ⇔ they have the same height z;  R³/U ≅ R -->
    <g style="fill: #333333" transform="translate(29.710174 314.707166) scale(0.11 -0.11)">
     <defs>
      <path id="DejaVuSans-74" d="M 1172 4494 
L 1172 3500 
L 2356 3500 
L 2356 3053 
L 1172 3053 
L 1172 1153 
Q 1172 725 1289 603 
Q 1406 481 1766 481 
L 2356 481 
L 2356 0 
L 1766 0 
Q 1100 0 847 248 
Q 594 497 594 1153 
L 594 3053 
L 172 3053 
L 172 3500 
L 594 3500 
L 594 4494 
L 1172 4494 
z
" transform="scale(0.015625)"/>
      <path id="DejaVuSans-77" d="M 269 3500 
L 844 3500 
L 1563 769 
L 2278 3500 
L 2956 3500 
L 3675 769 
L 4391 3500 
L 4966 3500 
L 4050 0 
L 3372 0 
L 2619 2869 
L 1863 0 
L 1184 0 
L 269 3500 
z
" transform="scale(0.015625)"/>
      <path id="DejaVuSans-6f" d="M 1959 3097 
Q 1497 3097 1228 2736 
Q 959 2375 959 1747 
Q 959 1119 1226 758 
Q 1494 397 1959 397 
Q 2419 397 2687 759 
Q 2956 1122 2956 1747 
Q 2956 2369 2687 2733 
Q 2419 3097 1959 3097 
z
M 1959 3584 
Q 2709 3584 3137 3096 
Q 3566 2609 3566 1747 
Q 3566 888 3137 398 
Q 2709 -91 1959 -91 
Q 1206 -91 779 398 
Q 353 888 353 1747 
Q 353 2609 779 3096 
Q 1206 3584 1959 3584 
z
" transform="scale(0.015625)"/>
      <path id="DejaVuSans-20" transform="scale(0.015625)"/>
      <path id="DejaVuSans-70" d="M 1159 525 
L 1159 -1331 
L 581 -1331 
L 581 3500 
L 1159 3500 
L 1159 2969 
Q 1341 3281 1617 3432 
Q 1894 3584 2278 3584 
Q 2916 3584 3314 3078 
Q 3713 2572 3713 1747 
Q 3713 922 3314 415 
Q 2916 -91 2278 -91 
Q 1894 -91 1617 61 
Q 1341 213 1159 525 
z
M 3116 1747 
Q 3116 2381 2855 2742 
Q 2594 3103 2138 3103 
Q 1681 3103 1420 2742 
Q 1159 2381 1159 1747 
Q 1159 1113 1420 752 
Q 1681 391 2138 391 
Q 2594 391 2855 752 
Q 3116 1113 3116 1747 
z
" transform="scale(0.015625)"/>
      <path id="DejaVuSans-69" d="M 603 3500 
L 1178 3500 
L 1178 0 
L 603 0 
L 603 3500 
z
M 603 4863 
L 1178 4863 
L 1178 4134 
L 603 4134 
L 603 4863 
z
" transform="scale(0.015625)"/>
      <path id="DejaVuSans-6e" d="M 3513 2113 
L 3513 0 
L 2938 0 
L 2938 2094 
Q 2938 2591 2744 2837 
Q 2550 3084 2163 3084 
Q 1697 3084 1428 2787 
Q 1159 2491 1159 1978 
L 1159 0 
L 581 0 
L 581 3500 
L 1159 3500 
L 1159 2956 
Q 1366 3272 1645 3428 
Q 1925 3584 2291 3584 
Q 2894 3584 3203 3211 
Q 3513 2838 3513 2113 
z
" transform="scale(0.015625)"/>
      <path id="DejaVuSans-73" d="M 2834 3397 
L 2834 2853 
Q 2591 2978 2328 3040 
Q 2066 3103 1784 3103 
Q 1356 3103 1142 2972 
Q 928 2841 928 2578 
Q 928 2378 1081 2264 
Q 1234 2150 1697 2047 
L 1894 2003 
Q 2506 1872 2764 1633 
Q 3022 1394 3022 966 
Q 3022 478 2636 193 
Q 2250 -91 1575 -91 
Q 1294 -91 989 -36 
Q 684 19 347 128 
L 347 722 
Q 666 556 975 473 
Q 1284 391 1588 391 
Q 1994 391 2212 530 
Q 2431 669 2431 922 
Q 2431 1156 2273 1281 
Q 2116 1406 1581 1522 
L 1381 1569 
Q 847 1681 609 1914 
Q 372 2147 372 2553 
Q 372 3047 722 3315 
Q 1072 3584 1716 3584 
Q 2034 3584 2315 3537 
Q 2597 3491 2834 3397 
z
" transform="scale(0.015625)"/>
      <path id="DejaVuSans-61" d="M 2194 1759 
Q 1497 1759 1228 1600 
Q 959 1441 959 1056 
Q 959 750 1161 570 
Q 1363 391 1709 391 
Q 2188 391 2477 730 
Q 2766 1069 2766 1631 
L 2766 1759 
L 2194 1759 
z
M 3341 1997 
L 3341 0 
L 2766 0 
L 2766 531 
Q 2569 213 2275 61 
Q 1981 -91 1556 -91 
Q 1019 -91 701 211 
Q 384 513 384 1019 
Q 384 1609 779 1909 
Q 1175 2209 1959 2209 
L 2766 2209 
L 2766 2266 
Q 2766 2663 2505 2880 
Q 2244 3097 1772 3097 
Q 1472 3097 1187 3025 
Q 903 2953 641 2809 
L 641 3341 
Q 956 3463 1253 3523 
Q 1550 3584 1831 3584 
Q 2591 3584 2966 3190 
Q 3341 2797 3341 1997 
z
" transform="scale(0.015625)"/>
      <path id="DejaVuSans-72" d="M 2631 2963 
Q 2534 3019 2420 3045 
Q 2306 3072 2169 3072 
Q 1681 3072 1420 2755 
Q 1159 2438 1159 1844 
L 1159 0 
L 581 0 
L 581 3500 
L 1159 3500 
L 1159 2956 
Q 1341 3275 1631 3429 
Q 1922 3584 2338 3584 
Q 2397 3584 2469 3576 
Q 2541 3569 2628 3553 
L 2631 2963 
z
" transform="scale(0.015625)"/>
      <path id="DejaVuSans-65" d="M 3597 1894 
L 3597 1613 
L 953 1613 
Q 991 1019 1311 708 
Q 1631 397 2203 397 
Q 2534 397 2845 478 
Q 3156 559 3463 722 
L 3463 178 
Q 3153 47 2828 -22 
Q 2503 -91 2169 -91 
Q 1331 -91 842 396 
Q 353 884 353 1716 
Q 353 2575 817 3079 
Q 1281 3584 2069 3584 
Q 2775 3584 3186 3129 
Q 3597 2675 3597 1894 
z
M 3022 2063 
Q 3016 2534 2758 2815 
Q 2500 3097 2075 3097 
Q 1594 3097 1305 2825 
Q 1016 2553 972 2059 
L 3022 2063 
z
" transform="scale(0.015625)"/>
      <path id="DejaVuSans-71" d="M 947 1747 
Q 947 1113 1208 752 
Q 1469 391 1925 391 
Q 2381 391 2643 752 
Q 2906 1113 2906 1747 
Q 2906 2381 2643 2742 
Q 2381 3103 1925 3103 
Q 1469 3103 1208 2742 
Q 947 2381 947 1747 
z
M 2906 525 
Q 2725 213 2448 61 
Q 2172 -91 1784 -91 
Q 1150 -91 751 415 
Q 353 922 353 1747 
Q 353 2572 751 3078 
Q 1150 3584 1784 3584 
Q 2172 3584 2448 3432 
Q 2725 3281 2906 2969 
L 2906 3500 
L 3481 3500 
L 3481 -1331 
L 2906 -1331 
L 2906 525 
z
" transform="scale(0.015625)"/>
      <path id="DejaVuSans-75" d="M 544 1381 
L 544 3500 
L 1119 3500 
L 1119 1403 
Q 1119 906 1312 657 
Q 1506 409 1894 409 
Q 2359 409 2629 706 
Q 2900 1003 2900 1516 
L 2900 3500 
L 3475 3500 
L 3475 0 
L 2900 0 
L 2900 538 
Q 2691 219 2414 64 
Q 2138 -91 1772 -91 
Q 1169 -91 856 284 
Q 544 659 544 1381 
z
M 1991 3584 
L 1991 3584 
z
" transform="scale(0.015625)"/>
      <path id="DejaVuSans-76" d="M 191 3500 
L 800 3500 
L 1894 563 
L 2988 3500 
L 3597 3500 
L 2284 0 
L 1503 0 
L 191 3500 
z
" transform="scale(0.015625)"/>
      <path id="DejaVuSans-6c" d="M 603 4863 
L 1178 4863 
L 1178 0 
L 603 0 
L 603 4863 
z
" transform="scale(0.015625)"/>
      <path id="DejaVuSans-21d4" d="M 1250 1678 
L 4113 1678 
L 4441 2006 
L 4113 2334 
L 1250 2334 
L 922 2006 
L 1250 1678 
z
M 3738 1303 
L 1625 1303 
L 1916 1013 
L 1541 638 
L 313 1866 
L 313 2147 
L 1541 3375 
L 1916 3000 
L 1625 2709 
L 3738 2709 
L 3447 3000 
L 3822 3375 
L 5050 2147 
L 5050 1866 
L 3822 638 
L 3447 1013 
L 3738 1303 
z
" transform="scale(0.015625)"/>
      <path id="DejaVuSans-68" d="M 3513 2113 
L 3513 0 
L 2938 0 
L 2938 2094 
Q 2938 2591 2744 2837 
Q 2550 3084 2163 3084 
Q 1697 3084 1428 2787 
Q 1159 2491 1159 1978 
L 1159 0 
L 581 0 
L 581 4863 
L 1159 4863 
L 1159 2956 
Q 1366 3272 1645 3428 
Q 1925 3584 2291 3584 
Q 2894 3584 3203 3211 
Q 3513 2838 3513 2113 
z
" transform="scale(0.015625)"/>
      <path id="DejaVuSans-79" d="M 2059 -325 
Q 1816 -950 1584 -1140 
Q 1353 -1331 966 -1331 
L 506 -1331 
L 506 -850 
L 844 -850 
Q 1081 -850 1212 -737 
Q 1344 -625 1503 -206 
L 1606 56 
L 191 3500 
L 800 3500 
L 1894 763 
L 2988 3500 
L 3597 3500 
L 2059 -325 
z
" transform="scale(0.015625)"/>
      <path id="DejaVuSans-6d" d="M 3328 2828 
Q 3544 3216 3844 3400 
Q 4144 3584 4550 3584 
Q 5097 3584 5394 3201 
Q 5691 2819 5691 2113 
L 5691 0 
L 5113 0 
L 5113 2094 
Q 5113 2597 4934 2840 
Q 4756 3084 4391 3084 
Q 3944 3084 3684 2787 
Q 3425 2491 3425 1978 
L 3425 0 
L 2847 0 
L 2847 2094 
Q 2847 2600 2669 2842 
Q 2491 3084 2119 3084 
Q 1678 3084 1418 2786 
Q 1159 2488 1159 1978 
L 1159 0 
L 581 0 
L 581 3500 
L 1159 3500 
L 1159 2956 
Q 1356 3278 1631 3431 
Q 1906 3584 2284 3584 
Q 2666 3584 2933 3390 
Q 3200 3197 3328 2828 
z
" transform="scale(0.015625)"/>
      <path id="DejaVuSans-67" d="M 2906 1791 
Q 2906 2416 2648 2759 
Q 2391 3103 1925 3103 
Q 1463 3103 1205 2759 
Q 947 2416 947 1791 
Q 947 1169 1205 825 
Q 1463 481 1925 481 
Q 2391 481 2648 825 
Q 2906 1169 2906 1791 
z
M 3481 434 
Q 3481 -459 3084 -895 
Q 2688 -1331 1869 -1331 
Q 1566 -1331 1297 -1286 
Q 1028 -1241 775 -1147 
L 775 -588 
Q 1028 -725 1275 -790 
Q 1522 -856 1778 -856 
Q 2344 -856 2625 -561 
Q 2906 -266 2906 331 
L 2906 616 
Q 2728 306 2450 153 
Q 2172 0 1784 0 
Q 1141 0 747 490 
Q 353 981 353 1791 
Q 353 2603 747 3093 
Q 1141 3584 1784 3584 
Q 2172 3584 2450 3431 
Q 2728 3278 2906 2969 
L 2906 3500 
L 3481 3500 
L 3481 434 
z
" transform="scale(0.015625)"/>
      <path id="DejaVuSans-7a" d="M 353 3500 
L 3084 3500 
L 3084 2975 
L 922 459 
L 3084 459 
L 3084 0 
L 275 0 
L 275 525 
L 2438 3041 
L 353 3041 
L 353 3500 
z
" transform="scale(0.015625)"/>
      <path id="DejaVuSans-3b" d="M 750 3309 
L 1409 3309 
L 1409 2516 
L 750 2516 
L 750 3309 
z
M 750 794 
L 1409 794 
L 1409 256 
L 897 -744 
L 494 -744 
L 750 256 
L 750 794 
z
" transform="scale(0.015625)"/>
      <path id="DejaVuSans-52" d="M 2841 2188 
Q 3044 2119 3236 1894 
Q 3428 1669 3622 1275 
L 4263 0 
L 3584 0 
L 2988 1197 
Q 2756 1666 2539 1819 
Q 2322 1972 1947 1972 
L 1259 1972 
L 1259 0 
L 628 0 
L 628 4666 
L 2053 4666 
Q 2853 4666 3247 4331 
Q 3641 3997 3641 3322 
Q 3641 2881 3436 2590 
Q 3231 2300 2841 2188 
z
M 1259 4147 
L 1259 2491 
L 2053 2491 
Q 2509 2491 2742 2702 
Q 2975 2913 2975 3322 
Q 2975 3731 2742 3939 
Q 2509 4147 2053 4147 
L 1259 4147 
z
" transform="scale(0.015625)"/>
      <path id="DejaVuSans-b3" d="M 1638 3500 
Q 1925 3444 2083 3273 
Q 2241 3103 2241 2847 
Q 2241 2459 1944 2250 
Q 1647 2041 1094 2041 
Q 916 2041 720 2073 
Q 525 2106 306 2169 
L 306 2547 
Q 469 2463 655 2422 
Q 841 2381 1050 2381 
Q 1391 2381 1578 2504 
Q 1766 2628 1766 2847 
Q 1766 3078 1592 3197 
Q 1419 3316 1081 3316 
L 813 3316 
L 813 3653 
L 1106 3653 
Q 1400 3653 1551 3751 
Q 1703 3850 1703 4038 
Q 1703 4219 1547 4314 
Q 1391 4409 1094 4409 
Q 969 4409 809 4381 
Q 650 4353 397 4281 
L 397 4641 
Q 625 4694 825 4722 
Q 1025 4750 1197 4750 
Q 1647 4750 1911 4565 
Q 2175 4381 2175 4072 
Q 2175 3856 2034 3706 
Q 1894 3556 1638 3500 
z
" transform="scale(0.015625)"/>
      <path id="DejaVuSans-2f" d="M 1625 4666 
L 2156 4666 
L 531 -594 
L 0 -594 
L 1625 4666 
z
" transform="scale(0.015625)"/>
      <path id="DejaVuSans-55" d="M 556 4666 
L 1191 4666 
L 1191 1831 
Q 1191 1081 1462 751 
Q 1734 422 2344 422 
Q 2950 422 3222 751 
Q 3494 1081 3494 1831 
L 3494 4666 
L 4128 4666 
L 4128 1753 
Q 4128 841 3676 375 
Q 3225 -91 2344 -91 
Q 1459 -91 1007 375 
Q 556 841 556 1753 
L 556 4666 
z
" transform="scale(0.015625)"/>
      <path id="DejaVuSans-2245" d="M 4684 3803 
L 4684 3247 
Q 4356 3000 4076 2892 
Q 3797 2784 3494 2784 
Q 3150 2784 2694 2969 
L 2641 2991 
Q 2622 2997 2575 3016 
Q 2091 3206 1797 3206 
Q 1522 3206 1253 3087 
Q 984 2969 678 2709 
L 678 3266 
Q 1006 3509 1286 3617 
Q 1566 3725 1869 3725 
Q 2213 3725 2672 3541 
L 2719 3522 
L 2788 3500 
Q 3272 3303 3566 3303 
Q 3834 3303 4098 3420 
Q 4363 3538 4684 3803 
z
M 678 2272 
L 4684 2272 
L 4684 1741 
L 678 1741 
L 678 2272 
z
M 678 1106 
L 4684 1106 
L 4684 575 
L 678 575 
L 678 1106 
z
" transform="scale(0.015625)"/>
     </defs>
     <use xlink:href="#DejaVuSans-74"/>
     <use xlink:href="#DejaVuSans-77" transform="translate(39.208984 0)"/>
     <use xlink:href="#DejaVuSans-6f" transform="translate(120.996094 0)"/>
     <use xlink:href="#DejaVuSans-20" transform="translate(182.177734 0)"/>
     <use xlink:href="#DejaVuSans-70" transform="translate(213.964844 0)"/>
     <use xlink:href="#DejaVuSans-6f" transform="translate(277.441406 0)"/>
     <use xlink:href="#DejaVuSans-69" transform="translate(338.623047 0)"/>
     <use xlink:href="#DejaVuSans-6e" transform="translate(366.40625 0)"/>
     <use xlink:href="#DejaVuSans-74" transform="translate(429.785156 0)"/>
     <use xlink:href="#DejaVuSans-73" transform="translate(468.994141 0)"/>
     <use xlink:href="#DejaVuSans-20" transform="translate(521.09375 0)"/>
     <use xlink:href="#DejaVuSans-61" transform="translate(552.880859 0)"/>
     <use xlink:href="#DejaVuSans-72" transform="translate(614.160156 0)"/>
     <use xlink:href="#DejaVuSans-65" transform="translate(653.023438 0)"/>
     <use xlink:href="#DejaVuSans-20" transform="translate(714.546875 0)"/>
     <use xlink:href="#DejaVuSans-65" transform="translate(746.333984 0)"/>
     <use xlink:href="#DejaVuSans-71" transform="translate(807.857422 0)"/>
     <use xlink:href="#DejaVuSans-75" transform="translate(871.333984 0)"/>
     <use xlink:href="#DejaVuSans-69" transform="translate(934.712891 0)"/>
     <use xlink:href="#DejaVuSans-76" transform="translate(962.496094 0)"/>
     <use xlink:href="#DejaVuSans-61" transform="translate(1021.675781 0)"/>
     <use xlink:href="#DejaVuSans-6c" transform="translate(1082.955078 0)"/>
     <use xlink:href="#DejaVuSans-65" transform="translate(1110.738281 0)"/>
     <use xlink:href="#DejaVuSans-6e" transform="translate(1172.261719 0)"/>
     <use xlink:href="#DejaVuSans-74" transform="translate(1235.640625 0)"/>
     <use xlink:href="#DejaVuSans-20" transform="translate(1274.849609 0)"/>
     <use xlink:href="#DejaVuSans-21d4" transform="translate(1306.636719 0)"/>
     <use xlink:href="#DejaVuSans-20" transform="translate(1390.425781 0)"/>
     <use xlink:href="#DejaVuSans-74" transform="translate(1422.212891 0)"/>
     <use xlink:href="#DejaVuSans-68" transform="translate(1461.421875 0)"/>
     <use xlink:href="#DejaVuSans-65" transform="translate(1524.800781 0)"/>
     <use xlink:href="#DejaVuSans-79" transform="translate(1586.324219 0)"/>
     <use xlink:href="#DejaVuSans-20" transform="translate(1645.503906 0)"/>
     <use xlink:href="#DejaVuSans-68" transform="translate(1677.291016 0)"/>
     <use xlink:href="#DejaVuSans-61" transform="translate(1740.669922 0)"/>
     <use xlink:href="#DejaVuSans-76" transform="translate(1801.949219 0)"/>
     <use xlink:href="#DejaVuSans-65" transform="translate(1861.128906 0)"/>
     <use xlink:href="#DejaVuSans-20" transform="translate(1922.652344 0)"/>
     <use xlink:href="#DejaVuSans-74" transform="translate(1954.439453 0)"/>
     <use xlink:href="#DejaVuSans-68" transform="translate(1993.648438 0)"/>
     <use xlink:href="#DejaVuSans-65" transform="translate(2057.027344 0)"/>
     <use xlink:href="#DejaVuSans-20" transform="translate(2118.550781 0)"/>
     <use xlink:href="#DejaVuSans-73" transform="translate(2150.337891 0)"/>
     <use xlink:href="#DejaVuSans-61" transform="translate(2202.4375 0)"/>
     <use xlink:href="#DejaVuSans-6d" transform="translate(2263.716797 0)"/>
     <use xlink:href="#DejaVuSans-65" transform="translate(2361.128906 0)"/>
     <use xlink:href="#DejaVuSans-20" transform="translate(2422.652344 0)"/>
     <use xlink:href="#DejaVuSans-68" transform="translate(2454.439453 0)"/>
     <use xlink:href="#DejaVuSans-65" transform="translate(2517.818359 0)"/>
     <use xlink:href="#DejaVuSans-69" transform="translate(2579.341797 0)"/>
     <use xlink:href="#DejaVuSans-67" transform="translate(2607.125 0)"/>
     <use xlink:href="#DejaVuSans-68" transform="translate(2670.601562 0)"/>
     <use xlink:href="#DejaVuSans-74" transform="translate(2733.980469 0)"/>
     <use xlink:href="#DejaVuSans-20" transform="translate(2773.189453 0)"/>
     <use xlink:href="#DejaVuSans-7a" transform="translate(2804.976562 0)"/>
     <use xlink:href="#DejaVuSans-3b" transform="translate(2857.466797 0)"/>
     <use xlink:href="#DejaVuSans-20" transform="translate(2891.158203 0)"/>
     <use xlink:href="#DejaVuSans-20" transform="translate(2922.945312 0)"/>
     <use xlink:href="#DejaVuSans-52" transform="translate(2954.732422 0)"/>
     <use xlink:href="#DejaVuSans-b3" transform="translate(3024.214844 0)"/>
     <use xlink:href="#DejaVuSans-2f" transform="translate(3064.302734 0)"/>
     <use xlink:href="#DejaVuSans-55" transform="translate(3097.994141 0)"/>
     <use xlink:href="#DejaVuSans-20" transform="translate(3171.1875 0)"/>
     <use xlink:href="#DejaVuSans-2245" transform="translate(3202.974609 0)"/>
     <use xlink:href="#DejaVuSans-20" transform="translate(3286.763672 0)"/>
     <use xlink:href="#DejaVuSans-52" transform="translate(3318.550781 0)"/>
    </g>
   </g>
   <g id="text_8">
    <!-- R³ / xy-plane :  each coset is a horizontal layer  z = c -->
    <g transform="translate(57.504003 16.318125) scale(0.12 -0.12)">
     <defs>
      <path id="DejaVuSans-Oblique-52" d="M 1613 4147 
L 1294 2491 
L 2106 2491 
Q 2584 2491 2879 2755 
Q 3175 3019 3175 3444 
Q 3175 3784 2976 3965 
Q 2778 4147 2406 4147 
L 1613 4147 
z
M 2772 2241 
Q 2972 2194 3105 2009 
Q 3238 1825 3413 1275 
L 3809 0 
L 3144 0 
L 2778 1197 
Q 2638 1659 2453 1815 
Q 2269 1972 1888 1972 
L 1191 1972 
L 806 0 
L 172 0 
L 1081 4666 
L 2503 4666 
Q 3150 4666 3495 4373 
Q 3841 4081 3841 3531 
Q 3841 3044 3547 2687 
Q 3253 2331 2772 2241 
z
" transform="scale(0.015625)"/>
      <path id="DejaVuSans-Oblique-b3" d="M 672 4641 
Q 931 4697 1128 4723 
Q 1325 4750 1497 4750 
Q 1888 4750 2122 4586 
Q 2356 4422 2356 4153 
Q 2356 3913 2178 3734 
Q 2000 3556 1697 3500 
Q 1931 3450 2056 3303 
Q 2181 3156 2181 2931 
Q 2181 2534 1832 2287 
Q 1484 2041 909 2041 
Q 709 2041 506 2073 
Q 303 2106 103 2169 
L 178 2547 
Q 344 2463 519 2422 
Q 694 2381 891 2381 
Q 1275 2381 1492 2525 
Q 1709 2669 1709 2925 
Q 1709 3119 1557 3217 
Q 1406 3316 1100 3316 
L 831 3316 
L 903 3653 
L 1191 3653 
Q 1509 3653 1689 3765 
Q 1869 3878 1869 4078 
Q 1869 4244 1741 4326 
Q 1613 4409 1356 4409 
Q 1181 4409 987 4376 
Q 794 4344 603 4281 
L 672 4641 
z
" transform="scale(0.015625)"/>
      <path id="DejaVuSans-Oblique-2f" d="M 2175 4666 
L 2731 4666 
L 84 -594 
L -469 -594 
L 2175 4666 
z
" transform="scale(0.015625)"/>
      <path id="DejaVuSans-Oblique-3a" d="M 978 3309 
L 1638 3309 
L 1484 2516 
L 825 2516 
L 978 3309 
z
M 488 794 
L 1147 794 
L 991 0 
L 331 0 
L 488 794 
z
" transform="scale(0.015625)"/>
      <path id="DejaVuSans-Oblique-63" d="M 3431 3366 
L 3316 2797 
Q 3109 2947 2876 3022 
Q 2644 3097 2394 3097 
Q 2119 3097 1870 3000 
Q 1622 2903 1453 2725 
Q 1184 2453 1037 2087 
Q 891 1722 891 1331 
Q 891 859 1127 628 
Q 1363 397 1844 397 
Q 2081 397 2348 469 
Q 2616 541 2906 684 
L 2797 116 
Q 2547 13 2283 -39 
Q 2019 -91 1741 -91 
Q 1044 -91 669 257 
Q 294 606 294 1253 
Q 294 1797 489 2255 
Q 684 2713 1069 3078 
Q 1331 3328 1684 3456 
Q 2038 3584 2456 3584 
Q 2700 3584 2940 3529 
Q 3181 3475 3431 3366 
z
" transform="scale(0.015625)"/>
      <path id="DejaVuSans-Oblique-68" d="M 3566 2113 
L 3156 0 
L 2578 0 
L 2988 2091 
Q 3016 2238 3031 2350 
Q 3047 2463 3047 2528 
Q 3047 2791 2881 2937 
Q 2716 3084 2419 3084 
Q 1956 3084 1617 2771 
Q 1278 2459 1178 1941 
L 800 0 
L 225 0 
L 1172 4863 
L 1747 4863 
L 1375 2950 
Q 1594 3244 1934 3414 
Q 2275 3584 2650 3584 
Q 3113 3584 3367 3334 
Q 3622 3084 3622 2631 
Q 3622 2519 3608 2391 
Q 3594 2263 3566 2113 
z
" transform="scale(0.015625)"/>
      <path id="DejaVuSans-Oblique-6f" d="M 1625 -91 
Q 1009 -91 651 289 
Q 294 669 294 1325 
Q 294 1706 417 2101 
Q 541 2497 738 2766 
Q 1047 3184 1428 3384 
Q 1809 3584 2291 3584 
Q 2888 3584 3255 3212 
Q 3622 2841 3622 2241 
Q 3622 1825 3500 1412 
Q 3378 1000 3181 728 
Q 2875 309 2494 109 
Q 2113 -91 1625 -91 
z
M 891 1344 
Q 891 869 1089 633 
Q 1288 397 1691 397 
Q 2269 397 2648 901 
Q 3028 1406 3028 2181 
Q 3028 2634 2825 2865 
Q 2622 3097 2228 3097 
Q 1903 3097 1650 2945 
Q 1397 2794 1197 2484 
Q 1050 2253 970 1956 
Q 891 1659 891 1344 
z
" transform="scale(0.015625)"/>
      <path id="DejaVuSans-Oblique-73" d="M 3200 3397 
L 3091 2853 
Q 2863 2978 2609 3040 
Q 2356 3103 2088 3103 
Q 1634 3103 1373 2948 
Q 1113 2794 1113 2528 
Q 1113 2219 1719 2053 
Q 1766 2041 1788 2034 
L 1972 1978 
Q 2547 1819 2739 1644 
Q 2931 1469 2931 1166 
Q 2931 609 2489 259 
Q 2047 -91 1331 -91 
Q 1053 -91 747 -37 
Q 441 16 72 128 
L 184 722 
Q 500 559 806 475 
Q 1113 391 1394 391 
Q 1816 391 2080 572 
Q 2344 753 2344 1031 
Q 2344 1331 1650 1516 
L 1591 1531 
L 1394 1581 
Q 956 1697 753 1886 
Q 550 2075 550 2369 
Q 550 2928 970 3256 
Q 1391 3584 2113 3584 
Q 2397 3584 2667 3537 
Q 2938 3491 3200 3397 
z
" transform="scale(0.015625)"/>
      <path id="DejaVuSans-Oblique-74" d="M 2706 3500 
L 2619 3053 
L 1472 3053 
L 1100 1153 
Q 1081 1047 1072 975 
Q 1063 903 1063 863 
Q 1063 663 1183 572 
Q 1303 481 1569 481 
L 2150 481 
L 2053 0 
L 1503 0 
Q 991 0 739 200 
Q 488 400 488 806 
Q 488 878 497 964 
Q 506 1050 525 1153 
L 897 3053 
L 409 3053 
L 500 3500 
L 978 3500 
L 1172 4494 
L 1747 4494 
L 1556 3500 
L 2706 3500 
z
" transform="scale(0.015625)"/>
      <path id="DejaVuSans-Oblique-69" d="M 1172 4863 
L 1747 4863 
L 1606 4134 
L 1031 4134 
L 1172 4863 
z
M 909 3500 
L 1484 3500 
L 800 0 
L 225 0 
L 909 3500 
z
" transform="scale(0.015625)"/>
      <path id="DejaVuSans-Oblique-72" d="M 2853 2969 
Q 2766 3016 2653 3041 
Q 2541 3066 2413 3066 
Q 1953 3066 1609 2717 
Q 1266 2369 1153 1784 
L 800 0 
L 225 0 
L 909 3500 
L 1484 3500 
L 1375 2956 
Q 1603 3259 1920 3421 
Q 2238 3584 2597 3584 
Q 2691 3584 2781 3573 
Q 2872 3563 2963 3538 
L 2853 2969 
z
" transform="scale(0.015625)"/>
     </defs>
     <use xlink:href="#DejaVuSans-Oblique-52"/>
     <use xlink:href="#DejaVuSans-Oblique-b3" transform="translate(69.482422 0)"/>
     <use xlink:href="#DejaVuSans-Oblique-20" transform="translate(109.570312 0)"/>
     <use xlink:href="#DejaVuSans-Oblique-2f" transform="translate(141.357422 0)"/>
     <use xlink:href="#DejaVuSans-Oblique-20" transform="translate(175.048828 0)"/>
     <use xlink:href="#DejaVuSans-Oblique-78" transform="translate(206.835938 0)"/>
     <use xlink:href="#DejaVuSans-Oblique-79" transform="translate(266.015625 0)"/>
     <use xlink:href="#DejaVuSans-Oblique-2d" transform="translate(321.570312 0)"/>
     <use xlink:href="#DejaVuSans-Oblique-70" transform="translate(357.654297 0)"/>
     <use xlink:href="#DejaVuSans-Oblique-6c" transform="translate(421.130859 0)"/>
     <use xlink:href="#DejaVuSans-Oblique-61" transform="translate(448.914062 0)"/>
     <use xlink:href="#DejaVuSans-Oblique-6e" transform="translate(510.193359 0)"/>
     <use xlink:href="#DejaVuSans-Oblique-65" transform="translate(573.572266 0)"/>
     <use xlink:href="#DejaVuSans-Oblique-20" transform="translate(635.095703 0)"/>
     <use xlink:href="#DejaVuSans-Oblique-3a" transform="translate(666.882812 0)"/>
     <use xlink:href="#DejaVuSans-Oblique-20" transform="translate(700.574219 0)"/>
     <use xlink:href="#DejaVuSans-Oblique-20" transform="translate(732.361328 0)"/>
     <use xlink:href="#DejaVuSans-Oblique-65" transform="translate(764.148438 0)"/>
     <use xlink:href="#DejaVuSans-Oblique-61" transform="translate(825.671875 0)"/>
     <use xlink:href="#DejaVuSans-Oblique-63" transform="translate(886.951172 0)"/>
     <use xlink:href="#DejaVuSans-Oblique-68" transform="translate(941.931641 0)"/>
     <use xlink:href="#DejaVuSans-Oblique-20" transform="translate(1005.310547 0)"/>
     <use xlink:href="#DejaVuSans-Oblique-63" transform="translate(1037.097656 0)"/>
     <use xlink:href="#DejaVuSans-Oblique-6f" transform="translate(1092.078125 0)"/>
     <use xlink:href="#DejaVuSans-Oblique-73" transform="translate(1153.259766 0)"/>
     <use xlink:href="#DejaVuSans-Oblique-65" transform="translate(1205.359375 0)"/>
     <use xlink:href="#DejaVuSans-Oblique-74" transform="translate(1266.882812 0)"/>
     <use xlink:href="#DejaVuSans-Oblique-20" transform="translate(1306.091797 0)"/>
     <use xlink:href="#DejaVuSans-Oblique-69" transform="translate(1337.878906 0)"/>
     <use xlink:href="#DejaVuSans-Oblique-73" transform="translate(1365.662109 0)"/>
     <use xlink:href="#DejaVuSans-Oblique-20" transform="translate(1417.761719 0)"/>
     <use xlink:href="#DejaVuSans-Oblique-61" transform="translate(1449.548828 0)"/>
     <use xlink:href="#DejaVuSans-Oblique-20" transform="translate(1510.828125 0)"/>
     <use xlink:href="#DejaVuSans-Oblique-68" transform="translate(1542.615234 0)"/>
     <use xlink:href="#DejaVuSans-Oblique-6f" transform="translate(1605.994141 0)"/>
     <use xlink:href="#DejaVuSans-Oblique-72" transform="translate(1667.175781 0)"/>
     <use xlink:href="#DejaVuSans-Oblique-69" transform="translate(1708.289062 0)"/>
     <use xlink:href="#DejaVuSans-Oblique-7a" transform="translate(1736.072266 0)"/>
     <use xlink:href="#DejaVuSans-Oblique-6f" transform="translate(1788.5625 0)"/>
     <use xlink:href="#DejaVuSans-Oblique-6e" transform="translate(1849.744141 0)"/>
     <use xlink:href="#DejaVuSans-Oblique-74" transform="translate(1913.123047 0)"/>
     <use xlink:href="#DejaVuSans-Oblique-61" transform="translate(1952.332031 0)"/>
     <use xlink:href="#DejaVuSans-Oblique-6c" transform="translate(2013.611328 0)"/>
     <use xlink:href="#DejaVuSans-Oblique-20" transform="translate(2041.394531 0)"/>
     <use xlink:href="#DejaVuSans-Oblique-6c" transform="translate(2073.181641 0)"/>
     <use xlink:href="#DejaVuSans-Oblique-61" transform="translate(2100.964844 0)"/>
     <use xlink:href="#DejaVuSans-Oblique-79" transform="translate(2162.244141 0)"/>
     <use xlink:href="#DejaVuSans-Oblique-65" transform="translate(2221.423828 0)"/>
     <use xlink:href="#DejaVuSans-Oblique-72" transform="translate(2282.947266 0)"/>
     <use xlink:href="#DejaVuSans-Oblique-20" transform="translate(2324.060547 0)"/>
     <use xlink:href="#DejaVuSans-Oblique-20" transform="translate(2355.847656 0)"/>
     <use xlink:href="#DejaVuSans-Oblique-7a" transform="translate(2387.634766 0)"/>
     <use xlink:href="#DejaVuSans-Oblique-20" transform="translate(2440.125 0)"/>
     <use xlink:href="#DejaVuSans-Oblique-3d" transform="translate(2471.912109 0)"/>
     <use xlink:href="#DejaVuSans-Oblique-20" transform="translate(2555.701172 0)"/>
     <use xlink:href="#DejaVuSans-Oblique-63" transform="translate(2587.488281 0)"/>
    </g>
   </g>
  </g>
 </g>
 <defs>
  <clipPath id="p3e60fec0a5">
   <rect x="7.2" y="22.318125" width="417.69863" height="304.92"/>
  </clipPath>
 </defs>
</svg>
