<?xml version="1.0" encoding="utf-8" standalone="no"?>
<!DOCTYPE svg PUBLIC "-//W3C//DTD SVG 1.1//EN"
  "http://www.w3.org/Graphics/SVG/1.1/DTD/svg11.dtd">
<svg xmlns:xlink="http://www.w3.org/1999/xlink" width="389.915625pt" height="317.806125pt" viewBox="0 0 389.915625 317.806125" xmlns="http://www.w3.org/2000/svg" version="1.1">
 <metadata>
  <rdf:RDF xmlns:dc="http://purl.org/dc/elements/1.1/" xmlns:cc="http://creativecommons.org/ns#" xmlns:rdf="http://www.w3.org/1999/02/22-rdf-syntax-ns#">
   <cc:Work>
    <dc:type rdf:resource="http://purl.org/dc/dcmitype/StillImage"/>
    <dc:date>2026-05-16T21:05:10.856164</dc:date>
    <dc:format>image/svg+xml</dc:format>
    <dc:creator>
     <cc:Agent>
      <dc:title>Matplotlib v3.10.8, https://matplotlib.org/</dc:title>
     </cc:Agent>
    </dc:creator>
   </cc:Work>
  </rdf:RDF>
 </metadata>
 <defs>
  <style type="text/css">*{stroke-linejoin: round; stroke-linecap: butt}</style>
 </defs>
 <g id="figure_1">
  <g id="patch_1">
   <path d="M 0 317.806125 
L 389.915625 317.806125 
L 389.915625 0 
L 0 0 
z
" style="fill: #ffffff"/>
  </g>
  <g id="axes_1">
   <g id="patch_2">
    <path d="M 9.629813 310.606125 
L 380.285813 310.606125 
L 380.285813 22.318125 
L 9.629813 22.318125 
z
" style="fill: #ffffff"/>
   </g>
   <g id="patch_3">
    <path d="M 196.959952 166.462125 
Q 225.845422 166.462125 251.600397 166.462125 
" clip-path="url(#p05f3eeca45)" style="fill: none; stroke: #2a4d8f; stroke-width: 2.8; stroke-linecap: round"/>
    <path d="M 245.600397 163.462125 
L 251.600397 166.462125 
L 245.600397 169.462125 
z
" clip-path="url(#p05f3eeca45)" style="fill: #2a4d8f; stroke: #2a4d8f; stroke-width: 2.8; stroke-linecap: round"/>
   </g>
   <g id="patch_4">
    <path d="M 196.121014 164.833643 
Q 225.845665 123.219131 253.750753 84.152009 
" clip-path="url(#p05f3eeca45)" style="fill: none; stroke: #8f4a2a; stroke-width: 2.8; stroke-linecap: round"/>
    <path d="M 247.822123 87.290695 
L 253.750753 84.152009 
L 252.704524 90.778124 
z
" clip-path="url(#p05f3eeca45)" style="fill: #8f4a2a; stroke: #8f4a2a; stroke-width: 2.8; stroke-linecap: round"/>
   </g>
   <g id="patch_5">
    <path d="M 196.597983 165.314005 
Q 256.733538 123.219117 314.304491 82.91945 
" clip-path="url(#p05f3eeca45)" style="fill: none; stroke: #444444; stroke-width: 2.8; stroke-linecap: round"/>
    <path d="M 307.668712 83.902528 
L 314.304491 82.91945 
L 311.109486 88.81792 
z
" clip-path="url(#p05f3eeca45)" style="fill: #444444; stroke: #444444; stroke-width: 2.8; stroke-linecap: round"/>
   </g>
   <g id="matplotlib.axis_1"/>
   <g id="matplotlib.axis_2"/>
   <g id="line2d_1">
    <path d="M 9.629813 166.462125 
L 380.285813 166.462125 
" clip-path="url(#p05f3eeca45)" style="fill: none; stroke: #bbbbbb; stroke-width: 0.7; stroke-linecap: square"/>
   </g>
   <g id="line2d_2">
    <path d="M 194.957813 310.606125 
L 194.957813 22.318125 
" clip-path="url(#p05f3eeca45)" style="fill: none; stroke: #bbbbbb; stroke-width: 0.7; stroke-linecap: square"/>
   </g>
   <g id="line2d_3">
    <path d="M 30.221813 265.303725 
L 359.693813 265.303725 
" clip-path="url(#p05f3eeca45)" style="fill: none; stroke: #7a3a8f; stroke-opacity: 0.4; stroke-width: 1.2; stroke-linecap: square"/>
   </g>
   <g id="line2d_4">
    <path d="M 30.221813 215.882925 
L 359.693813 215.882925 
" clip-path="url(#p05f3eeca45)" style="fill: none; stroke: #7a3a8f; stroke-opacity: 0.4; stroke-width: 1.2; stroke-linecap: square"/>
   </g>
   <g id="line2d_5">
    <path d="M 30.221813 117.041325 
L 359.693813 117.041325 
" clip-path="url(#p05f3eeca45)" style="fill: none; stroke: #7a3a8f; stroke-opacity: 0.4; stroke-width: 1.2; stroke-linecap: square"/>
   </g>
   <g id="line2d_6">
    <path d="M 30.221813 67.620525 
L 359.693813 67.620525 
" clip-path="url(#p05f3eeca45)" style="fill: none; stroke: #7a3a8f; stroke-opacity: 0.4; stroke-width: 1.2; stroke-linecap: square"/>
   </g>
   <g id="line2d_7">
    <path d="M 30.221813 166.462125 
L 359.693813 166.462125 
" clip-path="url(#p05f3eeca45)" style="fill: none; stroke: #2a4d8f; stroke-width: 2.5; stroke-linecap: square"/>
   </g>
   <g id="line2d_8">
    <path d="M 91.997813 310.606125 
L 297.917813 22.318125 
" clip-path="url(#p05f3eeca45)" style="fill: none; stroke: #8f4a2a; stroke-width: 2.5; stroke-linecap: square"/>
   </g>
   <g id="line2d_9">
    <defs>
     <path id="maf8e991f18" d="M 0 2.25 
C 0.596707 2.25 1.169055 2.012926 1.59099 1.59099 
C 2.012926 1.169055 2.25 0.596707 2.25 0 
C 2.25 -0.596707 2.012926 -1.169055 1.59099 -1.59099 
C 1.169055 -2.012926 0.596707 -2.25 0 -2.25 
C -0.596707 -2.25 -1.169055 -2.012926 -1.59099 -1.59099 
C -2.012926 -1.169055 -2.25 -0.596707 -2.25 0 
C -2.25 0.596707 -2.012926 1.169055 -1.59099 1.59099 
C -1.169055 2.012926 -0.596707 2.25 0 2.25 
z
" style="stroke: #8f4a2a; stroke-opacity: 0.7"/>
    </defs>
    <g clip-path="url(#p05f3eeca45)">
     <use xlink:href="#maf8e991f18" x="124.35667" y="265.303725" style="fill: #8f4a2a; fill-opacity: 0.7; stroke: #8f4a2a; stroke-opacity: 0.7"/>
    </g>
   </g>
   <g id="line2d_10">
    <g clip-path="url(#p05f3eeca45)">
     <use xlink:href="#maf8e991f18" x="159.657241" y="215.882925" style="fill: #8f4a2a; fill-opacity: 0.7; stroke: #8f4a2a; stroke-opacity: 0.7"/>
    </g>
   </g>
   <g id="line2d_11">
    <g clip-path="url(#p05f3eeca45)">
     <use xlink:href="#maf8e991f18" x="230.258384" y="117.041325" style="fill: #8f4a2a; fill-opacity: 0.7; stroke: #8f4a2a; stroke-opacity: 0.7"/>
    </g>
   </g>
   <g id="line2d_12">
    <g clip-path="url(#p05f3eeca45)">
     <use xlink:href="#maf8e991f18" x="265.558955" y="67.620525" style="fill: #8f4a2a; fill-opacity: 0.7; stroke: #8f4a2a; stroke-opacity: 0.7"/>
    </g>
   </g>
   <g id="line2d_13">
    <path d="M 256.733812 166.462125 
L 318.509813 79.975725 
" clip-path="url(#p05f3eeca45)" style="fill: none; stroke-dasharray: 4.81,2.08; stroke-dashoffset: 0; stroke: #8f4a2a; stroke-opacity: 0.7; stroke-width: 1.3"/>
   </g>
   <g id="line2d_14">
    <path d="M 256.733812 79.975725 
L 318.509813 79.975725 
" clip-path="url(#p05f3eeca45)" style="fill: none; stroke-dasharray: 4.81,2.08; stroke-dashoffset: 0; stroke: #2a4d8f; stroke-opacity: 0.7; stroke-width: 1.3"/>
   </g>
   <g id="line2d_15">
    <defs>
     <path id="m34a5a5d466" d="M 0 2.5 
C 0.663008 2.5 1.29895 2.236584 1.767767 1.767767 
C 2.236584 1.29895 2.5 0.663008 2.5 0 
C 2.5 -0.663008 2.236584 -1.29895 1.767767 -1.767767 
C 1.29895 -2.236584 0.663008 -2.5 0 -2.5 
C -0.663008 -2.5 -1.29895 -2.236584 -1.767767 -1.767767 
C -2.236584 -1.29895 -2.5 -0.663008 -2.5 0 
C -2.5 0.663008 -2.236584 1.29895 -1.767767 1.767767 
C -1.29895 2.236584 -0.663008 2.5 0 2.5 
z
" style="stroke: #222222"/>
    </defs>
    <g clip-path="url(#p05f3eeca45)">
     <use xlink:href="#m34a5a5d466" x="194.957813" y="166.462125" style="fill: #222222; stroke: #222222"/>
    </g>
   </g>
   <g id="patch_6">
    <path d="M 9.629813 310.606125 
L 9.629813 22.318125 
" style="fill: none; stroke: #dddddd; stroke-width: 0.8; stroke-linejoin: miter; stroke-linecap: square"/>
   </g>
   <g id="patch_7">
    <path d="M 380.285813 310.606125 
L 380.285813 22.318125 
" style="fill: none; stroke: #dddddd; stroke-width: 0.8; stroke-linejoin: miter; stroke-linecap: square"/>
   </g>
   <g id="patch_8">
    <path d="M 9.629813 310.606125 
L 380.285813 310.606125 
" style="fill: none; stroke: #dddddd; stroke-width: 0.8; stroke-linejoin: miter; stroke-linecap: square"/>
   </g>
   <g id="patch_9">
    <path d="M 9.629813 22.318125 
L 380.285813 22.318125 
" style="fill: none; stroke: #dddddd; stroke-width: 0.8; stroke-linejoin: miter; stroke-linecap: square"/>
   </g>
   <g id="text_1">
    <!-- U -->
    <g style="fill: #2a4d8f" transform="translate(42.577013 189.113325) scale(0.13 -0.13)">
     <defs>
      <path id="DejaVuSans-Oblique-55" d="M 991 4666 
L 1625 4666 
L 1075 1831 
Q 1041 1641 1027 1517 
Q 1013 1394 1013 1300 
Q 1013 869 1253 645 
Q 1494 422 1959 422 
Q 2563 422 2898 753 
Q 3234 1084 3378 1831 
L 3928 4666 
L 4563 4666 
L 4000 1753 
Q 3816 809 3300 359 
Q 2784 -91 1888 -91 
Q 1188 -91 780 261 
Q 372 613 372 1216 
Q 372 1325 387 1461 
Q 403 1597 434 1753 
L 991 4666 
z
" transform="scale(0.015625)"/>
     </defs>
     <use xlink:href="#DejaVuSans-Oblique-55"/>
    </g>
   </g>
   <g id="text_2">
    <!-- W -->
    <g style="fill: #8f4a2a" transform="translate(285.562613 34.673325) scale(0.13 -0.13)">
     <defs>
      <path id="DejaVuSans-Oblique-57" d="M 616 4666 
L 1228 4666 
L 1453 697 
L 3213 4666 
L 3916 4666 
L 4147 697 
L 5888 4666 
L 6528 4666 
L 4453 0 
L 3659 0 
L 3444 3891 
L 1697 0 
L 903 0 
L 616 4666 
z
" transform="scale(0.015625)"/>
     </defs>
     <use xlink:href="#DejaVuSans-Oblique-57"/>
    </g>
   </g>
   <g id="text_3">
    <!-- u -->
    <g style="fill: #2a4d8f" transform="translate(219.668213 189.113325) scale(0.13 -0.13)">
     <defs>
      <path id="DejaVuSans-Oblique-75" d="M 428 1388 
L 838 3500 
L 1416 3500 
L 1006 1409 
Q 975 1256 961 1147 
Q 947 1038 947 966 
Q 947 700 1109 554 
Q 1272 409 1569 409 
Q 2031 409 2368 721 
Q 2706 1034 2809 1563 
L 3194 3500 
L 3769 3500 
L 3091 0 
L 2516 0 
L 2631 550 
Q 2388 244 2052 76 
Q 1716 -91 1338 -91 
Q 878 -91 622 161 
Q 366 413 366 863 
Q 366 956 381 1097 
Q 397 1238 428 1388 
z
" transform="scale(0.015625)"/>
     </defs>
     <use xlink:href="#DejaVuSans-Oblique-75"/>
    </g>
   </g>
   <g id="text_4">
    <!-- w -->
    <g style="fill: #8f4a2a" transform="translate(201.135413 125.278125) scale(0.13 -0.13)">
     <defs>
      <path id="DejaVuSans-Oblique-77" d="M 544 3500 
L 1113 3500 
L 1259 684 
L 2566 3500 
L 3231 3500 
L 3425 684 
L 4666 3500 
L 5241 3500 
L 3641 0 
L 2969 0 
L 2797 2900 
L 1459 0 
L 781 0 
L 544 3500 
z
" transform="scale(0.015625)"/>
     </defs>
     <use xlink:href="#DejaVuSans-Oblique-77"/>
    </g>
   </g>
   <g id="text_5">
    <!-- v = u + w -->
    <g style="fill: #444444" transform="translate(322.628213 75.857325) scale(0.12 -0.12)">
     <defs>
      <path id="DejaVuSans-Oblique-76" d="M 459 3500 
L 1069 3500 
L 1581 525 
L 3256 3500 
L 3866 3500 
L 1875 0 
L 1100 0 
L 459 3500 
z
" transform="scale(0.015625)"/>
      <path id="DejaVuSans-Oblique-20" transform="scale(0.015625)"/>
      <path id="DejaVuSans-Oblique-3d" d="M 678 2906 
L 4684 2906 
L 4684 2381 
L 678 2381 
L 678 2906 
z
M 678 1631 
L 4684 1631 
L 4684 1100 
L 678 1100 
L 678 1631 
z
" transform="scale(0.015625)"/>
      <path id="DejaVuSans-Oblique-2b" d="M 2944 4013 
L 2944 2272 
L 4684 2272 
L 4684 1741 
L 2944 1741 
L 2944 0 
L 2419 0 
L 2419 1741 
L 678 1741 
L 678 2272 
L 2419 2272 
L 2419 4013 
L 2944 4013 
z
" transform="scale(0.015625)"/>
     </defs>
     <use xlink:href="#DejaVuSans-Oblique-76"/>
     <use xlink:href="#DejaVuSans-Oblique-20" transform="translate(59.179688 0)"/>
     <use xlink:href="#DejaVuSans-Oblique-3d" transform="translate(90.966797 0)"/>
     <use xlink:href="#DejaVuSans-Oblique-20" transform="translate(174.755859 0)"/>
     <use xlink:href="#DejaVuSans-Oblique-75" transform="translate(206.542969 0)"/>
     <use xlink:href="#DejaVuSans-Oblique-20" transform="translate(269.921875 0)"/>
     <use xlink:href="#DejaVuSans-Oblique-2b" transform="translate(301.708984 0)"/>
     <use xlink:href="#DejaVuSans-Oblique-20" transform="translate(385.498047 0)"/>
     <use xlink:href="#DejaVuSans-Oblique-77" transform="translate(417.285156 0)"/>
    </g>
   </g>
   <g id="text_6">
    <!-- 0 -->
    <g style="fill: #222222" transform="translate(172.306613 158.225325) scale(0.11 -0.11)">
     <defs>
      <path id="DejaVuSans-30" d="M 2034 4250 
Q 1547 4250 1301 3770 
Q 1056 3291 1056 2328 
Q 1056 1369 1301 889 
Q 1547 409 2034 409 
Q 2525 409 2770 889 
Q 3016 1369 3016 2328 
Q 3016 3291 2770 3770 
Q 2525 4250 2034 4250 
z
M 2034 4750 
Q 2819 4750 3233 4129 
Q 3647 3509 3647 2328 
Q 3647 1150 3233 529 
Q 2819 -91 2034 -91 
Q 1250 -91 836 529 
Q 422 1150 422 2328 
Q 422 3509 836 4129 
Q 1250 4750 2034 4750 
z
" transform="scale(0.015625)"/>
     </defs>
     <use xlink:href="#DejaVuSans-30"/>
    </g>
   </g>
   <g id="text_7">
    <!-- every coset of U meets W in exactly one point, -->
    <g style="fill: #444444" transform="translate(71.936367 288.552422) scale(0.105 -0.105)">
     <defs>
      <path id="DejaVuSans-65" d="M 3597 1894 
L 3597 1613 
L 953 1613 
Q 991 1019 1311 708 
Q 1631 397 2203 397 
Q 2534 397 2845 478 
Q 3156 559 3463 722 
L 3463 178 
Q 3153 47 2828 -22 
Q 2503 -91 2169 -91 
Q 1331 -91 842 396 
Q 353 884 353 1716 
Q 353 2575 817 3079 
Q 1281 3584 2069 3584 
Q 2775 3584 3186 3129 
Q 3597 2675 3597 1894 
z
M 3022 2063 
Q 3016 2534 2758 2815 
Q 2500 3097 2075 3097 
Q 1594 3097 1305 2825 
Q 1016 2553 972 2059 
L 3022 2063 
z
" transform="scale(0.015625)"/>
      <path id="DejaVuSans-76" d="M 191 3500 
L 800 3500 
L 1894 563 
L 2988 3500 
L 3597 3500 
L 2284 0 
L 1503 0 
L 191 3500 
z
" transform="scale(0.015625)"/>
      <path id="DejaVuSans-72" d="M 2631 2963 
Q 2534 3019 2420 3045 
Q 2306 3072 2169 3072 
Q 1681 3072 1420 2755 
Q 1159 2438 1159 1844 
L 1159 0 
L 581 0 
L 581 3500 
L 1159 3500 
L 1159 2956 
Q 1341 3275 1631 3429 
Q 1922 3584 2338 3584 
Q 2397 3584 2469 3576 
Q 2541 3569 2628 3553 
L 2631 2963 
z
" transform="scale(0.015625)"/>
      <path id="DejaVuSans-79" d="M 2059 -325 
Q 1816 -950 1584 -1140 
Q 1353 -1331 966 -1331 
L 506 -1331 
L 506 -850 
L 844 -850 
Q 1081 -850 1212 -737 
Q 1344 -625 1503 -206 
L 1606 56 
L 191 3500 
L 800 3500 
L 1894 763 
L 2988 3500 
L 3597 3500 
L 2059 -325 
z
" transform="scale(0.015625)"/>
      <path id="DejaVuSans-20" transform="scale(0.015625)"/>
      <path id="DejaVuSans-63" d="M 3122 3366 
L 3122 2828 
Q 2878 2963 2633 3030 
Q 2388 3097 2138 3097 
Q 1578 3097 1268 2742 
Q 959 2388 959 1747 
Q 959 1106 1268 751 
Q 1578 397 2138 397 
Q 2388 397 2633 464 
Q 2878 531 3122 666 
L 3122 134 
Q 2881 22 2623 -34 
Q 2366 -91 2075 -91 
Q 1284 -91 818 406 
Q 353 903 353 1747 
Q 353 2603 823 3093 
Q 1294 3584 2113 3584 
Q 2378 3584 2631 3529 
Q 2884 3475 3122 3366 
z
" transform="scale(0.015625)"/>
      <path id="DejaVuSans-6f" d="M 1959 3097 
Q 1497 3097 1228 2736 
Q 959 2375 959 1747 
Q 959 1119 1226 758 
Q 1494 397 1959 397 
Q 2419 397 2687 759 
Q 2956 1122 2956 1747 
Q 2956 2369 2687 2733 
Q 2419 3097 1959 3097 
z
M 1959 3584 
Q 2709 3584 3137 3096 
Q 3566 2609 3566 1747 
Q 3566 888 3137 398 
Q 2709 -91 1959 -91 
Q 1206 -91 779 398 
Q 353 888 353 1747 
Q 353 2609 779 3096 
Q 1206 3584 1959 3584 
z
" transform="scale(0.015625)"/>
      <path id="DejaVuSans-73" d="M 2834 3397 
L 2834 2853 
Q 2591 2978 2328 3040 
Q 2066 3103 1784 3103 
Q 1356 3103 1142 2972 
Q 928 2841 928 2578 
Q 928 2378 1081 2264 
Q 1234 2150 1697 2047 
L 1894 2003 
Q 2506 1872 2764 1633 
Q 3022 1394 3022 966 
Q 3022 478 2636 193 
Q 2250 -91 1575 -91 
Q 1294 -91 989 -36 
Q 684 19 347 128 
L 347 722 
Q 666 556 975 473 
Q 1284 391 1588 391 
Q 1994 391 2212 530 
Q 2431 669 2431 922 
Q 2431 1156 2273 1281 
Q 2116 1406 1581 1522 
L 1381 1569 
Q 847 1681 609 1914 
Q 372 2147 372 2553 
Q 372 3047 722 3315 
Q 1072 3584 1716 3584 
Q 2034 3584 2315 3537 
Q 2597 3491 2834 3397 
z
" transform="scale(0.015625)"/>
      <path id="DejaVuSans-74" d="M 1172 4494 
L 1172 3500 
L 2356 3500 
L 2356 3053 
L 1172 3053 
L 1172 1153 
Q 1172 725 1289 603 
Q 1406 481 1766 481 
L 2356 481 
L 2356 0 
L 1766 0 
Q 1100 0 847 248 
Q 594 497 594 1153 
L 594 3053 
L 172 3053 
L 172 3500 
L 594 3500 
L 594 4494 
L 1172 4494 
z
" transform="scale(0.015625)"/>
      <path id="DejaVuSans-66" d="M 2375 4863 
L 2375 4384 
L 1825 4384 
Q 1516 4384 1395 4259 
Q 1275 4134 1275 3809 
L 1275 3500 
L 2222 3500 
L 2222 3053 
L 1275 3053 
L 1275 0 
L 697 0 
L 697 3053 
L 147 3053 
L 147 3500 
L 697 3500 
L 697 3744 
Q 697 4328 969 4595 
Q 1241 4863 1831 4863 
L 2375 4863 
z
" transform="scale(0.015625)"/>
      <path id="DejaVuSans-55" d="M 556 4666 
L 1191 4666 
L 1191 1831 
Q 1191 1081 1462 751 
Q 1734 422 2344 422 
Q 2950 422 3222 751 
Q 3494 1081 3494 1831 
L 3494 4666 
L 4128 4666 
L 4128 1753 
Q 4128 841 3676 375 
Q 3225 -91 2344 -91 
Q 1459 -91 1007 375 
Q 556 841 556 1753 
L 556 4666 
z
" transform="scale(0.015625)"/>
      <path id="DejaVuSans-6d" d="M 3328 2828 
Q 3544 3216 3844 3400 
Q 4144 3584 4550 3584 
Q 5097 3584 5394 3201 
Q 5691 2819 5691 2113 
L 5691 0 
L 5113 0 
L 5113 2094 
Q 5113 2597 4934 2840 
Q 4756 3084 4391 3084 
Q 3944 3084 3684 2787 
Q 3425 2491 3425 1978 
L 3425 0 
L 2847 0 
L 2847 2094 
Q 2847 2600 2669 2842 
Q 2491 3084 2119 3084 
Q 1678 3084 1418 2786 
Q 1159 2488 1159 1978 
L 1159 0 
L 581 0 
L 581 3500 
L 1159 3500 
L 1159 2956 
Q 1356 3278 1631 3431 
Q 1906 3584 2284 3584 
Q 2666 3584 2933 3390 
Q 3200 3197 3328 2828 
z
" transform="scale(0.015625)"/>
      <path id="DejaVuSans-57" d="M 213 4666 
L 850 4666 
L 1831 722 
L 2809 4666 
L 3519 4666 
L 4500 722 
L 5478 4666 
L 6119 4666 
L 4947 0 
L 4153 0 
L 3169 4050 
L 2175 0 
L 1381 0 
L 213 4666 
z
" transform="scale(0.015625)"/>
      <path id="DejaVuSans-69" d="M 603 3500 
L 1178 3500 
L 1178 0 
L 603 0 
L 603 3500 
z
M 603 4863 
L 1178 4863 
L 1178 4134 
L 603 4134 
L 603 4863 
z
" transform="scale(0.015625)"/>
      <path id="DejaVuSans-6e" d="M 3513 2113 
L 3513 0 
L 2938 0 
L 2938 2094 
Q 2938 2591 2744 2837 
Q 2550 3084 2163 3084 
Q 1697 3084 1428 2787 
Q 1159 2491 1159 1978 
L 1159 0 
L 581 0 
L 581 3500 
L 1159 3500 
L 1159 2956 
Q 1366 3272 1645 3428 
Q 1925 3584 2291 3584 
Q 2894 3584 3203 3211 
Q 3513 2838 3513 2113 
z
" transform="scale(0.015625)"/>
      <path id="DejaVuSans-78" d="M 3513 3500 
L 2247 1797 
L 3578 0 
L 2900 0 
L 1881 1375 
L 863 0 
L 184 0 
L 1544 1831 
L 300 3500 
L 978 3500 
L 1906 2253 
L 2834 3500 
L 3513 3500 
z
" transform="scale(0.015625)"/>
      <path id="DejaVuSans-61" d="M 2194 1759 
Q 1497 1759 1228 1600 
Q 959 1441 959 1056 
Q 959 750 1161 570 
Q 1363 391 1709 391 
Q 2188 391 2477 730 
Q 2766 1069 2766 1631 
L 2766 1759 
L 2194 1759 
z
M 3341 1997 
L 3341 0 
L 2766 0 
L 2766 531 
Q 2569 213 2275 61 
Q 1981 -91 1556 -91 
Q 1019 -91 701 211 
Q 384 513 384 1019 
Q 384 1609 779 1909 
Q 1175 2209 1959 2209 
L 2766 2209 
L 2766 2266 
Q 2766 2663 2505 2880 
Q 2244 3097 1772 3097 
Q 1472 3097 1187 3025 
Q 903 2953 641 2809 
L 641 3341 
Q 956 3463 1253 3523 
Q 1550 3584 1831 3584 
Q 2591 3584 2966 3190 
Q 3341 2797 3341 1997 
z
" transform="scale(0.015625)"/>
      <path id="DejaVuSans-6c" d="M 603 4863 
L 1178 4863 
L 1178 0 
L 603 0 
L 603 4863 
z
" transform="scale(0.015625)"/>
      <path id="DejaVuSans-70" d="M 1159 525 
L 1159 -1331 
L 581 -1331 
L 581 3500 
L 1159 3500 
L 1159 2969 
Q 1341 3281 1617 3432 
Q 1894 3584 2278 3584 
Q 2916 3584 3314 3078 
Q 3713 2572 3713 1747 
Q 3713 922 3314 415 
Q 2916 -91 2278 -91 
Q 1894 -91 1617 61 
Q 1341 213 1159 525 
z
M 3116 1747 
Q 3116 2381 2855 2742 
Q 2594 3103 2138 3103 
Q 1681 3103 1420 2742 
Q 1159 2381 1159 1747 
Q 1159 1113 1420 752 
Q 1681 391 2138 391 
Q 2594 391 2855 752 
Q 3116 1113 3116 1747 
z
" transform="scale(0.015625)"/>
      <path id="DejaVuSans-2c" d="M 750 794 
L 1409 794 
L 1409 256 
L 897 -744 
L 494 -744 
L 750 256 
L 750 794 
z
" transform="scale(0.015625)"/>
     </defs>
     <use xlink:href="#DejaVuSans-65"/>
     <use xlink:href="#DejaVuSans-76" transform="translate(61.523438 0)"/>
     <use xlink:href="#DejaVuSans-65" transform="translate(120.703125 0)"/>
     <use xlink:href="#DejaVuSans-72" transform="translate(182.226562 0)"/>
     <use xlink:href="#DejaVuSans-79" transform="translate(223.339844 0)"/>
     <use xlink:href="#DejaVuSans-20" transform="translate(282.519531 0)"/>
     <use xlink:href="#DejaVuSans-63" transform="translate(314.306641 0)"/>
     <use xlink:href="#DejaVuSans-6f" transform="translate(369.287109 0)"/>
     <use xlink:href="#DejaVuSans-73" transform="translate(430.46875 0)"/>
     <use xlink:href="#DejaVuSans-65" transform="translate(482.568359 0)"/>
     <use xlink:href="#DejaVuSans-74" transform="translate(544.091797 0)"/>
     <use xlink:href="#DejaVuSans-20" transform="translate(583.300781 0)"/>
     <use xlink:href="#DejaVuSans-6f" transform="translate(615.087891 0)"/>
     <use xlink:href="#DejaVuSans-66" transform="translate(676.269531 0)"/>
     <use xlink:href="#DejaVuSans-20" transform="translate(711.474609 0)"/>
     <use xlink:href="#DejaVuSans-55" transform="translate(743.261719 0)"/>
     <use xlink:href="#DejaVuSans-20" transform="translate(816.455078 0)"/>
     <use xlink:href="#DejaVuSans-6d" transform="translate(848.242188 0)"/>
     <use xlink:href="#DejaVuSans-65" transform="translate(945.654297 0)"/>
     <use xlink:href="#DejaVuSans-65" transform="translate(1007.177734 0)"/>
     <use xlink:href="#DejaVuSans-74" transform="translate(1068.701172 0)"/>
     <use xlink:href="#DejaVuSans-73" transform="translate(1107.910156 0)"/>
     <use xlink:href="#DejaVuSans-20" transform="translate(1160.009766 0)"/>
     <use xlink:href="#DejaVuSans-57" transform="translate(1191.796875 0)"/>
     <use xlink:href="#DejaVuSans-20" transform="translate(1290.673828 0)"/>
     <use xlink:href="#DejaVuSans-69" transform="translate(1322.460938 0)"/>
     <use xlink:href="#DejaVuSans-6e" transform="translate(1350.244141 0)"/>
     <use xlink:href="#DejaVuSans-20" transform="translate(1413.623047 0)"/>
     <use xlink:href="#DejaVuSans-65" transform="translate(1445.410156 0)"/>
     <use xlink:href="#DejaVuSans-78" transform="translate(1505.183594 0)"/>
     <use xlink:href="#DejaVuSans-61" transform="translate(1564.363281 0)"/>
     <use xlink:href="#DejaVuSans-63" transform="translate(1625.642578 0)"/>
     <use xlink:href="#DejaVuSans-74" transform="translate(1680.623047 0)"/>
     <use xlink:href="#DejaVuSans-6c" transform="translate(1719.832031 0)"/>
     <use xlink:href="#DejaVuSans-79" transform="translate(1747.615234 0)"/>
     <use xlink:href="#DejaVuSans-20" transform="translate(1806.794922 0)"/>
     <use xlink:href="#DejaVuSans-6f" transform="translate(1838.582031 0)"/>
     <use xlink:href="#DejaVuSans-6e" transform="translate(1899.763672 0)"/>
     <use xlink:href="#DejaVuSans-65" transform="translate(1963.142578 0)"/>
     <use xlink:href="#DejaVuSans-20" transform="translate(2024.666016 0)"/>
     <use xlink:href="#DejaVuSans-70" transform="translate(2056.453125 0)"/>
     <use xlink:href="#DejaVuSans-6f" transform="translate(2119.929688 0)"/>
     <use xlink:href="#DejaVuSans-69" transform="translate(2181.111328 0)"/>
     <use xlink:href="#DejaVuSans-6e" transform="translate(2208.894531 0)"/>
     <use xlink:href="#DejaVuSans-74" transform="translate(2272.273438 0)"/>
     <use xlink:href="#DejaVuSans-2c" transform="translate(2311.482422 0)"/>
    </g>
    <!-- so  W  is a concrete model of  V / U -->
    <g style="fill: #444444" transform="translate(102.903984 300.310125) scale(0.105 -0.105)">
     <defs>
      <path id="DejaVuSans-64" d="M 2906 2969 
L 2906 4863 
L 3481 4863 
L 3481 0 
L 2906 0 
L 2906 525 
Q 2725 213 2448 61 
Q 2172 -91 1784 -91 
Q 1150 -91 751 415 
Q 353 922 353 1747 
Q 353 2572 751 3078 
Q 1150 3584 1784 3584 
Q 2172 3584 2448 3432 
Q 2725 3281 2906 2969 
z
M 947 1747 
Q 947 1113 1208 752 
Q 1469 391 1925 391 
Q 2381 391 2643 752 
Q 2906 1113 2906 1747 
Q 2906 2381 2643 2742 
Q 2381 3103 1925 3103 
Q 1469 3103 1208 2742 
Q 947 2381 947 1747 
z
" transform="scale(0.015625)"/>
      <path id="DejaVuSans-56" d="M 1831 0 
L 50 4666 
L 709 4666 
L 2188 738 
L 3669 4666 
L 4325 4666 
L 2547 0 
L 1831 0 
z
" transform="scale(0.015625)"/>
      <path id="DejaVuSans-2f" d="M 1625 4666 
L 2156 4666 
L 531 -594 
L 0 -594 
L 1625 4666 
z
" transform="scale(0.015625)"/>
     </defs>
     <use xlink:href="#DejaVuSans-73"/>
     <use xlink:href="#DejaVuSans-6f" transform="translate(52.099609 0)"/>
     <use xlink:href="#DejaVuSans-20" transform="translate(113.28125 0)"/>
     <use xlink:href="#DejaVuSans-20" transform="translate(145.068359 0)"/>
     <use xlink:href="#DejaVuSans-57" transform="translate(176.855469 0)"/>
     <use xlink:href="#DejaVuSans-20" transform="translate(275.732422 0)"/>
     <use xlink:href="#DejaVuSans-20" transform="translate(307.519531 0)"/>
     <use xlink:href="#DejaVuSans-69" transform="translate(339.306641 0)"/>
     <use xlink:href="#DejaVuSans-73" transform="translate(367.089844 0)"/>
     <use xlink:href="#DejaVuSans-20" transform="translate(419.189453 0)"/>
     <use xlink:href="#DejaVuSans-61" transform="translate(450.976562 0)"/>
     <use xlink:href="#DejaVuSans-20" transform="translate(512.255859 0)"/>
     <use xlink:href="#DejaVuSans-63" transform="translate(544.042969 0)"/>
     <use xlink:href="#DejaVuSans-6f" transform="translate(599.023438 0)"/>
     <use xlink:href="#DejaVuSans-6e" transform="translate(660.205078 0)"/>
     <use xlink:href="#DejaVuSans-63" transform="translate(723.583984 0)"/>
     <use xlink:href="#DejaVuSans-72" transform="translate(778.564453 0)"/>
     <use xlink:href="#DejaVuSans-65" transform="translate(817.427734 0)"/>
     <use xlink:href="#DejaVuSans-74" transform="translate(878.951172 0)"/>
     <use xlink:href="#DejaVuSans-65" transform="translate(918.160156 0)"/>
     <use xlink:href="#DejaVuSans-20" transform="translate(979.683594 0)"/>
     <use xlink:href="#DejaVuSans-6d" transform="translate(1011.470703 0)"/>
     <use xlink:href="#DejaVuSans-6f" transform="translate(1108.882812 0)"/>
     <use xlink:href="#DejaVuSans-64" transform="translate(1170.064453 0)"/>
     <use xlink:href="#DejaVuSans-65" transform="translate(1233.541016 0)"/>
     <use xlink:href="#DejaVuSans-6c" transform="translate(1295.064453 0)"/>
     <use xlink:href="#DejaVuSans-20" transform="translate(1322.847656 0)"/>
     <use xlink:href="#DejaVuSans-6f" transform="translate(1354.634766 0)"/>
     <use xlink:href="#DejaVuSans-66" transform="translate(1415.816406 0)"/>
     <use xlink:href="#DejaVuSans-20" transform="translate(1451.021484 0)"/>
     <use xlink:href="#DejaVuSans-20" transform="translate(1482.808594 0)"/>
     <use xlink:href="#DejaVuSans-56" transform="translate(1514.595703 0)"/>
     <use xlink:href="#DejaVuSans-20" transform="translate(1583.003906 0)"/>
     <use xlink:href="#DejaVuSans-2f" transform="translate(1614.791016 0)"/>
     <use xlink:href="#DejaVuSans-20" transform="translate(1648.482422 0)"/>
     <use xlink:href="#DejaVuSans-55" transform="translate(1680.269531 0)"/>
    </g>
   </g>
   <g id="text_8">
    <!-- complement:  V = U ⊕ W  splits every v uniquely as v = u + w -->
    <g transform="translate(7.2 16.318125) scale(0.12 -0.12)">
     <defs>
      <path id="DejaVuSans-Oblique-63" d="M 3431 3366 
L 3316 2797 
Q 3109 2947 2876 3022 
Q 2644 3097 2394 3097 
Q 2119 3097 1870 3000 
Q 1622 2903 1453 2725 
Q 1184 2453 1037 2087 
Q 891 1722 891 1331 
Q 891 859 1127 628 
Q 1363 397 1844 397 
Q 2081 397 2348 469 
Q 2616 541 2906 684 
L 2797 116 
Q 2547 13 2283 -39 
Q 2019 -91 1741 -91 
Q 1044 -91 669 257 
Q 294 606 294 1253 
Q 294 1797 489 2255 
Q 684 2713 1069 3078 
Q 1331 3328 1684 3456 
Q 2038 3584 2456 3584 
Q 2700 3584 2940 3529 
Q 3181 3475 3431 3366 
z
" transform="scale(0.015625)"/>
      <path id="DejaVuSans-Oblique-6f" d="M 1625 -91 
Q 1009 -91 651 289 
Q 294 669 294 1325 
Q 294 1706 417 2101 
Q 541 2497 738 2766 
Q 1047 3184 1428 3384 
Q 1809 3584 2291 3584 
Q 2888 3584 3255 3212 
Q 3622 2841 3622 2241 
Q 3622 1825 3500 1412 
Q 3378 1000 3181 728 
Q 2875 309 2494 109 
Q 2113 -91 1625 -91 
z
M 891 1344 
Q 891 869 1089 633 
Q 1288 397 1691 397 
Q 2269 397 2648 901 
Q 3028 1406 3028 2181 
Q 3028 2634 2825 2865 
Q 2622 3097 2228 3097 
Q 1903 3097 1650 2945 
Q 1397 2794 1197 2484 
Q 1050 2253 970 1956 
Q 891 1659 891 1344 
z
" transform="scale(0.015625)"/>
      <path id="DejaVuSans-Oblique-6d" d="M 5747 2113 
L 5338 0 
L 4763 0 
L 5166 2094 
Q 5191 2228 5203 2325 
Q 5216 2422 5216 2491 
Q 5216 2772 5059 2928 
Q 4903 3084 4622 3084 
Q 4203 3084 3875 2770 
Q 3547 2456 3450 1953 
L 3066 0 
L 2491 0 
L 2900 2094 
Q 2925 2209 2937 2307 
Q 2950 2406 2950 2484 
Q 2950 2769 2794 2926 
Q 2638 3084 2363 3084 
Q 1938 3084 1609 2770 
Q 1281 2456 1184 1953 
L 800 0 
L 225 0 
L 909 3500 
L 1484 3500 
L 1375 2956 
Q 1609 3263 1923 3423 
Q 2238 3584 2597 3584 
Q 2978 3584 3223 3384 
Q 3469 3184 3519 2828 
Q 3781 3197 4126 3390 
Q 4472 3584 4856 3584 
Q 5306 3584 5551 3325 
Q 5797 3066 5797 2591 
Q 5797 2488 5784 2364 
Q 5772 2241 5747 2113 
z
" transform="scale(0.015625)"/>
      <path id="DejaVuSans-Oblique-70" d="M 3175 2156 
Q 3175 2616 2975 2859 
Q 2775 3103 2400 3103 
Q 2144 3103 1911 2972 
Q 1678 2841 1497 2591 
Q 1319 2344 1212 1994 
Q 1106 1644 1106 1300 
Q 1106 863 1306 627 
Q 1506 391 1875 391 
Q 2147 391 2380 519 
Q 2613 647 2778 891 
Q 2956 1147 3065 1494 
Q 3175 1841 3175 2156 
z
M 1394 2969 
Q 1625 3272 1939 3428 
Q 2253 3584 2638 3584 
Q 3175 3584 3472 3232 
Q 3769 2881 3769 2247 
Q 3769 1728 3584 1258 
Q 3400 788 3053 416 
Q 2822 169 2531 39 
Q 2241 -91 1919 -91 
Q 1547 -91 1294 64 
Q 1041 219 916 525 
L 556 -1331 
L -19 -1331 
L 922 3500 
L 1497 3500 
L 1394 2969 
z
" transform="scale(0.015625)"/>
      <path id="DejaVuSans-Oblique-6c" d="M 1172 4863 
L 1747 4863 
L 800 0 
L 225 0 
L 1172 4863 
z
" transform="scale(0.015625)"/>
      <path id="DejaVuSans-Oblique-65" d="M 3078 2063 
Q 3088 2113 3092 2166 
Q 3097 2219 3097 2272 
Q 3097 2653 2873 2875 
Q 2650 3097 2266 3097 
Q 1838 3097 1509 2826 
Q 1181 2556 1013 2059 
L 3078 2063 
z
M 3578 1613 
L 903 1613 
Q 884 1494 878 1425 
Q 872 1356 872 1306 
Q 872 872 1139 634 
Q 1406 397 1894 397 
Q 2269 397 2603 481 
Q 2938 566 3225 728 
L 3116 159 
Q 2806 34 2476 -28 
Q 2147 -91 1806 -91 
Q 1078 -91 686 257 
Q 294 606 294 1247 
Q 294 1794 489 2264 
Q 684 2734 1063 3103 
Q 1306 3334 1642 3459 
Q 1978 3584 2356 3584 
Q 2950 3584 3301 3228 
Q 3653 2872 3653 2272 
Q 3653 2128 3634 1964 
Q 3616 1800 3578 1613 
z
" transform="scale(0.015625)"/>
      <path id="DejaVuSans-Oblique-6e" d="M 3566 2113 
L 3156 0 
L 2578 0 
L 2988 2091 
Q 3016 2238 3031 2350 
Q 3047 2463 3047 2528 
Q 3047 2791 2881 2937 
Q 2716 3084 2419 3084 
Q 1956 3084 1622 2776 
Q 1288 2469 1184 1941 
L 800 0 
L 225 0 
L 903 3500 
L 1478 3500 
L 1363 2950 
Q 1603 3253 1940 3418 
Q 2278 3584 2650 3584 
Q 3113 3584 3367 3334 
Q 3622 3084 3622 2631 
Q 3622 2519 3608 2391 
Q 3594 2263 3566 2113 
z
" transform="scale(0.015625)"/>
      <path id="DejaVuSans-Oblique-74" d="M 2706 3500 
L 2619 3053 
L 1472 3053 
L 1100 1153 
Q 1081 1047 1072 975 
Q 1063 903 1063 863 
Q 1063 663 1183 572 
Q 1303 481 1569 481 
L 2150 481 
L 2053 0 
L 1503 0 
Q 991 0 739 200 
Q 488 400 488 806 
Q 488 878 497 964 
Q 506 1050 525 1153 
L 897 3053 
L 409 3053 
L 500 3500 
L 978 3500 
L 1172 4494 
L 1747 4494 
L 1556 3500 
L 2706 3500 
z
" transform="scale(0.015625)"/>
      <path id="DejaVuSans-Oblique-3a" d="M 978 3309 
L 1638 3309 
L 1484 2516 
L 825 2516 
L 978 3309 
z
M 488 794 
L 1147 794 
L 991 0 
L 331 0 
L 488 794 
z
" transform="scale(0.015625)"/>
      <path id="DejaVuSans-Oblique-56" d="M 1319 0 
L 500 4666 
L 1119 4666 
L 1797 653 
L 4063 4666 
L 4750 4666 
L 2053 0 
L 1319 0 
z
" transform="scale(0.015625)"/>
      <path id="DejaVuSans-Oblique-2295" d="M 3306 3522 
Q 3016 3644 2681 3644 
Q 2347 3644 2056 3522 
Q 1769 3400 1531 3163 
Q 1291 2922 1172 2634 
Q 1053 2347 1053 2006 
Q 1053 1675 1172 1387 
Q 1291 1100 1531 859 
Q 1769 622 2056 500 
Q 2347 378 2681 378 
Q 3016 378 3306 500 
Q 3594 622 3831 859 
Q 4072 1100 4190 1387 
Q 4309 1675 4309 2006 
Q 4309 2347 4190 2634 
Q 4072 2922 3831 3163 
Q 3594 3400 3306 3522 
z
M 1878 3956 
Q 2250 4113 2681 4113 
Q 3113 4113 3484 3956 
Q 3856 3800 4163 3494 
Q 4472 3184 4625 2813 
Q 4778 2444 4778 2006 
Q 4778 1578 4625 1206 
Q 4472 838 4163 528 
Q 3856 222 3484 65 
Q 3113 -91 2681 -91 
Q 2250 -91 1878 65 
Q 1506 222 1200 528 
Q 891 838 738 1206 
Q 584 1578 584 2006 
Q 584 2444 738 2813 
Q 891 3184 1200 3494 
Q 1506 3800 1878 3956 
z
M 2947 3388 
L 2947 2272 
L 4059 2272 
L 4059 1741 
L 2947 1741 
L 2947 625 
L 2416 625 
L 2416 1741 
L 1303 1741 
L 1303 2272 
L 2416 2272 
L 2416 3388 
L 2947 3388 
z
" transform="scale(0.015625)"/>
      <path id="DejaVuSans-Oblique-73" d="M 3200 3397 
L 3091 2853 
Q 2863 2978 2609 3040 
Q 2356 3103 2088 3103 
Q 1634 3103 1373 2948 
Q 1113 2794 1113 2528 
Q 1113 2219 1719 2053 
Q 1766 2041 1788 2034 
L 1972 1978 
Q 2547 1819 2739 1644 
Q 2931 1469 2931 1166 
Q 2931 609 2489 259 
Q 2047 -91 1331 -91 
Q 1053 -91 747 -37 
Q 441 16 72 128 
L 184 722 
Q 500 559 806 475 
Q 1113 391 1394 391 
Q 1816 391 2080 572 
Q 2344 753 2344 1031 
Q 2344 1331 1650 1516 
L 1591 1531 
L 1394 1581 
Q 956 1697 753 1886 
Q 550 2075 550 2369 
Q 550 2928 970 3256 
Q 1391 3584 2113 3584 
Q 2397 3584 2667 3537 
Q 2938 3491 3200 3397 
z
" transform="scale(0.015625)"/>
      <path id="DejaVuSans-Oblique-69" d="M 1172 4863 
L 1747 4863 
L 1606 4134 
L 1031 4134 
L 1172 4863 
z
M 909 3500 
L 1484 3500 
L 800 0 
L 225 0 
L 909 3500 
z
" transform="scale(0.015625)"/>
      <path id="DejaVuSans-Oblique-72" d="M 2853 2969 
Q 2766 3016 2653 3041 
Q 2541 3066 2413 3066 
Q 1953 3066 1609 2717 
Q 1266 2369 1153 1784 
L 800 0 
L 225 0 
L 909 3500 
L 1484 3500 
L 1375 2956 
Q 1603 3259 1920 3421 
Q 2238 3584 2597 3584 
Q 2691 3584 2781 3573 
Q 2872 3563 2963 3538 
L 2853 2969 
z
" transform="scale(0.015625)"/>
      <path id="DejaVuSans-Oblique-79" d="M 1588 -325 
Q 1188 -997 936 -1164 
Q 684 -1331 294 -1331 
L -159 -1331 
L -63 -850 
L 269 -850 
Q 509 -850 678 -719 
Q 847 -588 1056 -206 
L 1234 128 
L 459 3500 
L 1069 3500 
L 1650 819 
L 3256 3500 
L 3859 3500 
L 1588 -325 
z
" transform="scale(0.015625)"/>
      <path id="DejaVuSans-Oblique-71" d="M 2669 525 
Q 2438 222 2123 65 
Q 1809 -91 1428 -91 
Q 897 -91 595 267 
Q 294 625 294 1253 
Q 294 1759 480 2231 
Q 666 2703 1013 3078 
Q 1238 3322 1530 3453 
Q 1822 3584 2144 3584 
Q 2531 3584 2781 3431 
Q 3031 3278 3144 2969 
L 3244 3494 
L 3822 3494 
L 2888 -1319 
L 2309 -1319 
L 2669 525 
z
M 891 1338 
Q 891 875 1084 633 
Q 1278 391 1644 391 
Q 2188 391 2572 911 
Q 2956 1431 2956 2175 
Q 2956 2625 2757 2864 
Q 2559 3103 2188 3103 
Q 1916 3103 1684 2976 
Q 1453 2850 1281 2606 
Q 1100 2350 995 2006 
Q 891 1663 891 1338 
z
" transform="scale(0.015625)"/>
      <path id="DejaVuSans-Oblique-61" d="M 3438 1997 
L 3047 0 
L 2472 0 
L 2578 531 
Q 2325 219 2001 64 
Q 1678 -91 1281 -91 
Q 834 -91 548 182 
Q 263 456 263 884 
Q 263 1497 752 1853 
Q 1241 2209 2100 2209 
L 2900 2209 
L 2931 2363 
Q 2938 2388 2941 2417 
Q 2944 2447 2944 2509 
Q 2944 2788 2717 2942 
Q 2491 3097 2081 3097 
Q 1800 3097 1504 3025 
Q 1209 2953 897 2809 
L 997 3341 
Q 1322 3463 1633 3523 
Q 1944 3584 2234 3584 
Q 2853 3584 3176 3315 
Q 3500 3047 3500 2534 
Q 3500 2431 3484 2292 
Q 3469 2153 3438 1997 
z
M 2816 1759 
L 2241 1759 
Q 1534 1759 1195 1570 
Q 856 1381 856 984 
Q 856 709 1029 553 
Q 1203 397 1509 397 
Q 1978 397 2328 733 
Q 2678 1069 2791 1631 
L 2816 1759 
z
" transform="scale(0.015625)"/>
     </defs>
     <use xlink:href="#DejaVuSans-Oblique-63"/>
     <use xlink:href="#DejaVuSans-Oblique-6f" transform="translate(54.980469 0)"/>
     <use xlink:href="#DejaVuSans-Oblique-6d" transform="translate(116.162109 0)"/>
     <use xlink:href="#DejaVuSans-Oblique-70" transform="translate(213.574219 0)"/>
     <use xlink:href="#DejaVuSans-Oblique-6c" transform="translate(277.050781 0)"/>
     <use xlink:href="#DejaVuSans-Oblique-65" transform="translate(304.833984 0)"/>
     <use xlink:href="#DejaVuSans-Oblique-6d" transform="translate(366.357422 0)"/>
     <use xlink:href="#DejaVuSans-Oblique-65" transform="translate(463.769531 0)"/>
     <use xlink:href="#DejaVuSans-Oblique-6e" transform="translate(525.292969 0)"/>
     <use xlink:href="#DejaVuSans-Oblique-74" transform="translate(588.671875 0)"/>
     <use xlink:href="#DejaVuSans-Oblique-3a" transform="translate(627.880859 0)"/>
     <use xlink:href="#DejaVuSans-Oblique-20" transform="translate(661.572266 0)"/>
     <use xlink:href="#DejaVuSans-Oblique-20" transform="translate(693.359375 0)"/>
     <use xlink:href="#DejaVuSans-Oblique-56" transform="translate(725.146484 0)"/>
     <use xlink:href="#DejaVuSans-Oblique-20" transform="translate(793.554688 0)"/>
     <use xlink:href="#DejaVuSans-Oblique-3d" transform="translate(825.341797 0)"/>
     <use xlink:href="#DejaVuSans-Oblique-20" transform="translate(909.130859 0)"/>
     <use xlink:href="#DejaVuSans-Oblique-55" transform="translate(940.917969 0)"/>
     <use xlink:href="#DejaVuSans-Oblique-20" transform="translate(1014.111328 0)"/>
     <use xlink:href="#DejaVuSans-Oblique-2295" transform="translate(1045.898438 0)"/>
     <use xlink:href="#DejaVuSans-Oblique-20" transform="translate(1129.6875 0)"/>
     <use xlink:href="#DejaVuSans-Oblique-57" transform="translate(1161.474609 0)"/>
     <use xlink:href="#DejaVuSans-Oblique-20" transform="translate(1260.351562 0)"/>
     <use xlink:href="#DejaVuSans-Oblique-20" transform="translate(1292.138672 0)"/>
     <use xlink:href="#DejaVuSans-Oblique-73" transform="translate(1323.925781 0)"/>
     <use xlink:href="#DejaVuSans-Oblique-70" transform="translate(1376.025391 0)"/>
     <use xlink:href="#DejaVuSans-Oblique-6c" transform="translate(1439.501953 0)"/>
     <use xlink:href="#DejaVuSans-Oblique-69" transform="translate(1467.285156 0)"/>
     <use xlink:href="#DejaVuSans-Oblique-74" transform="translate(1495.068359 0)"/>
     <use xlink:href="#DejaVuSans-Oblique-73" transform="translate(1534.277344 0)"/>
     <use xlink:href="#DejaVuSans-Oblique-20" transform="translate(1586.376953 0)"/>
     <use xlink:href="#DejaVuSans-Oblique-65" transform="translate(1618.164062 0)"/>
     <use xlink:href="#DejaVuSans-Oblique-76" transform="translate(1679.6875 0)"/>
     <use xlink:href="#DejaVuSans-Oblique-65" transform="translate(1738.867188 0)"/>
     <use xlink:href="#DejaVuSans-Oblique-72" transform="translate(1800.390625 0)"/>
     <use xlink:href="#DejaVuSans-Oblique-79" transform="translate(1841.503906 0)"/>
     <use xlink:href="#DejaVuSans-Oblique-20" transform="translate(1900.683594 0)"/>
     <use xlink:href="#DejaVuSans-Oblique-76" transform="translate(1932.470703 0)"/>
     <use xlink:href="#DejaVuSans-Oblique-20" transform="translate(1991.650391 0)"/>
     <use xlink:href="#DejaVuSans-Oblique-75" transform="translate(2023.4375 0)"/>
     <use xlink:href="#DejaVuSans-Oblique-6e" transform="translate(2086.816406 0)"/>
     <use xlink:href="#DejaVuSans-Oblique-69" transform="translate(2150.195312 0)"/>
     <use xlink:href="#DejaVuSans-Oblique-71" transform="translate(2177.978516 0)"/>
     <use xlink:href="#DejaVuSans-Oblique-75" transform="translate(2241.455078 0)"/>
     <use xlink:href="#DejaVuSans-Oblique-65" transform="translate(2304.833984 0)"/>
     <use xlink:href="#DejaVuSans-Oblique-6c" transform="translate(2366.357422 0)"/>
     <use xlink:href="#DejaVuSans-Oblique-79" transform="translate(2394.140625 0)"/>
     <use xlink:href="#DejaVuSans-Oblique-20" transform="translate(2453.320312 0)"/>
     <use xlink:href="#DejaVuSans-Oblique-61" transform="translate(2485.107422 0)"/>
     <use xlink:href="#DejaVuSans-Oblique-73" transform="translate(2546.386719 0)"/>
     <use xlink:href="#DejaVuSans-Oblique-20" transform="translate(2598.486328 0)"/>
     <use xlink:href="#DejaVuSans-Oblique-76" transform="translate(2630.273438 0)"/>
     <use xlink:href="#DejaVuSans-Oblique-20" transform="translate(2689.453125 0)"/>
     <use xlink:href="#DejaVuSans-Oblique-3d" transform="translate(2721.240234 0)"/>
     <use xlink:href="#DejaVuSans-Oblique-20" transform="translate(2805.029297 0)"/>
     <use xlink:href="#DejaVuSans-Oblique-75" transform="translate(2836.816406 0)"/>
     <use xlink:href="#DejaVuSans-Oblique-20" transform="translate(2900.195312 0)"/>
     <use xlink:href="#DejaVuSans-Oblique-2b" transform="translate(2931.982422 0)"/>
     <use xlink:href="#DejaVuSans-Oblique-20" transform="translate(3015.771484 0)"/>
     <use xlink:href="#DejaVuSans-Oblique-77" transform="translate(3047.558594 0)"/>
    </g>
   </g>
  </g>
 </g>
 <defs>
  <clipPath id="p05f3eeca45">
   <rect x="9.629813" y="22.318125" width="370.656" height="288.288"/>
  </clipPath>
 </defs>
</svg>
