<?xml version="1.0" encoding="utf-8" standalone="no"?>
<!DOCTYPE svg PUBLIC "-//W3C//DTD SVG 1.1//EN"
  "http://www.w3.org/Graphics/SVG/1.1/DTD/svg11.dtd">
<svg xmlns:xlink="http://www.w3.org/1999/xlink" width="457.959456pt" height="287.712pt" viewBox="0 0 457.959456 287.712" xmlns="http://www.w3.org/2000/svg" version="1.1">
 <metadata>
  <rdf:RDF xmlns:dc="http://purl.org/dc/elements/1.1/" xmlns:cc="http://creativecommons.org/ns#" xmlns:rdf="http://www.w3.org/1999/02/22-rdf-syntax-ns#">
   <cc:Work>
    <dc:type rdf:resource="http://purl.org/dc/dcmitype/StillImage"/>
    <dc:date>2026-05-17T11:01:56.430051</dc:date>
    <dc:format>image/svg+xml</dc:format>
    <dc:creator>
     <cc:Agent>
      <dc:title>Matplotlib v3.10.8, https://matplotlib.org/</dc:title>
     </cc:Agent>
    </dc:creator>
   </cc:Work>
  </rdf:RDF>
 </metadata>
 <defs>
  <style type="text/css">*{stroke-linejoin: round; stroke-linecap: butt}</style>
 </defs>
 <g id="figure_1">
  <g id="patch_1">
   <path d="M 0 287.712 
L 457.959456 287.712 
L 457.959456 0 
L 0 0 
z
" style="fill: #ffffff"/>
  </g>
  <g id="axes_1">
   <g id="patch_2">
    <path d="M 10.8 276.912 
L 445.971388 276.912 
L 445.971388 10.8 
L 10.8 10.8 
z
" style="fill: #ffffff"/>
   </g>
   <g id="patch_3">
    <path d="M 32.715106 139.159906 
L 59.326306 139.159906 
L 59.326306 112.548706 
L 32.715106 112.548706 
z
" clip-path="url(#p63a165e696)" style="fill: #e0e0e0; opacity: 0.5; stroke: #999999; stroke-width: 0.7; stroke-linejoin: miter"/>
   </g>
   <g id="patch_4">
    <path d="M 59.326306 139.159906 
L 85.937506 139.159906 
L 85.937506 112.548706 
L 59.326306 112.548706 
z
" clip-path="url(#p63a165e696)" style="fill: #e0e0e0; opacity: 0.5; stroke: #999999; stroke-width: 0.7; stroke-linejoin: miter"/>
   </g>
   <g id="patch_5">
    <path d="M 85.937506 139.159906 
L 112.548706 139.159906 
L 112.548706 112.548706 
L 85.937506 112.548706 
z
" clip-path="url(#p63a165e696)" style="fill: #e0e0e0; opacity: 0.5; stroke: #999999; stroke-width: 0.7; stroke-linejoin: miter"/>
   </g>
   <g id="patch_6">
    <path d="M 32.715106 165.771106 
L 59.326306 165.771106 
L 59.326306 139.159906 
L 32.715106 139.159906 
z
" clip-path="url(#p63a165e696)" style="fill: #e0e0e0; opacity: 0.5; stroke: #999999; stroke-width: 0.7; stroke-linejoin: miter"/>
   </g>
   <g id="patch_7">
    <path d="M 59.326306 165.771106 
L 85.937506 165.771106 
L 85.937506 139.159906 
L 59.326306 139.159906 
z
" clip-path="url(#p63a165e696)" style="fill: #e0e0e0; opacity: 0.5; stroke: #999999; stroke-width: 0.7; stroke-linejoin: miter"/>
   </g>
   <g id="patch_8">
    <path d="M 85.937506 165.771106 
L 112.548706 165.771106 
L 112.548706 139.159906 
L 85.937506 139.159906 
z
" clip-path="url(#p63a165e696)" style="fill: #e0e0e0; opacity: 0.5; stroke: #999999; stroke-width: 0.7; stroke-linejoin: miter"/>
   </g>
   <g id="patch_9">
    <path d="M 32.715106 192.382306 
L 59.326306 192.382306 
L 59.326306 165.771106 
L 32.715106 165.771106 
z
" clip-path="url(#p63a165e696)" style="fill: #e0e0e0; opacity: 0.5; stroke: #999999; stroke-width: 0.7; stroke-linejoin: miter"/>
   </g>
   <g id="patch_10">
    <path d="M 59.326306 192.382306 
L 85.937506 192.382306 
L 85.937506 165.771106 
L 59.326306 165.771106 
z
" clip-path="url(#p63a165e696)" style="fill: #e0e0e0; opacity: 0.5; stroke: #999999; stroke-width: 0.7; stroke-linejoin: miter"/>
   </g>
   <g id="patch_11">
    <path d="M 85.937506 192.382306 
L 112.548706 192.382306 
L 112.548706 165.771106 
L 85.937506 165.771106 
z
" clip-path="url(#p63a165e696)" style="fill: #e0e0e0; opacity: 0.5; stroke: #999999; stroke-width: 0.7; stroke-linejoin: miter"/>
   </g>
   <g id="patch_12">
    <path d="M 189.251576 139.159906 
L 215.862776 139.159906 
L 215.862776 112.548706 
L 189.251576 112.548706 
z
" clip-path="url(#p63a165e696)" style="fill: #cfd8eb; opacity: 0.5; stroke: #2a4d8f; stroke-width: 0.7; stroke-linejoin: miter"/>
   </g>
   <g id="patch_13">
    <path d="M 215.862776 139.159906 
L 242.473976 139.159906 
L 242.473976 112.548706 
L 215.862776 112.548706 
z
" clip-path="url(#p63a165e696)" style="fill: #cfd8eb; opacity: 0.5; stroke: #2a4d8f; stroke-width: 0.7; stroke-linejoin: miter"/>
   </g>
   <g id="patch_14">
    <path d="M 242.473976 139.159906 
L 269.085176 139.159906 
L 269.085176 112.548706 
L 242.473976 112.548706 
z
" clip-path="url(#p63a165e696)" style="fill: #cfd8eb; opacity: 0.5; stroke: #2a4d8f; stroke-width: 0.7; stroke-linejoin: miter"/>
   </g>
   <g id="patch_15">
    <path d="M 189.251576 165.771106 
L 215.862776 165.771106 
L 215.862776 139.159906 
L 189.251576 139.159906 
z
" clip-path="url(#p63a165e696)" style="fill: #cfd8eb; opacity: 0.5; stroke: #2a4d8f; stroke-width: 0.7; stroke-linejoin: miter"/>
   </g>
   <g id="patch_16">
    <path d="M 215.862776 165.771106 
L 242.473976 165.771106 
L 242.473976 139.159906 
L 215.862776 139.159906 
z
" clip-path="url(#p63a165e696)" style="fill: #cfd8eb; opacity: 0.5; stroke: #2a4d8f; stroke-width: 0.7; stroke-linejoin: miter"/>
   </g>
   <g id="patch_17">
    <path d="M 242.473976 165.771106 
L 269.085176 165.771106 
L 269.085176 139.159906 
L 242.473976 139.159906 
z
" clip-path="url(#p63a165e696)" style="fill: #cfd8eb; opacity: 0.5; stroke: #2a4d8f; stroke-width: 0.7; stroke-linejoin: miter"/>
   </g>
   <g id="patch_18">
    <path d="M 189.251576 192.382306 
L 215.862776 192.382306 
L 215.862776 165.771106 
L 189.251576 165.771106 
z
" clip-path="url(#p63a165e696)" style="fill: #cfd8eb; opacity: 0.5; stroke: #2a4d8f; stroke-width: 0.7; stroke-linejoin: miter"/>
   </g>
   <g id="patch_19">
    <path d="M 215.862776 192.382306 
L 242.473976 192.382306 
L 242.473976 165.771106 
L 215.862776 165.771106 
z
" clip-path="url(#p63a165e696)" style="fill: #cfd8eb; opacity: 0.5; stroke: #2a4d8f; stroke-width: 0.7; stroke-linejoin: miter"/>
   </g>
   <g id="patch_20">
    <path d="M 242.473976 192.382306 
L 269.085176 192.382306 
L 269.085176 165.771106 
L 242.473976 165.771106 
z
" clip-path="url(#p63a165e696)" style="fill: #cfd8eb; opacity: 0.5; stroke: #2a4d8f; stroke-width: 0.7; stroke-linejoin: miter"/>
   </g>
   <g id="patch_21">
    <path d="M 345.788047 139.159906 
L 372.399247 139.159906 
L 372.399247 112.548706 
L 345.788047 112.548706 
z
" clip-path="url(#p63a165e696)" style="fill: #e6b89c; opacity: 0.5; stroke: #8f4a2a; stroke-width: 0.7; stroke-linejoin: miter"/>
   </g>
   <g id="patch_22">
    <path d="M 372.399247 139.159906 
L 399.010447 139.159906 
L 399.010447 112.548706 
L 372.399247 112.548706 
z
" clip-path="url(#p63a165e696)" style="fill: #e6b89c; opacity: 0.5; stroke: #8f4a2a; stroke-width: 0.7; stroke-linejoin: miter"/>
   </g>
   <g id="patch_23">
    <path d="M 399.010447 139.159906 
L 425.621647 139.159906 
L 425.621647 112.548706 
L 399.010447 112.548706 
z
" clip-path="url(#p63a165e696)" style="fill: #e6b89c; opacity: 0.5; stroke: #8f4a2a; stroke-width: 0.7; stroke-linejoin: miter"/>
   </g>
   <g id="patch_24">
    <path d="M 345.788047 165.771106 
L 372.399247 165.771106 
L 372.399247 139.159906 
L 345.788047 139.159906 
z
" clip-path="url(#p63a165e696)" style="fill: #e6b89c; opacity: 0.5; stroke: #8f4a2a; stroke-width: 0.7; stroke-linejoin: miter"/>
   </g>
   <g id="patch_25">
    <path d="M 372.399247 165.771106 
L 399.010447 165.771106 
L 399.010447 139.159906 
L 372.399247 139.159906 
z
" clip-path="url(#p63a165e696)" style="fill: #e6b89c; opacity: 0.5; stroke: #8f4a2a; stroke-width: 0.7; stroke-linejoin: miter"/>
   </g>
   <g id="patch_26">
    <path d="M 399.010447 165.771106 
L 425.621647 165.771106 
L 425.621647 139.159906 
L 399.010447 139.159906 
z
" clip-path="url(#p63a165e696)" style="fill: #e6b89c; opacity: 0.5; stroke: #8f4a2a; stroke-width: 0.7; stroke-linejoin: miter"/>
   </g>
   <g id="patch_27">
    <path d="M 345.788047 192.382306 
L 372.399247 192.382306 
L 372.399247 165.771106 
L 345.788047 165.771106 
z
" clip-path="url(#p63a165e696)" style="fill: #e6b89c; opacity: 0.5; stroke: #8f4a2a; stroke-width: 0.7; stroke-linejoin: miter"/>
   </g>
   <g id="patch_28">
    <path d="M 372.399247 192.382306 
L 399.010447 192.382306 
L 399.010447 165.771106 
L 372.399247 165.771106 
z
" clip-path="url(#p63a165e696)" style="fill: #e6b89c; opacity: 0.5; stroke: #8f4a2a; stroke-width: 0.7; stroke-linejoin: miter"/>
   </g>
   <g id="patch_29">
    <path d="M 399.010447 192.382306 
L 425.621647 192.382306 
L 425.621647 165.771106 
L 399.010447 165.771106 
z
" clip-path="url(#p63a165e696)" style="fill: #e6b89c; opacity: 0.5; stroke: #8f4a2a; stroke-width: 0.7; stroke-linejoin: miter"/>
   </g>
   <g id="matplotlib.axis_1"/>
   <g id="matplotlib.axis_2"/>
   <g id="line2d_1">
    <path d="M 34.280471 109.417976 
L 28.019012 109.417976 
L 28.019012 195.513035 
L 34.280471 195.513035 
" clip-path="url(#p63a165e696)" style="fill: none; stroke: #444444; stroke-width: 1.6; stroke-linecap: square"/>
   </g>
   <g id="line2d_2">
    <path d="M 110.983341 109.417976 
L 117.2448 109.417976 
L 117.2448 195.513035 
L 110.983341 195.513035 
" clip-path="url(#p63a165e696)" style="fill: none; stroke: #444444; stroke-width: 1.6; stroke-linecap: square"/>
   </g>
   <g id="line2d_3">
    <path d="M 190.816941 109.417976 
L 184.555482 109.417976 
L 184.555482 195.513035 
L 190.816941 195.513035 
" clip-path="url(#p63a165e696)" style="fill: none; stroke: #444444; stroke-width: 1.6; stroke-linecap: square"/>
   </g>
   <g id="line2d_4">
    <path d="M 267.519812 109.417976 
L 273.781271 109.417976 
L 273.781271 195.513035 
L 267.519812 195.513035 
" clip-path="url(#p63a165e696)" style="fill: none; stroke: #444444; stroke-width: 1.6; stroke-linecap: square"/>
   </g>
   <g id="line2d_5">
    <path d="M 347.353412 109.417976 
L 341.091953 109.417976 
L 341.091953 195.513035 
L 347.353412 195.513035 
" clip-path="url(#p63a165e696)" style="fill: none; stroke: #444444; stroke-width: 1.6; stroke-linecap: square"/>
   </g>
   <g id="line2d_6">
    <path d="M 424.056282 109.417976 
L 430.317741 109.417976 
L 430.317741 195.513035 
L 424.056282 195.513035 
" clip-path="url(#p63a165e696)" style="fill: none; stroke: #444444; stroke-width: 1.6; stroke-linecap: square"/>
   </g>
   <g id="text_1">
    <!-- Mat₃(K) = Sym₃(K) ⊕ Skew₃(K) :  every matrix splits uniquely -->
    <g style="fill: #222222" transform="translate(44.264704 36.026356) scale(0.12 -0.12)">
     <defs>
      <path id="DejaVuSans-Oblique-4d" d="M 1081 4666 
L 2028 4666 
L 2572 1522 
L 4378 4666 
L 5350 4666 
L 4441 0 
L 3828 0 
L 4622 4091 
L 2791 897 
L 2175 897 
L 1581 4103 
L 788 0 
L 172 0 
L 1081 4666 
z
" transform="scale(0.015625)"/>
      <path id="DejaVuSans-Oblique-61" d="M 3438 1997 
L 3047 0 
L 2472 0 
L 2578 531 
Q 2325 219 2001 64 
Q 1678 -91 1281 -91 
Q 834 -91 548 182 
Q 263 456 263 884 
Q 263 1497 752 1853 
Q 1241 2209 2100 2209 
L 2900 2209 
L 2931 2363 
Q 2938 2388 2941 2417 
Q 2944 2447 2944 2509 
Q 2944 2788 2717 2942 
Q 2491 3097 2081 3097 
Q 1800 3097 1504 3025 
Q 1209 2953 897 2809 
L 997 3341 
Q 1322 3463 1633 3523 
Q 1944 3584 2234 3584 
Q 2853 3584 3176 3315 
Q 3500 3047 3500 2534 
Q 3500 2431 3484 2292 
Q 3469 2153 3438 1997 
z
M 2816 1759 
L 2241 1759 
Q 1534 1759 1195 1570 
Q 856 1381 856 984 
Q 856 709 1029 553 
Q 1203 397 1509 397 
Q 1978 397 2328 733 
Q 2678 1069 2791 1631 
L 2816 1759 
z
" transform="scale(0.015625)"/>
      <path id="DejaVuSans-Oblique-74" d="M 2706 3500 
L 2619 3053 
L 1472 3053 
L 1100 1153 
Q 1081 1047 1072 975 
Q 1063 903 1063 863 
Q 1063 663 1183 572 
Q 1303 481 1569 481 
L 2150 481 
L 2053 0 
L 1503 0 
Q 991 0 739 200 
Q 488 400 488 806 
Q 488 878 497 964 
Q 506 1050 525 1153 
L 897 3053 
L 409 3053 
L 500 3500 
L 978 3500 
L 1172 4494 
L 1747 4494 
L 1556 3500 
L 2706 3500 
z
" transform="scale(0.015625)"/>
      <path id="DejaVuSans-Oblique-2083" d="M 672 2529 
Q 931 2585 1128 2611 
Q 1325 2638 1497 2638 
Q 1888 2638 2122 2474 
Q 2356 2310 2356 2041 
Q 2356 1801 2178 1622 
Q 2000 1444 1697 1388 
Q 1931 1338 2056 1191 
Q 2181 1044 2181 819 
Q 2181 422 1832 175 
Q 1484 -71 909 -71 
Q 709 -71 506 -38 
Q 303 -6 103 57 
L 178 435 
Q 344 351 519 310 
Q 694 269 891 269 
Q 1275 269 1492 413 
Q 1709 557 1709 813 
Q 1709 1007 1557 1105 
Q 1406 1204 1100 1204 
L 831 1204 
L 903 1541 
L 1191 1541 
Q 1509 1541 1689 1653 
Q 1869 1766 1869 1966 
Q 1869 2132 1741 2214 
Q 1613 2297 1356 2297 
Q 1181 2297 987 2264 
Q 794 2232 603 2169 
L 672 2529 
z
" transform="scale(0.015625)"/>
      <path id="DejaVuSans-Oblique-28" d="M 2731 4856 
Q 1903 3822 1495 2892 
Q 1088 1963 1088 1100 
Q 1088 606 1206 120 
Q 1325 -366 1563 -844 
L 1063 -844 
Q 775 -306 634 201 
Q 494 709 494 1197 
Q 494 2125 923 3036 
Q 1353 3947 2222 4856 
L 2731 4856 
z
" transform="scale(0.015625)"/>
      <path id="DejaVuSans-Oblique-4b" d="M 1081 4666 
L 1716 4666 
L 1331 2700 
L 3781 4666 
L 4622 4666 
L 1850 2438 
L 3878 0 
L 3109 0 
L 1247 2272 
L 806 0 
L 172 0 
L 1081 4666 
z
" transform="scale(0.015625)"/>
      <path id="DejaVuSans-Oblique-29" d="M -397 -844 
Q 434 191 840 1120 
Q 1247 2050 1247 2913 
Q 1247 3406 1130 3892 
Q 1013 4378 775 4856 
L 1275 4856 
Q 1563 4316 1703 3812 
Q 1844 3309 1844 2822 
Q 1844 1891 1411 973 
Q 978 56 116 -844 
L -397 -844 
z
" transform="scale(0.015625)"/>
      <path id="DejaVuSans-Oblique-20" transform="scale(0.015625)"/>
      <path id="DejaVuSans-Oblique-3d" d="M 678 2906 
L 4684 2906 
L 4684 2381 
L 678 2381 
L 678 2906 
z
M 678 1631 
L 4684 1631 
L 4684 1100 
L 678 1100 
L 678 1631 
z
" transform="scale(0.015625)"/>
      <path id="DejaVuSans-Oblique-53" d="M 3859 4513 
L 3738 3897 
Q 3422 4066 3111 4152 
Q 2800 4238 2509 4238 
Q 1944 4238 1609 3991 
Q 1275 3744 1275 3334 
Q 1275 3109 1398 2989 
Q 1522 2869 2034 2731 
L 2413 2638 
Q 3053 2472 3303 2217 
Q 3553 1963 3553 1503 
Q 3553 797 2998 353 
Q 2444 -91 1538 -91 
Q 1166 -91 791 -17 
Q 416 56 38 206 
L 166 856 
Q 513 641 861 531 
Q 1209 422 1556 422 
Q 2147 422 2503 684 
Q 2859 947 2859 1369 
Q 2859 1650 2717 1795 
Q 2575 1941 2106 2059 
L 1728 2156 
Q 1081 2325 845 2545 
Q 609 2766 609 3163 
Q 609 3859 1145 4304 
Q 1681 4750 2541 4750 
Q 2875 4750 3203 4690 
Q 3531 4631 3859 4513 
z
" transform="scale(0.015625)"/>
      <path id="DejaVuSans-Oblique-79" d="M 1588 -325 
Q 1188 -997 936 -1164 
Q 684 -1331 294 -1331 
L -159 -1331 
L -63 -850 
L 269 -850 
Q 509 -850 678 -719 
Q 847 -588 1056 -206 
L 1234 128 
L 459 3500 
L 1069 3500 
L 1650 819 
L 3256 3500 
L 3859 3500 
L 1588 -325 
z
" transform="scale(0.015625)"/>
      <path id="DejaVuSans-Oblique-6d" d="M 5747 2113 
L 5338 0 
L 4763 0 
L 5166 2094 
Q 5191 2228 5203 2325 
Q 5216 2422 5216 2491 
Q 5216 2772 5059 2928 
Q 4903 3084 4622 3084 
Q 4203 3084 3875 2770 
Q 3547 2456 3450 1953 
L 3066 0 
L 2491 0 
L 2900 2094 
Q 2925 2209 2937 2307 
Q 2950 2406 2950 2484 
Q 2950 2769 2794 2926 
Q 2638 3084 2363 3084 
Q 1938 3084 1609 2770 
Q 1281 2456 1184 1953 
L 800 0 
L 225 0 
L 909 3500 
L 1484 3500 
L 1375 2956 
Q 1609 3263 1923 3423 
Q 2238 3584 2597 3584 
Q 2978 3584 3223 3384 
Q 3469 3184 3519 2828 
Q 3781 3197 4126 3390 
Q 4472 3584 4856 3584 
Q 5306 3584 5551 3325 
Q 5797 3066 5797 2591 
Q 5797 2488 5784 2364 
Q 5772 2241 5747 2113 
z
" transform="scale(0.015625)"/>
      <path id="DejaVuSans-Oblique-2295" d="M 3306 3522 
Q 3016 3644 2681 3644 
Q 2347 3644 2056 3522 
Q 1769 3400 1531 3163 
Q 1291 2922 1172 2634 
Q 1053 2347 1053 2006 
Q 1053 1675 1172 1387 
Q 1291 1100 1531 859 
Q 1769 622 2056 500 
Q 2347 378 2681 378 
Q 3016 378 3306 500 
Q 3594 622 3831 859 
Q 4072 1100 4190 1387 
Q 4309 1675 4309 2006 
Q 4309 2347 4190 2634 
Q 4072 2922 3831 3163 
Q 3594 3400 3306 3522 
z
M 1878 3956 
Q 2250 4113 2681 4113 
Q 3113 4113 3484 3956 
Q 3856 3800 4163 3494 
Q 4472 3184 4625 2813 
Q 4778 2444 4778 2006 
Q 4778 1578 4625 1206 
Q 4472 838 4163 528 
Q 3856 222 3484 65 
Q 3113 -91 2681 -91 
Q 2250 -91 1878 65 
Q 1506 222 1200 528 
Q 891 838 738 1206 
Q 584 1578 584 2006 
Q 584 2444 738 2813 
Q 891 3184 1200 3494 
Q 1506 3800 1878 3956 
z
M 2947 3388 
L 2947 2272 
L 4059 2272 
L 4059 1741 
L 2947 1741 
L 2947 625 
L 2416 625 
L 2416 1741 
L 1303 1741 
L 1303 2272 
L 2416 2272 
L 2416 3388 
L 2947 3388 
z
" transform="scale(0.015625)"/>
      <path id="DejaVuSans-Oblique-6b" d="M 1172 4863 
L 1747 4863 
L 1197 2028 
L 3169 3500 
L 3916 3500 
L 1716 1825 
L 3322 0 
L 2625 0 
L 1131 1709 
L 800 0 
L 225 0 
L 1172 4863 
z
" transform="scale(0.015625)"/>
      <path id="DejaVuSans-Oblique-65" d="M 3078 2063 
Q 3088 2113 3092 2166 
Q 3097 2219 3097 2272 
Q 3097 2653 2873 2875 
Q 2650 3097 2266 3097 
Q 1838 3097 1509 2826 
Q 1181 2556 1013 2059 
L 3078 2063 
z
M 3578 1613 
L 903 1613 
Q 884 1494 878 1425 
Q 872 1356 872 1306 
Q 872 872 1139 634 
Q 1406 397 1894 397 
Q 2269 397 2603 481 
Q 2938 566 3225 728 
L 3116 159 
Q 2806 34 2476 -28 
Q 2147 -91 1806 -91 
Q 1078 -91 686 257 
Q 294 606 294 1247 
Q 294 1794 489 2264 
Q 684 2734 1063 3103 
Q 1306 3334 1642 3459 
Q 1978 3584 2356 3584 
Q 2950 3584 3301 3228 
Q 3653 2872 3653 2272 
Q 3653 2128 3634 1964 
Q 3616 1800 3578 1613 
z
" transform="scale(0.015625)"/>
      <path id="DejaVuSans-Oblique-77" d="M 544 3500 
L 1113 3500 
L 1259 684 
L 2566 3500 
L 3231 3500 
L 3425 684 
L 4666 3500 
L 5241 3500 
L 3641 0 
L 2969 0 
L 2797 2900 
L 1459 0 
L 781 0 
L 544 3500 
z
" transform="scale(0.015625)"/>
      <path id="DejaVuSans-Oblique-3a" d="M 978 3309 
L 1638 3309 
L 1484 2516 
L 825 2516 
L 978 3309 
z
M 488 794 
L 1147 794 
L 991 0 
L 331 0 
L 488 794 
z
" transform="scale(0.015625)"/>
      <path id="DejaVuSans-Oblique-76" d="M 459 3500 
L 1069 3500 
L 1581 525 
L 3256 3500 
L 3866 3500 
L 1875 0 
L 1100 0 
L 459 3500 
z
" transform="scale(0.015625)"/>
      <path id="DejaVuSans-Oblique-72" d="M 2853 2969 
Q 2766 3016 2653 3041 
Q 2541 3066 2413 3066 
Q 1953 3066 1609 2717 
Q 1266 2369 1153 1784 
L 800 0 
L 225 0 
L 909 3500 
L 1484 3500 
L 1375 2956 
Q 1603 3259 1920 3421 
Q 2238 3584 2597 3584 
Q 2691 3584 2781 3573 
Q 2872 3563 2963 3538 
L 2853 2969 
z
" transform="scale(0.015625)"/>
      <path id="DejaVuSans-Oblique-69" d="M 1172 4863 
L 1747 4863 
L 1606 4134 
L 1031 4134 
L 1172 4863 
z
M 909 3500 
L 1484 3500 
L 800 0 
L 225 0 
L 909 3500 
z
" transform="scale(0.015625)"/>
      <path id="DejaVuSans-Oblique-78" d="M 3841 3500 
L 2234 1784 
L 3219 0 
L 2559 0 
L 1819 1388 
L 531 0 
L -166 0 
L 1556 1844 
L 641 3500 
L 1300 3500 
L 1972 2234 
L 3144 3500 
L 3841 3500 
z
" transform="scale(0.015625)"/>
      <path id="DejaVuSans-Oblique-73" d="M 3200 3397 
L 3091 2853 
Q 2863 2978 2609 3040 
Q 2356 3103 2088 3103 
Q 1634 3103 1373 2948 
Q 1113 2794 1113 2528 
Q 1113 2219 1719 2053 
Q 1766 2041 1788 2034 
L 1972 1978 
Q 2547 1819 2739 1644 
Q 2931 1469 2931 1166 
Q 2931 609 2489 259 
Q 2047 -91 1331 -91 
Q 1053 -91 747 -37 
Q 441 16 72 128 
L 184 722 
Q 500 559 806 475 
Q 1113 391 1394 391 
Q 1816 391 2080 572 
Q 2344 753 2344 1031 
Q 2344 1331 1650 1516 
L 1591 1531 
L 1394 1581 
Q 956 1697 753 1886 
Q 550 2075 550 2369 
Q 550 2928 970 3256 
Q 1391 3584 2113 3584 
Q 2397 3584 2667 3537 
Q 2938 3491 3200 3397 
z
" transform="scale(0.015625)"/>
      <path id="DejaVuSans-Oblique-70" d="M 3175 2156 
Q 3175 2616 2975 2859 
Q 2775 3103 2400 3103 
Q 2144 3103 1911 2972 
Q 1678 2841 1497 2591 
Q 1319 2344 1212 1994 
Q 1106 1644 1106 1300 
Q 1106 863 1306 627 
Q 1506 391 1875 391 
Q 2147 391 2380 519 
Q 2613 647 2778 891 
Q 2956 1147 3065 1494 
Q 3175 1841 3175 2156 
z
M 1394 2969 
Q 1625 3272 1939 3428 
Q 2253 3584 2638 3584 
Q 3175 3584 3472 3232 
Q 3769 2881 3769 2247 
Q 3769 1728 3584 1258 
Q 3400 788 3053 416 
Q 2822 169 2531 39 
Q 2241 -91 1919 -91 
Q 1547 -91 1294 64 
Q 1041 219 916 525 
L 556 -1331 
L -19 -1331 
L 922 3500 
L 1497 3500 
L 1394 2969 
z
" transform="scale(0.015625)"/>
      <path id="DejaVuSans-Oblique-6c" d="M 1172 4863 
L 1747 4863 
L 800 0 
L 225 0 
L 1172 4863 
z
" transform="scale(0.015625)"/>
      <path id="DejaVuSans-Oblique-75" d="M 428 1388 
L 838 3500 
L 1416 3500 
L 1006 1409 
Q 975 1256 961 1147 
Q 947 1038 947 966 
Q 947 700 1109 554 
Q 1272 409 1569 409 
Q 2031 409 2368 721 
Q 2706 1034 2809 1563 
L 3194 3500 
L 3769 3500 
L 3091 0 
L 2516 0 
L 2631 550 
Q 2388 244 2052 76 
Q 1716 -91 1338 -91 
Q 878 -91 622 161 
Q 366 413 366 863 
Q 366 956 381 1097 
Q 397 1238 428 1388 
z
" transform="scale(0.015625)"/>
      <path id="DejaVuSans-Oblique-6e" d="M 3566 2113 
L 3156 0 
L 2578 0 
L 2988 2091 
Q 3016 2238 3031 2350 
Q 3047 2463 3047 2528 
Q 3047 2791 2881 2937 
Q 2716 3084 2419 3084 
Q 1956 3084 1622 2776 
Q 1288 2469 1184 1941 
L 800 0 
L 225 0 
L 903 3500 
L 1478 3500 
L 1363 2950 
Q 1603 3253 1940 3418 
Q 2278 3584 2650 3584 
Q 3113 3584 3367 3334 
Q 3622 3084 3622 2631 
Q 3622 2519 3608 2391 
Q 3594 2263 3566 2113 
z
" transform="scale(0.015625)"/>
      <path id="DejaVuSans-Oblique-71" d="M 2669 525 
Q 2438 222 2123 65 
Q 1809 -91 1428 -91 
Q 897 -91 595 267 
Q 294 625 294 1253 
Q 294 1759 480 2231 
Q 666 2703 1013 3078 
Q 1238 3322 1530 3453 
Q 1822 3584 2144 3584 
Q 2531 3584 2781 3431 
Q 3031 3278 3144 2969 
L 3244 3494 
L 3822 3494 
L 2888 -1319 
L 2309 -1319 
L 2669 525 
z
M 891 1338 
Q 891 875 1084 633 
Q 1278 391 1644 391 
Q 2188 391 2572 911 
Q 2956 1431 2956 2175 
Q 2956 2625 2757 2864 
Q 2559 3103 2188 3103 
Q 1916 3103 1684 2976 
Q 1453 2850 1281 2606 
Q 1100 2350 995 2006 
Q 891 1663 891 1338 
z
" transform="scale(0.015625)"/>
     </defs>
     <use xlink:href="#DejaVuSans-Oblique-4d"/>
     <use xlink:href="#DejaVuSans-Oblique-61" transform="translate(86.279297 0)"/>
     <use xlink:href="#DejaVuSans-Oblique-74" transform="translate(147.558594 0)"/>
     <use xlink:href="#DejaVuSans-Oblique-2083" transform="translate(186.767578 0)"/>
     <use xlink:href="#DejaVuSans-Oblique-28" transform="translate(226.855469 0)"/>
     <use xlink:href="#DejaVuSans-Oblique-4b" transform="translate(265.869141 0)"/>
     <use xlink:href="#DejaVuSans-Oblique-29" transform="translate(331.445312 0)"/>
     <use xlink:href="#DejaVuSans-Oblique-20" transform="translate(370.458984 0)"/>
     <use xlink:href="#DejaVuSans-Oblique-3d" transform="translate(402.246094 0)"/>
     <use xlink:href="#DejaVuSans-Oblique-20" transform="translate(486.035156 0)"/>
     <use xlink:href="#DejaVuSans-Oblique-53" transform="translate(517.822266 0)"/>
     <use xlink:href="#DejaVuSans-Oblique-79" transform="translate(581.298828 0)"/>
     <use xlink:href="#DejaVuSans-Oblique-6d" transform="translate(640.478516 0)"/>
     <use xlink:href="#DejaVuSans-Oblique-2083" transform="translate(737.890625 0)"/>
     <use xlink:href="#DejaVuSans-Oblique-28" transform="translate(777.978516 0)"/>
     <use xlink:href="#DejaVuSans-Oblique-4b" transform="translate(816.992188 0)"/>
     <use xlink:href="#DejaVuSans-Oblique-29" transform="translate(882.568359 0)"/>
     <use xlink:href="#DejaVuSans-Oblique-20" transform="translate(921.582031 0)"/>
     <use xlink:href="#DejaVuSans-Oblique-2295" transform="translate(953.369141 0)"/>
     <use xlink:href="#DejaVuSans-Oblique-20" transform="translate(1037.158203 0)"/>
     <use xlink:href="#DejaVuSans-Oblique-53" transform="translate(1068.945312 0)"/>
     <use xlink:href="#DejaVuSans-Oblique-6b" transform="translate(1132.421875 0)"/>
     <use xlink:href="#DejaVuSans-Oblique-65" transform="translate(1190.332031 0)"/>
     <use xlink:href="#DejaVuSans-Oblique-77" transform="translate(1251.855469 0)"/>
     <use xlink:href="#DejaVuSans-Oblique-2083" transform="translate(1333.642578 0)"/>
     <use xlink:href="#DejaVuSans-Oblique-28" transform="translate(1373.730469 0)"/>
     <use xlink:href="#DejaVuSans-Oblique-4b" transform="translate(1412.744141 0)"/>
     <use xlink:href="#DejaVuSans-Oblique-29" transform="translate(1478.320312 0)"/>
     <use xlink:href="#DejaVuSans-Oblique-20" transform="translate(1517.333984 0)"/>
     <use xlink:href="#DejaVuSans-Oblique-3a" transform="translate(1549.121094 0)"/>
     <use xlink:href="#DejaVuSans-Oblique-20" transform="translate(1582.8125 0)"/>
     <use xlink:href="#DejaVuSans-Oblique-20" transform="translate(1614.599609 0)"/>
     <use xlink:href="#DejaVuSans-Oblique-65" transform="translate(1646.386719 0)"/>
     <use xlink:href="#DejaVuSans-Oblique-76" transform="translate(1707.910156 0)"/>
     <use xlink:href="#DejaVuSans-Oblique-65" transform="translate(1767.089844 0)"/>
     <use xlink:href="#DejaVuSans-Oblique-72" transform="translate(1828.613281 0)"/>
     <use xlink:href="#DejaVuSans-Oblique-79" transform="translate(1869.726562 0)"/>
     <use xlink:href="#DejaVuSans-Oblique-20" transform="translate(1928.90625 0)"/>
     <use xlink:href="#DejaVuSans-Oblique-6d" transform="translate(1960.693359 0)"/>
     <use xlink:href="#DejaVuSans-Oblique-61" transform="translate(2058.105469 0)"/>
     <use xlink:href="#DejaVuSans-Oblique-74" transform="translate(2119.384766 0)"/>
     <use xlink:href="#DejaVuSans-Oblique-72" transform="translate(2158.59375 0)"/>
     <use xlink:href="#DejaVuSans-Oblique-69" transform="translate(2199.707031 0)"/>
     <use xlink:href="#DejaVuSans-Oblique-78" transform="translate(2227.490234 0)"/>
     <use xlink:href="#DejaVuSans-Oblique-20" transform="translate(2286.669922 0)"/>
     <use xlink:href="#DejaVuSans-Oblique-73" transform="translate(2318.457031 0)"/>
     <use xlink:href="#DejaVuSans-Oblique-70" transform="translate(2370.556641 0)"/>
     <use xlink:href="#DejaVuSans-Oblique-6c" transform="translate(2434.033203 0)"/>
     <use xlink:href="#DejaVuSans-Oblique-69" transform="translate(2461.816406 0)"/>
     <use xlink:href="#DejaVuSans-Oblique-74" transform="translate(2489.599609 0)"/>
     <use xlink:href="#DejaVuSans-Oblique-73" transform="translate(2528.808594 0)"/>
     <use xlink:href="#DejaVuSans-Oblique-20" transform="translate(2580.908203 0)"/>
     <use xlink:href="#DejaVuSans-Oblique-75" transform="translate(2612.695312 0)"/>
     <use xlink:href="#DejaVuSans-Oblique-6e" transform="translate(2676.074219 0)"/>
     <use xlink:href="#DejaVuSans-Oblique-69" transform="translate(2739.453125 0)"/>
     <use xlink:href="#DejaVuSans-Oblique-71" transform="translate(2767.236328 0)"/>
     <use xlink:href="#DejaVuSans-Oblique-75" transform="translate(2830.712891 0)"/>
     <use xlink:href="#DejaVuSans-Oblique-65" transform="translate(2894.091797 0)"/>
     <use xlink:href="#DejaVuSans-Oblique-6c" transform="translate(2955.615234 0)"/>
     <use xlink:href="#DejaVuSans-Oblique-79" transform="translate(2983.398438 0)"/>
    </g>
   </g>
   <g id="text_2">
    <!-- 2 -->
    <g style="fill: #222222" transform="translate(42.203206 129.165556) scale(0.12 -0.12)">
     <defs>
      <path id="DejaVuSans-32" d="M 1228 531 
L 3431 531 
L 3431 0 
L 469 0 
L 469 531 
Q 828 903 1448 1529 
Q 2069 2156 2228 2338 
Q 2531 2678 2651 2914 
Q 2772 3150 2772 3378 
Q 2772 3750 2511 3984 
Q 2250 4219 1831 4219 
Q 1534 4219 1204 4116 
Q 875 4013 500 3803 
L 500 4441 
Q 881 4594 1212 4672 
Q 1544 4750 1819 4750 
Q 2544 4750 2975 4387 
Q 3406 4025 3406 3419 
Q 3406 3131 3298 2873 
Q 3191 2616 2906 2266 
Q 2828 2175 2409 1742 
Q 1991 1309 1228 531 
z
" transform="scale(0.015625)"/>
     </defs>
     <use xlink:href="#DejaVuSans-32"/>
    </g>
   </g>
   <g id="text_3">
    <!-- 3 -->
    <g style="fill: #222222" transform="translate(68.814406 129.165556) scale(0.12 -0.12)">
     <defs>
      <path id="DejaVuSans-33" d="M 2597 2516 
Q 3050 2419 3304 2112 
Q 3559 1806 3559 1356 
Q 3559 666 3084 287 
Q 2609 -91 1734 -91 
Q 1441 -91 1130 -33 
Q 819 25 488 141 
L 488 750 
Q 750 597 1062 519 
Q 1375 441 1716 441 
Q 2309 441 2620 675 
Q 2931 909 2931 1356 
Q 2931 1769 2642 2001 
Q 2353 2234 1838 2234 
L 1294 2234 
L 1294 2753 
L 1863 2753 
Q 2328 2753 2575 2939 
Q 2822 3125 2822 3475 
Q 2822 3834 2567 4026 
Q 2313 4219 1838 4219 
Q 1578 4219 1281 4162 
Q 984 4106 628 3988 
L 628 4550 
Q 988 4650 1302 4700 
Q 1616 4750 1894 4750 
Q 2613 4750 3031 4423 
Q 3450 4097 3450 3541 
Q 3450 3153 3228 2886 
Q 3006 2619 2597 2516 
z
" transform="scale(0.015625)"/>
     </defs>
     <use xlink:href="#DejaVuSans-33"/>
    </g>
   </g>
   <g id="text_4">
    <!-- -1 -->
    <g style="fill: #222222" transform="translate(93.260918 129.165556) scale(0.12 -0.12)">
     <defs>
      <path id="DejaVuSans-2d" d="M 313 2009 
L 1997 2009 
L 1997 1497 
L 313 1497 
L 313 2009 
z
" transform="scale(0.015625)"/>
      <path id="DejaVuSans-31" d="M 794 531 
L 1825 531 
L 1825 4091 
L 703 3866 
L 703 4441 
L 1819 4666 
L 2450 4666 
L 2450 531 
L 3481 531 
L 3481 0 
L 794 0 
L 794 531 
z
" transform="scale(0.015625)"/>
     </defs>
     <use xlink:href="#DejaVuSans-2d"/>
     <use xlink:href="#DejaVuSans-31" transform="translate(36.083984 0)"/>
    </g>
   </g>
   <g id="text_5">
    <!-- 1 -->
    <g style="fill: #222222" transform="translate(42.203206 155.776756) scale(0.12 -0.12)">
     <use xlink:href="#DejaVuSans-31"/>
    </g>
   </g>
   <g id="text_6">
    <!-- 4 -->
    <g style="fill: #222222" transform="translate(68.814406 155.776756) scale(0.12 -0.12)">
     <defs>
      <path id="DejaVuSans-34" d="M 2419 4116 
L 825 1625 
L 2419 1625 
L 2419 4116 
z
M 2253 4666 
L 3047 4666 
L 3047 1625 
L 3713 1625 
L 3713 1100 
L 3047 1100 
L 3047 0 
L 2419 0 
L 2419 1100 
L 313 1100 
L 313 1709 
L 2253 4666 
z
" transform="scale(0.015625)"/>
     </defs>
     <use xlink:href="#DejaVuSans-34"/>
    </g>
   </g>
   <g id="text_7">
    <!-- 6 -->
    <g style="fill: #222222" transform="translate(95.425606 155.776756) scale(0.12 -0.12)">
     <defs>
      <path id="DejaVuSans-36" d="M 2113 2584 
Q 1688 2584 1439 2293 
Q 1191 2003 1191 1497 
Q 1191 994 1439 701 
Q 1688 409 2113 409 
Q 2538 409 2786 701 
Q 3034 994 3034 1497 
Q 3034 2003 2786 2293 
Q 2538 2584 2113 2584 
z
M 3366 4563 
L 3366 3988 
Q 3128 4100 2886 4159 
Q 2644 4219 2406 4219 
Q 1781 4219 1451 3797 
Q 1122 3375 1075 2522 
Q 1259 2794 1537 2939 
Q 1816 3084 2150 3084 
Q 2853 3084 3261 2657 
Q 3669 2231 3669 1497 
Q 3669 778 3244 343 
Q 2819 -91 2113 -91 
Q 1303 -91 875 529 
Q 447 1150 447 2328 
Q 447 3434 972 4092 
Q 1497 4750 2381 4750 
Q 2619 4750 2861 4703 
Q 3103 4656 3366 4563 
z
" transform="scale(0.015625)"/>
     </defs>
     <use xlink:href="#DejaVuSans-36"/>
    </g>
   </g>
   <g id="text_8">
    <!-- 5 -->
    <g style="fill: #222222" transform="translate(42.203206 182.387956) scale(0.12 -0.12)">
     <defs>
      <path id="DejaVuSans-35" d="M 691 4666 
L 3169 4666 
L 3169 4134 
L 1269 4134 
L 1269 2991 
Q 1406 3038 1543 3061 
Q 1681 3084 1819 3084 
Q 2600 3084 3056 2656 
Q 3513 2228 3513 1497 
Q 3513 744 3044 326 
Q 2575 -91 1722 -91 
Q 1428 -91 1123 -41 
Q 819 9 494 109 
L 494 744 
Q 775 591 1075 516 
Q 1375 441 1709 441 
Q 2250 441 2565 725 
Q 2881 1009 2881 1497 
Q 2881 1984 2565 2268 
Q 2250 2553 1709 2553 
Q 1456 2553 1204 2497 
Q 953 2441 691 2322 
L 691 4666 
z
" transform="scale(0.015625)"/>
     </defs>
     <use xlink:href="#DejaVuSans-35"/>
    </g>
   </g>
   <g id="text_9">
    <!-- 2 -->
    <g style="fill: #222222" transform="translate(68.814406 182.387956) scale(0.12 -0.12)">
     <use xlink:href="#DejaVuSans-32"/>
    </g>
   </g>
   <g id="text_10">
    <!-- 0 -->
    <g style="fill: #222222" transform="translate(95.425606 182.387956) scale(0.12 -0.12)">
     <defs>
      <path id="DejaVuSans-30" d="M 2034 4250 
Q 1547 4250 1301 3770 
Q 1056 3291 1056 2328 
Q 1056 1369 1301 889 
Q 1547 409 2034 409 
Q 2525 409 2770 889 
Q 3016 1369 3016 2328 
Q 3016 3291 2770 3770 
Q 2525 4250 2034 4250 
z
M 2034 4750 
Q 2819 4750 3233 4129 
Q 3647 3509 3647 2328 
Q 3647 1150 3233 529 
Q 2819 -91 2034 -91 
Q 1250 -91 836 529 
Q 422 1150 422 2328 
Q 422 3509 836 4129 
Q 1250 4750 2034 4750 
z
" transform="scale(0.015625)"/>
     </defs>
     <use xlink:href="#DejaVuSans-30"/>
    </g>
   </g>
   <g id="text_11">
    <!-- A -->
    <g style="fill: #222222" transform="translate(68.869562 213.263505) scale(0.11 -0.11)">
     <defs>
      <path id="DejaVuSans-Oblique-41" d="M 2356 4666 
L 3072 4666 
L 3938 0 
L 3278 0 
L 3084 1197 
L 984 1197 
L 325 0 
L -341 0 
L 2356 4666 
z
M 2584 4044 
L 1275 1722 
L 2988 1722 
L 2584 4044 
z
" transform="scale(0.015625)"/>
     </defs>
     <use xlink:href="#DejaVuSans-Oblique-41"/>
    </g>
   </g>
   <g id="text_12">
    <!-- = -->
    <g style="fill: #444444" transform="translate(151.857356 158.536131) scale(0.22 -0.22)">
     <defs>
      <path id="DejaVuSans-3d" d="M 678 2906 
L 4684 2906 
L 4684 2381 
L 678 2381 
L 678 2906 
z
M 678 1631 
L 4684 1631 
L 4684 1100 
L 678 1100 
L 678 1631 
z
" transform="scale(0.015625)"/>
     </defs>
     <use xlink:href="#DejaVuSans-3d"/>
    </g>
   </g>
   <g id="text_13">
    <!-- 2 -->
    <g style="fill: #222222" transform="translate(198.739676 129.165556) scale(0.12 -0.12)">
     <use xlink:href="#DejaVuSans-32"/>
    </g>
   </g>
   <g id="text_14">
    <!-- 2 -->
    <g style="fill: #222222" transform="translate(225.350876 129.165556) scale(0.12 -0.12)">
     <use xlink:href="#DejaVuSans-32"/>
    </g>
   </g>
   <g id="text_15">
    <!-- 2 -->
    <g style="fill: #222222" transform="translate(251.962076 129.165556) scale(0.12 -0.12)">
     <use xlink:href="#DejaVuSans-32"/>
    </g>
   </g>
   <g id="text_16">
    <!-- 2 -->
    <g style="fill: #222222" transform="translate(198.739676 155.776756) scale(0.12 -0.12)">
     <use xlink:href="#DejaVuSans-32"/>
    </g>
   </g>
   <g id="text_17">
    <!-- 4 -->
    <g style="fill: #222222" transform="translate(225.350876 155.776756) scale(0.12 -0.12)">
     <use xlink:href="#DejaVuSans-34"/>
    </g>
   </g>
   <g id="text_18">
    <!-- 4 -->
    <g style="fill: #222222" transform="translate(251.962076 155.776756) scale(0.12 -0.12)">
     <use xlink:href="#DejaVuSans-34"/>
    </g>
   </g>
   <g id="text_19">
    <!-- 2 -->
    <g style="fill: #222222" transform="translate(198.739676 182.387956) scale(0.12 -0.12)">
     <use xlink:href="#DejaVuSans-32"/>
    </g>
   </g>
   <g id="text_20">
    <!-- 4 -->
    <g style="fill: #222222" transform="translate(225.350876 182.387956) scale(0.12 -0.12)">
     <use xlink:href="#DejaVuSans-34"/>
    </g>
   </g>
   <g id="text_21">
    <!-- 0 -->
    <g style="fill: #222222" transform="translate(251.962076 182.387956) scale(0.12 -0.12)">
     <use xlink:href="#DejaVuSans-30"/>
    </g>
   </g>
   <g id="text_22">
    <!-- (A + Aᵀ) / 2  ∈ Sym₃ -->
    <g style="fill: #2a4d8f" transform="translate(173.938064 213.263505) scale(0.11 -0.11)">
     <defs>
      <path id="DejaVuSans-Oblique-2b" d="M 2944 4013 
L 2944 2272 
L 4684 2272 
L 4684 1741 
L 2944 1741 
L 2944 0 
L 2419 0 
L 2419 1741 
L 678 1741 
L 678 2272 
L 2419 2272 
L 2419 4013 
L 2944 4013 
z
" transform="scale(0.015625)"/>
      <path id="DejaVuSans-Oblique-1d40" d="M 241 4700 
L 2728 4700 
L 2672 4403 
L 1628 4403 
L 1178 2088 
L 778 2088 
L 1228 4403 
L 184 4403 
L 241 4700 
z
" transform="scale(0.015625)"/>
      <path id="DejaVuSans-Oblique-2f" d="M 2175 4666 
L 2731 4666 
L 84 -594 
L -469 -594 
L 2175 4666 
z
" transform="scale(0.015625)"/>
      <path id="DejaVuSans-Oblique-32" d="M 2950 2253 
L 934 525 
L 3163 525 
L 3053 0 
L 25 0 
L 128 531 
L 2234 2338 
Q 2656 2703 2832 2979 
Q 3009 3256 3009 3547 
Q 3009 3850 2796 4040 
Q 2584 4231 2241 4231 
Q 1944 4231 1581 4125 
Q 1219 4019 806 3816 
L 922 4441 
Q 1309 4594 1662 4672 
Q 2016 4750 2316 4750 
Q 2928 4750 3301 4425 
Q 3675 4100 3675 3572 
Q 3675 3216 3497 2892 
Q 3319 2569 2950 2253 
z
" transform="scale(0.015625)"/>
      <path id="DejaVuSans-Oblique-2208" d="M 1072 1959 
Q 1094 1728 1291 1353 
Q 1522 919 1959 675 
Q 2388 438 2850 434 
L 5028 434 
L 5028 -63 
L 2850 -63 
Q 2250 -63 1695 246 
Q 1141 556 844 1106 
Q 547 1656 547 2241 
Q 547 2819 844 3369 
Q 1141 3919 1695 4231 
Q 2250 4544 2850 4544 
L 5028 4544 
L 5028 4047 
L 2850 4047 
Q 2388 4044 1959 3803 
Q 1525 3556 1291 3125 
Q 1091 2750 1063 2459 
L 5028 2459 
L 5028 1959 
L 1072 1959 
z
" transform="scale(0.015625)"/>
     </defs>
     <use xlink:href="#DejaVuSans-Oblique-28"/>
     <use xlink:href="#DejaVuSans-Oblique-41" transform="translate(39.013672 0)"/>
     <use xlink:href="#DejaVuSans-Oblique-20" transform="translate(107.421875 0)"/>
     <use xlink:href="#DejaVuSans-Oblique-2b" transform="translate(139.208984 0)"/>
     <use xlink:href="#DejaVuSans-Oblique-20" transform="translate(222.998047 0)"/>
     <use xlink:href="#DejaVuSans-Oblique-41" transform="translate(254.785156 0)"/>
     <use xlink:href="#DejaVuSans-Oblique-1d40" transform="translate(323.193359 0)"/>
     <use xlink:href="#DejaVuSans-Oblique-29" transform="translate(361.669922 0)"/>
     <use xlink:href="#DejaVuSans-Oblique-20" transform="translate(400.683594 0)"/>
     <use xlink:href="#DejaVuSans-Oblique-2f" transform="translate(432.470703 0)"/>
     <use xlink:href="#DejaVuSans-Oblique-20" transform="translate(466.162109 0)"/>
     <use xlink:href="#DejaVuSans-Oblique-32" transform="translate(497.949219 0)"/>
     <use xlink:href="#DejaVuSans-Oblique-20" transform="translate(561.572266 0)"/>
     <use xlink:href="#DejaVuSans-Oblique-20" transform="translate(593.359375 0)"/>
     <use xlink:href="#DejaVuSans-Oblique-2208" transform="translate(625.146484 0)"/>
     <use xlink:href="#DejaVuSans-Oblique-20" transform="translate(712.255859 0)"/>
     <use xlink:href="#DejaVuSans-Oblique-53" transform="translate(744.042969 0)"/>
     <use xlink:href="#DejaVuSans-Oblique-79" transform="translate(807.519531 0)"/>
     <use xlink:href="#DejaVuSans-Oblique-6d" transform="translate(866.699219 0)"/>
     <use xlink:href="#DejaVuSans-Oblique-2083" transform="translate(964.111328 0)"/>
    </g>
   </g>
   <g id="text_23">
    <!-- (Mᵢⱼ = Mⱼᵢ) -->
    <g style="fill: #2a4d8f" transform="translate(206.906462 232.47348) scale(0.095 -0.095)">
     <defs>
      <path id="DejaVuSans-Oblique-1d62" d="M 497 1935 
L 859 1935 
L 478 -24 
L 116 -24 
L 497 1935 
z
M 647 2697 
L 1009 2697 
L 928 2291 
L 566 2291 
L 647 2697 
z
" transform="scale(0.015625)"/>
      <path id="DejaVuSans-Oblique-2c7c" d="M 569 1935 
L 931 1935 
L 544 -59 
Q 472 -434 278 -602 
Q 84 -771 -272 -771 
L -409 -771 
L -356 -496 
L -259 -496 
Q -53 -496 37 -412 
Q 128 -328 181 -59 
L 569 1935 
z
M 716 2697 
L 1078 2697 
L 1000 2291 
L 638 2291 
L 716 2697 
z
" transform="scale(0.015625)"/>
     </defs>
     <use xlink:href="#DejaVuSans-Oblique-28"/>
     <use xlink:href="#DejaVuSans-Oblique-4d" transform="translate(39.013672 0)"/>
     <use xlink:href="#DejaVuSans-Oblique-1d62" transform="translate(125.292969 0)"/>
     <use xlink:href="#DejaVuSans-Oblique-2c7c" transform="translate(143.164062 0)"/>
     <use xlink:href="#DejaVuSans-Oblique-20" transform="translate(160.644531 0)"/>
     <use xlink:href="#DejaVuSans-Oblique-3d" transform="translate(192.431641 0)"/>
     <use xlink:href="#DejaVuSans-Oblique-20" transform="translate(276.220703 0)"/>
     <use xlink:href="#DejaVuSans-Oblique-4d" transform="translate(308.007812 0)"/>
     <use xlink:href="#DejaVuSans-Oblique-2c7c" transform="translate(394.287109 0)"/>
     <use xlink:href="#DejaVuSans-Oblique-1d62" transform="translate(411.767578 0)"/>
     <use xlink:href="#DejaVuSans-Oblique-29" transform="translate(429.638672 0)"/>
    </g>
   </g>
   <g id="text_24">
    <!-- + -->
    <g style="fill: #444444" transform="translate(308.393826 158.536131) scale(0.22 -0.22)">
     <defs>
      <path id="DejaVuSans-2b" d="M 2944 4013 
L 2944 2272 
L 4684 2272 
L 4684 1741 
L 2944 1741 
L 2944 0 
L 2419 0 
L 2419 1741 
L 678 1741 
L 678 2272 
L 2419 2272 
L 2419 4013 
L 2944 4013 
z
" transform="scale(0.015625)"/>
     </defs>
     <use xlink:href="#DejaVuSans-2b"/>
    </g>
   </g>
   <g id="text_25">
    <!-- 0 -->
    <g style="fill: #222222" transform="translate(355.276147 129.165556) scale(0.12 -0.12)">
     <use xlink:href="#DejaVuSans-30"/>
    </g>
   </g>
   <g id="text_26">
    <!-- 1 -->
    <g style="fill: #222222" transform="translate(381.887347 129.165556) scale(0.12 -0.12)">
     <use xlink:href="#DejaVuSans-31"/>
    </g>
   </g>
   <g id="text_27">
    <!-- -3 -->
    <g style="fill: #222222" transform="translate(406.33386 129.165556) scale(0.12 -0.12)">
     <use xlink:href="#DejaVuSans-2d"/>
     <use xlink:href="#DejaVuSans-33" transform="translate(36.083984 0)"/>
    </g>
   </g>
   <g id="text_28">
    <!-- -1 -->
    <g style="fill: #222222" transform="translate(353.11146 155.776756) scale(0.12 -0.12)">
     <use xlink:href="#DejaVuSans-2d"/>
     <use xlink:href="#DejaVuSans-31" transform="translate(36.083984 0)"/>
    </g>
   </g>
   <g id="text_29">
    <!-- 0 -->
    <g style="fill: #222222" transform="translate(381.887347 155.776756) scale(0.12 -0.12)">
     <use xlink:href="#DejaVuSans-30"/>
    </g>
   </g>
   <g id="text_30">
    <!-- 2 -->
    <g style="fill: #222222" transform="translate(408.498547 155.776756) scale(0.12 -0.12)">
     <use xlink:href="#DejaVuSans-32"/>
    </g>
   </g>
   <g id="text_31">
    <!-- 3 -->
    <g style="fill: #222222" transform="translate(355.276147 182.387956) scale(0.12 -0.12)">
     <use xlink:href="#DejaVuSans-33"/>
    </g>
   </g>
   <g id="text_32">
    <!-- -2 -->
    <g style="fill: #222222" transform="translate(379.72266 182.387956) scale(0.12 -0.12)">
     <use xlink:href="#DejaVuSans-2d"/>
     <use xlink:href="#DejaVuSans-32" transform="translate(36.083984 0)"/>
    </g>
   </g>
   <g id="text_33">
    <!-- 0 -->
    <g style="fill: #222222" transform="translate(408.498547 182.387956) scale(0.12 -0.12)">
     <use xlink:href="#DejaVuSans-30"/>
    </g>
   </g>
   <g id="text_34">
    <!-- (A − Aᵀ) / 2  ∈ Skew₃ -->
    <g style="fill: #8f4a2a" transform="translate(328.02016 213.263505) scale(0.11 -0.11)">
     <defs>
      <path id="DejaVuSans-Oblique-2212" d="M 678 2272 
L 4684 2272 
L 4684 1741 
L 678 1741 
L 678 2272 
z
" transform="scale(0.015625)"/>
     </defs>
     <use xlink:href="#DejaVuSans-Oblique-28"/>
     <use xlink:href="#DejaVuSans-Oblique-41" transform="translate(39.013672 0)"/>
     <use xlink:href="#DejaVuSans-Oblique-20" transform="translate(107.421875 0)"/>
     <use xlink:href="#DejaVuSans-Oblique-2212" transform="translate(139.208984 0)"/>
     <use xlink:href="#DejaVuSans-Oblique-20" transform="translate(222.998047 0)"/>
     <use xlink:href="#DejaVuSans-Oblique-41" transform="translate(254.785156 0)"/>
     <use xlink:href="#DejaVuSans-Oblique-1d40" transform="translate(323.193359 0)"/>
     <use xlink:href="#DejaVuSans-Oblique-29" transform="translate(361.669922 0)"/>
     <use xlink:href="#DejaVuSans-Oblique-20" transform="translate(400.683594 0)"/>
     <use xlink:href="#DejaVuSans-Oblique-2f" transform="translate(432.470703 0)"/>
     <use xlink:href="#DejaVuSans-Oblique-20" transform="translate(466.162109 0)"/>
     <use xlink:href="#DejaVuSans-Oblique-32" transform="translate(497.949219 0)"/>
     <use xlink:href="#DejaVuSans-Oblique-20" transform="translate(561.572266 0)"/>
     <use xlink:href="#DejaVuSans-Oblique-20" transform="translate(593.359375 0)"/>
     <use xlink:href="#DejaVuSans-Oblique-2208" transform="translate(625.146484 0)"/>
     <use xlink:href="#DejaVuSans-Oblique-20" transform="translate(712.255859 0)"/>
     <use xlink:href="#DejaVuSans-Oblique-53" transform="translate(744.042969 0)"/>
     <use xlink:href="#DejaVuSans-Oblique-6b" transform="translate(807.519531 0)"/>
     <use xlink:href="#DejaVuSans-Oblique-65" transform="translate(865.429688 0)"/>
     <use xlink:href="#DejaVuSans-Oblique-77" transform="translate(926.953125 0)"/>
     <use xlink:href="#DejaVuSans-Oblique-2083" transform="translate(1008.740234 0)"/>
    </g>
   </g>
   <g id="text_35">
    <!-- (Mᵢⱼ = −Mⱼᵢ, zero diagonal) -->
    <g style="fill: #8f4a2a" transform="translate(324.250238 232.47348) scale(0.095 -0.095)">
     <defs>
      <path id="DejaVuSans-Oblique-2c" d="M 575 794 
L 1234 794 
L 1131 256 
L 422 -744 
L 19 -744 
L 469 256 
L 575 794 
z
" transform="scale(0.015625)"/>
      <path id="DejaVuSans-Oblique-7a" d="M 744 3500 
L 3475 3500 
L 3372 2975 
L 738 459 
L 2913 459 
L 2822 0 
L -19 0 
L 84 525 
L 2719 3041 
L 653 3041 
L 744 3500 
z
" transform="scale(0.015625)"/>
      <path id="DejaVuSans-Oblique-6f" d="M 1625 -91 
Q 1009 -91 651 289 
Q 294 669 294 1325 
Q 294 1706 417 2101 
Q 541 2497 738 2766 
Q 1047 3184 1428 3384 
Q 1809 3584 2291 3584 
Q 2888 3584 3255 3212 
Q 3622 2841 3622 2241 
Q 3622 1825 3500 1412 
Q 3378 1000 3181 728 
Q 2875 309 2494 109 
Q 2113 -91 1625 -91 
z
M 891 1344 
Q 891 869 1089 633 
Q 1288 397 1691 397 
Q 2269 397 2648 901 
Q 3028 1406 3028 2181 
Q 3028 2634 2825 2865 
Q 2622 3097 2228 3097 
Q 1903 3097 1650 2945 
Q 1397 2794 1197 2484 
Q 1050 2253 970 1956 
Q 891 1659 891 1344 
z
" transform="scale(0.015625)"/>
      <path id="DejaVuSans-Oblique-64" d="M 2675 525 
Q 2444 222 2128 65 
Q 1813 -91 1428 -91 
Q 903 -91 598 267 
Q 294 625 294 1247 
Q 294 1766 478 2236 
Q 663 2706 1013 3078 
Q 1244 3325 1534 3454 
Q 1825 3584 2144 3584 
Q 2481 3584 2739 3421 
Q 2997 3259 3138 2956 
L 3513 4863 
L 4091 4863 
L 3144 0 
L 2566 0 
L 2675 525 
z
M 891 1350 
Q 891 897 1095 644 
Q 1300 391 1663 391 
Q 1931 391 2161 520 
Q 2391 650 2566 903 
Q 2750 1166 2856 1509 
Q 2963 1853 2963 2188 
Q 2963 2622 2758 2865 
Q 2553 3109 2194 3109 
Q 1922 3109 1687 2981 
Q 1453 2853 1288 2613 
Q 1106 2353 998 2009 
Q 891 1666 891 1350 
z
" transform="scale(0.015625)"/>
      <path id="DejaVuSans-Oblique-67" d="M 3816 3500 
L 3219 434 
Q 3047 -456 2561 -893 
Q 2075 -1331 1253 -1331 
Q 950 -1331 690 -1286 
Q 431 -1241 206 -1147 
L 313 -588 
Q 525 -725 762 -790 
Q 1000 -856 1269 -856 
Q 1816 -856 2167 -557 
Q 2519 -259 2631 300 
L 2681 563 
Q 2441 288 2122 144 
Q 1803 0 1434 0 
Q 903 0 598 351 
Q 294 703 294 1319 
Q 294 1803 478 2267 
Q 663 2731 997 3091 
Q 1219 3328 1514 3456 
Q 1809 3584 2131 3584 
Q 2484 3584 2746 3420 
Q 3009 3256 3138 2956 
L 3238 3500 
L 3816 3500 
z
M 2950 2216 
Q 2950 2641 2750 2872 
Q 2550 3103 2181 3103 
Q 1953 3103 1747 3012 
Q 1541 2922 1394 2759 
Q 1156 2491 1023 2127 
Q 891 1763 891 1375 
Q 891 944 1092 712 
Q 1294 481 1672 481 
Q 2219 481 2584 976 
Q 2950 1472 2950 2216 
z
" transform="scale(0.015625)"/>
     </defs>
     <use xlink:href="#DejaVuSans-Oblique-28"/>
     <use xlink:href="#DejaVuSans-Oblique-4d" transform="translate(39.013672 0)"/>
     <use xlink:href="#DejaVuSans-Oblique-1d62" transform="translate(125.292969 0)"/>
     <use xlink:href="#DejaVuSans-Oblique-2c7c" transform="translate(143.164062 0)"/>
     <use xlink:href="#DejaVuSans-Oblique-20" transform="translate(160.644531 0)"/>
     <use xlink:href="#DejaVuSans-Oblique-3d" transform="translate(192.431641 0)"/>
     <use xlink:href="#DejaVuSans-Oblique-20" transform="translate(276.220703 0)"/>
     <use xlink:href="#DejaVuSans-Oblique-2212" transform="translate(308.007812 0)"/>
     <use xlink:href="#DejaVuSans-Oblique-4d" transform="translate(391.796875 0)"/>
     <use xlink:href="#DejaVuSans-Oblique-2c7c" transform="translate(478.076172 0)"/>
     <use xlink:href="#DejaVuSans-Oblique-1d62" transform="translate(495.556641 0)"/>
     <use xlink:href="#DejaVuSans-Oblique-2c" transform="translate(513.427734 0)"/>
     <use xlink:href="#DejaVuSans-Oblique-20" transform="translate(545.214844 0)"/>
     <use xlink:href="#DejaVuSans-Oblique-7a" transform="translate(577.001953 0)"/>
     <use xlink:href="#DejaVuSans-Oblique-65" transform="translate(629.492188 0)"/>
     <use xlink:href="#DejaVuSans-Oblique-72" transform="translate(691.015625 0)"/>
     <use xlink:href="#DejaVuSans-Oblique-6f" transform="translate(732.128906 0)"/>
     <use xlink:href="#DejaVuSans-Oblique-20" transform="translate(793.310547 0)"/>
     <use xlink:href="#DejaVuSans-Oblique-64" transform="translate(825.097656 0)"/>
     <use xlink:href="#DejaVuSans-Oblique-69" transform="translate(888.574219 0)"/>
     <use xlink:href="#DejaVuSans-Oblique-61" transform="translate(916.357422 0)"/>
     <use xlink:href="#DejaVuSans-Oblique-67" transform="translate(977.636719 0)"/>
     <use xlink:href="#DejaVuSans-Oblique-6f" transform="translate(1041.113281 0)"/>
     <use xlink:href="#DejaVuSans-Oblique-6e" transform="translate(1102.294922 0)"/>
     <use xlink:href="#DejaVuSans-Oblique-61" transform="translate(1165.673828 0)"/>
     <use xlink:href="#DejaVuSans-Oblique-6c" transform="translate(1226.953125 0)"/>
     <use xlink:href="#DejaVuSans-Oblique-29" transform="translate(1254.736328 0)"/>
    </g>
   </g>
   <g id="text_36">
    <!-- the formula is forced — any other decomposition gives the same Sym and Skew parts -->
    <g style="fill: #444444" transform="translate(11.355486 54.630212) scale(0.1 -0.1)">
     <defs>
      <path id="DejaVuSans-Oblique-68" d="M 3566 2113 
L 3156 0 
L 2578 0 
L 2988 2091 
Q 3016 2238 3031 2350 
Q 3047 2463 3047 2528 
Q 3047 2791 2881 2937 
Q 2716 3084 2419 3084 
Q 1956 3084 1617 2771 
Q 1278 2459 1178 1941 
L 800 0 
L 225 0 
L 1172 4863 
L 1747 4863 
L 1375 2950 
Q 1594 3244 1934 3414 
Q 2275 3584 2650 3584 
Q 3113 3584 3367 3334 
Q 3622 3084 3622 2631 
Q 3622 2519 3608 2391 
Q 3594 2263 3566 2113 
z
" transform="scale(0.015625)"/>
      <path id="DejaVuSans-Oblique-66" d="M 3059 4863 
L 2969 4384 
L 2419 4384 
Q 2106 4384 1964 4261 
Q 1822 4138 1753 3809 
L 1691 3500 
L 2638 3500 
L 2553 3053 
L 1606 3053 
L 1013 0 
L 434 0 
L 1031 3053 
L 481 3053 
L 563 3500 
L 1113 3500 
L 1159 3744 
Q 1278 4363 1576 4613 
Q 1875 4863 2516 4863 
L 3059 4863 
z
" transform="scale(0.015625)"/>
      <path id="DejaVuSans-Oblique-63" d="M 3431 3366 
L 3316 2797 
Q 3109 2947 2876 3022 
Q 2644 3097 2394 3097 
Q 2119 3097 1870 3000 
Q 1622 2903 1453 2725 
Q 1184 2453 1037 2087 
Q 891 1722 891 1331 
Q 891 859 1127 628 
Q 1363 397 1844 397 
Q 2081 397 2348 469 
Q 2616 541 2906 684 
L 2797 116 
Q 2547 13 2283 -39 
Q 2019 -91 1741 -91 
Q 1044 -91 669 257 
Q 294 606 294 1253 
Q 294 1797 489 2255 
Q 684 2713 1069 3078 
Q 1331 3328 1684 3456 
Q 2038 3584 2456 3584 
Q 2700 3584 2940 3529 
Q 3181 3475 3431 3366 
z
" transform="scale(0.015625)"/>
      <path id="DejaVuSans-Oblique-2014" d="M 356 1978 
L 6131 1978 
L 6044 1528 
L 269 1528 
L 356 1978 
z
" transform="scale(0.015625)"/>
     </defs>
     <use xlink:href="#DejaVuSans-Oblique-74"/>
     <use xlink:href="#DejaVuSans-Oblique-68" transform="translate(39.208984 0)"/>
     <use xlink:href="#DejaVuSans-Oblique-65" transform="translate(102.587891 0)"/>
     <use xlink:href="#DejaVuSans-Oblique-20" transform="translate(164.111328 0)"/>
     <use xlink:href="#DejaVuSans-Oblique-66" transform="translate(195.898438 0)"/>
     <use xlink:href="#DejaVuSans-Oblique-6f" transform="translate(231.103516 0)"/>
     <use xlink:href="#DejaVuSans-Oblique-72" transform="translate(292.285156 0)"/>
     <use xlink:href="#DejaVuSans-Oblique-6d" transform="translate(333.398438 0)"/>
     <use xlink:href="#DejaVuSans-Oblique-75" transform="translate(430.810547 0)"/>
     <use xlink:href="#DejaVuSans-Oblique-6c" transform="translate(494.189453 0)"/>
     <use xlink:href="#DejaVuSans-Oblique-61" transform="translate(521.972656 0)"/>
     <use xlink:href="#DejaVuSans-Oblique-20" transform="translate(583.251953 0)"/>
     <use xlink:href="#DejaVuSans-Oblique-69" transform="translate(615.039062 0)"/>
     <use xlink:href="#DejaVuSans-Oblique-73" transform="translate(642.822266 0)"/>
     <use xlink:href="#DejaVuSans-Oblique-20" transform="translate(694.921875 0)"/>
     <use xlink:href="#DejaVuSans-Oblique-66" transform="translate(726.708984 0)"/>
     <use xlink:href="#DejaVuSans-Oblique-6f" transform="translate(761.914062 0)"/>
     <use xlink:href="#DejaVuSans-Oblique-72" transform="translate(823.095703 0)"/>
     <use xlink:href="#DejaVuSans-Oblique-63" transform="translate(864.208984 0)"/>
     <use xlink:href="#DejaVuSans-Oblique-65" transform="translate(919.189453 0)"/>
     <use xlink:href="#DejaVuSans-Oblique-64" transform="translate(980.712891 0)"/>
     <use xlink:href="#DejaVuSans-Oblique-20" transform="translate(1044.189453 0)"/>
     <use xlink:href="#DejaVuSans-Oblique-2014" transform="translate(1075.976562 0)"/>
     <use xlink:href="#DejaVuSans-Oblique-20" transform="translate(1175.976562 0)"/>
     <use xlink:href="#DejaVuSans-Oblique-61" transform="translate(1207.763672 0)"/>
     <use xlink:href="#DejaVuSans-Oblique-6e" transform="translate(1269.042969 0)"/>
     <use xlink:href="#DejaVuSans-Oblique-79" transform="translate(1332.421875 0)"/>
     <use xlink:href="#DejaVuSans-Oblique-20" transform="translate(1391.601562 0)"/>
     <use xlink:href="#DejaVuSans-Oblique-6f" transform="translate(1423.388672 0)"/>
     <use xlink:href="#DejaVuSans-Oblique-74" transform="translate(1484.570312 0)"/>
     <use xlink:href="#DejaVuSans-Oblique-68" transform="translate(1523.779297 0)"/>
     <use xlink:href="#DejaVuSans-Oblique-65" transform="translate(1587.158203 0)"/>
     <use xlink:href="#DejaVuSans-Oblique-72" transform="translate(1648.681641 0)"/>
     <use xlink:href="#DejaVuSans-Oblique-20" transform="translate(1689.794922 0)"/>
     <use xlink:href="#DejaVuSans-Oblique-64" transform="translate(1721.582031 0)"/>
     <use xlink:href="#DejaVuSans-Oblique-65" transform="translate(1785.058594 0)"/>
     <use xlink:href="#DejaVuSans-Oblique-63" transform="translate(1846.582031 0)"/>
     <use xlink:href="#DejaVuSans-Oblique-6f" transform="translate(1901.5625 0)"/>
     <use xlink:href="#DejaVuSans-Oblique-6d" transform="translate(1962.744141 0)"/>
     <use xlink:href="#DejaVuSans-Oblique-70" transform="translate(2060.15625 0)"/>
     <use xlink:href="#DejaVuSans-Oblique-6f" transform="translate(2123.632812 0)"/>
     <use xlink:href="#DejaVuSans-Oblique-73" transform="translate(2184.814453 0)"/>
     <use xlink:href="#DejaVuSans-Oblique-69" transform="translate(2236.914062 0)"/>
     <use xlink:href="#DejaVuSans-Oblique-74" transform="translate(2264.697266 0)"/>
     <use xlink:href="#DejaVuSans-Oblique-69" transform="translate(2303.90625 0)"/>
     <use xlink:href="#DejaVuSans-Oblique-6f" transform="translate(2331.689453 0)"/>
     <use xlink:href="#DejaVuSans-Oblique-6e" transform="translate(2392.871094 0)"/>
     <use xlink:href="#DejaVuSans-Oblique-20" transform="translate(2456.25 0)"/>
     <use xlink:href="#DejaVuSans-Oblique-67" transform="translate(2488.037109 0)"/>
     <use xlink:href="#DejaVuSans-Oblique-69" transform="translate(2551.513672 0)"/>
     <use xlink:href="#DejaVuSans-Oblique-76" transform="translate(2579.296875 0)"/>
     <use xlink:href="#DejaVuSans-Oblique-65" transform="translate(2638.476562 0)"/>
     <use xlink:href="#DejaVuSans-Oblique-73" transform="translate(2700 0)"/>
     <use xlink:href="#DejaVuSans-Oblique-20" transform="translate(2752.099609 0)"/>
     <use xlink:href="#DejaVuSans-Oblique-74" transform="translate(2783.886719 0)"/>
     <use xlink:href="#DejaVuSans-Oblique-68" transform="translate(2823.095703 0)"/>
     <use xlink:href="#DejaVuSans-Oblique-65" transform="translate(2886.474609 0)"/>
     <use xlink:href="#DejaVuSans-Oblique-20" transform="translate(2947.998047 0)"/>
     <use xlink:href="#DejaVuSans-Oblique-73" transform="translate(2979.785156 0)"/>
     <use xlink:href="#DejaVuSans-Oblique-61" transform="translate(3031.884766 0)"/>
     <use xlink:href="#DejaVuSans-Oblique-6d" transform="translate(3093.164062 0)"/>
     <use xlink:href="#DejaVuSans-Oblique-65" transform="translate(3190.576172 0)"/>
     <use xlink:href="#DejaVuSans-Oblique-20" transform="translate(3252.099609 0)"/>
     <use xlink:href="#DejaVuSans-Oblique-53" transform="translate(3283.886719 0)"/>
     <use xlink:href="#DejaVuSans-Oblique-79" transform="translate(3347.363281 0)"/>
     <use xlink:href="#DejaVuSans-Oblique-6d" transform="translate(3406.542969 0)"/>
     <use xlink:href="#DejaVuSans-Oblique-20" transform="translate(3503.955078 0)"/>
     <use xlink:href="#DejaVuSans-Oblique-61" transform="translate(3535.742188 0)"/>
     <use xlink:href="#DejaVuSans-Oblique-6e" transform="translate(3597.021484 0)"/>
     <use xlink:href="#DejaVuSans-Oblique-64" transform="translate(3660.400391 0)"/>
     <use xlink:href="#DejaVuSans-Oblique-20" transform="translate(3723.876953 0)"/>
     <use xlink:href="#DejaVuSans-Oblique-53" transform="translate(3755.664062 0)"/>
     <use xlink:href="#DejaVuSans-Oblique-6b" transform="translate(3819.140625 0)"/>
     <use xlink:href="#DejaVuSans-Oblique-65" transform="translate(3877.050781 0)"/>
     <use xlink:href="#DejaVuSans-Oblique-77" transform="translate(3938.574219 0)"/>
     <use xlink:href="#DejaVuSans-Oblique-20" transform="translate(4020.361328 0)"/>
     <use xlink:href="#DejaVuSans-Oblique-70" transform="translate(4052.148438 0)"/>
     <use xlink:href="#DejaVuSans-Oblique-61" transform="translate(4115.625 0)"/>
     <use xlink:href="#DejaVuSans-Oblique-72" transform="translate(4176.904297 0)"/>
     <use xlink:href="#DejaVuSans-Oblique-74" transform="translate(4218.017578 0)"/>
     <use xlink:href="#DejaVuSans-Oblique-73" transform="translate(4257.226562 0)"/>
    </g>
   </g>
  </g>
 </g>
 <defs>
  <clipPath id="p63a165e696">
   <rect x="10.8" y="10.8" width="435.171388" height="266.112"/>
  </clipPath>
 </defs>
</svg>
