<?xml version="1.0" encoding="utf-8" standalone="no"?>
<!DOCTYPE svg PUBLIC "-//W3C//DTD SVG 1.1//EN"
  "http://www.w3.org/Graphics/SVG/1.1/DTD/svg11.dtd">
<svg xmlns:xlink="http://www.w3.org/1999/xlink" width="331.5168pt" height="317.806125pt" viewBox="0 0 331.5168 317.806125" xmlns="http://www.w3.org/2000/svg" version="1.1">
 <metadata>
  <rdf:RDF xmlns:dc="http://purl.org/dc/elements/1.1/" xmlns:cc="http://creativecommons.org/ns#" xmlns:rdf="http://www.w3.org/1999/02/22-rdf-syntax-ns#">
   <cc:Work>
    <dc:type rdf:resource="http://purl.org/dc/dcmitype/StillImage"/>
    <dc:date>2026-05-16T20:53:45.548806</dc:date>
    <dc:format>image/svg+xml</dc:format>
    <dc:creator>
     <cc:Agent>
      <dc:title>Matplotlib v3.10.8, https://matplotlib.org/</dc:title>
     </cc:Agent>
    </dc:creator>
   </cc:Work>
  </rdf:RDF>
 </metadata>
 <defs>
  <style type="text/css">*{stroke-linejoin: round; stroke-linecap: butt}</style>
 </defs>
 <g id="figure_1">
  <g id="patch_1">
   <path d="M 0 317.806125 
L 331.5168 317.806125 
L 331.5168 0 
L 0 0 
z
" style="fill: #ffffff"/>
  </g>
  <g id="axes_1">
   <g id="patch_2">
    <path d="M 7.2 310.606125 
L 324.3168 310.606125 
L 324.3168 22.318125 
L 7.2 22.318125 
z
" style="fill: #ffffff"/>
   </g>
   <g id="patch_3">
    <path d="M 167.545244 165.568703 
Q 208.99938 144.841635 247.653516 125.514567 
" clip-path="url(#p24121821e5)" style="fill: none; stroke: #2a4d8f; stroke-width: 2.8; stroke-linecap: round"/>
    <path d="M 240.945312 125.514567 
L 247.653516 125.514567 
L 243.628594 130.88113 
z
" clip-path="url(#p24121821e5)" style="fill: #2a4d8f; stroke: #2a4d8f; stroke-width: 2.8; stroke-linecap: round"/>
   </g>
   <g id="patch_4">
    <path d="M 167.170455 167.87418 
Q 187.380076 188.083801 205.376102 206.079827 
" clip-path="url(#p24121821e5)" style="fill: none; stroke: #8f4a2a; stroke-width: 2.8; stroke-linecap: round"/>
    <path d="M 203.254782 199.715866 
L 205.376102 206.079827 
L 199.012141 203.958507 
z
" clip-path="url(#p24121821e5)" style="fill: #8f4a2a; stroke: #8f4a2a; stroke-width: 2.8; stroke-linecap: round"/>
   </g>
   <g id="patch_5">
    <path d="M 167.757712 166.462125 
Q 230.623014 166.462125 290.357821 166.462125 
" clip-path="url(#p24121821e5)" style="fill: none; stroke: #444444; stroke-width: 2.8; stroke-linecap: round"/>
    <path d="M 284.357821 163.462125 
L 290.357821 166.462125 
L 284.357821 169.462125 
z
" clip-path="url(#p24121821e5)" style="fill: #444444; stroke: #444444; stroke-width: 2.8; stroke-linecap: round"/>
   </g>
   <g id="matplotlib.axis_1"/>
   <g id="matplotlib.axis_2"/>
   <g id="line2d_1">
    <path d="M 7.2 166.462125 
L 324.3168 166.462125 
" clip-path="url(#p24121821e5)" style="fill: none; stroke: #bbbbbb; stroke-width: 0.7; stroke-linecap: square"/>
   </g>
   <g id="line2d_2">
    <path d="M 165.7584 310.606125 
L 165.7584 22.318125 
" clip-path="url(#p24121821e5)" style="fill: none; stroke: #bbbbbb; stroke-width: 0.7; stroke-linecap: square"/>
   </g>
   <g id="line2d_3">
    <path d="M 21.6144 238.534125 
L 309.9024 94.390125 
" clip-path="url(#p24121821e5)" style="fill: none; stroke: #2a4d8f; stroke-width: 2.4; stroke-linecap: square"/>
   </g>
   <g id="line2d_4">
    <path d="M 50.4432 51.146925 
L 281.0736 281.777325 
" clip-path="url(#p24121821e5)" style="fill: none; stroke: #8f4a2a; stroke-width: 2.4; stroke-linecap: square"/>
   </g>
   <g id="line2d_5">
    <path d="M 252.2448 123.218925 
L 295.488 166.462125 
" clip-path="url(#p24121821e5)" style="fill: none; stroke-dasharray: 5.18,2.24; stroke-dashoffset: 0; stroke: #8f4a2a; stroke-opacity: 0.7; stroke-width: 1.4"/>
   </g>
   <g id="line2d_6">
    <path d="M 209.0016 209.705325 
L 295.488 166.462125 
" clip-path="url(#p24121821e5)" style="fill: none; stroke-dasharray: 5.18,2.24; stroke-dashoffset: 0; stroke: #2a4d8f; stroke-opacity: 0.7; stroke-width: 1.4"/>
   </g>
   <g id="line2d_7">
    <defs>
     <path id="m28e2a98da2" d="M 0 7 
C 1.856422 7 3.637059 6.262436 4.949747 4.949747 
C 6.262436 3.637059 7 1.856422 7 0 
C 7 -1.856422 6.262436 -3.637059 4.949747 -4.949747 
C 3.637059 -6.262436 1.856422 -7 0 -7 
C -1.856422 -7 -3.637059 -6.262436 -4.949747 -4.949747 
C -6.262436 -3.637059 -7 -1.856422 -7 0 
C -7 1.856422 -6.262436 3.637059 -4.949747 4.949747 
C -3.637059 6.262436 -1.856422 7 0 7 
z
" style="stroke: #b03030; stroke-width: 2"/>
    </defs>
    <g clip-path="url(#p24121821e5)">
     <use xlink:href="#m28e2a98da2" x="295.488" y="166.462125" style="fill-opacity: 0; stroke: #b03030; stroke-width: 2"/>
    </g>
   </g>
   <g id="line2d_8">
    <defs>
     <path id="mc45fbfa7ae" d="M 0 2.5 
C 0.663008 2.5 1.29895 2.236584 1.767767 1.767767 
C 2.236584 1.29895 2.5 0.663008 2.5 0 
C 2.5 -0.663008 2.236584 -1.29895 1.767767 -1.767767 
C 1.29895 -2.236584 0.663008 -2.5 0 -2.5 
C -0.663008 -2.5 -1.29895 -2.236584 -1.767767 -1.767767 
C -2.236584 -1.29895 -2.5 -0.663008 -2.5 0 
C -2.5 0.663008 -2.236584 1.29895 -1.767767 1.767767 
C -1.29895 2.236584 -0.663008 2.5 0 2.5 
z
" style="stroke: #222222"/>
    </defs>
    <g clip-path="url(#p24121821e5)">
     <use xlink:href="#mc45fbfa7ae" x="165.7584" y="166.462125" style="fill: #222222; stroke: #222222"/>
    </g>
   </g>
   <g id="patch_6">
    <path d="M 7.2 310.606125 
L 7.2 22.318125 
" style="fill: none; stroke: #dddddd; stroke-width: 0.8; stroke-linejoin: miter; stroke-linecap: square"/>
   </g>
   <g id="patch_7">
    <path d="M 324.3168 310.606125 
L 324.3168 22.318125 
" style="fill: none; stroke: #dddddd; stroke-width: 0.8; stroke-linejoin: miter; stroke-linecap: square"/>
   </g>
   <g id="patch_8">
    <path d="M 7.2 310.606125 
L 324.3168 310.606125 
" style="fill: none; stroke: #dddddd; stroke-width: 0.8; stroke-linejoin: miter; stroke-linecap: square"/>
   </g>
   <g id="patch_9">
    <path d="M 7.2 22.318125 
L 324.3168 22.318125 
" style="fill: none; stroke: #dddddd; stroke-width: 0.8; stroke-linejoin: miter; stroke-linecap: square"/>
   </g>
   <g id="text_1">
    <!-- U -->
    <g style="fill: #2a4d8f" transform="translate(30.26304 221.236845) scale(0.13 -0.13)">
     <defs>
      <path id="DejaVuSans-Oblique-55" d="M 991 4666 
L 1625 4666 
L 1075 1831 
Q 1041 1641 1027 1517 
Q 1013 1394 1013 1300 
Q 1013 869 1253 645 
Q 1494 422 1959 422 
Q 2563 422 2898 753 
Q 3234 1084 3378 1831 
L 3928 4666 
L 4563 4666 
L 4000 1753 
Q 3816 809 3300 359 
Q 2784 -91 1888 -91 
Q 1188 -91 780 261 
Q 372 613 372 1216 
Q 372 1325 387 1461 
Q 403 1597 434 1753 
L 991 4666 
z
" transform="scale(0.015625)"/>
     </defs>
     <use xlink:href="#DejaVuSans-Oblique-55"/>
    </g>
   </g>
   <g id="text_2">
    <!-- W -->
    <g style="fill: #8f4a2a" transform="translate(272.42496 290.425965) scale(0.13 -0.13)">
     <defs>
      <path id="DejaVuSans-Oblique-57" d="M 616 4666 
L 1228 4666 
L 1453 697 
L 3213 4666 
L 3916 4666 
L 4147 697 
L 5888 4666 
L 6528 4666 
L 4453 0 
L 3659 0 
L 3444 3891 
L 1697 0 
L 903 0 
L 616 4666 
z
" transform="scale(0.015625)"/>
     </defs>
     <use xlink:href="#DejaVuSans-Oblique-57"/>
    </g>
   </g>
   <g id="text_3">
    <!-- u -->
    <g style="fill: #2a4d8f" transform="translate(232.06464 113.128845) scale(0.13 -0.13)">
     <defs>
      <path id="DejaVuSans-Oblique-75" d="M 428 1388 
L 838 3500 
L 1416 3500 
L 1006 1409 
Q 975 1256 961 1147 
Q 947 1038 947 966 
Q 947 700 1109 554 
Q 1272 409 1569 409 
Q 2031 409 2368 721 
Q 2706 1034 2809 1563 
L 3194 3500 
L 3769 3500 
L 3091 0 
L 2516 0 
L 2631 550 
Q 2388 244 2052 76 
Q 1716 -91 1338 -91 
Q 878 -91 622 161 
Q 366 413 366 863 
Q 366 956 381 1097 
Q 397 1238 428 1388 
z
" transform="scale(0.015625)"/>
     </defs>
     <use xlink:href="#DejaVuSans-Oblique-75"/>
    </g>
   </g>
   <g id="text_4">
    <!-- w -->
    <g style="fill: #8f4a2a" transform="translate(210.44304 222.678285) scale(0.13 -0.13)">
     <defs>
      <path id="DejaVuSans-Oblique-77" d="M 544 3500 
L 1113 3500 
L 1259 684 
L 2566 3500 
L 3231 3500 
L 3425 684 
L 4666 3500 
L 5241 3500 
L 3641 0 
L 2969 0 
L 2797 2900 
L 1459 0 
L 781 0 
L 544 3500 
z
" transform="scale(0.015625)"/>
     </defs>
     <use xlink:href="#DejaVuSans-Oblique-77"/>
    </g>
   </g>
   <g id="text_5">
    <!-- u + w -->
    <g style="fill: #444444" transform="translate(252.2448 156.372045) scale(0.13 -0.13)">
     <defs>
      <path id="DejaVuSans-Oblique-20" transform="scale(0.015625)"/>
      <path id="DejaVuSans-Oblique-2b" d="M 2944 4013 
L 2944 2272 
L 4684 2272 
L 4684 1741 
L 2944 1741 
L 2944 0 
L 2419 0 
L 2419 1741 
L 678 1741 
L 678 2272 
L 2419 2272 
L 2419 4013 
L 2944 4013 
z
" transform="scale(0.015625)"/>
     </defs>
     <use xlink:href="#DejaVuSans-Oblique-75"/>
     <use xlink:href="#DejaVuSans-Oblique-20" transform="translate(63.378906 0)"/>
     <use xlink:href="#DejaVuSans-Oblique-2b" transform="translate(95.166016 0)"/>
     <use xlink:href="#DejaVuSans-Oblique-20" transform="translate(178.955078 0)"/>
     <use xlink:href="#DejaVuSans-Oblique-77" transform="translate(210.742188 0)"/>
    </g>
   </g>
   <g id="text_6">
    <!-- $\notin U \cup W$ -->
    <g style="fill: #b03030" transform="translate(263.77632 186.642285) scale(0.11 -0.11)">
     <defs>
      <path id="DejaVuSans-2209" d="M 3875 5347 
L 4344 5175 
L 4116 4544 
L 5028 4544 
L 5028 4047 
L 3934 4047 
L 3356 2459 
L 5028 2459 
L 5028 1959 
L 3175 1959 
L 2625 450 
Q 2738 434 2850 434 
L 5028 434 
L 5028 -63 
L 2850 -63 
Q 2647 -63 2450 -28 
L 2138 -884 
L 1669 -713 
L 1969 113 
Q 1831 172 1694 247 
Q 1141 556 844 1106 
Q 547 1656 547 2241 
Q 547 2819 844 3369 
Q 1141 3919 1695 4231 
Q 2250 4544 2850 4544 
L 3581 4544 
L 3875 5347 
z
M 1072 1959 
Q 1072 1728 1291 1353 
Q 1556 900 1959 675 
Q 2050 625 2141 584 
L 2641 1959 
L 1072 1959 
z
M 2825 2459 
L 3400 4047 
L 2850 4047 
Q 2391 4047 1959 3803 
Q 1569 3581 1291 3125 
Q 1063 2750 1063 2459 
L 2825 2459 
z
" transform="scale(0.015625)"/>
      <path id="DejaVuSans-222a" d="M 825 1856 
L 825 3706 
L 1363 3706 
L 1363 1934 
Q 1363 1172 1594 842 
Q 1825 513 2344 513 
Q 2859 513 3090 842 
Q 3322 1172 3322 1934 
L 3322 3706 
L 3859 3706 
L 3859 1856 
Q 3859 931 3476 465 
Q 3094 0 2344 0 
Q 1591 0 1208 465 
Q 825 931 825 1856 
z
" transform="scale(0.015625)"/>
     </defs>
     <use xlink:href="#DejaVuSans-2209" transform="translate(19.482422 0.453125)"/>
     <use xlink:href="#DejaVuSans-Oblique-55" transform="translate(126.074219 0.453125)"/>
     <use xlink:href="#DejaVuSans-222a" transform="translate(218.75 0.453125)"/>
     <use xlink:href="#DejaVuSans-Oblique-57" transform="translate(311.425781 0.453125)"/>
    </g>
   </g>
   <g id="text_7">
    <!-- 0 -->
    <g style="fill: #222222" transform="translate(149.90256 179.435085) scale(0.11 -0.11)">
     <defs>
      <path id="DejaVuSans-30" d="M 2034 4250 
Q 1547 4250 1301 3770 
Q 1056 3291 1056 2328 
Q 1056 1369 1301 889 
Q 1547 409 2034 409 
Q 2525 409 2770 889 
Q 3016 1369 3016 2328 
Q 3016 3291 2770 3770 
Q 2525 4250 2034 4250 
z
M 2034 4750 
Q 2819 4750 3233 4129 
Q 3647 3509 3647 2328 
Q 3647 1150 3233 529 
Q 2819 -91 2034 -91 
Q 1250 -91 836 529 
Q 422 1150 422 2328 
Q 422 3509 836 4129 
Q 1250 4750 2034 4750 
z
" transform="scale(0.015625)"/>
     </defs>
     <use xlink:href="#DejaVuSans-30"/>
    </g>
   </g>
   <g id="text_8">
    <!-- u ∈ U, w ∈ W, yet u + w lies on neither line -->
    <g style="fill: #444444" transform="translate(56.300588 301.957485) scale(0.1 -0.1)">
     <defs>
      <path id="DejaVuSans-75" d="M 544 1381 
L 544 3500 
L 1119 3500 
L 1119 1403 
Q 1119 906 1312 657 
Q 1506 409 1894 409 
Q 2359 409 2629 706 
Q 2900 1003 2900 1516 
L 2900 3500 
L 3475 3500 
L 3475 0 
L 2900 0 
L 2900 538 
Q 2691 219 2414 64 
Q 2138 -91 1772 -91 
Q 1169 -91 856 284 
Q 544 659 544 1381 
z
M 1991 3584 
L 1991 3584 
z
" transform="scale(0.015625)"/>
      <path id="DejaVuSans-20" transform="scale(0.015625)"/>
      <path id="DejaVuSans-2208" d="M 1072 1959 
Q 1094 1728 1291 1353 
Q 1522 919 1959 675 
Q 2388 438 2850 434 
L 5028 434 
L 5028 -63 
L 2850 -63 
Q 2250 -63 1695 246 
Q 1141 556 844 1106 
Q 547 1656 547 2241 
Q 547 2819 844 3369 
Q 1141 3919 1695 4231 
Q 2250 4544 2850 4544 
L 5028 4544 
L 5028 4047 
L 2850 4047 
Q 2388 4044 1959 3803 
Q 1525 3556 1291 3125 
Q 1091 2750 1063 2459 
L 5028 2459 
L 5028 1959 
L 1072 1959 
z
" transform="scale(0.015625)"/>
      <path id="DejaVuSans-55" d="M 556 4666 
L 1191 4666 
L 1191 1831 
Q 1191 1081 1462 751 
Q 1734 422 2344 422 
Q 2950 422 3222 751 
Q 3494 1081 3494 1831 
L 3494 4666 
L 4128 4666 
L 4128 1753 
Q 4128 841 3676 375 
Q 3225 -91 2344 -91 
Q 1459 -91 1007 375 
Q 556 841 556 1753 
L 556 4666 
z
" transform="scale(0.015625)"/>
      <path id="DejaVuSans-2c" d="M 750 794 
L 1409 794 
L 1409 256 
L 897 -744 
L 494 -744 
L 750 256 
L 750 794 
z
" transform="scale(0.015625)"/>
      <path id="DejaVuSans-77" d="M 269 3500 
L 844 3500 
L 1563 769 
L 2278 3500 
L 2956 3500 
L 3675 769 
L 4391 3500 
L 4966 3500 
L 4050 0 
L 3372 0 
L 2619 2869 
L 1863 0 
L 1184 0 
L 269 3500 
z
" transform="scale(0.015625)"/>
      <path id="DejaVuSans-57" d="M 213 4666 
L 850 4666 
L 1831 722 
L 2809 4666 
L 3519 4666 
L 4500 722 
L 5478 4666 
L 6119 4666 
L 4947 0 
L 4153 0 
L 3169 4050 
L 2175 0 
L 1381 0 
L 213 4666 
z
" transform="scale(0.015625)"/>
      <path id="DejaVuSans-79" d="M 2059 -325 
Q 1816 -950 1584 -1140 
Q 1353 -1331 966 -1331 
L 506 -1331 
L 506 -850 
L 844 -850 
Q 1081 -850 1212 -737 
Q 1344 -625 1503 -206 
L 1606 56 
L 191 3500 
L 800 3500 
L 1894 763 
L 2988 3500 
L 3597 3500 
L 2059 -325 
z
" transform="scale(0.015625)"/>
      <path id="DejaVuSans-65" d="M 3597 1894 
L 3597 1613 
L 953 1613 
Q 991 1019 1311 708 
Q 1631 397 2203 397 
Q 2534 397 2845 478 
Q 3156 559 3463 722 
L 3463 178 
Q 3153 47 2828 -22 
Q 2503 -91 2169 -91 
Q 1331 -91 842 396 
Q 353 884 353 1716 
Q 353 2575 817 3079 
Q 1281 3584 2069 3584 
Q 2775 3584 3186 3129 
Q 3597 2675 3597 1894 
z
M 3022 2063 
Q 3016 2534 2758 2815 
Q 2500 3097 2075 3097 
Q 1594 3097 1305 2825 
Q 1016 2553 972 2059 
L 3022 2063 
z
" transform="scale(0.015625)"/>
      <path id="DejaVuSans-74" d="M 1172 4494 
L 1172 3500 
L 2356 3500 
L 2356 3053 
L 1172 3053 
L 1172 1153 
Q 1172 725 1289 603 
Q 1406 481 1766 481 
L 2356 481 
L 2356 0 
L 1766 0 
Q 1100 0 847 248 
Q 594 497 594 1153 
L 594 3053 
L 172 3053 
L 172 3500 
L 594 3500 
L 594 4494 
L 1172 4494 
z
" transform="scale(0.015625)"/>
      <path id="DejaVuSans-2b" d="M 2944 4013 
L 2944 2272 
L 4684 2272 
L 4684 1741 
L 2944 1741 
L 2944 0 
L 2419 0 
L 2419 1741 
L 678 1741 
L 678 2272 
L 2419 2272 
L 2419 4013 
L 2944 4013 
z
" transform="scale(0.015625)"/>
      <path id="DejaVuSans-6c" d="M 603 4863 
L 1178 4863 
L 1178 0 
L 603 0 
L 603 4863 
z
" transform="scale(0.015625)"/>
      <path id="DejaVuSans-69" d="M 603 3500 
L 1178 3500 
L 1178 0 
L 603 0 
L 603 3500 
z
M 603 4863 
L 1178 4863 
L 1178 4134 
L 603 4134 
L 603 4863 
z
" transform="scale(0.015625)"/>
      <path id="DejaVuSans-73" d="M 2834 3397 
L 2834 2853 
Q 2591 2978 2328 3040 
Q 2066 3103 1784 3103 
Q 1356 3103 1142 2972 
Q 928 2841 928 2578 
Q 928 2378 1081 2264 
Q 1234 2150 1697 2047 
L 1894 2003 
Q 2506 1872 2764 1633 
Q 3022 1394 3022 966 
Q 3022 478 2636 193 
Q 2250 -91 1575 -91 
Q 1294 -91 989 -36 
Q 684 19 347 128 
L 347 722 
Q 666 556 975 473 
Q 1284 391 1588 391 
Q 1994 391 2212 530 
Q 2431 669 2431 922 
Q 2431 1156 2273 1281 
Q 2116 1406 1581 1522 
L 1381 1569 
Q 847 1681 609 1914 
Q 372 2147 372 2553 
Q 372 3047 722 3315 
Q 1072 3584 1716 3584 
Q 2034 3584 2315 3537 
Q 2597 3491 2834 3397 
z
" transform="scale(0.015625)"/>
      <path id="DejaVuSans-6f" d="M 1959 3097 
Q 1497 3097 1228 2736 
Q 959 2375 959 1747 
Q 959 1119 1226 758 
Q 1494 397 1959 397 
Q 2419 397 2687 759 
Q 2956 1122 2956 1747 
Q 2956 2369 2687 2733 
Q 2419 3097 1959 3097 
z
M 1959 3584 
Q 2709 3584 3137 3096 
Q 3566 2609 3566 1747 
Q 3566 888 3137 398 
Q 2709 -91 1959 -91 
Q 1206 -91 779 398 
Q 353 888 353 1747 
Q 353 2609 779 3096 
Q 1206 3584 1959 3584 
z
" transform="scale(0.015625)"/>
      <path id="DejaVuSans-6e" d="M 3513 2113 
L 3513 0 
L 2938 0 
L 2938 2094 
Q 2938 2591 2744 2837 
Q 2550 3084 2163 3084 
Q 1697 3084 1428 2787 
Q 1159 2491 1159 1978 
L 1159 0 
L 581 0 
L 581 3500 
L 1159 3500 
L 1159 2956 
Q 1366 3272 1645 3428 
Q 1925 3584 2291 3584 
Q 2894 3584 3203 3211 
Q 3513 2838 3513 2113 
z
" transform="scale(0.015625)"/>
      <path id="DejaVuSans-68" d="M 3513 2113 
L 3513 0 
L 2938 0 
L 2938 2094 
Q 2938 2591 2744 2837 
Q 2550 3084 2163 3084 
Q 1697 3084 1428 2787 
Q 1159 2491 1159 1978 
L 1159 0 
L 581 0 
L 581 4863 
L 1159 4863 
L 1159 2956 
Q 1366 3272 1645 3428 
Q 1925 3584 2291 3584 
Q 2894 3584 3203 3211 
Q 3513 2838 3513 2113 
z
" transform="scale(0.015625)"/>
      <path id="DejaVuSans-72" d="M 2631 2963 
Q 2534 3019 2420 3045 
Q 2306 3072 2169 3072 
Q 1681 3072 1420 2755 
Q 1159 2438 1159 1844 
L 1159 0 
L 581 0 
L 581 3500 
L 1159 3500 
L 1159 2956 
Q 1341 3275 1631 3429 
Q 1922 3584 2338 3584 
Q 2397 3584 2469 3576 
Q 2541 3569 2628 3553 
L 2631 2963 
z
" transform="scale(0.015625)"/>
     </defs>
     <use xlink:href="#DejaVuSans-75"/>
     <use xlink:href="#DejaVuSans-20" transform="translate(63.378906 0)"/>
     <use xlink:href="#DejaVuSans-2208" transform="translate(95.166016 0)"/>
     <use xlink:href="#DejaVuSans-20" transform="translate(182.275391 0)"/>
     <use xlink:href="#DejaVuSans-55" transform="translate(214.0625 0)"/>
     <use xlink:href="#DejaVuSans-2c" transform="translate(287.255859 0)"/>
     <use xlink:href="#DejaVuSans-20" transform="translate(319.042969 0)"/>
     <use xlink:href="#DejaVuSans-77" transform="translate(350.830078 0)"/>
     <use xlink:href="#DejaVuSans-20" transform="translate(432.617188 0)"/>
     <use xlink:href="#DejaVuSans-2208" transform="translate(464.404297 0)"/>
     <use xlink:href="#DejaVuSans-20" transform="translate(551.513672 0)"/>
     <use xlink:href="#DejaVuSans-57" transform="translate(583.300781 0)"/>
     <use xlink:href="#DejaVuSans-2c" transform="translate(682.177734 0)"/>
     <use xlink:href="#DejaVuSans-20" transform="translate(713.964844 0)"/>
     <use xlink:href="#DejaVuSans-79" transform="translate(745.751953 0)"/>
     <use xlink:href="#DejaVuSans-65" transform="translate(804.931641 0)"/>
     <use xlink:href="#DejaVuSans-74" transform="translate(866.455078 0)"/>
     <use xlink:href="#DejaVuSans-20" transform="translate(905.664062 0)"/>
     <use xlink:href="#DejaVuSans-75" transform="translate(937.451172 0)"/>
     <use xlink:href="#DejaVuSans-20" transform="translate(1000.830078 0)"/>
     <use xlink:href="#DejaVuSans-2b" transform="translate(1032.617188 0)"/>
     <use xlink:href="#DejaVuSans-20" transform="translate(1116.40625 0)"/>
     <use xlink:href="#DejaVuSans-77" transform="translate(1148.193359 0)"/>
     <use xlink:href="#DejaVuSans-20" transform="translate(1229.980469 0)"/>
     <use xlink:href="#DejaVuSans-6c" transform="translate(1261.767578 0)"/>
     <use xlink:href="#DejaVuSans-69" transform="translate(1289.550781 0)"/>
     <use xlink:href="#DejaVuSans-65" transform="translate(1317.333984 0)"/>
     <use xlink:href="#DejaVuSans-73" transform="translate(1378.857422 0)"/>
     <use xlink:href="#DejaVuSans-20" transform="translate(1430.957031 0)"/>
     <use xlink:href="#DejaVuSans-6f" transform="translate(1462.744141 0)"/>
     <use xlink:href="#DejaVuSans-6e" transform="translate(1523.925781 0)"/>
     <use xlink:href="#DejaVuSans-20" transform="translate(1587.304688 0)"/>
     <use xlink:href="#DejaVuSans-6e" transform="translate(1619.091797 0)"/>
     <use xlink:href="#DejaVuSans-65" transform="translate(1682.470703 0)"/>
     <use xlink:href="#DejaVuSans-69" transform="translate(1743.994141 0)"/>
     <use xlink:href="#DejaVuSans-74" transform="translate(1771.777344 0)"/>
     <use xlink:href="#DejaVuSans-68" transform="translate(1810.986328 0)"/>
     <use xlink:href="#DejaVuSans-65" transform="translate(1874.365234 0)"/>
     <use xlink:href="#DejaVuSans-72" transform="translate(1935.888672 0)"/>
     <use xlink:href="#DejaVuSans-20" transform="translate(1977.001953 0)"/>
     <use xlink:href="#DejaVuSans-6c" transform="translate(2008.789062 0)"/>
     <use xlink:href="#DejaVuSans-69" transform="translate(2036.572266 0)"/>
     <use xlink:href="#DejaVuSans-6e" transform="translate(2064.355469 0)"/>
     <use xlink:href="#DejaVuSans-65" transform="translate(2127.734375 0)"/>
    </g>
   </g>
   <g id="text_9">
    <!-- $U \cup W$ is not closed under addition -->
    <g transform="translate(63.2184 16.318125) scale(0.12 -0.12)">
     <defs>
      <path id="DejaVuSans-Oblique-69" d="M 1172 4863 
L 1747 4863 
L 1606 4134 
L 1031 4134 
L 1172 4863 
z
M 909 3500 
L 1484 3500 
L 800 0 
L 225 0 
L 909 3500 
z
" transform="scale(0.015625)"/>
      <path id="DejaVuSans-Oblique-73" d="M 3200 3397 
L 3091 2853 
Q 2863 2978 2609 3040 
Q 2356 3103 2088 3103 
Q 1634 3103 1373 2948 
Q 1113 2794 1113 2528 
Q 1113 2219 1719 2053 
Q 1766 2041 1788 2034 
L 1972 1978 
Q 2547 1819 2739 1644 
Q 2931 1469 2931 1166 
Q 2931 609 2489 259 
Q 2047 -91 1331 -91 
Q 1053 -91 747 -37 
Q 441 16 72 128 
L 184 722 
Q 500 559 806 475 
Q 1113 391 1394 391 
Q 1816 391 2080 572 
Q 2344 753 2344 1031 
Q 2344 1331 1650 1516 
L 1591 1531 
L 1394 1581 
Q 956 1697 753 1886 
Q 550 2075 550 2369 
Q 550 2928 970 3256 
Q 1391 3584 2113 3584 
Q 2397 3584 2667 3537 
Q 2938 3491 3200 3397 
z
" transform="scale(0.015625)"/>
      <path id="DejaVuSans-Oblique-6e" d="M 3566 2113 
L 3156 0 
L 2578 0 
L 2988 2091 
Q 3016 2238 3031 2350 
Q 3047 2463 3047 2528 
Q 3047 2791 2881 2937 
Q 2716 3084 2419 3084 
Q 1956 3084 1622 2776 
Q 1288 2469 1184 1941 
L 800 0 
L 225 0 
L 903 3500 
L 1478 3500 
L 1363 2950 
Q 1603 3253 1940 3418 
Q 2278 3584 2650 3584 
Q 3113 3584 3367 3334 
Q 3622 3084 3622 2631 
Q 3622 2519 3608 2391 
Q 3594 2263 3566 2113 
z
" transform="scale(0.015625)"/>
      <path id="DejaVuSans-Oblique-6f" d="M 1625 -91 
Q 1009 -91 651 289 
Q 294 669 294 1325 
Q 294 1706 417 2101 
Q 541 2497 738 2766 
Q 1047 3184 1428 3384 
Q 1809 3584 2291 3584 
Q 2888 3584 3255 3212 
Q 3622 2841 3622 2241 
Q 3622 1825 3500 1412 
Q 3378 1000 3181 728 
Q 2875 309 2494 109 
Q 2113 -91 1625 -91 
z
M 891 1344 
Q 891 869 1089 633 
Q 1288 397 1691 397 
Q 2269 397 2648 901 
Q 3028 1406 3028 2181 
Q 3028 2634 2825 2865 
Q 2622 3097 2228 3097 
Q 1903 3097 1650 2945 
Q 1397 2794 1197 2484 
Q 1050 2253 970 1956 
Q 891 1659 891 1344 
z
" transform="scale(0.015625)"/>
      <path id="DejaVuSans-Oblique-74" d="M 2706 3500 
L 2619 3053 
L 1472 3053 
L 1100 1153 
Q 1081 1047 1072 975 
Q 1063 903 1063 863 
Q 1063 663 1183 572 
Q 1303 481 1569 481 
L 2150 481 
L 2053 0 
L 1503 0 
Q 991 0 739 200 
Q 488 400 488 806 
Q 488 878 497 964 
Q 506 1050 525 1153 
L 897 3053 
L 409 3053 
L 500 3500 
L 978 3500 
L 1172 4494 
L 1747 4494 
L 1556 3500 
L 2706 3500 
z
" transform="scale(0.015625)"/>
      <path id="DejaVuSans-Oblique-63" d="M 3431 3366 
L 3316 2797 
Q 3109 2947 2876 3022 
Q 2644 3097 2394 3097 
Q 2119 3097 1870 3000 
Q 1622 2903 1453 2725 
Q 1184 2453 1037 2087 
Q 891 1722 891 1331 
Q 891 859 1127 628 
Q 1363 397 1844 397 
Q 2081 397 2348 469 
Q 2616 541 2906 684 
L 2797 116 
Q 2547 13 2283 -39 
Q 2019 -91 1741 -91 
Q 1044 -91 669 257 
Q 294 606 294 1253 
Q 294 1797 489 2255 
Q 684 2713 1069 3078 
Q 1331 3328 1684 3456 
Q 2038 3584 2456 3584 
Q 2700 3584 2940 3529 
Q 3181 3475 3431 3366 
z
" transform="scale(0.015625)"/>
      <path id="DejaVuSans-Oblique-6c" d="M 1172 4863 
L 1747 4863 
L 800 0 
L 225 0 
L 1172 4863 
z
" transform="scale(0.015625)"/>
      <path id="DejaVuSans-Oblique-65" d="M 3078 2063 
Q 3088 2113 3092 2166 
Q 3097 2219 3097 2272 
Q 3097 2653 2873 2875 
Q 2650 3097 2266 3097 
Q 1838 3097 1509 2826 
Q 1181 2556 1013 2059 
L 3078 2063 
z
M 3578 1613 
L 903 1613 
Q 884 1494 878 1425 
Q 872 1356 872 1306 
Q 872 872 1139 634 
Q 1406 397 1894 397 
Q 2269 397 2603 481 
Q 2938 566 3225 728 
L 3116 159 
Q 2806 34 2476 -28 
Q 2147 -91 1806 -91 
Q 1078 -91 686 257 
Q 294 606 294 1247 
Q 294 1794 489 2264 
Q 684 2734 1063 3103 
Q 1306 3334 1642 3459 
Q 1978 3584 2356 3584 
Q 2950 3584 3301 3228 
Q 3653 2872 3653 2272 
Q 3653 2128 3634 1964 
Q 3616 1800 3578 1613 
z
" transform="scale(0.015625)"/>
      <path id="DejaVuSans-Oblique-64" d="M 2675 525 
Q 2444 222 2128 65 
Q 1813 -91 1428 -91 
Q 903 -91 598 267 
Q 294 625 294 1247 
Q 294 1766 478 2236 
Q 663 2706 1013 3078 
Q 1244 3325 1534 3454 
Q 1825 3584 2144 3584 
Q 2481 3584 2739 3421 
Q 2997 3259 3138 2956 
L 3513 4863 
L 4091 4863 
L 3144 0 
L 2566 0 
L 2675 525 
z
M 891 1350 
Q 891 897 1095 644 
Q 1300 391 1663 391 
Q 1931 391 2161 520 
Q 2391 650 2566 903 
Q 2750 1166 2856 1509 
Q 2963 1853 2963 2188 
Q 2963 2622 2758 2865 
Q 2553 3109 2194 3109 
Q 1922 3109 1687 2981 
Q 1453 2853 1288 2613 
Q 1106 2353 998 2009 
Q 891 1666 891 1350 
z
" transform="scale(0.015625)"/>
      <path id="DejaVuSans-Oblique-72" d="M 2853 2969 
Q 2766 3016 2653 3041 
Q 2541 3066 2413 3066 
Q 1953 3066 1609 2717 
Q 1266 2369 1153 1784 
L 800 0 
L 225 0 
L 909 3500 
L 1484 3500 
L 1375 2956 
Q 1603 3259 1920 3421 
Q 2238 3584 2597 3584 
Q 2691 3584 2781 3573 
Q 2872 3563 2963 3538 
L 2853 2969 
z
" transform="scale(0.015625)"/>
      <path id="DejaVuSans-Oblique-61" d="M 3438 1997 
L 3047 0 
L 2472 0 
L 2578 531 
Q 2325 219 2001 64 
Q 1678 -91 1281 -91 
Q 834 -91 548 182 
Q 263 456 263 884 
Q 263 1497 752 1853 
Q 1241 2209 2100 2209 
L 2900 2209 
L 2931 2363 
Q 2938 2388 2941 2417 
Q 2944 2447 2944 2509 
Q 2944 2788 2717 2942 
Q 2491 3097 2081 3097 
Q 1800 3097 1504 3025 
Q 1209 2953 897 2809 
L 997 3341 
Q 1322 3463 1633 3523 
Q 1944 3584 2234 3584 
Q 2853 3584 3176 3315 
Q 3500 3047 3500 2534 
Q 3500 2431 3484 2292 
Q 3469 2153 3438 1997 
z
M 2816 1759 
L 2241 1759 
Q 1534 1759 1195 1570 
Q 856 1381 856 984 
Q 856 709 1029 553 
Q 1203 397 1509 397 
Q 1978 397 2328 733 
Q 2678 1069 2791 1631 
L 2816 1759 
z
" transform="scale(0.015625)"/>
     </defs>
     <use xlink:href="#DejaVuSans-Oblique-55" transform="translate(0 0.015625)"/>
     <use xlink:href="#DejaVuSans-222a" transform="translate(92.675781 0.015625)"/>
     <use xlink:href="#DejaVuSans-Oblique-57" transform="translate(185.351562 0.015625)"/>
     <use xlink:href="#DejaVuSans-Oblique-20" transform="translate(284.228516 0.015625)"/>
     <use xlink:href="#DejaVuSans-Oblique-69" transform="translate(316.015625 0.015625)"/>
     <use xlink:href="#DejaVuSans-Oblique-73" transform="translate(343.798828 0.015625)"/>
     <use xlink:href="#DejaVuSans-Oblique-20" transform="translate(395.898438 0.015625)"/>
     <use xlink:href="#DejaVuSans-Oblique-6e" transform="translate(427.685547 0.015625)"/>
     <use xlink:href="#DejaVuSans-Oblique-6f" transform="translate(491.064453 0.015625)"/>
     <use xlink:href="#DejaVuSans-Oblique-74" transform="translate(552.246094 0.015625)"/>
     <use xlink:href="#DejaVuSans-Oblique-20" transform="translate(591.455078 0.015625)"/>
     <use xlink:href="#DejaVuSans-Oblique-63" transform="translate(623.242188 0.015625)"/>
     <use xlink:href="#DejaVuSans-Oblique-6c" transform="translate(678.222656 0.015625)"/>
     <use xlink:href="#DejaVuSans-Oblique-6f" transform="translate(706.005859 0.015625)"/>
     <use xlink:href="#DejaVuSans-Oblique-73" transform="translate(767.1875 0.015625)"/>
     <use xlink:href="#DejaVuSans-Oblique-65" transform="translate(819.287109 0.015625)"/>
     <use xlink:href="#DejaVuSans-Oblique-64" transform="translate(880.810547 0.015625)"/>
     <use xlink:href="#DejaVuSans-Oblique-20" transform="translate(944.287109 0.015625)"/>
     <use xlink:href="#DejaVuSans-Oblique-75" transform="translate(976.074219 0.015625)"/>
     <use xlink:href="#DejaVuSans-Oblique-6e" transform="translate(1039.453125 0.015625)"/>
     <use xlink:href="#DejaVuSans-Oblique-64" transform="translate(1102.832031 0.015625)"/>
     <use xlink:href="#DejaVuSans-Oblique-65" transform="translate(1166.308594 0.015625)"/>
     <use xlink:href="#DejaVuSans-Oblique-72" transform="translate(1227.832031 0.015625)"/>
     <use xlink:href="#DejaVuSans-Oblique-20" transform="translate(1268.945312 0.015625)"/>
     <use xlink:href="#DejaVuSans-Oblique-61" transform="translate(1300.732422 0.015625)"/>
     <use xlink:href="#DejaVuSans-Oblique-64" transform="translate(1362.011719 0.015625)"/>
     <use xlink:href="#DejaVuSans-Oblique-64" transform="translate(1425.488281 0.015625)"/>
     <use xlink:href="#DejaVuSans-Oblique-69" transform="translate(1488.964844 0.015625)"/>
     <use xlink:href="#DejaVuSans-Oblique-74" transform="translate(1516.748047 0.015625)"/>
     <use xlink:href="#DejaVuSans-Oblique-69" transform="translate(1555.957031 0.015625)"/>
     <use xlink:href="#DejaVuSans-Oblique-6f" transform="translate(1583.740234 0.015625)"/>
     <use xlink:href="#DejaVuSans-Oblique-6e" transform="translate(1644.921875 0.015625)"/>
    </g>
   </g>
  </g>
 </g>
 <defs>
  <clipPath id="p24121821e5">
   <rect x="7.2" y="22.318125" width="317.1168" height="288.288"/>
  </clipPath>
 </defs>
</svg>
