<?xml version="1.0" encoding="utf-8" standalone="no"?>
<!DOCTYPE svg PUBLIC "-//W3C//DTD SVG 1.1//EN"
  "http://www.w3.org/Graphics/SVG/1.1/DTD/svg11.dtd">
<svg xmlns:xlink="http://www.w3.org/1999/xlink" width="358.92pt" height="351.070125pt" viewBox="0 0 358.92 351.070125" xmlns="http://www.w3.org/2000/svg" version="1.1">
 <metadata>
  <rdf:RDF xmlns:dc="http://purl.org/dc/elements/1.1/" xmlns:cc="http://creativecommons.org/ns#" xmlns:rdf="http://www.w3.org/1999/02/22-rdf-syntax-ns#">
   <cc:Work>
    <dc:type rdf:resource="http://purl.org/dc/dcmitype/StillImage"/>
    <dc:date>2026-05-16T21:05:10.950768</dc:date>
    <dc:format>image/svg+xml</dc:format>
    <dc:creator>
     <cc:Agent>
      <dc:title>Matplotlib v3.10.8, https://matplotlib.org/</dc:title>
     </cc:Agent>
    </dc:creator>
   </cc:Work>
  </rdf:RDF>
 </metadata>
 <defs>
  <style type="text/css">*{stroke-linejoin: round; stroke-linecap: butt}</style>
 </defs>
 <g id="figure_1">
  <g id="patch_1">
   <path d="M 0 351.070125 
L 358.92 351.070125 
L 358.92 0 
L 0 0 
z
" style="fill: #ffffff"/>
  </g>
  <g id="axes_1">
   <g id="patch_2">
    <path d="M 7.2 343.870125 
L 351.72 343.870125 
L 351.72 22.318125 
L 7.2 22.318125 
z
" style="fill: #ffffff"/>
   </g>
   <g id="matplotlib.axis_1"/>
   <g id="matplotlib.axis_2"/>
   <g id="line2d_1">
    <path d="M 7.2 167.782125 
L 351.72 167.782125 
" clip-path="url(#p11dd8a28d3)" style="fill: none; stroke: #bbbbbb; stroke-width: 0.7; stroke-linecap: square"/>
   </g>
   <g id="line2d_2">
    <path d="M 179.46 343.870125 
L 179.46 22.318125 
" clip-path="url(#p11dd8a28d3)" style="fill: none; stroke: #bbbbbb; stroke-width: 0.7; stroke-linecap: square"/>
   </g>
   <g id="line2d_3">
    <path d="M 26.34 263.482125 
L 332.58 263.482125 
" clip-path="url(#p11dd8a28d3)" style="fill: none; stroke: #7a3a8f; stroke-opacity: 0.5; stroke-width: 1.4; stroke-linecap: square"/>
   </g>
   <g id="line2d_4">
    <path d="M 26.34 225.202125 
L 332.58 225.202125 
" clip-path="url(#p11dd8a28d3)" style="fill: none; stroke: #7a3a8f; stroke-opacity: 0.5; stroke-width: 1.4; stroke-linecap: square"/>
   </g>
   <g id="line2d_5">
    <path d="M 26.34 110.362125 
L 332.58 110.362125 
" clip-path="url(#p11dd8a28d3)" style="fill: none; stroke: #7a3a8f; stroke-opacity: 0.5; stroke-width: 1.4; stroke-linecap: square"/>
   </g>
   <g id="line2d_6">
    <path d="M 26.34 72.082125 
L 332.58 72.082125 
" clip-path="url(#p11dd8a28d3)" style="fill: none; stroke: #7a3a8f; stroke-opacity: 0.5; stroke-width: 1.4; stroke-linecap: square"/>
   </g>
   <g id="line2d_7">
    <path d="M 26.34 167.782125 
L 332.58 167.782125 
" clip-path="url(#p11dd8a28d3)" style="fill: none; stroke: #2a4d8f; stroke-width: 2.8; stroke-linecap: square"/>
   </g>
   <g id="line2d_8">
    <path d="M 179.46 297.934125 
L 179.46 37.630125 
" clip-path="url(#p11dd8a28d3)" style="fill: none; stroke: #8f4a2a; stroke-width: 2.3; stroke-linecap: square"/>
   </g>
   <g id="line2d_9">
    <defs>
     <path id="m08fef59315" d="M 0 2.75 
C 0.729309 2.75 1.428845 2.460243 1.944544 1.944544 
C 2.460243 1.428845 2.75 0.729309 2.75 0 
C 2.75 -0.729309 2.460243 -1.428845 1.944544 -1.944544 
C 1.428845 -2.460243 0.729309 -2.75 0 -2.75 
C -0.729309 -2.75 -1.428845 -2.460243 -1.944544 -1.944544 
C -2.460243 -1.428845 -2.75 -0.729309 -2.75 0 
C -2.75 0.729309 -2.460243 1.428845 -1.944544 1.944544 
C -1.428845 2.460243 -0.729309 2.75 0 2.75 
z
" style="stroke: #8f4a2a"/>
    </defs>
    <g clip-path="url(#p11dd8a28d3)">
     <use xlink:href="#m08fef59315" x="179.46" y="263.482125" style="fill: #8f4a2a; stroke: #8f4a2a"/>
    </g>
   </g>
   <g id="line2d_10">
    <g clip-path="url(#p11dd8a28d3)">
     <use xlink:href="#m08fef59315" x="179.46" y="225.202125" style="fill: #8f4a2a; stroke: #8f4a2a"/>
    </g>
   </g>
   <g id="line2d_11">
    <g clip-path="url(#p11dd8a28d3)">
     <use xlink:href="#m08fef59315" x="179.46" y="110.362125" style="fill: #8f4a2a; stroke: #8f4a2a"/>
    </g>
   </g>
   <g id="line2d_12">
    <g clip-path="url(#p11dd8a28d3)">
     <use xlink:href="#m08fef59315" x="179.46" y="72.082125" style="fill: #8f4a2a; stroke: #8f4a2a"/>
    </g>
   </g>
   <g id="line2d_13">
    <path d="M 104.316708 297.934125 
L 254.603292 37.630125 
" clip-path="url(#p11dd8a28d3)" style="fill: none; stroke: #1a6c1a; stroke-width: 2.3; stroke-linecap: square"/>
   </g>
   <g id="line2d_14">
    <defs>
     <path id="m520ef2b8bc" d="M 0 2.75 
C 0.729309 2.75 1.428845 2.460243 1.944544 1.944544 
C 2.460243 1.428845 2.75 0.729309 2.75 0 
C 2.75 -0.729309 2.460243 -1.428845 1.944544 -1.944544 
C 1.428845 -2.460243 0.729309 -2.75 0 -2.75 
C -0.729309 -2.75 -1.428845 -2.460243 -1.944544 -1.944544 
C -2.460243 -1.428845 -2.75 -0.729309 -2.75 0 
C -2.75 0.729309 -2.460243 1.428845 -1.944544 1.944544 
C -1.428845 2.460243 -0.729309 2.75 0 2.75 
z
" style="stroke: #1a6c1a"/>
    </defs>
    <g clip-path="url(#p11dd8a28d3)">
     <use xlink:href="#m520ef2b8bc" x="124.207579" y="263.482125" style="fill: #1a6c1a; stroke: #1a6c1a"/>
    </g>
   </g>
   <g id="line2d_15">
    <g clip-path="url(#p11dd8a28d3)">
     <use xlink:href="#m520ef2b8bc" x="146.308548" y="225.202125" style="fill: #1a6c1a; stroke: #1a6c1a"/>
    </g>
   </g>
   <g id="line2d_16">
    <g clip-path="url(#p11dd8a28d3)">
     <use xlink:href="#m520ef2b8bc" x="212.611452" y="110.362125" style="fill: #1a6c1a; stroke: #1a6c1a"/>
    </g>
   </g>
   <g id="line2d_17">
    <g clip-path="url(#p11dd8a28d3)">
     <use xlink:href="#m520ef2b8bc" x="234.712421" y="72.082125" style="fill: #1a6c1a; stroke: #1a6c1a"/>
    </g>
   </g>
   <g id="line2d_18">
    <path d="M 288.670495 297.934125 
L 70.249505 37.630125 
" clip-path="url(#p11dd8a28d3)" style="fill: none; stroke: #7a3a8f; stroke-width: 2.3; stroke-linecap: square"/>
   </g>
   <g id="line2d_19">
    <defs>
     <path id="m39a1bbfa1b" d="M 0 2.75 
C 0.729309 2.75 1.428845 2.460243 1.944544 1.944544 
C 2.460243 1.428845 2.75 0.729309 2.75 0 
C 2.75 -0.729309 2.460243 -1.428845 1.944544 -1.944544 
C 1.428845 -2.460243 0.729309 -2.75 0 -2.75 
C -0.729309 -2.75 -1.428845 -2.460243 -1.944544 -1.944544 
C -2.460243 -1.428845 -2.75 -0.729309 -2.75 0 
C -2.75 0.729309 -2.460243 1.428845 -1.944544 1.944544 
C -1.428845 2.460243 -0.729309 2.75 0 2.75 
z
" style="stroke: #7a3a8f"/>
    </defs>
    <g clip-path="url(#p11dd8a28d3)">
     <use xlink:href="#m39a1bbfa1b" x="259.761835" y="263.482125" style="fill: #7a3a8f; stroke: #7a3a8f"/>
    </g>
   </g>
   <g id="line2d_20">
    <g clip-path="url(#p11dd8a28d3)">
     <use xlink:href="#m39a1bbfa1b" x="227.641101" y="225.202125" style="fill: #7a3a8f; stroke: #7a3a8f"/>
    </g>
   </g>
   <g id="line2d_21">
    <g clip-path="url(#p11dd8a28d3)">
     <use xlink:href="#m39a1bbfa1b" x="131.278899" y="110.362125" style="fill: #7a3a8f; stroke: #7a3a8f"/>
    </g>
   </g>
   <g id="line2d_22">
    <g clip-path="url(#p11dd8a28d3)">
     <use xlink:href="#m39a1bbfa1b" x="99.158165" y="72.082125" style="fill: #7a3a8f; stroke: #7a3a8f"/>
    </g>
   </g>
   <g id="line2d_23">
    <defs>
     <path id="m16a017628c" d="M 0 2.5 
C 0.663008 2.5 1.29895 2.236584 1.767767 1.767767 
C 2.236584 1.29895 2.5 0.663008 2.5 0 
C 2.5 -0.663008 2.236584 -1.29895 1.767767 -1.767767 
C 1.29895 -2.236584 0.663008 -2.5 0 -2.5 
C -0.663008 -2.5 -1.29895 -2.236584 -1.767767 -1.767767 
C -2.236584 -1.29895 -2.5 -0.663008 -2.5 0 
C -2.5 0.663008 -2.236584 1.29895 -1.767767 1.767767 
C -1.29895 2.236584 -0.663008 2.5 0 2.5 
z
" style="stroke: #222222"/>
    </defs>
    <g clip-path="url(#p11dd8a28d3)">
     <use xlink:href="#m16a017628c" x="179.46" y="167.782125" style="fill: #222222; stroke: #222222"/>
    </g>
   </g>
   <g id="patch_3">
    <path d="M 7.2 343.870125 
L 7.2 22.318125 
" style="fill: none; stroke: #dddddd; stroke-width: 0.8; stroke-linejoin: miter; stroke-linecap: square"/>
   </g>
   <g id="patch_4">
    <path d="M 351.72 343.870125 
L 351.72 22.318125 
" style="fill: none; stroke: #dddddd; stroke-width: 0.8; stroke-linejoin: miter; stroke-linecap: square"/>
   </g>
   <g id="patch_5">
    <path d="M 7.2 343.870125 
L 351.72 343.870125 
" style="fill: none; stroke: #dddddd; stroke-width: 0.8; stroke-linejoin: miter; stroke-linecap: square"/>
   </g>
   <g id="patch_6">
    <path d="M 7.2 22.318125 
L 351.72 22.318125 
" style="fill: none; stroke: #dddddd; stroke-width: 0.8; stroke-linejoin: miter; stroke-linecap: square"/>
   </g>
   <g id="text_1">
    <!-- U -->
    <g style="fill: #2a4d8f" transform="translate(22.512 186.922125) scale(0.13 -0.13)">
     <defs>
      <path id="DejaVuSans-Oblique-55" d="M 991 4666 
L 1625 4666 
L 1075 1831 
Q 1041 1641 1027 1517 
Q 1013 1394 1013 1300 
Q 1013 869 1253 645 
Q 1494 422 1959 422 
Q 2563 422 2898 753 
Q 3234 1084 3378 1831 
L 3928 4666 
L 4563 4666 
L 4000 1753 
Q 3816 809 3300 359 
Q 2784 -91 1888 -91 
Q 1188 -91 780 261 
Q 372 613 372 1216 
Q 372 1325 387 1461 
Q 403 1597 434 1753 
L 991 4666 
z
" transform="scale(0.015625)"/>
     </defs>
     <use xlink:href="#DejaVuSans-Oblique-55"/>
    </g>
   </g>
   <g id="text_2">
    <!-- W₁ : y-axis -->
    <g style="fill: #8f4a2a" transform="translate(185.202 35.716125) scale(0.11 -0.11)">
     <defs>
      <path id="DejaVuSans-Oblique-57" d="M 616 4666 
L 1228 4666 
L 1453 697 
L 3213 4666 
L 3916 4666 
L 4147 697 
L 5888 4666 
L 6528 4666 
L 4453 0 
L 3659 0 
L 3444 3891 
L 1697 0 
L 903 0 
L 616 4666 
z
" transform="scale(0.015625)"/>
      <path id="DejaVuSans-Oblique-2081" d="M 488 319 
L 1125 319 
L 1497 2229 
L 781 2101 
L 850 2463 
L 1569 2585 
L 2022 2585 
L 1581 319 
L 2222 319 
L 2150 -24 
L 422 -24 
L 488 319 
z
" transform="scale(0.015625)"/>
      <path id="DejaVuSans-Oblique-20" transform="scale(0.015625)"/>
      <path id="DejaVuSans-Oblique-3a" d="M 978 3309 
L 1638 3309 
L 1484 2516 
L 825 2516 
L 978 3309 
z
M 488 794 
L 1147 794 
L 991 0 
L 331 0 
L 488 794 
z
" transform="scale(0.015625)"/>
      <path id="DejaVuSans-Oblique-79" d="M 1588 -325 
Q 1188 -997 936 -1164 
Q 684 -1331 294 -1331 
L -159 -1331 
L -63 -850 
L 269 -850 
Q 509 -850 678 -719 
Q 847 -588 1056 -206 
L 1234 128 
L 459 3500 
L 1069 3500 
L 1650 819 
L 3256 3500 
L 3859 3500 
L 1588 -325 
z
" transform="scale(0.015625)"/>
      <path id="DejaVuSans-Oblique-2d" d="M 391 2009 
L 2075 2009 
L 1978 1497 
L 288 1497 
L 391 2009 
z
" transform="scale(0.015625)"/>
      <path id="DejaVuSans-Oblique-61" d="M 3438 1997 
L 3047 0 
L 2472 0 
L 2578 531 
Q 2325 219 2001 64 
Q 1678 -91 1281 -91 
Q 834 -91 548 182 
Q 263 456 263 884 
Q 263 1497 752 1853 
Q 1241 2209 2100 2209 
L 2900 2209 
L 2931 2363 
Q 2938 2388 2941 2417 
Q 2944 2447 2944 2509 
Q 2944 2788 2717 2942 
Q 2491 3097 2081 3097 
Q 1800 3097 1504 3025 
Q 1209 2953 897 2809 
L 997 3341 
Q 1322 3463 1633 3523 
Q 1944 3584 2234 3584 
Q 2853 3584 3176 3315 
Q 3500 3047 3500 2534 
Q 3500 2431 3484 2292 
Q 3469 2153 3438 1997 
z
M 2816 1759 
L 2241 1759 
Q 1534 1759 1195 1570 
Q 856 1381 856 984 
Q 856 709 1029 553 
Q 1203 397 1509 397 
Q 1978 397 2328 733 
Q 2678 1069 2791 1631 
L 2816 1759 
z
" transform="scale(0.015625)"/>
      <path id="DejaVuSans-Oblique-78" d="M 3841 3500 
L 2234 1784 
L 3219 0 
L 2559 0 
L 1819 1388 
L 531 0 
L -166 0 
L 1556 1844 
L 641 3500 
L 1300 3500 
L 1972 2234 
L 3144 3500 
L 3841 3500 
z
" transform="scale(0.015625)"/>
      <path id="DejaVuSans-Oblique-69" d="M 1172 4863 
L 1747 4863 
L 1606 4134 
L 1031 4134 
L 1172 4863 
z
M 909 3500 
L 1484 3500 
L 800 0 
L 225 0 
L 909 3500 
z
" transform="scale(0.015625)"/>
      <path id="DejaVuSans-Oblique-73" d="M 3200 3397 
L 3091 2853 
Q 2863 2978 2609 3040 
Q 2356 3103 2088 3103 
Q 1634 3103 1373 2948 
Q 1113 2794 1113 2528 
Q 1113 2219 1719 2053 
Q 1766 2041 1788 2034 
L 1972 1978 
Q 2547 1819 2739 1644 
Q 2931 1469 2931 1166 
Q 2931 609 2489 259 
Q 2047 -91 1331 -91 
Q 1053 -91 747 -37 
Q 441 16 72 128 
L 184 722 
Q 500 559 806 475 
Q 1113 391 1394 391 
Q 1816 391 2080 572 
Q 2344 753 2344 1031 
Q 2344 1331 1650 1516 
L 1591 1531 
L 1394 1581 
Q 956 1697 753 1886 
Q 550 2075 550 2369 
Q 550 2928 970 3256 
Q 1391 3584 2113 3584 
Q 2397 3584 2667 3537 
Q 2938 3491 3200 3397 
z
" transform="scale(0.015625)"/>
     </defs>
     <use xlink:href="#DejaVuSans-Oblique-57"/>
     <use xlink:href="#DejaVuSans-Oblique-2081" transform="translate(98.876953 0)"/>
     <use xlink:href="#DejaVuSans-Oblique-20" transform="translate(138.964844 0)"/>
     <use xlink:href="#DejaVuSans-Oblique-3a" transform="translate(170.751953 0)"/>
     <use xlink:href="#DejaVuSans-Oblique-20" transform="translate(204.443359 0)"/>
     <use xlink:href="#DejaVuSans-Oblique-79" transform="translate(236.230469 0)"/>
     <use xlink:href="#DejaVuSans-Oblique-2d" transform="translate(291.785156 0)"/>
     <use xlink:href="#DejaVuSans-Oblique-61" transform="translate(327.869141 0)"/>
     <use xlink:href="#DejaVuSans-Oblique-78" transform="translate(389.148438 0)"/>
     <use xlink:href="#DejaVuSans-Oblique-69" transform="translate(448.328125 0)"/>
     <use xlink:href="#DejaVuSans-Oblique-73" transform="translate(476.111328 0)"/>
    </g>
   </g>
   <g id="text_3">
    <!-- W₂ -->
    <g style="fill: #1a6c1a" transform="translate(248.364 52.640332) scale(0.11 -0.11)">
     <defs>
      <path id="DejaVuSans-Oblique-2082" d="M 2059 1294 
L 856 332 
L 2234 332 
L 2163 -24 
L 231 -24 
L 300 319 
L 1619 1382 
Q 1803 1526 1893 1660 
Q 1984 1794 1984 1919 
Q 1984 2088 1853 2192 
Q 1722 2297 1503 2297 
Q 1331 2297 1125 2244 
Q 919 2191 659 2079 
L 738 2463 
Q 975 2551 1187 2594 
Q 1400 2638 1600 2638 
Q 1984 2638 2223 2460 
Q 2463 2282 2463 2004 
Q 2463 1810 2363 1633 
Q 2263 1457 2059 1294 
z
" transform="scale(0.015625)"/>
     </defs>
     <use xlink:href="#DejaVuSans-Oblique-57"/>
     <use xlink:href="#DejaVuSans-Oblique-2082" transform="translate(98.876953 0)"/>
    </g>
   </g>
   <g id="text_4">
    <!-- W₃ -->
    <g style="fill: #7a3a8f" transform="translate(104.002498 65.270327) scale(0.11 -0.11)">
     <defs>
      <path id="DejaVuSans-Oblique-2083" d="M 672 2529 
Q 931 2585 1128 2611 
Q 1325 2638 1497 2638 
Q 1888 2638 2122 2474 
Q 2356 2310 2356 2041 
Q 2356 1801 2178 1622 
Q 2000 1444 1697 1388 
Q 1931 1338 2056 1191 
Q 2181 1044 2181 819 
Q 2181 422 1832 175 
Q 1484 -71 909 -71 
Q 709 -71 506 -38 
Q 303 -6 103 57 
L 178 435 
Q 344 351 519 310 
Q 694 269 891 269 
Q 1275 269 1492 413 
Q 1709 557 1709 813 
Q 1709 1007 1557 1105 
Q 1406 1204 1100 1204 
L 831 1204 
L 903 1541 
L 1191 1541 
Q 1509 1541 1689 1653 
Q 1869 1766 1869 1966 
Q 1869 2132 1741 2214 
Q 1613 2297 1356 2297 
Q 1181 2297 987 2264 
Q 794 2232 603 2169 
L 672 2529 
z
" transform="scale(0.015625)"/>
     </defs>
     <use xlink:href="#DejaVuSans-Oblique-57"/>
     <use xlink:href="#DejaVuSans-Oblique-2083" transform="translate(98.876953 0)"/>
    </g>
   </g>
   <g id="text_5">
    <!-- 0 -->
    <g style="fill: #222222" transform="translate(160.32 186.922125) scale(0.11 -0.11)">
     <defs>
      <path id="DejaVuSans-30" d="M 2034 4250 
Q 1547 4250 1301 3770 
Q 1056 3291 1056 2328 
Q 1056 1369 1301 889 
Q 1547 409 2034 409 
Q 2525 409 2770 889 
Q 3016 1369 3016 2328 
Q 3016 3291 2770 3770 
Q 2525 4250 2034 4250 
z
M 2034 4750 
Q 2819 4750 3233 4129 
Q 3647 3509 3647 2328 
Q 3647 1150 3233 529 
Q 2819 -91 2034 -91 
Q 1250 -91 836 529 
Q 422 1150 422 2328 
Q 422 3509 836 4129 
Q 1250 4750 2034 4750 
z
" transform="scale(0.015625)"/>
     </defs>
     <use xlink:href="#DejaVuSans-30"/>
    </g>
   </g>
   <g id="text_6">
    <!-- each W meets every coset in exactly one point → W ≅ V/U -->
    <g style="fill: #444444" transform="translate(33.451406 317.360312) scale(0.1 -0.1)">
     <defs>
      <path id="DejaVuSans-65" d="M 3597 1894 
L 3597 1613 
L 953 1613 
Q 991 1019 1311 708 
Q 1631 397 2203 397 
Q 2534 397 2845 478 
Q 3156 559 3463 722 
L 3463 178 
Q 3153 47 2828 -22 
Q 2503 -91 2169 -91 
Q 1331 -91 842 396 
Q 353 884 353 1716 
Q 353 2575 817 3079 
Q 1281 3584 2069 3584 
Q 2775 3584 3186 3129 
Q 3597 2675 3597 1894 
z
M 3022 2063 
Q 3016 2534 2758 2815 
Q 2500 3097 2075 3097 
Q 1594 3097 1305 2825 
Q 1016 2553 972 2059 
L 3022 2063 
z
" transform="scale(0.015625)"/>
      <path id="DejaVuSans-61" d="M 2194 1759 
Q 1497 1759 1228 1600 
Q 959 1441 959 1056 
Q 959 750 1161 570 
Q 1363 391 1709 391 
Q 2188 391 2477 730 
Q 2766 1069 2766 1631 
L 2766 1759 
L 2194 1759 
z
M 3341 1997 
L 3341 0 
L 2766 0 
L 2766 531 
Q 2569 213 2275 61 
Q 1981 -91 1556 -91 
Q 1019 -91 701 211 
Q 384 513 384 1019 
Q 384 1609 779 1909 
Q 1175 2209 1959 2209 
L 2766 2209 
L 2766 2266 
Q 2766 2663 2505 2880 
Q 2244 3097 1772 3097 
Q 1472 3097 1187 3025 
Q 903 2953 641 2809 
L 641 3341 
Q 956 3463 1253 3523 
Q 1550 3584 1831 3584 
Q 2591 3584 2966 3190 
Q 3341 2797 3341 1997 
z
" transform="scale(0.015625)"/>
      <path id="DejaVuSans-63" d="M 3122 3366 
L 3122 2828 
Q 2878 2963 2633 3030 
Q 2388 3097 2138 3097 
Q 1578 3097 1268 2742 
Q 959 2388 959 1747 
Q 959 1106 1268 751 
Q 1578 397 2138 397 
Q 2388 397 2633 464 
Q 2878 531 3122 666 
L 3122 134 
Q 2881 22 2623 -34 
Q 2366 -91 2075 -91 
Q 1284 -91 818 406 
Q 353 903 353 1747 
Q 353 2603 823 3093 
Q 1294 3584 2113 3584 
Q 2378 3584 2631 3529 
Q 2884 3475 3122 3366 
z
" transform="scale(0.015625)"/>
      <path id="DejaVuSans-68" d="M 3513 2113 
L 3513 0 
L 2938 0 
L 2938 2094 
Q 2938 2591 2744 2837 
Q 2550 3084 2163 3084 
Q 1697 3084 1428 2787 
Q 1159 2491 1159 1978 
L 1159 0 
L 581 0 
L 581 4863 
L 1159 4863 
L 1159 2956 
Q 1366 3272 1645 3428 
Q 1925 3584 2291 3584 
Q 2894 3584 3203 3211 
Q 3513 2838 3513 2113 
z
" transform="scale(0.015625)"/>
      <path id="DejaVuSans-20" transform="scale(0.015625)"/>
      <path id="DejaVuSans-57" d="M 213 4666 
L 850 4666 
L 1831 722 
L 2809 4666 
L 3519 4666 
L 4500 722 
L 5478 4666 
L 6119 4666 
L 4947 0 
L 4153 0 
L 3169 4050 
L 2175 0 
L 1381 0 
L 213 4666 
z
" transform="scale(0.015625)"/>
      <path id="DejaVuSans-6d" d="M 3328 2828 
Q 3544 3216 3844 3400 
Q 4144 3584 4550 3584 
Q 5097 3584 5394 3201 
Q 5691 2819 5691 2113 
L 5691 0 
L 5113 0 
L 5113 2094 
Q 5113 2597 4934 2840 
Q 4756 3084 4391 3084 
Q 3944 3084 3684 2787 
Q 3425 2491 3425 1978 
L 3425 0 
L 2847 0 
L 2847 2094 
Q 2847 2600 2669 2842 
Q 2491 3084 2119 3084 
Q 1678 3084 1418 2786 
Q 1159 2488 1159 1978 
L 1159 0 
L 581 0 
L 581 3500 
L 1159 3500 
L 1159 2956 
Q 1356 3278 1631 3431 
Q 1906 3584 2284 3584 
Q 2666 3584 2933 3390 
Q 3200 3197 3328 2828 
z
" transform="scale(0.015625)"/>
      <path id="DejaVuSans-74" d="M 1172 4494 
L 1172 3500 
L 2356 3500 
L 2356 3053 
L 1172 3053 
L 1172 1153 
Q 1172 725 1289 603 
Q 1406 481 1766 481 
L 2356 481 
L 2356 0 
L 1766 0 
Q 1100 0 847 248 
Q 594 497 594 1153 
L 594 3053 
L 172 3053 
L 172 3500 
L 594 3500 
L 594 4494 
L 1172 4494 
z
" transform="scale(0.015625)"/>
      <path id="DejaVuSans-73" d="M 2834 3397 
L 2834 2853 
Q 2591 2978 2328 3040 
Q 2066 3103 1784 3103 
Q 1356 3103 1142 2972 
Q 928 2841 928 2578 
Q 928 2378 1081 2264 
Q 1234 2150 1697 2047 
L 1894 2003 
Q 2506 1872 2764 1633 
Q 3022 1394 3022 966 
Q 3022 478 2636 193 
Q 2250 -91 1575 -91 
Q 1294 -91 989 -36 
Q 684 19 347 128 
L 347 722 
Q 666 556 975 473 
Q 1284 391 1588 391 
Q 1994 391 2212 530 
Q 2431 669 2431 922 
Q 2431 1156 2273 1281 
Q 2116 1406 1581 1522 
L 1381 1569 
Q 847 1681 609 1914 
Q 372 2147 372 2553 
Q 372 3047 722 3315 
Q 1072 3584 1716 3584 
Q 2034 3584 2315 3537 
Q 2597 3491 2834 3397 
z
" transform="scale(0.015625)"/>
      <path id="DejaVuSans-76" d="M 191 3500 
L 800 3500 
L 1894 563 
L 2988 3500 
L 3597 3500 
L 2284 0 
L 1503 0 
L 191 3500 
z
" transform="scale(0.015625)"/>
      <path id="DejaVuSans-72" d="M 2631 2963 
Q 2534 3019 2420 3045 
Q 2306 3072 2169 3072 
Q 1681 3072 1420 2755 
Q 1159 2438 1159 1844 
L 1159 0 
L 581 0 
L 581 3500 
L 1159 3500 
L 1159 2956 
Q 1341 3275 1631 3429 
Q 1922 3584 2338 3584 
Q 2397 3584 2469 3576 
Q 2541 3569 2628 3553 
L 2631 2963 
z
" transform="scale(0.015625)"/>
      <path id="DejaVuSans-79" d="M 2059 -325 
Q 1816 -950 1584 -1140 
Q 1353 -1331 966 -1331 
L 506 -1331 
L 506 -850 
L 844 -850 
Q 1081 -850 1212 -737 
Q 1344 -625 1503 -206 
L 1606 56 
L 191 3500 
L 800 3500 
L 1894 763 
L 2988 3500 
L 3597 3500 
L 2059 -325 
z
" transform="scale(0.015625)"/>
      <path id="DejaVuSans-6f" d="M 1959 3097 
Q 1497 3097 1228 2736 
Q 959 2375 959 1747 
Q 959 1119 1226 758 
Q 1494 397 1959 397 
Q 2419 397 2687 759 
Q 2956 1122 2956 1747 
Q 2956 2369 2687 2733 
Q 2419 3097 1959 3097 
z
M 1959 3584 
Q 2709 3584 3137 3096 
Q 3566 2609 3566 1747 
Q 3566 888 3137 398 
Q 2709 -91 1959 -91 
Q 1206 -91 779 398 
Q 353 888 353 1747 
Q 353 2609 779 3096 
Q 1206 3584 1959 3584 
z
" transform="scale(0.015625)"/>
      <path id="DejaVuSans-69" d="M 603 3500 
L 1178 3500 
L 1178 0 
L 603 0 
L 603 3500 
z
M 603 4863 
L 1178 4863 
L 1178 4134 
L 603 4134 
L 603 4863 
z
" transform="scale(0.015625)"/>
      <path id="DejaVuSans-6e" d="M 3513 2113 
L 3513 0 
L 2938 0 
L 2938 2094 
Q 2938 2591 2744 2837 
Q 2550 3084 2163 3084 
Q 1697 3084 1428 2787 
Q 1159 2491 1159 1978 
L 1159 0 
L 581 0 
L 581 3500 
L 1159 3500 
L 1159 2956 
Q 1366 3272 1645 3428 
Q 1925 3584 2291 3584 
Q 2894 3584 3203 3211 
Q 3513 2838 3513 2113 
z
" transform="scale(0.015625)"/>
      <path id="DejaVuSans-78" d="M 3513 3500 
L 2247 1797 
L 3578 0 
L 2900 0 
L 1881 1375 
L 863 0 
L 184 0 
L 1544 1831 
L 300 3500 
L 978 3500 
L 1906 2253 
L 2834 3500 
L 3513 3500 
z
" transform="scale(0.015625)"/>
      <path id="DejaVuSans-6c" d="M 603 4863 
L 1178 4863 
L 1178 0 
L 603 0 
L 603 4863 
z
" transform="scale(0.015625)"/>
      <path id="DejaVuSans-70" d="M 1159 525 
L 1159 -1331 
L 581 -1331 
L 581 3500 
L 1159 3500 
L 1159 2969 
Q 1341 3281 1617 3432 
Q 1894 3584 2278 3584 
Q 2916 3584 3314 3078 
Q 3713 2572 3713 1747 
Q 3713 922 3314 415 
Q 2916 -91 2278 -91 
Q 1894 -91 1617 61 
Q 1341 213 1159 525 
z
M 3116 1747 
Q 3116 2381 2855 2742 
Q 2594 3103 2138 3103 
Q 1681 3103 1420 2742 
Q 1159 2381 1159 1747 
Q 1159 1113 1420 752 
Q 1681 391 2138 391 
Q 2594 391 2855 752 
Q 3116 1113 3116 1747 
z
" transform="scale(0.015625)"/>
      <path id="DejaVuSans-2192" d="M 5050 2147 
L 5050 1866 
L 3822 638 
L 3447 1013 
L 4175 1741 
L 366 1741 
L 366 2272 
L 4175 2272 
L 3447 3000 
L 3822 3375 
L 5050 2147 
z
" transform="scale(0.015625)"/>
      <path id="DejaVuSans-2245" d="M 4684 3803 
L 4684 3247 
Q 4356 3000 4076 2892 
Q 3797 2784 3494 2784 
Q 3150 2784 2694 2969 
L 2641 2991 
Q 2622 2997 2575 3016 
Q 2091 3206 1797 3206 
Q 1522 3206 1253 3087 
Q 984 2969 678 2709 
L 678 3266 
Q 1006 3509 1286 3617 
Q 1566 3725 1869 3725 
Q 2213 3725 2672 3541 
L 2719 3522 
L 2788 3500 
Q 3272 3303 3566 3303 
Q 3834 3303 4098 3420 
Q 4363 3538 4684 3803 
z
M 678 2272 
L 4684 2272 
L 4684 1741 
L 678 1741 
L 678 2272 
z
M 678 1106 
L 4684 1106 
L 4684 575 
L 678 575 
L 678 1106 
z
" transform="scale(0.015625)"/>
      <path id="DejaVuSans-56" d="M 1831 0 
L 50 4666 
L 709 4666 
L 2188 738 
L 3669 4666 
L 4325 4666 
L 2547 0 
L 1831 0 
z
" transform="scale(0.015625)"/>
      <path id="DejaVuSans-2f" d="M 1625 4666 
L 2156 4666 
L 531 -594 
L 0 -594 
L 1625 4666 
z
" transform="scale(0.015625)"/>
      <path id="DejaVuSans-55" d="M 556 4666 
L 1191 4666 
L 1191 1831 
Q 1191 1081 1462 751 
Q 1734 422 2344 422 
Q 2950 422 3222 751 
Q 3494 1081 3494 1831 
L 3494 4666 
L 4128 4666 
L 4128 1753 
Q 4128 841 3676 375 
Q 3225 -91 2344 -91 
Q 1459 -91 1007 375 
Q 556 841 556 1753 
L 556 4666 
z
" transform="scale(0.015625)"/>
     </defs>
     <use xlink:href="#DejaVuSans-65"/>
     <use xlink:href="#DejaVuSans-61" transform="translate(61.523438 0)"/>
     <use xlink:href="#DejaVuSans-63" transform="translate(122.802734 0)"/>
     <use xlink:href="#DejaVuSans-68" transform="translate(177.783203 0)"/>
     <use xlink:href="#DejaVuSans-20" transform="translate(241.162109 0)"/>
     <use xlink:href="#DejaVuSans-57" transform="translate(272.949219 0)"/>
     <use xlink:href="#DejaVuSans-20" transform="translate(371.826172 0)"/>
     <use xlink:href="#DejaVuSans-6d" transform="translate(403.613281 0)"/>
     <use xlink:href="#DejaVuSans-65" transform="translate(501.025391 0)"/>
     <use xlink:href="#DejaVuSans-65" transform="translate(562.548828 0)"/>
     <use xlink:href="#DejaVuSans-74" transform="translate(624.072266 0)"/>
     <use xlink:href="#DejaVuSans-73" transform="translate(663.28125 0)"/>
     <use xlink:href="#DejaVuSans-20" transform="translate(715.380859 0)"/>
     <use xlink:href="#DejaVuSans-65" transform="translate(747.167969 0)"/>
     <use xlink:href="#DejaVuSans-76" transform="translate(808.691406 0)"/>
     <use xlink:href="#DejaVuSans-65" transform="translate(867.871094 0)"/>
     <use xlink:href="#DejaVuSans-72" transform="translate(929.394531 0)"/>
     <use xlink:href="#DejaVuSans-79" transform="translate(970.507812 0)"/>
     <use xlink:href="#DejaVuSans-20" transform="translate(1029.6875 0)"/>
     <use xlink:href="#DejaVuSans-63" transform="translate(1061.474609 0)"/>
     <use xlink:href="#DejaVuSans-6f" transform="translate(1116.455078 0)"/>
     <use xlink:href="#DejaVuSans-73" transform="translate(1177.636719 0)"/>
     <use xlink:href="#DejaVuSans-65" transform="translate(1229.736328 0)"/>
     <use xlink:href="#DejaVuSans-74" transform="translate(1291.259766 0)"/>
     <use xlink:href="#DejaVuSans-20" transform="translate(1330.46875 0)"/>
     <use xlink:href="#DejaVuSans-69" transform="translate(1362.255859 0)"/>
     <use xlink:href="#DejaVuSans-6e" transform="translate(1390.039062 0)"/>
     <use xlink:href="#DejaVuSans-20" transform="translate(1453.417969 0)"/>
     <use xlink:href="#DejaVuSans-65" transform="translate(1485.205078 0)"/>
     <use xlink:href="#DejaVuSans-78" transform="translate(1544.978516 0)"/>
     <use xlink:href="#DejaVuSans-61" transform="translate(1604.158203 0)"/>
     <use xlink:href="#DejaVuSans-63" transform="translate(1665.4375 0)"/>
     <use xlink:href="#DejaVuSans-74" transform="translate(1720.417969 0)"/>
     <use xlink:href="#DejaVuSans-6c" transform="translate(1759.626953 0)"/>
     <use xlink:href="#DejaVuSans-79" transform="translate(1787.410156 0)"/>
     <use xlink:href="#DejaVuSans-20" transform="translate(1846.589844 0)"/>
     <use xlink:href="#DejaVuSans-6f" transform="translate(1878.376953 0)"/>
     <use xlink:href="#DejaVuSans-6e" transform="translate(1939.558594 0)"/>
     <use xlink:href="#DejaVuSans-65" transform="translate(2002.9375 0)"/>
     <use xlink:href="#DejaVuSans-20" transform="translate(2064.460938 0)"/>
     <use xlink:href="#DejaVuSans-70" transform="translate(2096.248047 0)"/>
     <use xlink:href="#DejaVuSans-6f" transform="translate(2159.724609 0)"/>
     <use xlink:href="#DejaVuSans-69" transform="translate(2220.90625 0)"/>
     <use xlink:href="#DejaVuSans-6e" transform="translate(2248.689453 0)"/>
     <use xlink:href="#DejaVuSans-74" transform="translate(2312.068359 0)"/>
     <use xlink:href="#DejaVuSans-20" transform="translate(2351.277344 0)"/>
     <use xlink:href="#DejaVuSans-2192" transform="translate(2383.064453 0)"/>
     <use xlink:href="#DejaVuSans-20" transform="translate(2466.853516 0)"/>
     <use xlink:href="#DejaVuSans-57" transform="translate(2498.640625 0)"/>
     <use xlink:href="#DejaVuSans-20" transform="translate(2597.517578 0)"/>
     <use xlink:href="#DejaVuSans-2245" transform="translate(2629.304688 0)"/>
     <use xlink:href="#DejaVuSans-20" transform="translate(2713.09375 0)"/>
     <use xlink:href="#DejaVuSans-56" transform="translate(2744.880859 0)"/>
     <use xlink:href="#DejaVuSans-2f" transform="translate(2813.289062 0)"/>
     <use xlink:href="#DejaVuSans-55" transform="translate(2846.980469 0)"/>
    </g>
    <!-- the quotient itself is canonical; the complement is a choice -->
    <g style="fill: #444444" transform="translate(31.486562 328.558125) scale(0.1 -0.1)">
     <defs>
      <path id="DejaVuSans-71" d="M 947 1747 
Q 947 1113 1208 752 
Q 1469 391 1925 391 
Q 2381 391 2643 752 
Q 2906 1113 2906 1747 
Q 2906 2381 2643 2742 
Q 2381 3103 1925 3103 
Q 1469 3103 1208 2742 
Q 947 2381 947 1747 
z
M 2906 525 
Q 2725 213 2448 61 
Q 2172 -91 1784 -91 
Q 1150 -91 751 415 
Q 353 922 353 1747 
Q 353 2572 751 3078 
Q 1150 3584 1784 3584 
Q 2172 3584 2448 3432 
Q 2725 3281 2906 2969 
L 2906 3500 
L 3481 3500 
L 3481 -1331 
L 2906 -1331 
L 2906 525 
z
" transform="scale(0.015625)"/>
      <path id="DejaVuSans-75" d="M 544 1381 
L 544 3500 
L 1119 3500 
L 1119 1403 
Q 1119 906 1312 657 
Q 1506 409 1894 409 
Q 2359 409 2629 706 
Q 2900 1003 2900 1516 
L 2900 3500 
L 3475 3500 
L 3475 0 
L 2900 0 
L 2900 538 
Q 2691 219 2414 64 
Q 2138 -91 1772 -91 
Q 1169 -91 856 284 
Q 544 659 544 1381 
z
M 1991 3584 
L 1991 3584 
z
" transform="scale(0.015625)"/>
      <path id="DejaVuSans-66" d="M 2375 4863 
L 2375 4384 
L 1825 4384 
Q 1516 4384 1395 4259 
Q 1275 4134 1275 3809 
L 1275 3500 
L 2222 3500 
L 2222 3053 
L 1275 3053 
L 1275 0 
L 697 0 
L 697 3053 
L 147 3053 
L 147 3500 
L 697 3500 
L 697 3744 
Q 697 4328 969 4595 
Q 1241 4863 1831 4863 
L 2375 4863 
z
" transform="scale(0.015625)"/>
      <path id="DejaVuSans-3b" d="M 750 3309 
L 1409 3309 
L 1409 2516 
L 750 2516 
L 750 3309 
z
M 750 794 
L 1409 794 
L 1409 256 
L 897 -744 
L 494 -744 
L 750 256 
L 750 794 
z
" transform="scale(0.015625)"/>
     </defs>
     <use xlink:href="#DejaVuSans-74"/>
     <use xlink:href="#DejaVuSans-68" transform="translate(39.208984 0)"/>
     <use xlink:href="#DejaVuSans-65" transform="translate(102.587891 0)"/>
     <use xlink:href="#DejaVuSans-20" transform="translate(164.111328 0)"/>
     <use xlink:href="#DejaVuSans-71" transform="translate(195.898438 0)"/>
     <use xlink:href="#DejaVuSans-75" transform="translate(259.375 0)"/>
     <use xlink:href="#DejaVuSans-6f" transform="translate(322.753906 0)"/>
     <use xlink:href="#DejaVuSans-74" transform="translate(383.935547 0)"/>
     <use xlink:href="#DejaVuSans-69" transform="translate(423.144531 0)"/>
     <use xlink:href="#DejaVuSans-65" transform="translate(450.927734 0)"/>
     <use xlink:href="#DejaVuSans-6e" transform="translate(512.451172 0)"/>
     <use xlink:href="#DejaVuSans-74" transform="translate(575.830078 0)"/>
     <use xlink:href="#DejaVuSans-20" transform="translate(615.039062 0)"/>
     <use xlink:href="#DejaVuSans-69" transform="translate(646.826172 0)"/>
     <use xlink:href="#DejaVuSans-74" transform="translate(674.609375 0)"/>
     <use xlink:href="#DejaVuSans-73" transform="translate(713.818359 0)"/>
     <use xlink:href="#DejaVuSans-65" transform="translate(765.917969 0)"/>
     <use xlink:href="#DejaVuSans-6c" transform="translate(827.441406 0)"/>
     <use xlink:href="#DejaVuSans-66" transform="translate(855.224609 0)"/>
     <use xlink:href="#DejaVuSans-20" transform="translate(890.429688 0)"/>
     <use xlink:href="#DejaVuSans-69" transform="translate(922.216797 0)"/>
     <use xlink:href="#DejaVuSans-73" transform="translate(950 0)"/>
     <use xlink:href="#DejaVuSans-20" transform="translate(1002.099609 0)"/>
     <use xlink:href="#DejaVuSans-63" transform="translate(1033.886719 0)"/>
     <use xlink:href="#DejaVuSans-61" transform="translate(1088.867188 0)"/>
     <use xlink:href="#DejaVuSans-6e" transform="translate(1150.146484 0)"/>
     <use xlink:href="#DejaVuSans-6f" transform="translate(1213.525391 0)"/>
     <use xlink:href="#DejaVuSans-6e" transform="translate(1274.707031 0)"/>
     <use xlink:href="#DejaVuSans-69" transform="translate(1338.085938 0)"/>
     <use xlink:href="#DejaVuSans-63" transform="translate(1365.869141 0)"/>
     <use xlink:href="#DejaVuSans-61" transform="translate(1420.849609 0)"/>
     <use xlink:href="#DejaVuSans-6c" transform="translate(1482.128906 0)"/>
     <use xlink:href="#DejaVuSans-3b" transform="translate(1509.912109 0)"/>
     <use xlink:href="#DejaVuSans-20" transform="translate(1543.603516 0)"/>
     <use xlink:href="#DejaVuSans-74" transform="translate(1575.390625 0)"/>
     <use xlink:href="#DejaVuSans-68" transform="translate(1614.599609 0)"/>
     <use xlink:href="#DejaVuSans-65" transform="translate(1677.978516 0)"/>
     <use xlink:href="#DejaVuSans-20" transform="translate(1739.501953 0)"/>
     <use xlink:href="#DejaVuSans-63" transform="translate(1771.289062 0)"/>
     <use xlink:href="#DejaVuSans-6f" transform="translate(1826.269531 0)"/>
     <use xlink:href="#DejaVuSans-6d" transform="translate(1887.451172 0)"/>
     <use xlink:href="#DejaVuSans-70" transform="translate(1984.863281 0)"/>
     <use xlink:href="#DejaVuSans-6c" transform="translate(2048.339844 0)"/>
     <use xlink:href="#DejaVuSans-65" transform="translate(2076.123047 0)"/>
     <use xlink:href="#DejaVuSans-6d" transform="translate(2137.646484 0)"/>
     <use xlink:href="#DejaVuSans-65" transform="translate(2235.058594 0)"/>
     <use xlink:href="#DejaVuSans-6e" transform="translate(2296.582031 0)"/>
     <use xlink:href="#DejaVuSans-74" transform="translate(2359.960938 0)"/>
     <use xlink:href="#DejaVuSans-20" transform="translate(2399.169922 0)"/>
     <use xlink:href="#DejaVuSans-69" transform="translate(2430.957031 0)"/>
     <use xlink:href="#DejaVuSans-73" transform="translate(2458.740234 0)"/>
     <use xlink:href="#DejaVuSans-20" transform="translate(2510.839844 0)"/>
     <use xlink:href="#DejaVuSans-61" transform="translate(2542.626953 0)"/>
     <use xlink:href="#DejaVuSans-20" transform="translate(2603.90625 0)"/>
     <use xlink:href="#DejaVuSans-63" transform="translate(2635.693359 0)"/>
     <use xlink:href="#DejaVuSans-68" transform="translate(2690.673828 0)"/>
     <use xlink:href="#DejaVuSans-6f" transform="translate(2754.052734 0)"/>
     <use xlink:href="#DejaVuSans-69" transform="translate(2815.234375 0)"/>
     <use xlink:href="#DejaVuSans-63" transform="translate(2843.017578 0)"/>
     <use xlink:href="#DejaVuSans-65" transform="translate(2897.998047 0)"/>
    </g>
   </g>
   <g id="text_7">
    <!-- the same quotient — many different complements of U -->
    <g transform="translate(13.317188 16.318125) scale(0.12 -0.12)">
     <defs>
      <path id="DejaVuSans-Oblique-74" d="M 2706 3500 
L 2619 3053 
L 1472 3053 
L 1100 1153 
Q 1081 1047 1072 975 
Q 1063 903 1063 863 
Q 1063 663 1183 572 
Q 1303 481 1569 481 
L 2150 481 
L 2053 0 
L 1503 0 
Q 991 0 739 200 
Q 488 400 488 806 
Q 488 878 497 964 
Q 506 1050 525 1153 
L 897 3053 
L 409 3053 
L 500 3500 
L 978 3500 
L 1172 4494 
L 1747 4494 
L 1556 3500 
L 2706 3500 
z
" transform="scale(0.015625)"/>
      <path id="DejaVuSans-Oblique-68" d="M 3566 2113 
L 3156 0 
L 2578 0 
L 2988 2091 
Q 3016 2238 3031 2350 
Q 3047 2463 3047 2528 
Q 3047 2791 2881 2937 
Q 2716 3084 2419 3084 
Q 1956 3084 1617 2771 
Q 1278 2459 1178 1941 
L 800 0 
L 225 0 
L 1172 4863 
L 1747 4863 
L 1375 2950 
Q 1594 3244 1934 3414 
Q 2275 3584 2650 3584 
Q 3113 3584 3367 3334 
Q 3622 3084 3622 2631 
Q 3622 2519 3608 2391 
Q 3594 2263 3566 2113 
z
" transform="scale(0.015625)"/>
      <path id="DejaVuSans-Oblique-65" d="M 3078 2063 
Q 3088 2113 3092 2166 
Q 3097 2219 3097 2272 
Q 3097 2653 2873 2875 
Q 2650 3097 2266 3097 
Q 1838 3097 1509 2826 
Q 1181 2556 1013 2059 
L 3078 2063 
z
M 3578 1613 
L 903 1613 
Q 884 1494 878 1425 
Q 872 1356 872 1306 
Q 872 872 1139 634 
Q 1406 397 1894 397 
Q 2269 397 2603 481 
Q 2938 566 3225 728 
L 3116 159 
Q 2806 34 2476 -28 
Q 2147 -91 1806 -91 
Q 1078 -91 686 257 
Q 294 606 294 1247 
Q 294 1794 489 2264 
Q 684 2734 1063 3103 
Q 1306 3334 1642 3459 
Q 1978 3584 2356 3584 
Q 2950 3584 3301 3228 
Q 3653 2872 3653 2272 
Q 3653 2128 3634 1964 
Q 3616 1800 3578 1613 
z
" transform="scale(0.015625)"/>
      <path id="DejaVuSans-Oblique-6d" d="M 5747 2113 
L 5338 0 
L 4763 0 
L 5166 2094 
Q 5191 2228 5203 2325 
Q 5216 2422 5216 2491 
Q 5216 2772 5059 2928 
Q 4903 3084 4622 3084 
Q 4203 3084 3875 2770 
Q 3547 2456 3450 1953 
L 3066 0 
L 2491 0 
L 2900 2094 
Q 2925 2209 2937 2307 
Q 2950 2406 2950 2484 
Q 2950 2769 2794 2926 
Q 2638 3084 2363 3084 
Q 1938 3084 1609 2770 
Q 1281 2456 1184 1953 
L 800 0 
L 225 0 
L 909 3500 
L 1484 3500 
L 1375 2956 
Q 1609 3263 1923 3423 
Q 2238 3584 2597 3584 
Q 2978 3584 3223 3384 
Q 3469 3184 3519 2828 
Q 3781 3197 4126 3390 
Q 4472 3584 4856 3584 
Q 5306 3584 5551 3325 
Q 5797 3066 5797 2591 
Q 5797 2488 5784 2364 
Q 5772 2241 5747 2113 
z
" transform="scale(0.015625)"/>
      <path id="DejaVuSans-Oblique-71" d="M 2669 525 
Q 2438 222 2123 65 
Q 1809 -91 1428 -91 
Q 897 -91 595 267 
Q 294 625 294 1253 
Q 294 1759 480 2231 
Q 666 2703 1013 3078 
Q 1238 3322 1530 3453 
Q 1822 3584 2144 3584 
Q 2531 3584 2781 3431 
Q 3031 3278 3144 2969 
L 3244 3494 
L 3822 3494 
L 2888 -1319 
L 2309 -1319 
L 2669 525 
z
M 891 1338 
Q 891 875 1084 633 
Q 1278 391 1644 391 
Q 2188 391 2572 911 
Q 2956 1431 2956 2175 
Q 2956 2625 2757 2864 
Q 2559 3103 2188 3103 
Q 1916 3103 1684 2976 
Q 1453 2850 1281 2606 
Q 1100 2350 995 2006 
Q 891 1663 891 1338 
z
" transform="scale(0.015625)"/>
      <path id="DejaVuSans-Oblique-75" d="M 428 1388 
L 838 3500 
L 1416 3500 
L 1006 1409 
Q 975 1256 961 1147 
Q 947 1038 947 966 
Q 947 700 1109 554 
Q 1272 409 1569 409 
Q 2031 409 2368 721 
Q 2706 1034 2809 1563 
L 3194 3500 
L 3769 3500 
L 3091 0 
L 2516 0 
L 2631 550 
Q 2388 244 2052 76 
Q 1716 -91 1338 -91 
Q 878 -91 622 161 
Q 366 413 366 863 
Q 366 956 381 1097 
Q 397 1238 428 1388 
z
" transform="scale(0.015625)"/>
      <path id="DejaVuSans-Oblique-6f" d="M 1625 -91 
Q 1009 -91 651 289 
Q 294 669 294 1325 
Q 294 1706 417 2101 
Q 541 2497 738 2766 
Q 1047 3184 1428 3384 
Q 1809 3584 2291 3584 
Q 2888 3584 3255 3212 
Q 3622 2841 3622 2241 
Q 3622 1825 3500 1412 
Q 3378 1000 3181 728 
Q 2875 309 2494 109 
Q 2113 -91 1625 -91 
z
M 891 1344 
Q 891 869 1089 633 
Q 1288 397 1691 397 
Q 2269 397 2648 901 
Q 3028 1406 3028 2181 
Q 3028 2634 2825 2865 
Q 2622 3097 2228 3097 
Q 1903 3097 1650 2945 
Q 1397 2794 1197 2484 
Q 1050 2253 970 1956 
Q 891 1659 891 1344 
z
" transform="scale(0.015625)"/>
      <path id="DejaVuSans-Oblique-6e" d="M 3566 2113 
L 3156 0 
L 2578 0 
L 2988 2091 
Q 3016 2238 3031 2350 
Q 3047 2463 3047 2528 
Q 3047 2791 2881 2937 
Q 2716 3084 2419 3084 
Q 1956 3084 1622 2776 
Q 1288 2469 1184 1941 
L 800 0 
L 225 0 
L 903 3500 
L 1478 3500 
L 1363 2950 
Q 1603 3253 1940 3418 
Q 2278 3584 2650 3584 
Q 3113 3584 3367 3334 
Q 3622 3084 3622 2631 
Q 3622 2519 3608 2391 
Q 3594 2263 3566 2113 
z
" transform="scale(0.015625)"/>
      <path id="DejaVuSans-Oblique-2014" d="M 356 1978 
L 6131 1978 
L 6044 1528 
L 269 1528 
L 356 1978 
z
" transform="scale(0.015625)"/>
      <path id="DejaVuSans-Oblique-64" d="M 2675 525 
Q 2444 222 2128 65 
Q 1813 -91 1428 -91 
Q 903 -91 598 267 
Q 294 625 294 1247 
Q 294 1766 478 2236 
Q 663 2706 1013 3078 
Q 1244 3325 1534 3454 
Q 1825 3584 2144 3584 
Q 2481 3584 2739 3421 
Q 2997 3259 3138 2956 
L 3513 4863 
L 4091 4863 
L 3144 0 
L 2566 0 
L 2675 525 
z
M 891 1350 
Q 891 897 1095 644 
Q 1300 391 1663 391 
Q 1931 391 2161 520 
Q 2391 650 2566 903 
Q 2750 1166 2856 1509 
Q 2963 1853 2963 2188 
Q 2963 2622 2758 2865 
Q 2553 3109 2194 3109 
Q 1922 3109 1687 2981 
Q 1453 2853 1288 2613 
Q 1106 2353 998 2009 
Q 891 1666 891 1350 
z
" transform="scale(0.015625)"/>
      <path id="DejaVuSans-Oblique-66" d="M 3059 4863 
L 2969 4384 
L 2419 4384 
Q 2106 4384 1964 4261 
Q 1822 4138 1753 3809 
L 1691 3500 
L 2638 3500 
L 2553 3053 
L 1606 3053 
L 1013 0 
L 434 0 
L 1031 3053 
L 481 3053 
L 563 3500 
L 1113 3500 
L 1159 3744 
Q 1278 4363 1576 4613 
Q 1875 4863 2516 4863 
L 3059 4863 
z
" transform="scale(0.015625)"/>
      <path id="DejaVuSans-Oblique-72" d="M 2853 2969 
Q 2766 3016 2653 3041 
Q 2541 3066 2413 3066 
Q 1953 3066 1609 2717 
Q 1266 2369 1153 1784 
L 800 0 
L 225 0 
L 909 3500 
L 1484 3500 
L 1375 2956 
Q 1603 3259 1920 3421 
Q 2238 3584 2597 3584 
Q 2691 3584 2781 3573 
Q 2872 3563 2963 3538 
L 2853 2969 
z
" transform="scale(0.015625)"/>
      <path id="DejaVuSans-Oblique-63" d="M 3431 3366 
L 3316 2797 
Q 3109 2947 2876 3022 
Q 2644 3097 2394 3097 
Q 2119 3097 1870 3000 
Q 1622 2903 1453 2725 
Q 1184 2453 1037 2087 
Q 891 1722 891 1331 
Q 891 859 1127 628 
Q 1363 397 1844 397 
Q 2081 397 2348 469 
Q 2616 541 2906 684 
L 2797 116 
Q 2547 13 2283 -39 
Q 2019 -91 1741 -91 
Q 1044 -91 669 257 
Q 294 606 294 1253 
Q 294 1797 489 2255 
Q 684 2713 1069 3078 
Q 1331 3328 1684 3456 
Q 2038 3584 2456 3584 
Q 2700 3584 2940 3529 
Q 3181 3475 3431 3366 
z
" transform="scale(0.015625)"/>
      <path id="DejaVuSans-Oblique-70" d="M 3175 2156 
Q 3175 2616 2975 2859 
Q 2775 3103 2400 3103 
Q 2144 3103 1911 2972 
Q 1678 2841 1497 2591 
Q 1319 2344 1212 1994 
Q 1106 1644 1106 1300 
Q 1106 863 1306 627 
Q 1506 391 1875 391 
Q 2147 391 2380 519 
Q 2613 647 2778 891 
Q 2956 1147 3065 1494 
Q 3175 1841 3175 2156 
z
M 1394 2969 
Q 1625 3272 1939 3428 
Q 2253 3584 2638 3584 
Q 3175 3584 3472 3232 
Q 3769 2881 3769 2247 
Q 3769 1728 3584 1258 
Q 3400 788 3053 416 
Q 2822 169 2531 39 
Q 2241 -91 1919 -91 
Q 1547 -91 1294 64 
Q 1041 219 916 525 
L 556 -1331 
L -19 -1331 
L 922 3500 
L 1497 3500 
L 1394 2969 
z
" transform="scale(0.015625)"/>
      <path id="DejaVuSans-Oblique-6c" d="M 1172 4863 
L 1747 4863 
L 800 0 
L 225 0 
L 1172 4863 
z
" transform="scale(0.015625)"/>
     </defs>
     <use xlink:href="#DejaVuSans-Oblique-74"/>
     <use xlink:href="#DejaVuSans-Oblique-68" transform="translate(39.208984 0)"/>
     <use xlink:href="#DejaVuSans-Oblique-65" transform="translate(102.587891 0)"/>
     <use xlink:href="#DejaVuSans-Oblique-20" transform="translate(164.111328 0)"/>
     <use xlink:href="#DejaVuSans-Oblique-73" transform="translate(195.898438 0)"/>
     <use xlink:href="#DejaVuSans-Oblique-61" transform="translate(247.998047 0)"/>
     <use xlink:href="#DejaVuSans-Oblique-6d" transform="translate(309.277344 0)"/>
     <use xlink:href="#DejaVuSans-Oblique-65" transform="translate(406.689453 0)"/>
     <use xlink:href="#DejaVuSans-Oblique-20" transform="translate(468.212891 0)"/>
     <use xlink:href="#DejaVuSans-Oblique-71" transform="translate(500 0)"/>
     <use xlink:href="#DejaVuSans-Oblique-75" transform="translate(563.476562 0)"/>
     <use xlink:href="#DejaVuSans-Oblique-6f" transform="translate(626.855469 0)"/>
     <use xlink:href="#DejaVuSans-Oblique-74" transform="translate(688.037109 0)"/>
     <use xlink:href="#DejaVuSans-Oblique-69" transform="translate(727.246094 0)"/>
     <use xlink:href="#DejaVuSans-Oblique-65" transform="translate(755.029297 0)"/>
     <use xlink:href="#DejaVuSans-Oblique-6e" transform="translate(816.552734 0)"/>
     <use xlink:href="#DejaVuSans-Oblique-74" transform="translate(879.931641 0)"/>
     <use xlink:href="#DejaVuSans-Oblique-20" transform="translate(919.140625 0)"/>
     <use xlink:href="#DejaVuSans-Oblique-2014" transform="translate(950.927734 0)"/>
     <use xlink:href="#DejaVuSans-Oblique-20" transform="translate(1050.927734 0)"/>
     <use xlink:href="#DejaVuSans-Oblique-6d" transform="translate(1082.714844 0)"/>
     <use xlink:href="#DejaVuSans-Oblique-61" transform="translate(1180.126953 0)"/>
     <use xlink:href="#DejaVuSans-Oblique-6e" transform="translate(1241.40625 0)"/>
     <use xlink:href="#DejaVuSans-Oblique-79" transform="translate(1304.785156 0)"/>
     <use xlink:href="#DejaVuSans-Oblique-20" transform="translate(1363.964844 0)"/>
     <use xlink:href="#DejaVuSans-Oblique-64" transform="translate(1395.751953 0)"/>
     <use xlink:href="#DejaVuSans-Oblique-69" transform="translate(1459.228516 0)"/>
     <use xlink:href="#DejaVuSans-Oblique-66" transform="translate(1487.011719 0)"/>
     <use xlink:href="#DejaVuSans-Oblique-66" transform="translate(1522.216797 0)"/>
     <use xlink:href="#DejaVuSans-Oblique-65" transform="translate(1557.421875 0)"/>
     <use xlink:href="#DejaVuSans-Oblique-72" transform="translate(1618.945312 0)"/>
     <use xlink:href="#DejaVuSans-Oblique-65" transform="translate(1660.058594 0)"/>
     <use xlink:href="#DejaVuSans-Oblique-6e" transform="translate(1721.582031 0)"/>
     <use xlink:href="#DejaVuSans-Oblique-74" transform="translate(1784.960938 0)"/>
     <use xlink:href="#DejaVuSans-Oblique-20" transform="translate(1824.169922 0)"/>
     <use xlink:href="#DejaVuSans-Oblique-63" transform="translate(1855.957031 0)"/>
     <use xlink:href="#DejaVuSans-Oblique-6f" transform="translate(1910.9375 0)"/>
     <use xlink:href="#DejaVuSans-Oblique-6d" transform="translate(1972.119141 0)"/>
     <use xlink:href="#DejaVuSans-Oblique-70" transform="translate(2069.53125 0)"/>
     <use xlink:href="#DejaVuSans-Oblique-6c" transform="translate(2133.007812 0)"/>
     <use xlink:href="#DejaVuSans-Oblique-65" transform="translate(2160.791016 0)"/>
     <use xlink:href="#DejaVuSans-Oblique-6d" transform="translate(2222.314453 0)"/>
     <use xlink:href="#DejaVuSans-Oblique-65" transform="translate(2319.726562 0)"/>
     <use xlink:href="#DejaVuSans-Oblique-6e" transform="translate(2381.25 0)"/>
     <use xlink:href="#DejaVuSans-Oblique-74" transform="translate(2444.628906 0)"/>
     <use xlink:href="#DejaVuSans-Oblique-73" transform="translate(2483.837891 0)"/>
     <use xlink:href="#DejaVuSans-Oblique-20" transform="translate(2535.9375 0)"/>
     <use xlink:href="#DejaVuSans-Oblique-6f" transform="translate(2567.724609 0)"/>
     <use xlink:href="#DejaVuSans-Oblique-66" transform="translate(2628.90625 0)"/>
     <use xlink:href="#DejaVuSans-Oblique-20" transform="translate(2664.111328 0)"/>
     <use xlink:href="#DejaVuSans-Oblique-55" transform="translate(2695.898438 0)"/>
    </g>
   </g>
  </g>
 </g>
 <defs>
  <clipPath id="p11dd8a28d3">
   <rect x="7.2" y="22.318125" width="344.52" height="321.552"/>
  </clipPath>
 </defs>
</svg>
