<?xml version="1.0" encoding="utf-8" standalone="no"?>
<!DOCTYPE svg PUBLIC "-//W3C//DTD SVG 1.1//EN"
  "http://www.w3.org/Graphics/SVG/1.1/DTD/svg11.dtd">
<svg xmlns:xlink="http://www.w3.org/1999/xlink" width="410.4pt" height="326.617813pt" viewBox="0 0 410.4 326.617813" xmlns="http://www.w3.org/2000/svg" version="1.1">
 <metadata>
  <rdf:RDF xmlns:dc="http://purl.org/dc/elements/1.1/" xmlns:cc="http://creativecommons.org/ns#" xmlns:rdf="http://www.w3.org/1999/02/22-rdf-syntax-ns#">
   <cc:Work>
    <dc:type rdf:resource="http://purl.org/dc/dcmitype/StillImage"/>
    <dc:date>2026-05-16T20:53:45.763845</dc:date>
    <dc:format>image/svg+xml</dc:format>
    <dc:creator>
     <cc:Agent>
      <dc:title>Matplotlib v3.10.8, https://matplotlib.org/</dc:title>
     </cc:Agent>
    </dc:creator>
   </cc:Work>
  </rdf:RDF>
 </metadata>
 <defs>
  <style type="text/css">*{stroke-linejoin: round; stroke-linecap: butt}</style>
 </defs>
 <g id="figure_1">
  <g id="patch_1">
   <path d="M 0 326.617813 
L 410.4 326.617813 
L 410.4 0 
L 0 0 
z
" style="fill: #ffffff"/>
  </g>
  <g id="axes_1">
   <g id="patch_2">
    <path d="M 7.2 299.518125 
L 403.2 299.518125 
L 403.2 22.318125 
L 7.2 22.318125 
z
" style="fill: #ffffff"/>
   </g>
   <g id="patch_3">
    <path d="M 27 279.718125 
L 383.4 279.718125 
L 383.4 42.118125 
L 27 42.118125 
z
" clip-path="url(#p2d3f0dfc0a)" style="fill: #fff3d6; opacity: 0.7; stroke: #a07a30; stroke-width: 1.3; stroke-linejoin: miter"/>
   </g>
   <g id="patch_4">
    <path d="M 66.6 240.118125 
L 284.4 259.918125 
L 343.8 180.718125 
L 126 160.918125 
z
" clip-path="url(#p2d3f0dfc0a)" style="fill: #cfe8c4; opacity: 0.85; stroke: #1a6c1a; stroke-width: 1.3; stroke-linejoin: miter"/>
   </g>
   <g id="patch_5">
    <path d="M 207.170815 181.046594 
Q 240.837633 186.657731 271.526832 191.772597 
" clip-path="url(#p2d3f0dfc0a)" style="fill: none; stroke: #1a6c1a; stroke-width: 2.7; stroke-linecap: round"/>
    <path d="M 266.101666 187.827021 
L 271.526832 191.772597 
L 265.115272 193.745385 
z
" clip-path="url(#p2d3f0dfc0a)" style="fill: #1a6c1a; stroke: #1a6c1a; stroke-width: 2.7; stroke-linecap: round"/>
   </g>
   <g id="patch_6">
    <path d="M 203.286467 180.129346 
Q 179.457715 172.797422 158.514165 166.353253 
" clip-path="url(#p2d3f0dfc0a)" style="fill: none; stroke: #1a6c1a; stroke-width: 2.7; stroke-linecap: round"/>
    <path d="M 163.366581 170.985105 
L 158.514165 166.353253 
L 165.131096 165.250431 
z
" clip-path="url(#p2d3f0dfc0a)" style="fill: #1a6c1a; stroke: #1a6c1a; stroke-width: 2.7; stroke-linecap: round"/>
   </g>
   <g id="patch_7">
    <path d="M 205.366047 178.725557 
Q 209.160084 133.197114 212.703432 90.676937 
" clip-path="url(#p2d3f0dfc0a)" style="fill: none; stroke: #8f4a2a; stroke-width: 2.7; stroke-linecap: round"/>
    <path d="M 209.215522 96.407075 
L 212.703432 90.676937 
L 215.194797 96.905348 
z
" clip-path="url(#p2d3f0dfc0a)" style="fill: #8f4a2a; stroke: #8f4a2a; stroke-width: 2.7; stroke-linecap: round"/>
   </g>
   <g id="matplotlib.axis_1"/>
   <g id="matplotlib.axis_2"/>
   <g id="line2d_1">
    <defs>
     <path id="m5f5064964e" d="M 0 2.5 
C 0.663008 2.5 1.29895 2.236584 1.767767 1.767767 
C 2.236584 1.29895 2.5 0.663008 2.5 0 
C 2.5 -0.663008 2.236584 -1.29895 1.767767 -1.767767 
C 1.29895 -2.236584 0.663008 -2.5 0 -2.5 
C -0.663008 -2.5 -1.29895 -2.236584 -1.767767 -1.767767 
C -2.236584 -1.29895 -2.5 -0.663008 -2.5 0 
C -2.5 0.663008 -2.236584 1.29895 -1.767767 1.767767 
C -1.29895 2.236584 -0.663008 2.5 0 2.5 
z
" style="stroke: #222222"/>
    </defs>
    <g clip-path="url(#p2d3f0dfc0a)">
     <use xlink:href="#m5f5064964e" x="205.2" y="180.718125" style="fill: #222222; stroke: #222222"/>
    </g>
   </g>
   <g id="patch_8">
    <path d="M 7.2 299.518125 
L 7.2 22.318125 
" style="fill: none; stroke: #dddddd; stroke-width: 0.8; stroke-linejoin: miter; stroke-linecap: square"/>
   </g>
   <g id="patch_9">
    <path d="M 403.2 299.518125 
L 403.2 22.318125 
" style="fill: none; stroke: #dddddd; stroke-width: 0.8; stroke-linejoin: miter; stroke-linecap: square"/>
   </g>
   <g id="patch_10">
    <path d="M 7.2 299.518125 
L 403.2 299.518125 
" style="fill: none; stroke: #dddddd; stroke-width: 0.8; stroke-linejoin: miter; stroke-linecap: square"/>
   </g>
   <g id="patch_11">
    <path d="M 7.2 22.318125 
L 403.2 22.318125 
" style="fill: none; stroke: #dddddd; stroke-width: 0.8; stroke-linejoin: miter; stroke-linecap: square"/>
   </g>
   <g id="text_1">
    <!-- V -->
    <g style="fill: #a07a30" transform="translate(362.627188 61.918125) scale(0.13 -0.13)">
     <defs>
      <path id="DejaVuSans-Oblique-56" d="M 1319 0 
L 500 4666 
L 1119 4666 
L 1797 653 
L 4063 4666 
L 4750 4666 
L 2053 0 
L 1319 0 
z
" transform="scale(0.015625)"/>
     </defs>
     <use xlink:href="#DejaVuSans-Oblique-56"/>
    </g>
   </g>
   <g id="text_2">
    <!-- U -->
    <g style="fill: #1a6c1a" transform="translate(78.48 220.318125) scale(0.13 -0.13)">
     <defs>
      <path id="DejaVuSans-Oblique-55" d="M 991 4666 
L 1625 4666 
L 1075 1831 
Q 1041 1641 1027 1517 
Q 1013 1394 1013 1300 
Q 1013 869 1253 645 
Q 1494 422 1959 422 
Q 2563 422 2898 753 
Q 3234 1084 3378 1831 
L 3928 4666 
L 4563 4666 
L 4000 1753 
Q 3816 809 3300 359 
Q 2784 -91 1888 -91 
Q 1188 -91 780 261 
Q 372 613 372 1216 
Q 372 1325 387 1461 
Q 403 1597 434 1753 
L 991 4666 
z
" transform="scale(0.015625)"/>
     </defs>
     <use xlink:href="#DejaVuSans-Oblique-55"/>
    </g>
   </g>
   <g id="text_3">
    <!-- 0 -->
    <g style="fill: #222222" transform="translate(211.14 200.518125) scale(0.11 -0.11)">
     <defs>
      <path id="DejaVuSans-30" d="M 2034 4250 
Q 1547 4250 1301 3770 
Q 1056 3291 1056 2328 
Q 1056 1369 1301 889 
Q 1547 409 2034 409 
Q 2525 409 2770 889 
Q 3016 1369 3016 2328 
Q 3016 3291 2770 3770 
Q 2525 4250 2034 4250 
z
M 2034 4750 
Q 2819 4750 3233 4129 
Q 3647 3509 3647 2328 
Q 3647 1150 3233 529 
Q 2819 -91 2034 -91 
Q 1250 -91 836 529 
Q 422 1150 422 2328 
Q 422 3509 836 4129 
Q 1250 4750 2034 4750 
z
" transform="scale(0.015625)"/>
     </defs>
     <use xlink:href="#DejaVuSans-30"/>
    </g>
   </g>
   <g id="text_4">
    <!-- $e_1$ -->
    <g style="fill: #1a6c1a" transform="translate(280.44 184.678125) scale(0.13 -0.13)">
     <defs>
      <path id="DejaVuSans-Oblique-65" d="M 3078 2063 
Q 3088 2113 3092 2166 
Q 3097 2219 3097 2272 
Q 3097 2653 2873 2875 
Q 2650 3097 2266 3097 
Q 1838 3097 1509 2826 
Q 1181 2556 1013 2059 
L 3078 2063 
z
M 3578 1613 
L 903 1613 
Q 884 1494 878 1425 
Q 872 1356 872 1306 
Q 872 872 1139 634 
Q 1406 397 1894 397 
Q 2269 397 2603 481 
Q 2938 566 3225 728 
L 3116 159 
Q 2806 34 2476 -28 
Q 2147 -91 1806 -91 
Q 1078 -91 686 257 
Q 294 606 294 1247 
Q 294 1794 489 2264 
Q 684 2734 1063 3103 
Q 1306 3334 1642 3459 
Q 1978 3584 2356 3584 
Q 2950 3584 3301 3228 
Q 3653 2872 3653 2272 
Q 3653 2128 3634 1964 
Q 3616 1800 3578 1613 
z
" transform="scale(0.015625)"/>
      <path id="DejaVuSans-31" d="M 794 531 
L 1825 531 
L 1825 4091 
L 703 3866 
L 703 4441 
L 1819 4666 
L 2450 4666 
L 2450 531 
L 3481 531 
L 3481 0 
L 794 0 
L 794 531 
z
" transform="scale(0.015625)"/>
     </defs>
     <use xlink:href="#DejaVuSans-Oblique-65"/>
     <use xlink:href="#DejaVuSans-31" transform="translate(61.523438 -16.40625) scale(0.7)"/>
    </g>
   </g>
   <g id="text_5">
    <!-- $e_2$ -->
    <g style="fill: #1a6c1a" transform="translate(137.88 158.938125) scale(0.13 -0.13)">
     <defs>
      <path id="DejaVuSans-32" d="M 1228 531 
L 3431 531 
L 3431 0 
L 469 0 
L 469 531 
Q 828 903 1448 1529 
Q 2069 2156 2228 2338 
Q 2531 2678 2651 2914 
Q 2772 3150 2772 3378 
Q 2772 3750 2511 3984 
Q 2250 4219 1831 4219 
Q 1534 4219 1204 4116 
Q 875 4013 500 3803 
L 500 4441 
Q 881 4594 1212 4672 
Q 1544 4750 1819 4750 
Q 2544 4750 2975 4387 
Q 3406 4025 3406 3419 
Q 3406 3131 3298 2873 
Q 3191 2616 2906 2266 
Q 2828 2175 2409 1742 
Q 1991 1309 1228 531 
z
" transform="scale(0.015625)"/>
     </defs>
     <use xlink:href="#DejaVuSans-Oblique-65"/>
     <use xlink:href="#DejaVuSans-32" transform="translate(61.523438 -16.40625) scale(0.7)"/>
    </g>
   </g>
   <g id="text_6">
    <!-- $e_3$ -->
    <g style="fill: #8f4a2a" transform="translate(221.04 83.698125) scale(0.13 -0.13)">
     <defs>
      <path id="DejaVuSans-33" d="M 2597 2516 
Q 3050 2419 3304 2112 
Q 3559 1806 3559 1356 
Q 3559 666 3084 287 
Q 2609 -91 1734 -91 
Q 1441 -91 1130 -33 
Q 819 25 488 141 
L 488 750 
Q 750 597 1062 519 
Q 1375 441 1716 441 
Q 2309 441 2620 675 
Q 2931 909 2931 1356 
Q 2931 1769 2642 2001 
Q 2353 2234 1838 2234 
L 1294 2234 
L 1294 2753 
L 1863 2753 
Q 2328 2753 2575 2939 
Q 2822 3125 2822 3475 
Q 2822 3834 2567 4026 
Q 2313 4219 1838 4219 
Q 1578 4219 1281 4162 
Q 984 4106 628 3988 
L 628 4550 
Q 988 4650 1302 4700 
Q 1616 4750 1894 4750 
Q 2613 4750 3031 4423 
Q 3450 4097 3450 3541 
Q 3450 3153 3228 2886 
Q 3006 2619 2597 2516 
z
" transform="scale(0.015625)"/>
     </defs>
     <use xlink:href="#DejaVuSans-Oblique-65"/>
     <use xlink:href="#DejaVuSans-33" transform="translate(61.523438 -16.40625) scale(0.7)"/>
    </g>
   </g>
   <g id="text_7">
    <!-- (e₁, e₂) is a basis of U; adding e₃ extends to a basis of V -->
    <g style="fill: #333333" transform="translate(58.959609 293.578125) scale(0.105 -0.105)">
     <defs>
      <path id="DejaVuSans-28" d="M 1984 4856 
Q 1566 4138 1362 3434 
Q 1159 2731 1159 2009 
Q 1159 1288 1364 580 
Q 1569 -128 1984 -844 
L 1484 -844 
Q 1016 -109 783 600 
Q 550 1309 550 2009 
Q 550 2706 781 3412 
Q 1013 4119 1484 4856 
L 1984 4856 
z
" transform="scale(0.015625)"/>
      <path id="DejaVuSans-65" d="M 3597 1894 
L 3597 1613 
L 953 1613 
Q 991 1019 1311 708 
Q 1631 397 2203 397 
Q 2534 397 2845 478 
Q 3156 559 3463 722 
L 3463 178 
Q 3153 47 2828 -22 
Q 2503 -91 2169 -91 
Q 1331 -91 842 396 
Q 353 884 353 1716 
Q 353 2575 817 3079 
Q 1281 3584 2069 3584 
Q 2775 3584 3186 3129 
Q 3597 2675 3597 1894 
z
M 3022 2063 
Q 3016 2534 2758 2815 
Q 2500 3097 2075 3097 
Q 1594 3097 1305 2825 
Q 1016 2553 972 2059 
L 3022 2063 
z
" transform="scale(0.015625)"/>
      <path id="DejaVuSans-2081" d="M 488 319 
L 1125 319 
L 1125 2229 
L 428 2101 
L 428 2463 
L 1147 2585 
L 1575 2585 
L 1575 319 
L 2216 319 
L 2216 -24 
L 488 -24 
L 488 319 
z
" transform="scale(0.015625)"/>
      <path id="DejaVuSans-2c" d="M 750 794 
L 1409 794 
L 1409 256 
L 897 -744 
L 494 -744 
L 750 256 
L 750 794 
z
" transform="scale(0.015625)"/>
      <path id="DejaVuSans-20" transform="scale(0.015625)"/>
      <path id="DejaVuSans-2082" d="M 838 332 
L 2163 332 
L 2163 -24 
L 294 -24 
L 294 319 
Q 400 416 597 591 
Q 1672 1544 1672 1838 
Q 1672 2044 1509 2170 
Q 1347 2297 1081 2297 
Q 919 2297 728 2242 
Q 538 2188 313 2079 
L 313 2463 
Q 553 2551 761 2594 
Q 969 2638 1147 2638 
Q 1600 2638 1872 2432 
Q 2144 2226 2144 1888 
Q 2144 1454 1109 566 
Q 934 416 838 332 
z
" transform="scale(0.015625)"/>
      <path id="DejaVuSans-29" d="M 513 4856 
L 1013 4856 
Q 1481 4119 1714 3412 
Q 1947 2706 1947 2009 
Q 1947 1309 1714 600 
Q 1481 -109 1013 -844 
L 513 -844 
Q 928 -128 1133 580 
Q 1338 1288 1338 2009 
Q 1338 2731 1133 3434 
Q 928 4138 513 4856 
z
" transform="scale(0.015625)"/>
      <path id="DejaVuSans-69" d="M 603 3500 
L 1178 3500 
L 1178 0 
L 603 0 
L 603 3500 
z
M 603 4863 
L 1178 4863 
L 1178 4134 
L 603 4134 
L 603 4863 
z
" transform="scale(0.015625)"/>
      <path id="DejaVuSans-73" d="M 2834 3397 
L 2834 2853 
Q 2591 2978 2328 3040 
Q 2066 3103 1784 3103 
Q 1356 3103 1142 2972 
Q 928 2841 928 2578 
Q 928 2378 1081 2264 
Q 1234 2150 1697 2047 
L 1894 2003 
Q 2506 1872 2764 1633 
Q 3022 1394 3022 966 
Q 3022 478 2636 193 
Q 2250 -91 1575 -91 
Q 1294 -91 989 -36 
Q 684 19 347 128 
L 347 722 
Q 666 556 975 473 
Q 1284 391 1588 391 
Q 1994 391 2212 530 
Q 2431 669 2431 922 
Q 2431 1156 2273 1281 
Q 2116 1406 1581 1522 
L 1381 1569 
Q 847 1681 609 1914 
Q 372 2147 372 2553 
Q 372 3047 722 3315 
Q 1072 3584 1716 3584 
Q 2034 3584 2315 3537 
Q 2597 3491 2834 3397 
z
" transform="scale(0.015625)"/>
      <path id="DejaVuSans-61" d="M 2194 1759 
Q 1497 1759 1228 1600 
Q 959 1441 959 1056 
Q 959 750 1161 570 
Q 1363 391 1709 391 
Q 2188 391 2477 730 
Q 2766 1069 2766 1631 
L 2766 1759 
L 2194 1759 
z
M 3341 1997 
L 3341 0 
L 2766 0 
L 2766 531 
Q 2569 213 2275 61 
Q 1981 -91 1556 -91 
Q 1019 -91 701 211 
Q 384 513 384 1019 
Q 384 1609 779 1909 
Q 1175 2209 1959 2209 
L 2766 2209 
L 2766 2266 
Q 2766 2663 2505 2880 
Q 2244 3097 1772 3097 
Q 1472 3097 1187 3025 
Q 903 2953 641 2809 
L 641 3341 
Q 956 3463 1253 3523 
Q 1550 3584 1831 3584 
Q 2591 3584 2966 3190 
Q 3341 2797 3341 1997 
z
" transform="scale(0.015625)"/>
      <path id="DejaVuSans-62" d="M 3116 1747 
Q 3116 2381 2855 2742 
Q 2594 3103 2138 3103 
Q 1681 3103 1420 2742 
Q 1159 2381 1159 1747 
Q 1159 1113 1420 752 
Q 1681 391 2138 391 
Q 2594 391 2855 752 
Q 3116 1113 3116 1747 
z
M 1159 2969 
Q 1341 3281 1617 3432 
Q 1894 3584 2278 3584 
Q 2916 3584 3314 3078 
Q 3713 2572 3713 1747 
Q 3713 922 3314 415 
Q 2916 -91 2278 -91 
Q 1894 -91 1617 61 
Q 1341 213 1159 525 
L 1159 0 
L 581 0 
L 581 4863 
L 1159 4863 
L 1159 2969 
z
" transform="scale(0.015625)"/>
      <path id="DejaVuSans-6f" d="M 1959 3097 
Q 1497 3097 1228 2736 
Q 959 2375 959 1747 
Q 959 1119 1226 758 
Q 1494 397 1959 397 
Q 2419 397 2687 759 
Q 2956 1122 2956 1747 
Q 2956 2369 2687 2733 
Q 2419 3097 1959 3097 
z
M 1959 3584 
Q 2709 3584 3137 3096 
Q 3566 2609 3566 1747 
Q 3566 888 3137 398 
Q 2709 -91 1959 -91 
Q 1206 -91 779 398 
Q 353 888 353 1747 
Q 353 2609 779 3096 
Q 1206 3584 1959 3584 
z
" transform="scale(0.015625)"/>
      <path id="DejaVuSans-66" d="M 2375 4863 
L 2375 4384 
L 1825 4384 
Q 1516 4384 1395 4259 
Q 1275 4134 1275 3809 
L 1275 3500 
L 2222 3500 
L 2222 3053 
L 1275 3053 
L 1275 0 
L 697 0 
L 697 3053 
L 147 3053 
L 147 3500 
L 697 3500 
L 697 3744 
Q 697 4328 969 4595 
Q 1241 4863 1831 4863 
L 2375 4863 
z
" transform="scale(0.015625)"/>
      <path id="DejaVuSans-55" d="M 556 4666 
L 1191 4666 
L 1191 1831 
Q 1191 1081 1462 751 
Q 1734 422 2344 422 
Q 2950 422 3222 751 
Q 3494 1081 3494 1831 
L 3494 4666 
L 4128 4666 
L 4128 1753 
Q 4128 841 3676 375 
Q 3225 -91 2344 -91 
Q 1459 -91 1007 375 
Q 556 841 556 1753 
L 556 4666 
z
" transform="scale(0.015625)"/>
      <path id="DejaVuSans-3b" d="M 750 3309 
L 1409 3309 
L 1409 2516 
L 750 2516 
L 750 3309 
z
M 750 794 
L 1409 794 
L 1409 256 
L 897 -744 
L 494 -744 
L 750 256 
L 750 794 
z
" transform="scale(0.015625)"/>
      <path id="DejaVuSans-64" d="M 2906 2969 
L 2906 4863 
L 3481 4863 
L 3481 0 
L 2906 0 
L 2906 525 
Q 2725 213 2448 61 
Q 2172 -91 1784 -91 
Q 1150 -91 751 415 
Q 353 922 353 1747 
Q 353 2572 751 3078 
Q 1150 3584 1784 3584 
Q 2172 3584 2448 3432 
Q 2725 3281 2906 2969 
z
M 947 1747 
Q 947 1113 1208 752 
Q 1469 391 1925 391 
Q 2381 391 2643 752 
Q 2906 1113 2906 1747 
Q 2906 2381 2643 2742 
Q 2381 3103 1925 3103 
Q 1469 3103 1208 2742 
Q 947 2381 947 1747 
z
" transform="scale(0.015625)"/>
      <path id="DejaVuSans-6e" d="M 3513 2113 
L 3513 0 
L 2938 0 
L 2938 2094 
Q 2938 2591 2744 2837 
Q 2550 3084 2163 3084 
Q 1697 3084 1428 2787 
Q 1159 2491 1159 1978 
L 1159 0 
L 581 0 
L 581 3500 
L 1159 3500 
L 1159 2956 
Q 1366 3272 1645 3428 
Q 1925 3584 2291 3584 
Q 2894 3584 3203 3211 
Q 3513 2838 3513 2113 
z
" transform="scale(0.015625)"/>
      <path id="DejaVuSans-67" d="M 2906 1791 
Q 2906 2416 2648 2759 
Q 2391 3103 1925 3103 
Q 1463 3103 1205 2759 
Q 947 2416 947 1791 
Q 947 1169 1205 825 
Q 1463 481 1925 481 
Q 2391 481 2648 825 
Q 2906 1169 2906 1791 
z
M 3481 434 
Q 3481 -459 3084 -895 
Q 2688 -1331 1869 -1331 
Q 1566 -1331 1297 -1286 
Q 1028 -1241 775 -1147 
L 775 -588 
Q 1028 -725 1275 -790 
Q 1522 -856 1778 -856 
Q 2344 -856 2625 -561 
Q 2906 -266 2906 331 
L 2906 616 
Q 2728 306 2450 153 
Q 2172 0 1784 0 
Q 1141 0 747 490 
Q 353 981 353 1791 
Q 353 2603 747 3093 
Q 1141 3584 1784 3584 
Q 2172 3584 2450 3431 
Q 2728 3278 2906 2969 
L 2906 3500 
L 3481 3500 
L 3481 434 
z
" transform="scale(0.015625)"/>
      <path id="DejaVuSans-2083" d="M 1638 1388 
Q 1925 1332 2083 1161 
Q 2241 991 2241 735 
Q 2241 347 1944 138 
Q 1647 -71 1094 -71 
Q 916 -71 720 -38 
Q 525 -6 306 57 
L 306 435 
Q 469 351 655 310 
Q 841 269 1050 269 
Q 1391 269 1578 392 
Q 1766 516 1766 735 
Q 1766 966 1592 1085 
Q 1419 1204 1081 1204 
L 813 1204 
L 813 1541 
L 1106 1541 
Q 1400 1541 1551 1639 
Q 1703 1738 1703 1926 
Q 1703 2107 1547 2202 
Q 1391 2297 1094 2297 
Q 969 2297 809 2269 
Q 650 2241 397 2169 
L 397 2529 
Q 625 2582 825 2610 
Q 1025 2638 1197 2638 
Q 1647 2638 1911 2453 
Q 2175 2269 2175 1960 
Q 2175 1744 2034 1594 
Q 1894 1444 1638 1388 
z
" transform="scale(0.015625)"/>
      <path id="DejaVuSans-78" d="M 3513 3500 
L 2247 1797 
L 3578 0 
L 2900 0 
L 1881 1375 
L 863 0 
L 184 0 
L 1544 1831 
L 300 3500 
L 978 3500 
L 1906 2253 
L 2834 3500 
L 3513 3500 
z
" transform="scale(0.015625)"/>
      <path id="DejaVuSans-74" d="M 1172 4494 
L 1172 3500 
L 2356 3500 
L 2356 3053 
L 1172 3053 
L 1172 1153 
Q 1172 725 1289 603 
Q 1406 481 1766 481 
L 2356 481 
L 2356 0 
L 1766 0 
Q 1100 0 847 248 
Q 594 497 594 1153 
L 594 3053 
L 172 3053 
L 172 3500 
L 594 3500 
L 594 4494 
L 1172 4494 
z
" transform="scale(0.015625)"/>
      <path id="DejaVuSans-56" d="M 1831 0 
L 50 4666 
L 709 4666 
L 2188 738 
L 3669 4666 
L 4325 4666 
L 2547 0 
L 1831 0 
z
" transform="scale(0.015625)"/>
     </defs>
     <use xlink:href="#DejaVuSans-28"/>
     <use xlink:href="#DejaVuSans-65" transform="translate(39.013672 0)"/>
     <use xlink:href="#DejaVuSans-2081" transform="translate(100.537109 0)"/>
     <use xlink:href="#DejaVuSans-2c" transform="translate(140.625 0)"/>
     <use xlink:href="#DejaVuSans-20" transform="translate(172.412109 0)"/>
     <use xlink:href="#DejaVuSans-65" transform="translate(204.199219 0)"/>
     <use xlink:href="#DejaVuSans-2082" transform="translate(265.722656 0)"/>
     <use xlink:href="#DejaVuSans-29" transform="translate(305.810547 0)"/>
     <use xlink:href="#DejaVuSans-20" transform="translate(344.824219 0)"/>
     <use xlink:href="#DejaVuSans-69" transform="translate(376.611328 0)"/>
     <use xlink:href="#DejaVuSans-73" transform="translate(404.394531 0)"/>
     <use xlink:href="#DejaVuSans-20" transform="translate(456.494141 0)"/>
     <use xlink:href="#DejaVuSans-61" transform="translate(488.28125 0)"/>
     <use xlink:href="#DejaVuSans-20" transform="translate(549.560547 0)"/>
     <use xlink:href="#DejaVuSans-62" transform="translate(581.347656 0)"/>
     <use xlink:href="#DejaVuSans-61" transform="translate(644.824219 0)"/>
     <use xlink:href="#DejaVuSans-73" transform="translate(706.103516 0)"/>
     <use xlink:href="#DejaVuSans-69" transform="translate(758.203125 0)"/>
     <use xlink:href="#DejaVuSans-73" transform="translate(785.986328 0)"/>
     <use xlink:href="#DejaVuSans-20" transform="translate(838.085938 0)"/>
     <use xlink:href="#DejaVuSans-6f" transform="translate(869.873047 0)"/>
     <use xlink:href="#DejaVuSans-66" transform="translate(931.054688 0)"/>
     <use xlink:href="#DejaVuSans-20" transform="translate(966.259766 0)"/>
     <use xlink:href="#DejaVuSans-55" transform="translate(998.046875 0)"/>
     <use xlink:href="#DejaVuSans-3b" transform="translate(1071.240234 0)"/>
     <use xlink:href="#DejaVuSans-20" transform="translate(1104.931641 0)"/>
     <use xlink:href="#DejaVuSans-61" transform="translate(1136.71875 0)"/>
     <use xlink:href="#DejaVuSans-64" transform="translate(1197.998047 0)"/>
     <use xlink:href="#DejaVuSans-64" transform="translate(1261.474609 0)"/>
     <use xlink:href="#DejaVuSans-69" transform="translate(1324.951172 0)"/>
     <use xlink:href="#DejaVuSans-6e" transform="translate(1352.734375 0)"/>
     <use xlink:href="#DejaVuSans-67" transform="translate(1416.113281 0)"/>
     <use xlink:href="#DejaVuSans-20" transform="translate(1479.589844 0)"/>
     <use xlink:href="#DejaVuSans-65" transform="translate(1511.376953 0)"/>
     <use xlink:href="#DejaVuSans-2083" transform="translate(1572.900391 0)"/>
     <use xlink:href="#DejaVuSans-20" transform="translate(1612.988281 0)"/>
     <use xlink:href="#DejaVuSans-65" transform="translate(1644.775391 0)"/>
     <use xlink:href="#DejaVuSans-78" transform="translate(1704.548828 0)"/>
     <use xlink:href="#DejaVuSans-74" transform="translate(1763.728516 0)"/>
     <use xlink:href="#DejaVuSans-65" transform="translate(1802.9375 0)"/>
     <use xlink:href="#DejaVuSans-6e" transform="translate(1864.460938 0)"/>
     <use xlink:href="#DejaVuSans-64" transform="translate(1927.839844 0)"/>
     <use xlink:href="#DejaVuSans-73" transform="translate(1991.316406 0)"/>
     <use xlink:href="#DejaVuSans-20" transform="translate(2043.416016 0)"/>
     <use xlink:href="#DejaVuSans-74" transform="translate(2075.203125 0)"/>
     <use xlink:href="#DejaVuSans-6f" transform="translate(2114.412109 0)"/>
     <use xlink:href="#DejaVuSans-20" transform="translate(2175.59375 0)"/>
     <use xlink:href="#DejaVuSans-61" transform="translate(2207.380859 0)"/>
     <use xlink:href="#DejaVuSans-20" transform="translate(2268.660156 0)"/>
     <use xlink:href="#DejaVuSans-62" transform="translate(2300.447266 0)"/>
     <use xlink:href="#DejaVuSans-61" transform="translate(2363.923828 0)"/>
     <use xlink:href="#DejaVuSans-73" transform="translate(2425.203125 0)"/>
     <use xlink:href="#DejaVuSans-69" transform="translate(2477.302734 0)"/>
     <use xlink:href="#DejaVuSans-73" transform="translate(2505.085938 0)"/>
     <use xlink:href="#DejaVuSans-20" transform="translate(2557.185547 0)"/>
     <use xlink:href="#DejaVuSans-6f" transform="translate(2588.972656 0)"/>
     <use xlink:href="#DejaVuSans-66" transform="translate(2650.154297 0)"/>
     <use xlink:href="#DejaVuSans-20" transform="translate(2685.359375 0)"/>
     <use xlink:href="#DejaVuSans-56" transform="translate(2717.146484 0)"/>
    </g>
   </g>
   <g id="text_8">
    <!-- in these coordinates  x ∈ U  ⇔  x₃ = 0 -->
    <g style="fill: #666666" transform="translate(110.826563 317.338125) scale(0.1 -0.1)">
     <defs>
      <path id="DejaVuSans-Oblique-69" d="M 1172 4863 
L 1747 4863 
L 1606 4134 
L 1031 4134 
L 1172 4863 
z
M 909 3500 
L 1484 3500 
L 800 0 
L 225 0 
L 909 3500 
z
" transform="scale(0.015625)"/>
      <path id="DejaVuSans-Oblique-6e" d="M 3566 2113 
L 3156 0 
L 2578 0 
L 2988 2091 
Q 3016 2238 3031 2350 
Q 3047 2463 3047 2528 
Q 3047 2791 2881 2937 
Q 2716 3084 2419 3084 
Q 1956 3084 1622 2776 
Q 1288 2469 1184 1941 
L 800 0 
L 225 0 
L 903 3500 
L 1478 3500 
L 1363 2950 
Q 1603 3253 1940 3418 
Q 2278 3584 2650 3584 
Q 3113 3584 3367 3334 
Q 3622 3084 3622 2631 
Q 3622 2519 3608 2391 
Q 3594 2263 3566 2113 
z
" transform="scale(0.015625)"/>
      <path id="DejaVuSans-Oblique-20" transform="scale(0.015625)"/>
      <path id="DejaVuSans-Oblique-74" d="M 2706 3500 
L 2619 3053 
L 1472 3053 
L 1100 1153 
Q 1081 1047 1072 975 
Q 1063 903 1063 863 
Q 1063 663 1183 572 
Q 1303 481 1569 481 
L 2150 481 
L 2053 0 
L 1503 0 
Q 991 0 739 200 
Q 488 400 488 806 
Q 488 878 497 964 
Q 506 1050 525 1153 
L 897 3053 
L 409 3053 
L 500 3500 
L 978 3500 
L 1172 4494 
L 1747 4494 
L 1556 3500 
L 2706 3500 
z
" transform="scale(0.015625)"/>
      <path id="DejaVuSans-Oblique-68" d="M 3566 2113 
L 3156 0 
L 2578 0 
L 2988 2091 
Q 3016 2238 3031 2350 
Q 3047 2463 3047 2528 
Q 3047 2791 2881 2937 
Q 2716 3084 2419 3084 
Q 1956 3084 1617 2771 
Q 1278 2459 1178 1941 
L 800 0 
L 225 0 
L 1172 4863 
L 1747 4863 
L 1375 2950 
Q 1594 3244 1934 3414 
Q 2275 3584 2650 3584 
Q 3113 3584 3367 3334 
Q 3622 3084 3622 2631 
Q 3622 2519 3608 2391 
Q 3594 2263 3566 2113 
z
" transform="scale(0.015625)"/>
      <path id="DejaVuSans-Oblique-73" d="M 3200 3397 
L 3091 2853 
Q 2863 2978 2609 3040 
Q 2356 3103 2088 3103 
Q 1634 3103 1373 2948 
Q 1113 2794 1113 2528 
Q 1113 2219 1719 2053 
Q 1766 2041 1788 2034 
L 1972 1978 
Q 2547 1819 2739 1644 
Q 2931 1469 2931 1166 
Q 2931 609 2489 259 
Q 2047 -91 1331 -91 
Q 1053 -91 747 -37 
Q 441 16 72 128 
L 184 722 
Q 500 559 806 475 
Q 1113 391 1394 391 
Q 1816 391 2080 572 
Q 2344 753 2344 1031 
Q 2344 1331 1650 1516 
L 1591 1531 
L 1394 1581 
Q 956 1697 753 1886 
Q 550 2075 550 2369 
Q 550 2928 970 3256 
Q 1391 3584 2113 3584 
Q 2397 3584 2667 3537 
Q 2938 3491 3200 3397 
z
" transform="scale(0.015625)"/>
      <path id="DejaVuSans-Oblique-63" d="M 3431 3366 
L 3316 2797 
Q 3109 2947 2876 3022 
Q 2644 3097 2394 3097 
Q 2119 3097 1870 3000 
Q 1622 2903 1453 2725 
Q 1184 2453 1037 2087 
Q 891 1722 891 1331 
Q 891 859 1127 628 
Q 1363 397 1844 397 
Q 2081 397 2348 469 
Q 2616 541 2906 684 
L 2797 116 
Q 2547 13 2283 -39 
Q 2019 -91 1741 -91 
Q 1044 -91 669 257 
Q 294 606 294 1253 
Q 294 1797 489 2255 
Q 684 2713 1069 3078 
Q 1331 3328 1684 3456 
Q 2038 3584 2456 3584 
Q 2700 3584 2940 3529 
Q 3181 3475 3431 3366 
z
" transform="scale(0.015625)"/>
      <path id="DejaVuSans-Oblique-6f" d="M 1625 -91 
Q 1009 -91 651 289 
Q 294 669 294 1325 
Q 294 1706 417 2101 
Q 541 2497 738 2766 
Q 1047 3184 1428 3384 
Q 1809 3584 2291 3584 
Q 2888 3584 3255 3212 
Q 3622 2841 3622 2241 
Q 3622 1825 3500 1412 
Q 3378 1000 3181 728 
Q 2875 309 2494 109 
Q 2113 -91 1625 -91 
z
M 891 1344 
Q 891 869 1089 633 
Q 1288 397 1691 397 
Q 2269 397 2648 901 
Q 3028 1406 3028 2181 
Q 3028 2634 2825 2865 
Q 2622 3097 2228 3097 
Q 1903 3097 1650 2945 
Q 1397 2794 1197 2484 
Q 1050 2253 970 1956 
Q 891 1659 891 1344 
z
" transform="scale(0.015625)"/>
      <path id="DejaVuSans-Oblique-72" d="M 2853 2969 
Q 2766 3016 2653 3041 
Q 2541 3066 2413 3066 
Q 1953 3066 1609 2717 
Q 1266 2369 1153 1784 
L 800 0 
L 225 0 
L 909 3500 
L 1484 3500 
L 1375 2956 
Q 1603 3259 1920 3421 
Q 2238 3584 2597 3584 
Q 2691 3584 2781 3573 
Q 2872 3563 2963 3538 
L 2853 2969 
z
" transform="scale(0.015625)"/>
      <path id="DejaVuSans-Oblique-64" d="M 2675 525 
Q 2444 222 2128 65 
Q 1813 -91 1428 -91 
Q 903 -91 598 267 
Q 294 625 294 1247 
Q 294 1766 478 2236 
Q 663 2706 1013 3078 
Q 1244 3325 1534 3454 
Q 1825 3584 2144 3584 
Q 2481 3584 2739 3421 
Q 2997 3259 3138 2956 
L 3513 4863 
L 4091 4863 
L 3144 0 
L 2566 0 
L 2675 525 
z
M 891 1350 
Q 891 897 1095 644 
Q 1300 391 1663 391 
Q 1931 391 2161 520 
Q 2391 650 2566 903 
Q 2750 1166 2856 1509 
Q 2963 1853 2963 2188 
Q 2963 2622 2758 2865 
Q 2553 3109 2194 3109 
Q 1922 3109 1687 2981 
Q 1453 2853 1288 2613 
Q 1106 2353 998 2009 
Q 891 1666 891 1350 
z
" transform="scale(0.015625)"/>
      <path id="DejaVuSans-Oblique-61" d="M 3438 1997 
L 3047 0 
L 2472 0 
L 2578 531 
Q 2325 219 2001 64 
Q 1678 -91 1281 -91 
Q 834 -91 548 182 
Q 263 456 263 884 
Q 263 1497 752 1853 
Q 1241 2209 2100 2209 
L 2900 2209 
L 2931 2363 
Q 2938 2388 2941 2417 
Q 2944 2447 2944 2509 
Q 2944 2788 2717 2942 
Q 2491 3097 2081 3097 
Q 1800 3097 1504 3025 
Q 1209 2953 897 2809 
L 997 3341 
Q 1322 3463 1633 3523 
Q 1944 3584 2234 3584 
Q 2853 3584 3176 3315 
Q 3500 3047 3500 2534 
Q 3500 2431 3484 2292 
Q 3469 2153 3438 1997 
z
M 2816 1759 
L 2241 1759 
Q 1534 1759 1195 1570 
Q 856 1381 856 984 
Q 856 709 1029 553 
Q 1203 397 1509 397 
Q 1978 397 2328 733 
Q 2678 1069 2791 1631 
L 2816 1759 
z
" transform="scale(0.015625)"/>
      <path id="DejaVuSans-Oblique-78" d="M 3841 3500 
L 2234 1784 
L 3219 0 
L 2559 0 
L 1819 1388 
L 531 0 
L -166 0 
L 1556 1844 
L 641 3500 
L 1300 3500 
L 1972 2234 
L 3144 3500 
L 3841 3500 
z
" transform="scale(0.015625)"/>
      <path id="DejaVuSans-Oblique-2208" d="M 1072 1959 
Q 1094 1728 1291 1353 
Q 1522 919 1959 675 
Q 2388 438 2850 434 
L 5028 434 
L 5028 -63 
L 2850 -63 
Q 2250 -63 1695 246 
Q 1141 556 844 1106 
Q 547 1656 547 2241 
Q 547 2819 844 3369 
Q 1141 3919 1695 4231 
Q 2250 4544 2850 4544 
L 5028 4544 
L 5028 4047 
L 2850 4047 
Q 2388 4044 1959 3803 
Q 1525 3556 1291 3125 
Q 1091 2750 1063 2459 
L 5028 2459 
L 5028 1959 
L 1072 1959 
z
" transform="scale(0.015625)"/>
      <path id="DejaVuSans-Oblique-21d4" d="M 1250 1678 
L 4113 1678 
L 4441 2006 
L 4113 2334 
L 1250 2334 
L 922 2006 
L 1250 1678 
z
M 3738 1303 
L 1625 1303 
L 1916 1013 
L 1541 638 
L 313 1866 
L 313 2147 
L 1541 3375 
L 1916 3000 
L 1625 2709 
L 3738 2709 
L 3447 3000 
L 3822 3375 
L 5050 2147 
L 5050 1866 
L 3822 638 
L 3447 1013 
L 3738 1303 
z
" transform="scale(0.015625)"/>
      <path id="DejaVuSans-Oblique-2083" d="M 672 2529 
Q 931 2585 1128 2611 
Q 1325 2638 1497 2638 
Q 1888 2638 2122 2474 
Q 2356 2310 2356 2041 
Q 2356 1801 2178 1622 
Q 2000 1444 1697 1388 
Q 1931 1338 2056 1191 
Q 2181 1044 2181 819 
Q 2181 422 1832 175 
Q 1484 -71 909 -71 
Q 709 -71 506 -38 
Q 303 -6 103 57 
L 178 435 
Q 344 351 519 310 
Q 694 269 891 269 
Q 1275 269 1492 413 
Q 1709 557 1709 813 
Q 1709 1007 1557 1105 
Q 1406 1204 1100 1204 
L 831 1204 
L 903 1541 
L 1191 1541 
Q 1509 1541 1689 1653 
Q 1869 1766 1869 1966 
Q 1869 2132 1741 2214 
Q 1613 2297 1356 2297 
Q 1181 2297 987 2264 
Q 794 2232 603 2169 
L 672 2529 
z
" transform="scale(0.015625)"/>
      <path id="DejaVuSans-Oblique-3d" d="M 678 2906 
L 4684 2906 
L 4684 2381 
L 678 2381 
L 678 2906 
z
M 678 1631 
L 4684 1631 
L 4684 1100 
L 678 1100 
L 678 1631 
z
" transform="scale(0.015625)"/>
      <path id="DejaVuSans-Oblique-30" d="M 2444 4750 
Q 3078 4750 3414 4328 
Q 3750 3906 3750 3116 
Q 3750 2516 3592 1923 
Q 3434 1331 3150 863 
Q 2859 394 2467 151 
Q 2075 -91 1600 -91 
Q 988 -91 653 334 
Q 319 759 319 1544 
Q 319 2138 480 2733 
Q 641 3328 928 3794 
Q 1216 4263 1602 4506 
Q 1988 4750 2444 4750 
z
M 2406 4250 
Q 2169 4250 1955 4123 
Q 1741 3997 1569 3750 
Q 1281 3338 1111 2720 
Q 941 2103 941 1453 
Q 941 938 1123 673 
Q 1306 409 1663 409 
Q 1913 409 2125 536 
Q 2338 663 2509 909 
Q 2794 1319 2961 1936 
Q 3128 2553 3128 3206 
Q 3128 3722 2945 3986 
Q 2763 4250 2406 4250 
z
" transform="scale(0.015625)"/>
     </defs>
     <use xlink:href="#DejaVuSans-Oblique-69"/>
     <use xlink:href="#DejaVuSans-Oblique-6e" transform="translate(27.783203 0)"/>
     <use xlink:href="#DejaVuSans-Oblique-20" transform="translate(91.162109 0)"/>
     <use xlink:href="#DejaVuSans-Oblique-74" transform="translate(122.949219 0)"/>
     <use xlink:href="#DejaVuSans-Oblique-68" transform="translate(162.158203 0)"/>
     <use xlink:href="#DejaVuSans-Oblique-65" transform="translate(225.537109 0)"/>
     <use xlink:href="#DejaVuSans-Oblique-73" transform="translate(287.060547 0)"/>
     <use xlink:href="#DejaVuSans-Oblique-65" transform="translate(339.160156 0)"/>
     <use xlink:href="#DejaVuSans-Oblique-20" transform="translate(400.683594 0)"/>
     <use xlink:href="#DejaVuSans-Oblique-63" transform="translate(432.470703 0)"/>
     <use xlink:href="#DejaVuSans-Oblique-6f" transform="translate(487.451172 0)"/>
     <use xlink:href="#DejaVuSans-Oblique-6f" transform="translate(548.632812 0)"/>
     <use xlink:href="#DejaVuSans-Oblique-72" transform="translate(609.814453 0)"/>
     <use xlink:href="#DejaVuSans-Oblique-64" transform="translate(650.927734 0)"/>
     <use xlink:href="#DejaVuSans-Oblique-69" transform="translate(714.404297 0)"/>
     <use xlink:href="#DejaVuSans-Oblique-6e" transform="translate(742.1875 0)"/>
     <use xlink:href="#DejaVuSans-Oblique-61" transform="translate(805.566406 0)"/>
     <use xlink:href="#DejaVuSans-Oblique-74" transform="translate(866.845703 0)"/>
     <use xlink:href="#DejaVuSans-Oblique-65" transform="translate(906.054688 0)"/>
     <use xlink:href="#DejaVuSans-Oblique-73" transform="translate(967.578125 0)"/>
     <use xlink:href="#DejaVuSans-Oblique-20" transform="translate(1019.677734 0)"/>
     <use xlink:href="#DejaVuSans-Oblique-20" transform="translate(1051.464844 0)"/>
     <use xlink:href="#DejaVuSans-Oblique-78" transform="translate(1083.251953 0)"/>
     <use xlink:href="#DejaVuSans-Oblique-20" transform="translate(1142.431641 0)"/>
     <use xlink:href="#DejaVuSans-Oblique-2208" transform="translate(1174.21875 0)"/>
     <use xlink:href="#DejaVuSans-Oblique-20" transform="translate(1261.328125 0)"/>
     <use xlink:href="#DejaVuSans-Oblique-55" transform="translate(1293.115234 0)"/>
     <use xlink:href="#DejaVuSans-Oblique-20" transform="translate(1366.308594 0)"/>
     <use xlink:href="#DejaVuSans-Oblique-20" transform="translate(1398.095703 0)"/>
     <use xlink:href="#DejaVuSans-Oblique-21d4" transform="translate(1429.882812 0)"/>
     <use xlink:href="#DejaVuSans-Oblique-20" transform="translate(1513.671875 0)"/>
     <use xlink:href="#DejaVuSans-Oblique-20" transform="translate(1545.458984 0)"/>
     <use xlink:href="#DejaVuSans-Oblique-78" transform="translate(1577.246094 0)"/>
     <use xlink:href="#DejaVuSans-Oblique-2083" transform="translate(1636.425781 0)"/>
     <use xlink:href="#DejaVuSans-Oblique-20" transform="translate(1676.513672 0)"/>
     <use xlink:href="#DejaVuSans-Oblique-3d" transform="translate(1708.300781 0)"/>
     <use xlink:href="#DejaVuSans-Oblique-20" transform="translate(1792.089844 0)"/>
     <use xlink:href="#DejaVuSans-Oblique-30" transform="translate(1823.876953 0)"/>
    </g>
   </g>
   <g id="text_9">
    <!-- a basis of V adapted to a subspace U ⊂ V -->
    <g transform="translate(80.774063 16.318125) scale(0.12 -0.12)">
     <defs>
      <path id="DejaVuSans-Oblique-62" d="M 3169 2138 
Q 3169 2591 2961 2847 
Q 2753 3103 2388 3103 
Q 2122 3103 1889 2973 
Q 1656 2844 1484 2597 
Q 1303 2338 1198 1995 
Q 1094 1653 1094 1313 
Q 1094 881 1298 636 
Q 1503 391 1863 391 
Q 2134 391 2365 517 
Q 2597 644 2772 891 
Q 2950 1147 3059 1487 
Q 3169 1828 3169 2138 
z
M 1381 2969 
Q 1594 3256 1914 3420 
Q 2234 3584 2584 3584 
Q 3122 3584 3439 3221 
Q 3756 2859 3756 2241 
Q 3756 1734 3570 1259 
Q 3384 784 3041 416 
Q 2816 172 2522 40 
Q 2228 -91 1906 -91 
Q 1566 -91 1316 65 
Q 1066 222 909 531 
L 806 0 
L 231 0 
L 1178 4863 
L 1753 4863 
L 1381 2969 
z
" transform="scale(0.015625)"/>
      <path id="DejaVuSans-Oblique-66" d="M 3059 4863 
L 2969 4384 
L 2419 4384 
Q 2106 4384 1964 4261 
Q 1822 4138 1753 3809 
L 1691 3500 
L 2638 3500 
L 2553 3053 
L 1606 3053 
L 1013 0 
L 434 0 
L 1031 3053 
L 481 3053 
L 563 3500 
L 1113 3500 
L 1159 3744 
Q 1278 4363 1576 4613 
Q 1875 4863 2516 4863 
L 3059 4863 
z
" transform="scale(0.015625)"/>
      <path id="DejaVuSans-Oblique-70" d="M 3175 2156 
Q 3175 2616 2975 2859 
Q 2775 3103 2400 3103 
Q 2144 3103 1911 2972 
Q 1678 2841 1497 2591 
Q 1319 2344 1212 1994 
Q 1106 1644 1106 1300 
Q 1106 863 1306 627 
Q 1506 391 1875 391 
Q 2147 391 2380 519 
Q 2613 647 2778 891 
Q 2956 1147 3065 1494 
Q 3175 1841 3175 2156 
z
M 1394 2969 
Q 1625 3272 1939 3428 
Q 2253 3584 2638 3584 
Q 3175 3584 3472 3232 
Q 3769 2881 3769 2247 
Q 3769 1728 3584 1258 
Q 3400 788 3053 416 
Q 2822 169 2531 39 
Q 2241 -91 1919 -91 
Q 1547 -91 1294 64 
Q 1041 219 916 525 
L 556 -1331 
L -19 -1331 
L 922 3500 
L 1497 3500 
L 1394 2969 
z
" transform="scale(0.015625)"/>
      <path id="DejaVuSans-Oblique-75" d="M 428 1388 
L 838 3500 
L 1416 3500 
L 1006 1409 
Q 975 1256 961 1147 
Q 947 1038 947 966 
Q 947 700 1109 554 
Q 1272 409 1569 409 
Q 2031 409 2368 721 
Q 2706 1034 2809 1563 
L 3194 3500 
L 3769 3500 
L 3091 0 
L 2516 0 
L 2631 550 
Q 2388 244 2052 76 
Q 1716 -91 1338 -91 
Q 878 -91 622 161 
Q 366 413 366 863 
Q 366 956 381 1097 
Q 397 1238 428 1388 
z
" transform="scale(0.015625)"/>
      <path id="DejaVuSans-Oblique-2282" d="M 4725 509 
L 2131 509 
Q 1500 509 1069 944 
Q 638 1378 638 2003 
Q 638 2622 1069 3063 
Q 1500 3497 2125 3497 
L 4725 3497 
L 4725 3028 
L 2125 3028 
Q 1700 3028 1403 2728 
Q 1106 2428 1106 2003 
Q 1106 1572 1400 1278 
Q 1700 978 2125 978 
L 4725 978 
L 4725 509 
z
" transform="scale(0.015625)"/>
     </defs>
     <use xlink:href="#DejaVuSans-Oblique-61"/>
     <use xlink:href="#DejaVuSans-Oblique-20" transform="translate(61.279297 0)"/>
     <use xlink:href="#DejaVuSans-Oblique-62" transform="translate(93.066406 0)"/>
     <use xlink:href="#DejaVuSans-Oblique-61" transform="translate(156.542969 0)"/>
     <use xlink:href="#DejaVuSans-Oblique-73" transform="translate(217.822266 0)"/>
     <use xlink:href="#DejaVuSans-Oblique-69" transform="translate(269.921875 0)"/>
     <use xlink:href="#DejaVuSans-Oblique-73" transform="translate(297.705078 0)"/>
     <use xlink:href="#DejaVuSans-Oblique-20" transform="translate(349.804688 0)"/>
     <use xlink:href="#DejaVuSans-Oblique-6f" transform="translate(381.591797 0)"/>
     <use xlink:href="#DejaVuSans-Oblique-66" transform="translate(442.773438 0)"/>
     <use xlink:href="#DejaVuSans-Oblique-20" transform="translate(477.978516 0)"/>
     <use xlink:href="#DejaVuSans-Oblique-56" transform="translate(509.765625 0)"/>
     <use xlink:href="#DejaVuSans-Oblique-20" transform="translate(578.173828 0)"/>
     <use xlink:href="#DejaVuSans-Oblique-61" transform="translate(609.960938 0)"/>
     <use xlink:href="#DejaVuSans-Oblique-64" transform="translate(671.240234 0)"/>
     <use xlink:href="#DejaVuSans-Oblique-61" transform="translate(734.716797 0)"/>
     <use xlink:href="#DejaVuSans-Oblique-70" transform="translate(795.996094 0)"/>
     <use xlink:href="#DejaVuSans-Oblique-74" transform="translate(859.472656 0)"/>
     <use xlink:href="#DejaVuSans-Oblique-65" transform="translate(898.681641 0)"/>
     <use xlink:href="#DejaVuSans-Oblique-64" transform="translate(960.205078 0)"/>
     <use xlink:href="#DejaVuSans-Oblique-20" transform="translate(1023.681641 0)"/>
     <use xlink:href="#DejaVuSans-Oblique-74" transform="translate(1055.46875 0)"/>
     <use xlink:href="#DejaVuSans-Oblique-6f" transform="translate(1094.677734 0)"/>
     <use xlink:href="#DejaVuSans-Oblique-20" transform="translate(1155.859375 0)"/>
     <use xlink:href="#DejaVuSans-Oblique-61" transform="translate(1187.646484 0)"/>
     <use xlink:href="#DejaVuSans-Oblique-20" transform="translate(1248.925781 0)"/>
     <use xlink:href="#DejaVuSans-Oblique-73" transform="translate(1280.712891 0)"/>
     <use xlink:href="#DejaVuSans-Oblique-75" transform="translate(1332.8125 0)"/>
     <use xlink:href="#DejaVuSans-Oblique-62" transform="translate(1396.191406 0)"/>
     <use xlink:href="#DejaVuSans-Oblique-73" transform="translate(1459.667969 0)"/>
     <use xlink:href="#DejaVuSans-Oblique-70" transform="translate(1511.767578 0)"/>
     <use xlink:href="#DejaVuSans-Oblique-61" transform="translate(1575.244141 0)"/>
     <use xlink:href="#DejaVuSans-Oblique-63" transform="translate(1636.523438 0)"/>
     <use xlink:href="#DejaVuSans-Oblique-65" transform="translate(1691.503906 0)"/>
     <use xlink:href="#DejaVuSans-Oblique-20" transform="translate(1753.027344 0)"/>
     <use xlink:href="#DejaVuSans-Oblique-55" transform="translate(1784.814453 0)"/>
     <use xlink:href="#DejaVuSans-Oblique-20" transform="translate(1858.007812 0)"/>
     <use xlink:href="#DejaVuSans-Oblique-2282" transform="translate(1889.794922 0)"/>
     <use xlink:href="#DejaVuSans-Oblique-20" transform="translate(1973.583984 0)"/>
     <use xlink:href="#DejaVuSans-Oblique-56" transform="translate(2005.371094 0)"/>
    </g>
   </g>
  </g>
 </g>
 <defs>
  <clipPath id="p2d3f0dfc0a">
   <rect x="7.2" y="22.318125" width="396" height="277.2"/>
  </clipPath>
 </defs>
</svg>
