<?xml version="1.0" encoding="utf-8" standalone="no"?>
<!DOCTYPE svg PUBLIC "-//W3C//DTD SVG 1.1//EN"
  "http://www.w3.org/Graphics/SVG/1.1/DTD/svg11.dtd">
<svg xmlns:xlink="http://www.w3.org/1999/xlink" width="393.726316pt" height="317.806125pt" viewBox="0 0 393.726316 317.806125" xmlns="http://www.w3.org/2000/svg" version="1.1">
 <metadata>
  <rdf:RDF xmlns:dc="http://purl.org/dc/elements/1.1/" xmlns:cc="http://creativecommons.org/ns#" xmlns:rdf="http://www.w3.org/1999/02/22-rdf-syntax-ns#">
   <cc:Work>
    <dc:type rdf:resource="http://purl.org/dc/dcmitype/StillImage"/>
    <dc:date>2026-05-16T20:53:45.890165</dc:date>
    <dc:format>image/svg+xml</dc:format>
    <dc:creator>
     <cc:Agent>
      <dc:title>Matplotlib v3.10.8, https://matplotlib.org/</dc:title>
     </cc:Agent>
    </dc:creator>
   </cc:Work>
  </rdf:RDF>
 </metadata>
 <defs>
  <style type="text/css">*{stroke-linejoin: round; stroke-linecap: butt}</style>
 </defs>
 <g id="figure_1">
  <g id="patch_1">
   <path d="M 0 317.806125 
L 393.726316 317.806125 
L 393.726316 0 
L 0 0 
z
" style="fill: #ffffff"/>
  </g>
  <g id="axes_1">
   <g id="patch_2">
    <path d="M 7.2 310.606125 
L 386.526316 310.606125 
L 386.526316 22.318125 
L 7.2 22.318125 
z
" style="fill: #ffffff"/>
   </g>
   <g id="patch_3">
    <path d="M 26.166316 204.394757 
L 234.795789 261.293704 
L 367.56 128.529493 
L 158.930526 71.630546 
z
" clip-path="url(#p560137dc89)" style="fill: #9fb8e6; opacity: 0.55; stroke: #2a4d8f; stroke-width: 1.3; stroke-linejoin: miter"/>
   </g>
   <g id="patch_4">
    <path d="M 128.584421 280.26002 
L 253.762105 268.88023 
L 272.728421 52.66423 
L 147.550737 64.04402 
z
" clip-path="url(#p560137dc89)" style="fill: #e6b89c; opacity: 0.55; stroke: #8f4a2a; stroke-width: 1.3; stroke-linejoin: miter"/>
   </g>
   <g id="patch_5">
    <path d="M 198.388891 165.165252 
Q 215.831271 150.339229 230.888403 137.540667 
" clip-path="url(#p560137dc89)" style="fill: none; stroke: #3a2a8f; stroke-width: 2.8; stroke-linecap: round"/>
    <path d="M 224.373822 139.140739 
L 230.888403 137.540667 
L 228.259712 143.712375 
z
" clip-path="url(#p560137dc89)" style="fill: #3a2a8f; stroke: #3a2a8f; stroke-width: 2.8; stroke-linecap: round"/>
   </g>
   <g id="patch_6">
    <path d="M 194.927515 166.967075 
Q 153.239987 177.842083 114.58158 187.926884 
" clip-path="url(#p560137dc89)" style="fill: none; stroke: #2a4d8f; stroke-width: 2.8; stroke-linecap: round"/>
    <path d="M 121.144549 189.315205 
L 114.58158 187.926884 
L 119.630018 183.509501 
z
" clip-path="url(#p560137dc89)" style="fill: #2a4d8f; stroke: #2a4d8f; stroke-width: 2.8; stroke-linecap: round"/>
   </g>
   <g id="patch_7">
    <path d="M 197.207547 164.494185 
Q 203.501099 128.531031 209.255015 95.651511 
" clip-path="url(#p560137dc89)" style="fill: none; stroke: #8f4a2a; stroke-width: 2.8; stroke-linecap: round"/>
    <path d="M 205.265642 101.044553 
L 209.255015 95.651511 
L 211.175825 102.078835 
z
" clip-path="url(#p560137dc89)" style="fill: #8f4a2a; stroke: #8f4a2a; stroke-width: 2.8; stroke-linecap: round"/>
   </g>
   <g id="matplotlib.axis_1"/>
   <g id="matplotlib.axis_2"/>
   <g id="line2d_1">
    <path d="M 136.170947 219.567809 
L 261.348632 113.356441 
" clip-path="url(#p560137dc89)" style="fill: none; stroke: #3a2a8f; stroke-opacity: 0.55; stroke-width: 2.2; stroke-linecap: square"/>
   </g>
   <g id="line2d_2">
    <defs>
     <path id="mcab29e2117" d="M 0 2.5 
C 0.663008 2.5 1.29895 2.236584 1.767767 1.767767 
C 2.236584 1.29895 2.5 0.663008 2.5 0 
C 2.5 -0.663008 2.236584 -1.29895 1.767767 -1.767767 
C 1.29895 -2.236584 0.663008 -2.5 0 -2.5 
C -0.663008 -2.5 -1.29895 -2.236584 -1.767767 -1.767767 
C -2.236584 -1.29895 -2.5 -0.663008 -2.5 0 
C -2.5 0.663008 -2.236584 1.29895 -1.767767 1.767767 
C -1.29895 2.236584 -0.663008 2.5 0 2.5 
z
" style="stroke: #222222"/>
    </defs>
    <g clip-path="url(#p560137dc89)">
     <use xlink:href="#mcab29e2117" x="196.863158" y="166.462125" style="fill: #222222; stroke: #222222"/>
    </g>
   </g>
   <g id="line2d_3">
    <defs>
     <path id="mdb2dbba493" d="M 0 3.5 
C 0.928211 3.5 1.81853 3.131218 2.474874 2.474874 
C 3.131218 1.81853 3.5 0.928211 3.5 0 
C 3.5 -0.928211 3.131218 -1.81853 2.474874 -2.474874 
C 1.81853 -3.131218 0.928211 -3.5 0 -3.5 
C -0.928211 -3.5 -1.81853 -3.131218 -2.474874 -2.474874 
C -3.131218 -1.81853 -3.5 -0.928211 -3.5 0 
C -3.5 0.928211 -3.131218 1.81853 -2.474874 2.474874 
C -1.81853 3.131218 -0.928211 3.5 0 3.5 
z
" style="stroke: #3a2a8f"/>
    </defs>
    <g clip-path="url(#p560137dc89)">
     <use xlink:href="#mdb2dbba493" x="18.579789" y="261.293704" style="fill: #3a2a8f; stroke: #3a2a8f"/>
    </g>
   </g>
   <g id="line2d_4">
    <defs>
     <path id="mb55ec1b3c3" d="M 0 3.5 
C 0.928211 3.5 1.81853 3.131218 2.474874 2.474874 
C 3.131218 1.81853 3.5 0.928211 3.5 0 
C 3.5 -0.928211 3.131218 -1.81853 2.474874 -2.474874 
C 1.81853 -3.131218 0.928211 -3.5 0 -3.5 
C -0.928211 -3.5 -1.81853 -3.131218 -2.474874 -2.474874 
C -3.131218 -1.81853 -3.5 -0.928211 -3.5 0 
C -3.5 0.928211 -3.131218 1.81853 -2.474874 2.474874 
C -1.81853 3.131218 -0.928211 3.5 0 3.5 
z
" style="stroke: #2a4d8f"/>
    </defs>
    <g clip-path="url(#p560137dc89)">
     <use xlink:href="#mb55ec1b3c3" x="18.579789" y="276.466757" style="fill: #2a4d8f; stroke: #2a4d8f"/>
    </g>
   </g>
   <g id="line2d_5">
    <defs>
     <path id="m4451586260" d="M 0 3.5 
C 0.928211 3.5 1.81853 3.131218 2.474874 2.474874 
C 3.131218 1.81853 3.5 0.928211 3.5 0 
C 3.5 -0.928211 3.131218 -1.81853 2.474874 -2.474874 
C 1.81853 -3.131218 0.928211 -3.5 0 -3.5 
C -0.928211 -3.5 -1.81853 -3.131218 -2.474874 -2.474874 
C -3.131218 -1.81853 -3.5 -0.928211 -3.5 0 
C -3.5 0.928211 -3.131218 1.81853 -2.474874 2.474874 
C -1.81853 3.131218 -0.928211 3.5 0 3.5 
z
" style="stroke: #8f4a2a"/>
    </defs>
    <g clip-path="url(#p560137dc89)">
     <use xlink:href="#m4451586260" x="18.579789" y="291.639809" style="fill: #8f4a2a; stroke: #8f4a2a"/>
    </g>
   </g>
   <g id="patch_8">
    <path d="M 7.2 310.606125 
L 7.2 22.318125 
" style="fill: none; stroke: #dddddd; stroke-width: 0.8; stroke-linejoin: miter; stroke-linecap: square"/>
   </g>
   <g id="patch_9">
    <path d="M 386.526316 310.606125 
L 386.526316 22.318125 
" style="fill: none; stroke: #dddddd; stroke-width: 0.8; stroke-linejoin: miter; stroke-linecap: square"/>
   </g>
   <g id="patch_10">
    <path d="M 7.2 310.606125 
L 386.526316 310.606125 
" style="fill: none; stroke: #dddddd; stroke-width: 0.8; stroke-linejoin: miter; stroke-linecap: square"/>
   </g>
   <g id="patch_11">
    <path d="M 7.2 22.318125 
L 386.526316 22.318125 
" style="fill: none; stroke: #dddddd; stroke-width: 0.8; stroke-linejoin: miter; stroke-linecap: square"/>
   </g>
   <g id="text_1">
    <!-- U -->
    <g style="fill: #2a4d8f" transform="translate(37.546105 187.325072) scale(0.13 -0.13)">
     <defs>
      <path id="DejaVuSans-Oblique-55" d="M 991 4666 
L 1625 4666 
L 1075 1831 
Q 1041 1641 1027 1517 
Q 1013 1394 1013 1300 
Q 1013 869 1253 645 
Q 1494 422 1959 422 
Q 2563 422 2898 753 
Q 3234 1084 3378 1831 
L 3928 4666 
L 4563 4666 
L 4000 1753 
Q 3816 809 3300 359 
Q 2784 -91 1888 -91 
Q 1188 -91 780 261 
Q 372 613 372 1216 
Q 372 1325 387 1461 
Q 403 1597 434 1753 
L 991 4666 
z
" transform="scale(0.015625)"/>
     </defs>
     <use xlink:href="#DejaVuSans-Oblique-55"/>
    </g>
   </g>
   <g id="text_2">
    <!-- W -->
    <g style="fill: #8f4a2a" transform="translate(257.555368 67.837283) scale(0.13 -0.13)">
     <defs>
      <path id="DejaVuSans-Oblique-57" d="M 616 4666 
L 1228 4666 
L 1453 697 
L 3213 4666 
L 3916 4666 
L 4147 697 
L 5888 4666 
L 6528 4666 
L 4453 0 
L 3659 0 
L 3444 3891 
L 1697 0 
L 903 0 
L 616 4666 
z
" transform="scale(0.015625)"/>
     </defs>
     <use xlink:href="#DejaVuSans-Oblique-57"/>
    </g>
   </g>
   <g id="text_3">
    <!-- $e_1$ -->
    <g style="fill: #3a2a8f" transform="translate(236.692421 130.426125) scale(0.12 -0.12)">
     <defs>
      <path id="DejaVuSans-Oblique-65" d="M 3078 2063 
Q 3088 2113 3092 2166 
Q 3097 2219 3097 2272 
Q 3097 2653 2873 2875 
Q 2650 3097 2266 3097 
Q 1838 3097 1509 2826 
Q 1181 2556 1013 2059 
L 3078 2063 
z
M 3578 1613 
L 903 1613 
Q 884 1494 878 1425 
Q 872 1356 872 1306 
Q 872 872 1139 634 
Q 1406 397 1894 397 
Q 2269 397 2603 481 
Q 2938 566 3225 728 
L 3116 159 
Q 2806 34 2476 -28 
Q 2147 -91 1806 -91 
Q 1078 -91 686 257 
Q 294 606 294 1247 
Q 294 1794 489 2264 
Q 684 2734 1063 3103 
Q 1306 3334 1642 3459 
Q 1978 3584 2356 3584 
Q 2950 3584 3301 3228 
Q 3653 2872 3653 2272 
Q 3653 2128 3634 1964 
Q 3616 1800 3578 1613 
z
" transform="scale(0.015625)"/>
      <path id="DejaVuSans-31" d="M 794 531 
L 1825 531 
L 1825 4091 
L 703 3866 
L 703 4441 
L 1819 4666 
L 2450 4666 
L 2450 531 
L 3481 531 
L 3481 0 
L 794 0 
L 794 531 
z
" transform="scale(0.015625)"/>
     </defs>
     <use xlink:href="#DejaVuSans-Oblique-65"/>
     <use xlink:href="#DejaVuSans-31" transform="translate(61.523438 -16.40625) scale(0.7)"/>
    </g>
   </g>
   <g id="text_4">
    <!-- $u_1$ -->
    <g style="fill: #2a4d8f" transform="translate(90.651789 202.498125) scale(0.12 -0.12)">
     <defs>
      <path id="DejaVuSans-Oblique-75" d="M 428 1388 
L 838 3500 
L 1416 3500 
L 1006 1409 
Q 975 1256 961 1147 
Q 947 1038 947 966 
Q 947 700 1109 554 
Q 1272 409 1569 409 
Q 2031 409 2368 721 
Q 2706 1034 2809 1563 
L 3194 3500 
L 3769 3500 
L 3091 0 
L 2516 0 
L 2631 550 
Q 2388 244 2052 76 
Q 1716 -91 1338 -91 
Q 878 -91 622 161 
Q 366 413 366 863 
Q 366 956 381 1097 
Q 397 1238 428 1388 
z
" transform="scale(0.015625)"/>
     </defs>
     <use xlink:href="#DejaVuSans-Oblique-75" transform="translate(0 0.3125)"/>
     <use xlink:href="#DejaVuSans-31" transform="translate(63.378906 -16.09375) scale(0.7)"/>
    </g>
   </g>
   <g id="text_5">
    <!-- $w_1$ -->
    <g style="fill: #8f4a2a" transform="translate(217.726105 88.70023) scale(0.12 -0.12)">
     <defs>
      <path id="DejaVuSans-Oblique-77" d="M 544 3500 
L 1113 3500 
L 1259 684 
L 2566 3500 
L 3231 3500 
L 3425 684 
L 4666 3500 
L 5241 3500 
L 3641 0 
L 2969 0 
L 2797 2900 
L 1459 0 
L 781 0 
L 544 3500 
z
" transform="scale(0.015625)"/>
     </defs>
     <use xlink:href="#DejaVuSans-Oblique-77" transform="translate(0 0.3125)"/>
     <use xlink:href="#DejaVuSans-31" transform="translate(81.787109 -16.09375) scale(0.7)"/>
    </g>
   </g>
   <g id="text_6">
    <!-- 0 -->
    <g style="fill: #222222" transform="translate(202.553053 183.531809) scale(0.11 -0.11)">
     <defs>
      <path id="DejaVuSans-30" d="M 2034 4250 
Q 1547 4250 1301 3770 
Q 1056 3291 1056 2328 
Q 1056 1369 1301 889 
Q 1547 409 2034 409 
Q 2525 409 2770 889 
Q 3016 1369 3016 2328 
Q 3016 3291 2770 3770 
Q 2525 4250 2034 4250 
z
M 2034 4750 
Q 2819 4750 3233 4129 
Q 3647 3509 3647 2328 
Q 3647 1150 3233 529 
Q 2819 -91 2034 -91 
Q 1250 -91 836 529 
Q 422 1150 422 2328 
Q 422 3509 836 4129 
Q 1250 4750 2034 4750 
z
" transform="scale(0.015625)"/>
     </defs>
     <use xlink:href="#DejaVuSans-30"/>
    </g>
   </g>
   <g id="text_7">
    <!-- $e_i$ : basis of $U \cap W$ -->
    <g style="fill: #222222" transform="translate(29.959579 265.949711) scale(0.1 -0.1)">
     <defs>
      <path id="DejaVuSans-Oblique-69" d="M 1172 4863 
L 1747 4863 
L 1606 4134 
L 1031 4134 
L 1172 4863 
z
M 909 3500 
L 1484 3500 
L 800 0 
L 225 0 
L 909 3500 
z
" transform="scale(0.015625)"/>
      <path id="DejaVuSans-20" transform="scale(0.015625)"/>
      <path id="DejaVuSans-3a" d="M 750 794 
L 1409 794 
L 1409 0 
L 750 0 
L 750 794 
z
M 750 3309 
L 1409 3309 
L 1409 2516 
L 750 2516 
L 750 3309 
z
" transform="scale(0.015625)"/>
      <path id="DejaVuSans-62" d="M 3116 1747 
Q 3116 2381 2855 2742 
Q 2594 3103 2138 3103 
Q 1681 3103 1420 2742 
Q 1159 2381 1159 1747 
Q 1159 1113 1420 752 
Q 1681 391 2138 391 
Q 2594 391 2855 752 
Q 3116 1113 3116 1747 
z
M 1159 2969 
Q 1341 3281 1617 3432 
Q 1894 3584 2278 3584 
Q 2916 3584 3314 3078 
Q 3713 2572 3713 1747 
Q 3713 922 3314 415 
Q 2916 -91 2278 -91 
Q 1894 -91 1617 61 
Q 1341 213 1159 525 
L 1159 0 
L 581 0 
L 581 4863 
L 1159 4863 
L 1159 2969 
z
" transform="scale(0.015625)"/>
      <path id="DejaVuSans-61" d="M 2194 1759 
Q 1497 1759 1228 1600 
Q 959 1441 959 1056 
Q 959 750 1161 570 
Q 1363 391 1709 391 
Q 2188 391 2477 730 
Q 2766 1069 2766 1631 
L 2766 1759 
L 2194 1759 
z
M 3341 1997 
L 3341 0 
L 2766 0 
L 2766 531 
Q 2569 213 2275 61 
Q 1981 -91 1556 -91 
Q 1019 -91 701 211 
Q 384 513 384 1019 
Q 384 1609 779 1909 
Q 1175 2209 1959 2209 
L 2766 2209 
L 2766 2266 
Q 2766 2663 2505 2880 
Q 2244 3097 1772 3097 
Q 1472 3097 1187 3025 
Q 903 2953 641 2809 
L 641 3341 
Q 956 3463 1253 3523 
Q 1550 3584 1831 3584 
Q 2591 3584 2966 3190 
Q 3341 2797 3341 1997 
z
" transform="scale(0.015625)"/>
      <path id="DejaVuSans-73" d="M 2834 3397 
L 2834 2853 
Q 2591 2978 2328 3040 
Q 2066 3103 1784 3103 
Q 1356 3103 1142 2972 
Q 928 2841 928 2578 
Q 928 2378 1081 2264 
Q 1234 2150 1697 2047 
L 1894 2003 
Q 2506 1872 2764 1633 
Q 3022 1394 3022 966 
Q 3022 478 2636 193 
Q 2250 -91 1575 -91 
Q 1294 -91 989 -36 
Q 684 19 347 128 
L 347 722 
Q 666 556 975 473 
Q 1284 391 1588 391 
Q 1994 391 2212 530 
Q 2431 669 2431 922 
Q 2431 1156 2273 1281 
Q 2116 1406 1581 1522 
L 1381 1569 
Q 847 1681 609 1914 
Q 372 2147 372 2553 
Q 372 3047 722 3315 
Q 1072 3584 1716 3584 
Q 2034 3584 2315 3537 
Q 2597 3491 2834 3397 
z
" transform="scale(0.015625)"/>
      <path id="DejaVuSans-69" d="M 603 3500 
L 1178 3500 
L 1178 0 
L 603 0 
L 603 3500 
z
M 603 4863 
L 1178 4863 
L 1178 4134 
L 603 4134 
L 603 4863 
z
" transform="scale(0.015625)"/>
      <path id="DejaVuSans-6f" d="M 1959 3097 
Q 1497 3097 1228 2736 
Q 959 2375 959 1747 
Q 959 1119 1226 758 
Q 1494 397 1959 397 
Q 2419 397 2687 759 
Q 2956 1122 2956 1747 
Q 2956 2369 2687 2733 
Q 2419 3097 1959 3097 
z
M 1959 3584 
Q 2709 3584 3137 3096 
Q 3566 2609 3566 1747 
Q 3566 888 3137 398 
Q 2709 -91 1959 -91 
Q 1206 -91 779 398 
Q 353 888 353 1747 
Q 353 2609 779 3096 
Q 1206 3584 1959 3584 
z
" transform="scale(0.015625)"/>
      <path id="DejaVuSans-66" d="M 2375 4863 
L 2375 4384 
L 1825 4384 
Q 1516 4384 1395 4259 
Q 1275 4134 1275 3809 
L 1275 3500 
L 2222 3500 
L 2222 3053 
L 1275 3053 
L 1275 0 
L 697 0 
L 697 3053 
L 147 3053 
L 147 3500 
L 697 3500 
L 697 3744 
Q 697 4328 969 4595 
Q 1241 4863 1831 4863 
L 2375 4863 
z
" transform="scale(0.015625)"/>
      <path id="DejaVuSans-2229" d="M 825 1850 
Q 825 2775 1208 3240 
Q 1591 3706 2344 3706 
Q 3094 3706 3476 3240 
Q 3859 2775 3859 1850 
L 3859 0 
L 3322 0 
L 3322 1772 
Q 3322 2534 3090 2864 
Q 2859 3194 2344 3194 
Q 1825 3194 1594 2864 
Q 1363 2534 1363 1772 
L 1363 0 
L 825 0 
L 825 1850 
z
" transform="scale(0.015625)"/>
     </defs>
     <use xlink:href="#DejaVuSans-Oblique-65" transform="translate(0 0.015625)"/>
     <use xlink:href="#DejaVuSans-Oblique-69" transform="translate(61.523438 -16.390625) scale(0.7)"/>
     <use xlink:href="#DejaVuSans-20" transform="translate(83.706055 0.015625)"/>
     <use xlink:href="#DejaVuSans-3a" transform="translate(115.493164 0.015625)"/>
     <use xlink:href="#DejaVuSans-20" transform="translate(149.18457 0.015625)"/>
     <use xlink:href="#DejaVuSans-62" transform="translate(180.97168 0.015625)"/>
     <use xlink:href="#DejaVuSans-61" transform="translate(244.448242 0.015625)"/>
     <use xlink:href="#DejaVuSans-73" transform="translate(305.727539 0.015625)"/>
     <use xlink:href="#DejaVuSans-69" transform="translate(357.827148 0.015625)"/>
     <use xlink:href="#DejaVuSans-73" transform="translate(385.610352 0.015625)"/>
     <use xlink:href="#DejaVuSans-20" transform="translate(437.709961 0.015625)"/>
     <use xlink:href="#DejaVuSans-6f" transform="translate(469.49707 0.015625)"/>
     <use xlink:href="#DejaVuSans-66" transform="translate(530.678711 0.015625)"/>
     <use xlink:href="#DejaVuSans-20" transform="translate(565.883789 0.015625)"/>
     <use xlink:href="#DejaVuSans-Oblique-55" transform="translate(597.670898 0.015625)"/>
     <use xlink:href="#DejaVuSans-2229" transform="translate(690.34668 0.015625)"/>
     <use xlink:href="#DejaVuSans-Oblique-57" transform="translate(783.022461 0.015625)"/>
    </g>
   </g>
   <g id="text_8">
    <!-- $u_j$ : extend to basis of $U$ -->
    <g style="fill: #222222" transform="translate(29.959579 280.613388) scale(0.1 -0.1)">
     <defs>
      <path id="DejaVuSans-Oblique-6a" d="M 928 3500 
L 1503 3500 
L 813 -63 
L 809 -78 
Q 694 -675 544 -897 
Q 403 -1106 132 -1218 
Q -138 -1331 -506 -1331 
L -722 -1331 
L -628 -844 
L -481 -844 
Q -144 -844 -1 -703 
Q 141 -563 238 -63 
L 928 3500 
z
M 1197 4863 
L 1772 4863 
L 1631 4134 
L 1056 4134 
L 1197 4863 
z
" transform="scale(0.015625)"/>
      <path id="DejaVuSans-65" d="M 3597 1894 
L 3597 1613 
L 953 1613 
Q 991 1019 1311 708 
Q 1631 397 2203 397 
Q 2534 397 2845 478 
Q 3156 559 3463 722 
L 3463 178 
Q 3153 47 2828 -22 
Q 2503 -91 2169 -91 
Q 1331 -91 842 396 
Q 353 884 353 1716 
Q 353 2575 817 3079 
Q 1281 3584 2069 3584 
Q 2775 3584 3186 3129 
Q 3597 2675 3597 1894 
z
M 3022 2063 
Q 3016 2534 2758 2815 
Q 2500 3097 2075 3097 
Q 1594 3097 1305 2825 
Q 1016 2553 972 2059 
L 3022 2063 
z
" transform="scale(0.015625)"/>
      <path id="DejaVuSans-78" d="M 3513 3500 
L 2247 1797 
L 3578 0 
L 2900 0 
L 1881 1375 
L 863 0 
L 184 0 
L 1544 1831 
L 300 3500 
L 978 3500 
L 1906 2253 
L 2834 3500 
L 3513 3500 
z
" transform="scale(0.015625)"/>
      <path id="DejaVuSans-74" d="M 1172 4494 
L 1172 3500 
L 2356 3500 
L 2356 3053 
L 1172 3053 
L 1172 1153 
Q 1172 725 1289 603 
Q 1406 481 1766 481 
L 2356 481 
L 2356 0 
L 1766 0 
Q 1100 0 847 248 
Q 594 497 594 1153 
L 594 3053 
L 172 3053 
L 172 3500 
L 594 3500 
L 594 4494 
L 1172 4494 
z
" transform="scale(0.015625)"/>
      <path id="DejaVuSans-6e" d="M 3513 2113 
L 3513 0 
L 2938 0 
L 2938 2094 
Q 2938 2591 2744 2837 
Q 2550 3084 2163 3084 
Q 1697 3084 1428 2787 
Q 1159 2491 1159 1978 
L 1159 0 
L 581 0 
L 581 3500 
L 1159 3500 
L 1159 2956 
Q 1366 3272 1645 3428 
Q 1925 3584 2291 3584 
Q 2894 3584 3203 3211 
Q 3513 2838 3513 2113 
z
" transform="scale(0.015625)"/>
      <path id="DejaVuSans-64" d="M 2906 2969 
L 2906 4863 
L 3481 4863 
L 3481 0 
L 2906 0 
L 2906 525 
Q 2725 213 2448 61 
Q 2172 -91 1784 -91 
Q 1150 -91 751 415 
Q 353 922 353 1747 
Q 353 2572 751 3078 
Q 1150 3584 1784 3584 
Q 2172 3584 2448 3432 
Q 2725 3281 2906 2969 
z
M 947 1747 
Q 947 1113 1208 752 
Q 1469 391 1925 391 
Q 2381 391 2643 752 
Q 2906 1113 2906 1747 
Q 2906 2381 2643 2742 
Q 2381 3103 1925 3103 
Q 1469 3103 1208 2742 
Q 947 2381 947 1747 
z
" transform="scale(0.015625)"/>
     </defs>
     <use xlink:href="#DejaVuSans-Oblique-75" transform="translate(0 0.015625)"/>
     <use xlink:href="#DejaVuSans-Oblique-6a" transform="translate(63.378906 -16.390625) scale(0.7)"/>
     <use xlink:href="#DejaVuSans-20" transform="translate(85.561523 0.015625)"/>
     <use xlink:href="#DejaVuSans-3a" transform="translate(117.348633 0.015625)"/>
     <use xlink:href="#DejaVuSans-20" transform="translate(151.040039 0.015625)"/>
     <use xlink:href="#DejaVuSans-65" transform="translate(182.827148 0.015625)"/>
     <use xlink:href="#DejaVuSans-78" transform="translate(244.350586 0.015625)"/>
     <use xlink:href="#DejaVuSans-74" transform="translate(303.530273 0.015625)"/>
     <use xlink:href="#DejaVuSans-65" transform="translate(342.739258 0.015625)"/>
     <use xlink:href="#DejaVuSans-6e" transform="translate(404.262695 0.015625)"/>
     <use xlink:href="#DejaVuSans-64" transform="translate(467.641602 0.015625)"/>
     <use xlink:href="#DejaVuSans-20" transform="translate(531.118164 0.015625)"/>
     <use xlink:href="#DejaVuSans-74" transform="translate(562.905273 0.015625)"/>
     <use xlink:href="#DejaVuSans-6f" transform="translate(602.114258 0.015625)"/>
     <use xlink:href="#DejaVuSans-20" transform="translate(663.295898 0.015625)"/>
     <use xlink:href="#DejaVuSans-62" transform="translate(695.083008 0.015625)"/>
     <use xlink:href="#DejaVuSans-61" transform="translate(758.55957 0.015625)"/>
     <use xlink:href="#DejaVuSans-73" transform="translate(819.838867 0.015625)"/>
     <use xlink:href="#DejaVuSans-69" transform="translate(871.938477 0.015625)"/>
     <use xlink:href="#DejaVuSans-73" transform="translate(899.72168 0.015625)"/>
     <use xlink:href="#DejaVuSans-20" transform="translate(951.821289 0.015625)"/>
     <use xlink:href="#DejaVuSans-6f" transform="translate(983.608398 0.015625)"/>
     <use xlink:href="#DejaVuSans-66" transform="translate(1044.790039 0.015625)"/>
     <use xlink:href="#DejaVuSans-20" transform="translate(1079.995117 0.015625)"/>
     <use xlink:href="#DejaVuSans-Oblique-55" transform="translate(1111.782227 0.015625)"/>
    </g>
   </g>
   <g id="text_9">
    <!-- $w_k$ : extend to basis of $W$ -->
    <g style="fill: #222222" transform="translate(29.959579 296.295816) scale(0.1 -0.1)">
     <defs>
      <path id="DejaVuSans-Oblique-6b" d="M 1172 4863 
L 1747 4863 
L 1197 2028 
L 3169 3500 
L 3916 3500 
L 1716 1825 
L 3322 0 
L 2625 0 
L 1131 1709 
L 800 0 
L 225 0 
L 1172 4863 
z
" transform="scale(0.015625)"/>
     </defs>
     <use xlink:href="#DejaVuSans-Oblique-77" transform="translate(0 0.015625)"/>
     <use xlink:href="#DejaVuSans-Oblique-6b" transform="translate(81.787109 -16.390625) scale(0.7)"/>
     <use xlink:href="#DejaVuSans-20" transform="translate(125.058594 0.015625)"/>
     <use xlink:href="#DejaVuSans-3a" transform="translate(156.845703 0.015625)"/>
     <use xlink:href="#DejaVuSans-20" transform="translate(190.537109 0.015625)"/>
     <use xlink:href="#DejaVuSans-65" transform="translate(222.324219 0.015625)"/>
     <use xlink:href="#DejaVuSans-78" transform="translate(283.847656 0.015625)"/>
     <use xlink:href="#DejaVuSans-74" transform="translate(343.027344 0.015625)"/>
     <use xlink:href="#DejaVuSans-65" transform="translate(382.236328 0.015625)"/>
     <use xlink:href="#DejaVuSans-6e" transform="translate(443.759766 0.015625)"/>
     <use xlink:href="#DejaVuSans-64" transform="translate(507.138672 0.015625)"/>
     <use xlink:href="#DejaVuSans-20" transform="translate(570.615234 0.015625)"/>
     <use xlink:href="#DejaVuSans-74" transform="translate(602.402344 0.015625)"/>
     <use xlink:href="#DejaVuSans-6f" transform="translate(641.611328 0.015625)"/>
     <use xlink:href="#DejaVuSans-20" transform="translate(702.792969 0.015625)"/>
     <use xlink:href="#DejaVuSans-62" transform="translate(734.580078 0.015625)"/>
     <use xlink:href="#DejaVuSans-61" transform="translate(798.056641 0.015625)"/>
     <use xlink:href="#DejaVuSans-73" transform="translate(859.335938 0.015625)"/>
     <use xlink:href="#DejaVuSans-69" transform="translate(911.435547 0.015625)"/>
     <use xlink:href="#DejaVuSans-73" transform="translate(939.21875 0.015625)"/>
     <use xlink:href="#DejaVuSans-20" transform="translate(991.318359 0.015625)"/>
     <use xlink:href="#DejaVuSans-6f" transform="translate(1023.105469 0.015625)"/>
     <use xlink:href="#DejaVuSans-66" transform="translate(1084.287109 0.015625)"/>
     <use xlink:href="#DejaVuSans-20" transform="translate(1119.492188 0.015625)"/>
     <use xlink:href="#DejaVuSans-Oblique-57" transform="translate(1151.279297 0.015625)"/>
    </g>
   </g>
   <g id="text_10">
    <!-- basis of U + W split into three parts -->
    <g transform="translate(89.520345 16.318125) scale(0.12 -0.12)">
     <defs>
      <path id="DejaVuSans-Oblique-62" d="M 3169 2138 
Q 3169 2591 2961 2847 
Q 2753 3103 2388 3103 
Q 2122 3103 1889 2973 
Q 1656 2844 1484 2597 
Q 1303 2338 1198 1995 
Q 1094 1653 1094 1313 
Q 1094 881 1298 636 
Q 1503 391 1863 391 
Q 2134 391 2365 517 
Q 2597 644 2772 891 
Q 2950 1147 3059 1487 
Q 3169 1828 3169 2138 
z
M 1381 2969 
Q 1594 3256 1914 3420 
Q 2234 3584 2584 3584 
Q 3122 3584 3439 3221 
Q 3756 2859 3756 2241 
Q 3756 1734 3570 1259 
Q 3384 784 3041 416 
Q 2816 172 2522 40 
Q 2228 -91 1906 -91 
Q 1566 -91 1316 65 
Q 1066 222 909 531 
L 806 0 
L 231 0 
L 1178 4863 
L 1753 4863 
L 1381 2969 
z
" transform="scale(0.015625)"/>
      <path id="DejaVuSans-Oblique-61" d="M 3438 1997 
L 3047 0 
L 2472 0 
L 2578 531 
Q 2325 219 2001 64 
Q 1678 -91 1281 -91 
Q 834 -91 548 182 
Q 263 456 263 884 
Q 263 1497 752 1853 
Q 1241 2209 2100 2209 
L 2900 2209 
L 2931 2363 
Q 2938 2388 2941 2417 
Q 2944 2447 2944 2509 
Q 2944 2788 2717 2942 
Q 2491 3097 2081 3097 
Q 1800 3097 1504 3025 
Q 1209 2953 897 2809 
L 997 3341 
Q 1322 3463 1633 3523 
Q 1944 3584 2234 3584 
Q 2853 3584 3176 3315 
Q 3500 3047 3500 2534 
Q 3500 2431 3484 2292 
Q 3469 2153 3438 1997 
z
M 2816 1759 
L 2241 1759 
Q 1534 1759 1195 1570 
Q 856 1381 856 984 
Q 856 709 1029 553 
Q 1203 397 1509 397 
Q 1978 397 2328 733 
Q 2678 1069 2791 1631 
L 2816 1759 
z
" transform="scale(0.015625)"/>
      <path id="DejaVuSans-Oblique-73" d="M 3200 3397 
L 3091 2853 
Q 2863 2978 2609 3040 
Q 2356 3103 2088 3103 
Q 1634 3103 1373 2948 
Q 1113 2794 1113 2528 
Q 1113 2219 1719 2053 
Q 1766 2041 1788 2034 
L 1972 1978 
Q 2547 1819 2739 1644 
Q 2931 1469 2931 1166 
Q 2931 609 2489 259 
Q 2047 -91 1331 -91 
Q 1053 -91 747 -37 
Q 441 16 72 128 
L 184 722 
Q 500 559 806 475 
Q 1113 391 1394 391 
Q 1816 391 2080 572 
Q 2344 753 2344 1031 
Q 2344 1331 1650 1516 
L 1591 1531 
L 1394 1581 
Q 956 1697 753 1886 
Q 550 2075 550 2369 
Q 550 2928 970 3256 
Q 1391 3584 2113 3584 
Q 2397 3584 2667 3537 
Q 2938 3491 3200 3397 
z
" transform="scale(0.015625)"/>
      <path id="DejaVuSans-Oblique-20" transform="scale(0.015625)"/>
      <path id="DejaVuSans-Oblique-6f" d="M 1625 -91 
Q 1009 -91 651 289 
Q 294 669 294 1325 
Q 294 1706 417 2101 
Q 541 2497 738 2766 
Q 1047 3184 1428 3384 
Q 1809 3584 2291 3584 
Q 2888 3584 3255 3212 
Q 3622 2841 3622 2241 
Q 3622 1825 3500 1412 
Q 3378 1000 3181 728 
Q 2875 309 2494 109 
Q 2113 -91 1625 -91 
z
M 891 1344 
Q 891 869 1089 633 
Q 1288 397 1691 397 
Q 2269 397 2648 901 
Q 3028 1406 3028 2181 
Q 3028 2634 2825 2865 
Q 2622 3097 2228 3097 
Q 1903 3097 1650 2945 
Q 1397 2794 1197 2484 
Q 1050 2253 970 1956 
Q 891 1659 891 1344 
z
" transform="scale(0.015625)"/>
      <path id="DejaVuSans-Oblique-66" d="M 3059 4863 
L 2969 4384 
L 2419 4384 
Q 2106 4384 1964 4261 
Q 1822 4138 1753 3809 
L 1691 3500 
L 2638 3500 
L 2553 3053 
L 1606 3053 
L 1013 0 
L 434 0 
L 1031 3053 
L 481 3053 
L 563 3500 
L 1113 3500 
L 1159 3744 
Q 1278 4363 1576 4613 
Q 1875 4863 2516 4863 
L 3059 4863 
z
" transform="scale(0.015625)"/>
      <path id="DejaVuSans-Oblique-2b" d="M 2944 4013 
L 2944 2272 
L 4684 2272 
L 4684 1741 
L 2944 1741 
L 2944 0 
L 2419 0 
L 2419 1741 
L 678 1741 
L 678 2272 
L 2419 2272 
L 2419 4013 
L 2944 4013 
z
" transform="scale(0.015625)"/>
      <path id="DejaVuSans-Oblique-70" d="M 3175 2156 
Q 3175 2616 2975 2859 
Q 2775 3103 2400 3103 
Q 2144 3103 1911 2972 
Q 1678 2841 1497 2591 
Q 1319 2344 1212 1994 
Q 1106 1644 1106 1300 
Q 1106 863 1306 627 
Q 1506 391 1875 391 
Q 2147 391 2380 519 
Q 2613 647 2778 891 
Q 2956 1147 3065 1494 
Q 3175 1841 3175 2156 
z
M 1394 2969 
Q 1625 3272 1939 3428 
Q 2253 3584 2638 3584 
Q 3175 3584 3472 3232 
Q 3769 2881 3769 2247 
Q 3769 1728 3584 1258 
Q 3400 788 3053 416 
Q 2822 169 2531 39 
Q 2241 -91 1919 -91 
Q 1547 -91 1294 64 
Q 1041 219 916 525 
L 556 -1331 
L -19 -1331 
L 922 3500 
L 1497 3500 
L 1394 2969 
z
" transform="scale(0.015625)"/>
      <path id="DejaVuSans-Oblique-6c" d="M 1172 4863 
L 1747 4863 
L 800 0 
L 225 0 
L 1172 4863 
z
" transform="scale(0.015625)"/>
      <path id="DejaVuSans-Oblique-74" d="M 2706 3500 
L 2619 3053 
L 1472 3053 
L 1100 1153 
Q 1081 1047 1072 975 
Q 1063 903 1063 863 
Q 1063 663 1183 572 
Q 1303 481 1569 481 
L 2150 481 
L 2053 0 
L 1503 0 
Q 991 0 739 200 
Q 488 400 488 806 
Q 488 878 497 964 
Q 506 1050 525 1153 
L 897 3053 
L 409 3053 
L 500 3500 
L 978 3500 
L 1172 4494 
L 1747 4494 
L 1556 3500 
L 2706 3500 
z
" transform="scale(0.015625)"/>
      <path id="DejaVuSans-Oblique-6e" d="M 3566 2113 
L 3156 0 
L 2578 0 
L 2988 2091 
Q 3016 2238 3031 2350 
Q 3047 2463 3047 2528 
Q 3047 2791 2881 2937 
Q 2716 3084 2419 3084 
Q 1956 3084 1622 2776 
Q 1288 2469 1184 1941 
L 800 0 
L 225 0 
L 903 3500 
L 1478 3500 
L 1363 2950 
Q 1603 3253 1940 3418 
Q 2278 3584 2650 3584 
Q 3113 3584 3367 3334 
Q 3622 3084 3622 2631 
Q 3622 2519 3608 2391 
Q 3594 2263 3566 2113 
z
" transform="scale(0.015625)"/>
      <path id="DejaVuSans-Oblique-68" d="M 3566 2113 
L 3156 0 
L 2578 0 
L 2988 2091 
Q 3016 2238 3031 2350 
Q 3047 2463 3047 2528 
Q 3047 2791 2881 2937 
Q 2716 3084 2419 3084 
Q 1956 3084 1617 2771 
Q 1278 2459 1178 1941 
L 800 0 
L 225 0 
L 1172 4863 
L 1747 4863 
L 1375 2950 
Q 1594 3244 1934 3414 
Q 2275 3584 2650 3584 
Q 3113 3584 3367 3334 
Q 3622 3084 3622 2631 
Q 3622 2519 3608 2391 
Q 3594 2263 3566 2113 
z
" transform="scale(0.015625)"/>
      <path id="DejaVuSans-Oblique-72" d="M 2853 2969 
Q 2766 3016 2653 3041 
Q 2541 3066 2413 3066 
Q 1953 3066 1609 2717 
Q 1266 2369 1153 1784 
L 800 0 
L 225 0 
L 909 3500 
L 1484 3500 
L 1375 2956 
Q 1603 3259 1920 3421 
Q 2238 3584 2597 3584 
Q 2691 3584 2781 3573 
Q 2872 3563 2963 3538 
L 2853 2969 
z
" transform="scale(0.015625)"/>
     </defs>
     <use xlink:href="#DejaVuSans-Oblique-62"/>
     <use xlink:href="#DejaVuSans-Oblique-61" transform="translate(63.476562 0)"/>
     <use xlink:href="#DejaVuSans-Oblique-73" transform="translate(124.755859 0)"/>
     <use xlink:href="#DejaVuSans-Oblique-69" transform="translate(176.855469 0)"/>
     <use xlink:href="#DejaVuSans-Oblique-73" transform="translate(204.638672 0)"/>
     <use xlink:href="#DejaVuSans-Oblique-20" transform="translate(256.738281 0)"/>
     <use xlink:href="#DejaVuSans-Oblique-6f" transform="translate(288.525391 0)"/>
     <use xlink:href="#DejaVuSans-Oblique-66" transform="translate(349.707031 0)"/>
     <use xlink:href="#DejaVuSans-Oblique-20" transform="translate(384.912109 0)"/>
     <use xlink:href="#DejaVuSans-Oblique-55" transform="translate(416.699219 0)"/>
     <use xlink:href="#DejaVuSans-Oblique-20" transform="translate(489.892578 0)"/>
     <use xlink:href="#DejaVuSans-Oblique-2b" transform="translate(521.679688 0)"/>
     <use xlink:href="#DejaVuSans-Oblique-20" transform="translate(605.46875 0)"/>
     <use xlink:href="#DejaVuSans-Oblique-57" transform="translate(637.255859 0)"/>
     <use xlink:href="#DejaVuSans-Oblique-20" transform="translate(736.132812 0)"/>
     <use xlink:href="#DejaVuSans-Oblique-73" transform="translate(767.919922 0)"/>
     <use xlink:href="#DejaVuSans-Oblique-70" transform="translate(820.019531 0)"/>
     <use xlink:href="#DejaVuSans-Oblique-6c" transform="translate(883.496094 0)"/>
     <use xlink:href="#DejaVuSans-Oblique-69" transform="translate(911.279297 0)"/>
     <use xlink:href="#DejaVuSans-Oblique-74" transform="translate(939.0625 0)"/>
     <use xlink:href="#DejaVuSans-Oblique-20" transform="translate(978.271484 0)"/>
     <use xlink:href="#DejaVuSans-Oblique-69" transform="translate(1010.058594 0)"/>
     <use xlink:href="#DejaVuSans-Oblique-6e" transform="translate(1037.841797 0)"/>
     <use xlink:href="#DejaVuSans-Oblique-74" transform="translate(1101.220703 0)"/>
     <use xlink:href="#DejaVuSans-Oblique-6f" transform="translate(1140.429688 0)"/>
     <use xlink:href="#DejaVuSans-Oblique-20" transform="translate(1201.611328 0)"/>
     <use xlink:href="#DejaVuSans-Oblique-74" transform="translate(1233.398438 0)"/>
     <use xlink:href="#DejaVuSans-Oblique-68" transform="translate(1272.607422 0)"/>
     <use xlink:href="#DejaVuSans-Oblique-72" transform="translate(1335.986328 0)"/>
     <use xlink:href="#DejaVuSans-Oblique-65" transform="translate(1377.099609 0)"/>
     <use xlink:href="#DejaVuSans-Oblique-65" transform="translate(1438.623047 0)"/>
     <use xlink:href="#DejaVuSans-Oblique-20" transform="translate(1500.146484 0)"/>
     <use xlink:href="#DejaVuSans-Oblique-70" transform="translate(1531.933594 0)"/>
     <use xlink:href="#DejaVuSans-Oblique-61" transform="translate(1595.410156 0)"/>
     <use xlink:href="#DejaVuSans-Oblique-72" transform="translate(1656.689453 0)"/>
     <use xlink:href="#DejaVuSans-Oblique-74" transform="translate(1697.802734 0)"/>
     <use xlink:href="#DejaVuSans-Oblique-73" transform="translate(1737.011719 0)"/>
    </g>
   </g>
  </g>
 </g>
 <defs>
  <clipPath id="p560137dc89">
   <rect x="7.2" y="22.318125" width="379.326316" height="288.288"/>
  </clipPath>
 </defs>
</svg>
