<?xml version="1.0" encoding="utf-8" standalone="no"?>
<!DOCTYPE svg PUBLIC "-//W3C//DTD SVG 1.1//EN"
  "http://www.w3.org/Graphics/SVG/1.1/DTD/svg11.dtd">
<svg xmlns:xlink="http://www.w3.org/1999/xlink" width="488.7pt" height="235.048125pt" viewBox="0 0 488.7 235.048125" xmlns="http://www.w3.org/2000/svg" version="1.1">
 <metadata>
  <rdf:RDF xmlns:dc="http://purl.org/dc/elements/1.1/" xmlns:cc="http://creativecommons.org/ns#" xmlns:rdf="http://www.w3.org/1999/02/22-rdf-syntax-ns#">
   <cc:Work>
    <dc:type rdf:resource="http://purl.org/dc/dcmitype/StillImage"/>
    <dc:date>2026-05-16T20:53:46.053406</dc:date>
    <dc:format>image/svg+xml</dc:format>
    <dc:creator>
     <cc:Agent>
      <dc:title>Matplotlib v3.10.8, https://matplotlib.org/</dc:title>
     </cc:Agent>
    </dc:creator>
   </cc:Work>
  </rdf:RDF>
 </metadata>
 <defs>
  <style type="text/css">*{stroke-linejoin: round; stroke-linecap: butt}</style>
 </defs>
 <g id="figure_1">
  <g id="patch_1">
   <path d="M 0 235.048125 
L 488.7 235.048125 
L 488.7 0 
L 0 0 
z
" style="fill: #ffffff"/>
  </g>
  <g id="axes_1">
   <g id="patch_2">
    <path d="M 7.2 227.848125 
L 481.5 227.848125 
L 481.5 22.318125 
L 7.2 22.318125 
z
" style="fill: #ffffff"/>
   </g>
   <g id="patch_3">
    <path d="M 181.11 172.513125 
C 210.460027 172.513125 238.611904 166.26622 259.365507 155.148218 
C 280.119111 144.030217 291.78 128.948854 291.78 113.225625 
C 291.78 97.502396 280.119111 82.421033 259.365507 71.303032 
C 238.611904 60.18503 210.460027 53.938125 181.11 53.938125 
C 151.759973 53.938125 123.608096 60.18503 102.854493 71.303032 
C 82.100889 82.421033 70.44 97.502396 70.44 113.225625 
C 70.44 128.948854 82.100889 144.030217 102.854493 155.148218 
C 123.608096 166.26622 151.759973 172.513125 181.11 172.513125 
z
" clip-path="url(#p08bb63857e)" style="fill: #9fb8e6; opacity: 0.65; stroke: #2a4d8f; stroke-width: 1.6; stroke-linejoin: miter"/>
   </g>
   <g id="patch_4">
    <path d="M 307.59 172.513125 
C 336.940027 172.513125 365.091904 166.26622 385.845507 155.148218 
C 406.599111 144.030217 418.26 128.948854 418.26 113.225625 
C 418.26 97.502396 406.599111 82.421033 385.845507 71.303032 
C 365.091904 60.18503 336.940027 53.938125 307.59 53.938125 
C 278.239973 53.938125 250.088096 60.18503 229.334493 71.303032 
C 208.580889 82.421033 196.92 97.502396 196.92 113.225625 
C 196.92 128.948854 208.580889 144.030217 229.334493 155.148218 
C 250.088096 166.26622 278.239973 172.513125 307.59 172.513125 
z
" clip-path="url(#p08bb63857e)" style="fill: #e6b89c; opacity: 0.65; stroke: #8f4a2a; stroke-width: 1.6; stroke-linejoin: miter"/>
   </g>
   <g id="matplotlib.axis_1"/>
   <g id="matplotlib.axis_2"/>
   <g id="patch_5">
    <path d="M 7.2 227.848125 
L 7.2 22.318125 
" style="fill: none; stroke: #dddddd; stroke-width: 0.8; stroke-linejoin: miter; stroke-linecap: square"/>
   </g>
   <g id="patch_6">
    <path d="M 481.5 227.848125 
L 481.5 22.318125 
" style="fill: none; stroke: #dddddd; stroke-width: 0.8; stroke-linejoin: miter; stroke-linecap: square"/>
   </g>
   <g id="patch_7">
    <path d="M 7.2 227.848125 
L 481.5 227.848125 
" style="fill: none; stroke: #dddddd; stroke-width: 0.8; stroke-linejoin: miter; stroke-linecap: square"/>
   </g>
   <g id="patch_8">
    <path d="M 7.2 22.318125 
L 481.5 22.318125 
" style="fill: none; stroke: #dddddd; stroke-width: 0.8; stroke-linejoin: miter; stroke-linecap: square"/>
   </g>
   <g id="text_1">
    <!-- U -->
    <g style="fill: #2a4d8f" transform="translate(81.126875 113.225625) scale(0.14 -0.14)">
     <defs>
      <path id="DejaVuSans-Oblique-55" d="M 991 4666 
L 1625 4666 
L 1075 1831 
Q 1041 1641 1027 1517 
Q 1013 1394 1013 1300 
Q 1013 869 1253 645 
Q 1494 422 1959 422 
Q 2563 422 2898 753 
Q 3234 1084 3378 1831 
L 3928 4666 
L 4563 4666 
L 4000 1753 
Q 3816 809 3300 359 
Q 2784 -91 1888 -91 
Q 1188 -91 780 261 
Q 372 613 372 1216 
Q 372 1325 387 1461 
Q 403 1597 434 1753 
L 991 4666 
z
" transform="scale(0.015625)"/>
     </defs>
     <use xlink:href="#DejaVuSans-Oblique-55"/>
    </g>
   </g>
   <g id="text_2">
    <!-- W -->
    <g style="fill: #8f4a2a" transform="translate(395.52875 113.225625) scale(0.14 -0.14)">
     <defs>
      <path id="DejaVuSans-Oblique-57" d="M 616 4666 
L 1228 4666 
L 1453 697 
L 3213 4666 
L 3916 4666 
L 4147 697 
L 5888 4666 
L 6528 4666 
L 4453 0 
L 3659 0 
L 3444 3891 
L 1697 0 
L 903 0 
L 616 4666 
z
" transform="scale(0.015625)"/>
     </defs>
     <use xlink:href="#DejaVuSans-Oblique-57"/>
    </g>
   </g>
   <g id="text_3">
    <!-- U ∩ W -->
    <g style="fill: #3a2a8f" transform="translate(223.810313 103.344375) scale(0.12 -0.12)">
     <defs>
      <path id="DejaVuSans-Bold-55" d="M 588 4666 
L 1791 4666 
L 1791 1869 
Q 1791 1291 1980 1042 
Q 2169 794 2597 794 
Q 3028 794 3217 1042 
Q 3406 1291 3406 1869 
L 3406 4666 
L 4609 4666 
L 4609 1869 
Q 4609 878 4112 393 
Q 3616 -91 2597 -91 
Q 1581 -91 1084 393 
Q 588 878 588 1869 
L 588 4666 
z
" transform="scale(0.015625)"/>
      <path id="DejaVuSans-Bold-20" transform="scale(0.015625)"/>
      <path id="DejaVuSans-Bold-2229" d="M 966 1734 
Q 966 2784 1313 3222 
Q 1697 3706 2597 3706 
Q 3463 3706 3884 3222 
Q 4231 2825 4231 1734 
L 4231 0 
L 3363 0 
L 3363 1734 
Q 3363 2366 3219 2575 
Q 3044 2822 2597 2822 
Q 2169 2822 1981 2575 
Q 1834 2384 1834 1734 
L 1834 0 
L 966 0 
L 966 1734 
z
" transform="scale(0.015625)"/>
      <path id="DejaVuSans-Bold-57" d="M 191 4666 
L 1344 4666 
L 2150 1275 
L 2950 4666 
L 4109 4666 
L 4909 1275 
L 5716 4666 
L 6859 4666 
L 5759 0 
L 4372 0 
L 3525 3547 
L 2688 0 
L 1300 0 
L 191 4666 
z
" transform="scale(0.015625)"/>
     </defs>
     <use xlink:href="#DejaVuSans-Bold-55"/>
     <use xlink:href="#DejaVuSans-Bold-20" transform="translate(81.201172 0)"/>
     <use xlink:href="#DejaVuSans-Bold-2229" transform="translate(116.015625 0)"/>
     <use xlink:href="#DejaVuSans-Bold-20" transform="translate(197.216797 0)"/>
     <use xlink:href="#DejaVuSans-Bold-57" transform="translate(232.03125 0)"/>
    </g>
   </g>
   <g id="text_4">
    <!-- (counted twice) -->
    <g style="fill: #3a2a8f" transform="translate(209.149453 121.130625) scale(0.09 -0.09)">
     <defs>
      <path id="DejaVuSans-28" d="M 1984 4856 
Q 1566 4138 1362 3434 
Q 1159 2731 1159 2009 
Q 1159 1288 1364 580 
Q 1569 -128 1984 -844 
L 1484 -844 
Q 1016 -109 783 600 
Q 550 1309 550 2009 
Q 550 2706 781 3412 
Q 1013 4119 1484 4856 
L 1984 4856 
z
" transform="scale(0.015625)"/>
      <path id="DejaVuSans-63" d="M 3122 3366 
L 3122 2828 
Q 2878 2963 2633 3030 
Q 2388 3097 2138 3097 
Q 1578 3097 1268 2742 
Q 959 2388 959 1747 
Q 959 1106 1268 751 
Q 1578 397 2138 397 
Q 2388 397 2633 464 
Q 2878 531 3122 666 
L 3122 134 
Q 2881 22 2623 -34 
Q 2366 -91 2075 -91 
Q 1284 -91 818 406 
Q 353 903 353 1747 
Q 353 2603 823 3093 
Q 1294 3584 2113 3584 
Q 2378 3584 2631 3529 
Q 2884 3475 3122 3366 
z
" transform="scale(0.015625)"/>
      <path id="DejaVuSans-6f" d="M 1959 3097 
Q 1497 3097 1228 2736 
Q 959 2375 959 1747 
Q 959 1119 1226 758 
Q 1494 397 1959 397 
Q 2419 397 2687 759 
Q 2956 1122 2956 1747 
Q 2956 2369 2687 2733 
Q 2419 3097 1959 3097 
z
M 1959 3584 
Q 2709 3584 3137 3096 
Q 3566 2609 3566 1747 
Q 3566 888 3137 398 
Q 2709 -91 1959 -91 
Q 1206 -91 779 398 
Q 353 888 353 1747 
Q 353 2609 779 3096 
Q 1206 3584 1959 3584 
z
" transform="scale(0.015625)"/>
      <path id="DejaVuSans-75" d="M 544 1381 
L 544 3500 
L 1119 3500 
L 1119 1403 
Q 1119 906 1312 657 
Q 1506 409 1894 409 
Q 2359 409 2629 706 
Q 2900 1003 2900 1516 
L 2900 3500 
L 3475 3500 
L 3475 0 
L 2900 0 
L 2900 538 
Q 2691 219 2414 64 
Q 2138 -91 1772 -91 
Q 1169 -91 856 284 
Q 544 659 544 1381 
z
M 1991 3584 
L 1991 3584 
z
" transform="scale(0.015625)"/>
      <path id="DejaVuSans-6e" d="M 3513 2113 
L 3513 0 
L 2938 0 
L 2938 2094 
Q 2938 2591 2744 2837 
Q 2550 3084 2163 3084 
Q 1697 3084 1428 2787 
Q 1159 2491 1159 1978 
L 1159 0 
L 581 0 
L 581 3500 
L 1159 3500 
L 1159 2956 
Q 1366 3272 1645 3428 
Q 1925 3584 2291 3584 
Q 2894 3584 3203 3211 
Q 3513 2838 3513 2113 
z
" transform="scale(0.015625)"/>
      <path id="DejaVuSans-74" d="M 1172 4494 
L 1172 3500 
L 2356 3500 
L 2356 3053 
L 1172 3053 
L 1172 1153 
Q 1172 725 1289 603 
Q 1406 481 1766 481 
L 2356 481 
L 2356 0 
L 1766 0 
Q 1100 0 847 248 
Q 594 497 594 1153 
L 594 3053 
L 172 3053 
L 172 3500 
L 594 3500 
L 594 4494 
L 1172 4494 
z
" transform="scale(0.015625)"/>
      <path id="DejaVuSans-65" d="M 3597 1894 
L 3597 1613 
L 953 1613 
Q 991 1019 1311 708 
Q 1631 397 2203 397 
Q 2534 397 2845 478 
Q 3156 559 3463 722 
L 3463 178 
Q 3153 47 2828 -22 
Q 2503 -91 2169 -91 
Q 1331 -91 842 396 
Q 353 884 353 1716 
Q 353 2575 817 3079 
Q 1281 3584 2069 3584 
Q 2775 3584 3186 3129 
Q 3597 2675 3597 1894 
z
M 3022 2063 
Q 3016 2534 2758 2815 
Q 2500 3097 2075 3097 
Q 1594 3097 1305 2825 
Q 1016 2553 972 2059 
L 3022 2063 
z
" transform="scale(0.015625)"/>
      <path id="DejaVuSans-64" d="M 2906 2969 
L 2906 4863 
L 3481 4863 
L 3481 0 
L 2906 0 
L 2906 525 
Q 2725 213 2448 61 
Q 2172 -91 1784 -91 
Q 1150 -91 751 415 
Q 353 922 353 1747 
Q 353 2572 751 3078 
Q 1150 3584 1784 3584 
Q 2172 3584 2448 3432 
Q 2725 3281 2906 2969 
z
M 947 1747 
Q 947 1113 1208 752 
Q 1469 391 1925 391 
Q 2381 391 2643 752 
Q 2906 1113 2906 1747 
Q 2906 2381 2643 2742 
Q 2381 3103 1925 3103 
Q 1469 3103 1208 2742 
Q 947 2381 947 1747 
z
" transform="scale(0.015625)"/>
      <path id="DejaVuSans-20" transform="scale(0.015625)"/>
      <path id="DejaVuSans-77" d="M 269 3500 
L 844 3500 
L 1563 769 
L 2278 3500 
L 2956 3500 
L 3675 769 
L 4391 3500 
L 4966 3500 
L 4050 0 
L 3372 0 
L 2619 2869 
L 1863 0 
L 1184 0 
L 269 3500 
z
" transform="scale(0.015625)"/>
      <path id="DejaVuSans-69" d="M 603 3500 
L 1178 3500 
L 1178 0 
L 603 0 
L 603 3500 
z
M 603 4863 
L 1178 4863 
L 1178 4134 
L 603 4134 
L 603 4863 
z
" transform="scale(0.015625)"/>
      <path id="DejaVuSans-29" d="M 513 4856 
L 1013 4856 
Q 1481 4119 1714 3412 
Q 1947 2706 1947 2009 
Q 1947 1309 1714 600 
Q 1481 -109 1013 -844 
L 513 -844 
Q 928 -128 1133 580 
Q 1338 1288 1338 2009 
Q 1338 2731 1133 3434 
Q 928 4138 513 4856 
z
" transform="scale(0.015625)"/>
     </defs>
     <use xlink:href="#DejaVuSans-28"/>
     <use xlink:href="#DejaVuSans-63" transform="translate(39.013672 0)"/>
     <use xlink:href="#DejaVuSans-6f" transform="translate(93.994141 0)"/>
     <use xlink:href="#DejaVuSans-75" transform="translate(155.175781 0)"/>
     <use xlink:href="#DejaVuSans-6e" transform="translate(218.554688 0)"/>
     <use xlink:href="#DejaVuSans-74" transform="translate(281.933594 0)"/>
     <use xlink:href="#DejaVuSans-65" transform="translate(321.142578 0)"/>
     <use xlink:href="#DejaVuSans-64" transform="translate(382.666016 0)"/>
     <use xlink:href="#DejaVuSans-20" transform="translate(446.142578 0)"/>
     <use xlink:href="#DejaVuSans-74" transform="translate(477.929688 0)"/>
     <use xlink:href="#DejaVuSans-77" transform="translate(517.138672 0)"/>
     <use xlink:href="#DejaVuSans-69" transform="translate(598.925781 0)"/>
     <use xlink:href="#DejaVuSans-63" transform="translate(626.708984 0)"/>
     <use xlink:href="#DejaVuSans-65" transform="translate(681.689453 0)"/>
     <use xlink:href="#DejaVuSans-29" transform="translate(743.212891 0)"/>
    </g>
   </g>
   <g id="patch_9">
    <path d="M 441.975 196.255144 
L 441.975 210.061875 
L 46.725 210.061875 
L 46.725 196.255144 
" style="fill: none; stroke: #444444; stroke-width: 1.4; stroke-linecap: round"/>
   </g>
   <g id="text_5">
    <!-- U + W -->
    <g style="fill: #444444" transform="translate(225.184688 215.990625) scale(0.12 -0.12)">
     <defs>
      <path id="DejaVuSans-Oblique-20" transform="scale(0.015625)"/>
      <path id="DejaVuSans-Oblique-2b" d="M 2944 4013 
L 2944 2272 
L 4684 2272 
L 4684 1741 
L 2944 1741 
L 2944 0 
L 2419 0 
L 2419 1741 
L 678 1741 
L 678 2272 
L 2419 2272 
L 2419 4013 
L 2944 4013 
z
" transform="scale(0.015625)"/>
     </defs>
     <use xlink:href="#DejaVuSans-Oblique-55"/>
     <use xlink:href="#DejaVuSans-Oblique-20" transform="translate(73.193359 0)"/>
     <use xlink:href="#DejaVuSans-Oblique-2b" transform="translate(104.980469 0)"/>
     <use xlink:href="#DejaVuSans-Oblique-20" transform="translate(188.769531 0)"/>
     <use xlink:href="#DejaVuSans-Oblique-57" transform="translate(220.556641 0)"/>
    </g>
   </g>
   <g id="text_6">
    <!-- $\dim(U+W) \;=\; \dim U + \dim W \;-\; \dim(U \cap W)$ -->
    <g transform="translate(114.09 16.318125) scale(0.12 -0.12)">
     <defs>
      <path id="DejaVuSans-6d" d="M 3328 2828 
Q 3544 3216 3844 3400 
Q 4144 3584 4550 3584 
Q 5097 3584 5394 3201 
Q 5691 2819 5691 2113 
L 5691 0 
L 5113 0 
L 5113 2094 
Q 5113 2597 4934 2840 
Q 4756 3084 4391 3084 
Q 3944 3084 3684 2787 
Q 3425 2491 3425 1978 
L 3425 0 
L 2847 0 
L 2847 2094 
Q 2847 2600 2669 2842 
Q 2491 3084 2119 3084 
Q 1678 3084 1418 2786 
Q 1159 2488 1159 1978 
L 1159 0 
L 581 0 
L 581 3500 
L 1159 3500 
L 1159 2956 
Q 1356 3278 1631 3431 
Q 1906 3584 2284 3584 
Q 2666 3584 2933 3390 
Q 3200 3197 3328 2828 
z
" transform="scale(0.015625)"/>
      <path id="DejaVuSans-2b" d="M 2944 4013 
L 2944 2272 
L 4684 2272 
L 4684 1741 
L 2944 1741 
L 2944 0 
L 2419 0 
L 2419 1741 
L 678 1741 
L 678 2272 
L 2419 2272 
L 2419 4013 
L 2944 4013 
z
" transform="scale(0.015625)"/>
      <path id="DejaVuSans-3d" d="M 678 2906 
L 4684 2906 
L 4684 2381 
L 678 2381 
L 678 2906 
z
M 678 1631 
L 4684 1631 
L 4684 1100 
L 678 1100 
L 678 1631 
z
" transform="scale(0.015625)"/>
      <path id="DejaVuSans-2212" d="M 678 2272 
L 4684 2272 
L 4684 1741 
L 678 1741 
L 678 2272 
z
" transform="scale(0.015625)"/>
      <path id="DejaVuSans-2229" d="M 825 1850 
Q 825 2775 1208 3240 
Q 1591 3706 2344 3706 
Q 3094 3706 3476 3240 
Q 3859 2775 3859 1850 
L 3859 0 
L 3322 0 
L 3322 1772 
Q 3322 2534 3090 2864 
Q 2859 3194 2344 3194 
Q 1825 3194 1594 2864 
Q 1363 2534 1363 1772 
L 1363 0 
L 825 0 
L 825 1850 
z
" transform="scale(0.015625)"/>
     </defs>
     <use xlink:href="#DejaVuSans-64" transform="translate(0 0.015625)"/>
     <use xlink:href="#DejaVuSans-69" transform="translate(63.476562 0.015625)"/>
     <use xlink:href="#DejaVuSans-6d" transform="translate(91.259766 0.015625)"/>
     <use xlink:href="#DejaVuSans-28" transform="translate(188.671875 0.015625)"/>
     <use xlink:href="#DejaVuSans-Oblique-55" transform="translate(227.685547 0.015625)"/>
     <use xlink:href="#DejaVuSans-2b" transform="translate(320.361328 0.015625)"/>
     <use xlink:href="#DejaVuSans-Oblique-57" transform="translate(423.632812 0.015625)"/>
     <use xlink:href="#DejaVuSans-29" transform="translate(522.509766 0.015625)"/>
     <use xlink:href="#DejaVuSans-3d" transform="translate(608.064995 0.015625)"/>
     <use xlink:href="#DejaVuSans-64" transform="translate(738.395615 0.015625)"/>
     <use xlink:href="#DejaVuSans-69" transform="translate(801.872178 0.015625)"/>
     <use xlink:href="#DejaVuSans-6d" transform="translate(829.655381 0.015625)"/>
     <use xlink:href="#DejaVuSans-Oblique-55" transform="translate(943.303167 0.015625)"/>
     <use xlink:href="#DejaVuSans-2b" transform="translate(1035.978948 0.015625)"/>
     <use xlink:href="#DejaVuSans-64" transform="translate(1139.250432 0.015625)"/>
     <use xlink:href="#DejaVuSans-69" transform="translate(1202.726995 0.015625)"/>
     <use xlink:href="#DejaVuSans-6d" transform="translate(1230.510198 0.015625)"/>
     <use xlink:href="#DejaVuSans-Oblique-57" transform="translate(1344.157983 0.015625)"/>
     <use xlink:href="#DejaVuSans-2212" transform="translate(1489.576494 0.015625)"/>
     <use xlink:href="#DejaVuSans-64" transform="translate(1619.907114 0.015625)"/>
     <use xlink:href="#DejaVuSans-69" transform="translate(1683.383677 0.015625)"/>
     <use xlink:href="#DejaVuSans-6d" transform="translate(1711.16688 0.015625)"/>
     <use xlink:href="#DejaVuSans-28" transform="translate(1808.578989 0.015625)"/>
     <use xlink:href="#DejaVuSans-Oblique-55" transform="translate(1847.592661 0.015625)"/>
     <use xlink:href="#DejaVuSans-2229" transform="translate(1940.268442 0.015625)"/>
     <use xlink:href="#DejaVuSans-Oblique-57" transform="translate(2032.944224 0.015625)"/>
     <use xlink:href="#DejaVuSans-29" transform="translate(2131.821177 0.015625)"/>
    </g>
   </g>
  </g>
 </g>
 <defs>
  <clipPath id="p08bb63857e">
   <rect x="7.2" y="22.318125" width="474.3" height="205.53"/>
  </clipPath>
 </defs>
</svg>
