<svg xmlns="http://www.w3.org/2000/svg" viewBox="0 0 600 380" font-family="Georgia, 'Times New Roman', serif">
  <defs>
    <marker id="arrBlue" viewBox="0 0 10 10" refX="9" refY="5" markerWidth="7" markerHeight="7" orient="auto-start-reverse">
      <path d="M 0 0 L 10 5 L 0 10 z" fill="#1f4e79"/>
    </marker>
    <marker id="arrRed" viewBox="0 0 10 10" refX="9" refY="5" markerWidth="7" markerHeight="7" orient="auto-start-reverse">
      <path d="M 0 0 L 10 5 L 0 10 z" fill="#c0392b"/>
    </marker>
  </defs>

  <style>
    .grid { stroke: #eaeaea; stroke-width: 1; }
    .axis { stroke: #999; stroke-width: 1.2; }
    .vec-blue { stroke: #1f4e79; stroke-width: 2.5; fill: none; }
    .vec-red { stroke: #c0392b; stroke-width: 2.5; fill: none; }
    .ghost { stroke: #888; stroke-width: 1.2; stroke-dasharray: 5 4; fill: none; }
    .label { font-size: 17px; font-style: italic; }
    .caption { font-size: 14px; fill: #555; }
    .title { font-size: 15px; fill: #333; }
  </style>

  <!-- Title at top, centered in the 600-wide viewBox -->
  <text x="300" y="30" text-anchor="middle" class="title">w = e₁ + e₂ is already in span(e₁, e₂) — it is redundant</text>

  <!-- Grid: origin at (210, 240). 80px units. Plot frame x∈[90,390], y∈[80,320].
       Centered horizontally inside the 600-wide viewBox so labels have margin on both sides. -->
  <g class="grid">
    <line x1="130" y1="80"  x2="130" y2="320"/>
    <line x1="210" y1="80"  x2="210" y2="320"/>
    <line x1="290" y1="80"  x2="290" y2="320"/>
    <line x1="370" y1="80"  x2="370" y2="320"/>
    <line x1="90"  y1="160" x2="450" y2="160"/>
    <line x1="90"  y1="240" x2="450" y2="240"/>
    <line x1="90"  y1="320" x2="450" y2="320"/>
  </g>

  <!-- axes -->
  <line x1="90"  y1="240" x2="450" y2="240" class="axis"/>
  <line x1="210" y1="80"  x2="210" y2="320" class="axis"/>

  <!-- e1 = (1,0): from (210,240) to (290,240) -->
  <line x1="210" y1="240" x2="290" y2="240" class="vec-blue" marker-end="url(#arrBlue)"/>
  <!-- e2 = (0,1): from (210,240) to (210,160) -->
  <line x1="210" y1="240" x2="210" y2="160" class="vec-blue" marker-end="url(#arrBlue)"/>
  <!-- w = e1+e2: from (210,240) to (290,160) -->
  <line x1="210" y1="240" x2="290" y2="160" class="vec-red" marker-end="url(#arrRed)"/>

  <!-- parallelogram completing w = e1 + e2 -->
  <line x1="290" y1="240" x2="290" y2="160" class="ghost"/>
  <line x1="210" y1="160" x2="290" y2="160" class="ghost"/>

  <!-- labels: place clear of arrows; e1 below its arrow, e2 left of its arrow, w to the right of its tip -->
  <text x="248" y="260" class="label" fill="#1f4e79">e₁</text>
  <text x="190" y="204" class="label" fill="#1f4e79" text-anchor="end">e₂</text>
  <text x="298" y="155" class="label" fill="#c0392b">w</text>

  <!-- origin -->
  <circle cx="210" cy="240" r="3" fill="#333"/>
  <text x="202" y="260" class="caption" text-anchor="end">0</text>

  <!-- Caption: split into two short lines so neither overflows the 600px width. -->
  <text x="300" y="350" text-anchor="middle" class="caption">Adding w to {e₁, e₂} does not enlarge the span.</text>
  <text x="300" y="370" text-anchor="middle" class="caption">span(e₁, e₂, w) = span(e₁, e₂) = ℝ²</text>
</svg>
